#N canvas 1 85 438 370 10;
#X obj 120 48 loadbang;
#X obj 55 95 GEMglClear;
#X obj 120 72 GLdefine GL_DEPTH_BUFFER_BIT;
#X obj 55 19 inlet;
#X obj 55 141 outlet;
#X obj 182 50 bng 15 250 50 0 empty empty empty 0 -6 0 8 -262144 -1
-1;
#X connect 0 0 2 0;
#X connect 1 0 4 0;
#X connect 2 0 1 1;
#X connect 3 0 1 0;
#X connect 5 0 2 0;
