#N canvas 661 496 834 458 10;
#X obj 67 77 notein;
#X obj 67 116 poly 5;
#X obj 67 291 s from_i-score;
#X msg 36 24 60;
#X msg 67 23 62;
#X obj 39 53 makenote 127 500;
#X obj 147 144 * 5;
#X obj 147 123 - 1;
#X obj 67 206 +;
#X obj 186 115 r polyphony;
#X obj 233 56 metro 1000;
#X obj 235 35 tgl 15 0 empty empty empty 17 7 0 10 -262144 -1 -1 0
1;
#N canvas 956 637 852 437 ctlmap 1;
#N canvas 1 112 801 438 color 0;
#X obj 43 34 ctlin 0;
#X obj 43 56 / 127;
#X obj 43 380 s from_i-score;
#X obj 43 325 pack 0 0;
#X obj 43 121 f;
#X obj 43 78 t b f;
#X obj 43 162 * 5;
#X obj 43 141 - 1;
#X obj 86 124 r polyphony;
#X obj 43 210 f 5;
#X obj 43 232 until;
#X obj 43 254 f;
#X obj 43 276 + 1;
#X msg 83 232 0;
#X obj 43 184 t b b f;
#X obj 43 298 +;
#X obj 136 64 unpack;
#X floatatom 136 20 5 0 127 0 - - -, f 5;
#X floatatom 176 20 5 0 127 0 - - -, f 5;
#X msg 136 39 \$1 1;
#X msg 176 39 \$1 2;
#X obj 283 56 / 127;
#X obj 283 380 s from_i-score;
#X obj 283 325 pack 0 0;
#X obj 283 121 f;
#X obj 283 78 t b f;
#X obj 283 162 * 5;
#X obj 283 141 - 1;
#X obj 326 124 r polyphony;
#X obj 283 210 f 5;
#X obj 283 232 until;
#X obj 283 254 f;
#X obj 283 276 + 1;
#X msg 323 232 0;
#X obj 283 184 t b b f;
#X obj 283 298 +;
#X obj 376 64 unpack;
#X floatatom 376 20 5 0 127 0 - - -, f 5;
#X floatatom 416 20 5 0 127 0 - - -, f 5;
#X msg 376 39 \$1 1;
#X msg 416 39 \$1 2;
#X obj 283 34 ctlin 1;
#X msg 43 346 /banniere/video_player/\$1/color/r \$2;
#X msg 283 346 /banniere/video_player/\$1/color/g \$2;
#X obj 533 56 / 127;
#X obj 533 380 s from_i-score;
#X obj 533 325 pack 0 0;
#X obj 533 121 f;
#X obj 533 78 t b f;
#X obj 533 162 * 5;
#X obj 533 141 - 1;
#X obj 576 124 r polyphony;
#X obj 533 210 f 5;
#X obj 533 232 until;
#X obj 533 254 f;
#X obj 533 276 + 1;
#X msg 573 232 0;
#X obj 533 184 t b b f;
#X obj 533 298 +;
#X obj 626 64 unpack;
#X floatatom 626 20 5 0 127 0 - - -, f 5;
#X floatatom 666 20 5 0 127 0 - - -, f 5;
#X msg 626 39 \$1 1;
#X msg 666 39 \$1 2;
#X obj 533 34 ctlin 2;
#X msg 533 346 /banniere/video_player/\$1/color/b \$2;
#X obj 568 285 * 1;
#X obj 318 285 * 1;
#X obj 78 285 * 1;
#X connect 0 0 1 0;
#X connect 0 1 4 1;
#X connect 1 0 5 0;
#X connect 3 0 42 0;
#X connect 4 0 7 0;
#X connect 5 0 4 0;
#X connect 5 1 68 0;
#X connect 6 0 14 0;
#X connect 7 0 6 0;
#X connect 8 0 6 1;
#X connect 8 0 9 1;
#X connect 9 0 10 0;
#X connect 10 0 11 0;
#X connect 11 0 12 0;
#X connect 12 0 11 1;
#X connect 12 0 15 0;
#X connect 13 0 11 1;
#X connect 14 0 9 0;
#X connect 14 1 13 0;
#X connect 14 2 15 1;
#X connect 15 0 3 0;
#X connect 16 0 1 0;
#X connect 16 1 4 1;
#X connect 17 0 19 0;
#X connect 18 0 20 0;
#X connect 19 0 16 0;
#X connect 20 0 16 0;
#X connect 21 0 25 0;
#X connect 23 0 43 0;
#X connect 24 0 27 0;
#X connect 25 0 24 0;
#X connect 25 1 67 0;
#X connect 26 0 34 0;
#X connect 27 0 26 0;
#X connect 28 0 26 1;
#X connect 28 0 29 1;
#X connect 29 0 30 0;
#X connect 30 0 31 0;
#X connect 31 0 32 0;
#X connect 32 0 31 1;
#X connect 32 0 35 0;
#X connect 33 0 31 1;
#X connect 34 0 29 0;
#X connect 34 1 33 0;
#X connect 34 2 35 1;
#X connect 35 0 23 0;
#X connect 36 0 21 0;
#X connect 36 1 24 1;
#X connect 37 0 39 0;
#X connect 38 0 40 0;
#X connect 39 0 36 0;
#X connect 40 0 36 0;
#X connect 41 0 21 0;
#X connect 41 1 24 1;
#X connect 42 0 2 0;
#X connect 43 0 22 0;
#X connect 44 0 48 0;
#X connect 46 0 65 0;
#X connect 47 0 50 0;
#X connect 48 0 47 0;
#X connect 48 1 66 0;
#X connect 49 0 57 0;
#X connect 50 0 49 0;
#X connect 51 0 49 1;
#X connect 51 0 52 1;
#X connect 52 0 53 0;
#X connect 53 0 54 0;
#X connect 54 0 55 0;
#X connect 55 0 54 1;
#X connect 55 0 58 0;
#X connect 56 0 54 1;
#X connect 57 0 52 0;
#X connect 57 1 56 0;
#X connect 57 2 58 1;
#X connect 58 0 46 0;
#X connect 59 0 44 0;
#X connect 59 1 47 1;
#X connect 60 0 62 0;
#X connect 61 0 63 0;
#X connect 62 0 59 0;
#X connect 63 0 59 0;
#X connect 64 0 44 0;
#X connect 64 1 47 1;
#X connect 65 0 45 0;
#X connect 66 0 46 1;
#X connect 67 0 23 1;
#X connect 68 0 3 1;
#X restore 10 8 pd color;
#N canvas 689 620 546 438 scale 0;
#X obj 43 380 s from_i-score;
#X obj 43 325 pack 0 0;
#X obj 43 121 f;
#X obj 43 78 t b f;
#X obj 43 162 * 5;
#X obj 43 141 - 1;
#X obj 86 124 r polyphony;
#X obj 43 210 f 5;
#X obj 43 232 until;
#X obj 43 254 f;
#X obj 43 276 + 1;
#X msg 83 232 0;
#X obj 43 184 t b b f;
#X obj 43 298 +;
#X obj 136 64 unpack;
#X floatatom 136 20 5 0 127 0 - - -, f 5;
#X floatatom 176 20 5 0 127 0 - - -, f 5;
#X msg 136 39 \$1 1;
#X obj 283 380 s from_i-score;
#X obj 283 325 pack 0 0;
#X obj 283 121 f;
#X obj 283 78 t b f;
#X obj 283 162 * 5;
#X obj 283 141 - 1;
#X obj 326 124 r polyphony;
#X obj 283 210 f 5;
#X obj 283 232 until;
#X obj 283 254 f;
#X obj 283 276 + 1;
#X msg 323 232 0;
#X obj 283 184 t b b f;
#X obj 283 298 +;
#X obj 376 64 unpack;
#X floatatom 376 20 5 0 127 0 - - -, f 5;
#X floatatom 416 20 5 0 127 0 - - -, f 5;
#X msg 376 39 \$1 1;
#X msg 416 39 \$1 2;
#X obj 318 285 * 1;
#X obj 78 285 * 1;
#X msg 43 346 /banniere/video_player/\$1/scale/x \$2;
#X msg 283 346 /banniere/video_player/\$1/scale/y \$2;
#X obj 43 34 ctlin 10;
#X obj 283 34 ctlin 11;
#X msg 176 39 \$1 3;
#X obj 43 56 / 64;
#X obj 283 56 / 64;
#X connect 1 0 39 0;
#X connect 2 0 5 0;
#X connect 3 0 2 0;
#X connect 3 1 38 0;
#X connect 4 0 12 0;
#X connect 5 0 4 0;
#X connect 6 0 4 1;
#X connect 6 0 7 1;
#X connect 7 0 8 0;
#X connect 8 0 9 0;
#X connect 9 0 10 0;
#X connect 10 0 9 1;
#X connect 10 0 13 0;
#X connect 11 0 9 1;
#X connect 12 0 7 0;
#X connect 12 1 11 0;
#X connect 12 2 13 1;
#X connect 13 0 1 0;
#X connect 14 0 44 0;
#X connect 14 1 2 1;
#X connect 15 0 17 0;
#X connect 16 0 43 0;
#X connect 17 0 14 0;
#X connect 19 0 40 0;
#X connect 20 0 23 0;
#X connect 21 0 20 0;
#X connect 21 1 37 0;
#X connect 22 0 30 0;
#X connect 23 0 22 0;
#X connect 24 0 22 1;
#X connect 24 0 25 1;
#X connect 25 0 26 0;
#X connect 26 0 27 0;
#X connect 27 0 28 0;
#X connect 28 0 27 1;
#X connect 28 0 31 0;
#X connect 29 0 27 1;
#X connect 30 0 25 0;
#X connect 30 1 29 0;
#X connect 30 2 31 1;
#X connect 31 0 19 0;
#X connect 32 0 45 0;
#X connect 32 1 20 1;
#X connect 33 0 35 0;
#X connect 34 0 36 0;
#X connect 35 0 32 0;
#X connect 36 0 32 0;
#X connect 37 0 19 1;
#X connect 38 0 1 1;
#X connect 39 0 0 0;
#X connect 40 0 18 0;
#X connect 41 0 44 0;
#X connect 41 1 2 1;
#X connect 42 0 45 0;
#X connect 42 1 20 1;
#X connect 43 0 14 0;
#X connect 44 0 3 0;
#X connect 45 0 21 0;
#X restore 10 28 pd scale;
#N canvas 1091 607 450 300 MIDI 0;
#X text 13 51 Ctl 0-3 -> color rgb;
#X text 14 4 channel 1 : banniere 1;
#X text 14 15 channel 2 : banniere 2;
#X text 14 26 channel 3 : banniere 3;
#X text 13 71 Ctl 10-11 -> scale xy;
#X text 13 91 Ctl 10-11 -> scale xy;
#X text 13 111 Ctl 15-16 -> position xy;
#X text 13 131 Ctl 18-20 -> rotate xyz;
#X text 13 151 Ctl 21-23 -> ADSR a \, d \, r;
#X restore 320 67 pd MIDI CHART LIST;
#N canvas 564 637 828 438 position 0;
#X obj 43 56 / 127;
#X obj 43 380 s from_i-score;
#X obj 43 325 pack 0 0;
#X obj 43 121 f;
#X obj 43 78 t b f;
#X obj 43 162 * 5;
#X obj 43 141 - 1;
#X obj 86 124 r polyphony;
#X obj 43 210 f 5;
#X obj 43 232 until;
#X obj 43 254 f;
#X obj 43 276 + 1;
#X msg 83 232 0;
#X obj 43 184 t b b f;
#X obj 43 298 +;
#X obj 136 64 unpack;
#X floatatom 136 20 5 0 127 0 - - -, f 5;
#X floatatom 176 20 5 0 127 0 - - -, f 5;
#X msg 136 39 \$1 1;
#X msg 176 39 \$1 2;
#X obj 293 56 / 127;
#X obj 293 380 s from_i-score;
#X obj 293 325 pack 0 0;
#X obj 293 121 f;
#X obj 293 78 t b f;
#X obj 293 162 * 5;
#X obj 293 141 - 1;
#X obj 336 124 r polyphony;
#X obj 293 210 f 5;
#X obj 293 232 until;
#X obj 293 254 f;
#X obj 293 276 + 1;
#X msg 333 232 0;
#X obj 293 184 t b b f;
#X obj 293 298 +;
#X obj 386 64 unpack;
#X floatatom 386 20 5 0 127 0 - - -, f 5;
#X floatatom 426 20 5 0 127 0 - - -, f 5;
#X msg 386 39 \$1 1;
#X msg 426 39 \$1 2;
#X msg 43 346 /banniere/video_player/\$1/position/x \$2;
#X msg 293 346 /banniere/video_player/\$1/position/y \$2;
#X obj 43 34 ctlin 15;
#X obj 293 34 ctlin 16;
#X obj 563 56 / 127;
#X obj 563 380 s from_i-score;
#X obj 563 325 pack 0 0;
#X obj 563 121 f;
#X obj 563 78 t b f;
#X obj 563 162 * 5;
#X obj 563 141 - 1;
#X obj 606 124 r polyphony;
#X obj 563 210 f 5;
#X obj 563 232 until;
#X obj 563 254 f;
#X obj 563 276 + 1;
#X msg 603 232 0;
#X obj 563 184 t b b f;
#X obj 563 298 +;
#X obj 656 64 unpack;
#X floatatom 656 20 5 0 127 0 - - -, f 5;
#X floatatom 696 20 5 0 127 0 - - -, f 5;
#X msg 656 39 \$1 1;
#X msg 696 39 \$1 2;
#X obj 598 285 * 1;
#X obj 563 34 ctlin 17;
#X msg 563 346 /banniere/video_player/\$1/position/z \$2;
#X obj 87 265 * 26;
#X obj 87 287 - 13;
#X obj 338 264 * 14;
#X obj 338 286 - 7;
#X connect 0 0 4 0;
#X connect 2 0 40 0;
#X connect 3 0 6 0;
#X connect 4 0 3 0;
#X connect 4 1 67 0;
#X connect 5 0 13 0;
#X connect 6 0 5 0;
#X connect 7 0 5 1;
#X connect 7 0 8 1;
#X connect 8 0 9 0;
#X connect 9 0 10 0;
#X connect 10 0 11 0;
#X connect 11 0 10 1;
#X connect 11 0 14 0;
#X connect 12 0 10 1;
#X connect 13 0 8 0;
#X connect 13 1 12 0;
#X connect 13 2 14 1;
#X connect 14 0 2 0;
#X connect 15 0 0 0;
#X connect 15 1 3 1;
#X connect 16 0 18 0;
#X connect 17 0 19 0;
#X connect 18 0 15 0;
#X connect 19 0 15 0;
#X connect 20 0 24 0;
#X connect 22 0 41 0;
#X connect 23 0 26 0;
#X connect 24 0 23 0;
#X connect 24 1 69 0;
#X connect 25 0 33 0;
#X connect 26 0 25 0;
#X connect 27 0 25 1;
#X connect 27 0 28 1;
#X connect 28 0 29 0;
#X connect 29 0 30 0;
#X connect 30 0 31 0;
#X connect 31 0 30 1;
#X connect 31 0 34 0;
#X connect 32 0 30 1;
#X connect 33 0 28 0;
#X connect 33 1 32 0;
#X connect 33 2 34 1;
#X connect 34 0 22 0;
#X connect 35 0 20 0;
#X connect 35 1 23 1;
#X connect 36 0 38 0;
#X connect 37 0 39 0;
#X connect 38 0 35 0;
#X connect 39 0 35 0;
#X connect 40 0 1 0;
#X connect 41 0 21 0;
#X connect 42 0 0 0;
#X connect 42 1 3 1;
#X connect 43 0 20 0;
#X connect 43 1 23 1;
#X connect 44 0 48 0;
#X connect 46 0 66 0;
#X connect 47 0 50 0;
#X connect 48 0 47 0;
#X connect 48 1 64 0;
#X connect 49 0 57 0;
#X connect 50 0 49 0;
#X connect 51 0 49 1;
#X connect 51 0 52 1;
#X connect 52 0 53 0;
#X connect 53 0 54 0;
#X connect 54 0 55 0;
#X connect 55 0 54 1;
#X connect 55 0 58 0;
#X connect 56 0 54 1;
#X connect 57 0 52 0;
#X connect 57 1 56 0;
#X connect 57 2 58 1;
#X connect 58 0 46 0;
#X connect 59 0 44 0;
#X connect 59 1 47 1;
#X connect 60 0 62 0;
#X connect 61 0 63 0;
#X connect 62 0 59 0;
#X connect 63 0 59 0;
#X connect 64 0 46 1;
#X connect 65 0 44 0;
#X connect 65 1 47 1;
#X connect 66 0 45 0;
#X connect 67 0 68 0;
#X connect 68 0 2 1;
#X connect 69 0 70 0;
#X connect 70 0 22 1;
#X restore 10 48 pd position;
#N canvas 938 620 828 438 rotate 0;
#X obj 43 56 / 127;
#X obj 43 380 s from_i-score;
#X obj 43 325 pack 0 0;
#X obj 43 121 f;
#X obj 43 78 t b f;
#X obj 43 162 * 5;
#X obj 43 141 - 1;
#X obj 86 124 r polyphony;
#X obj 43 210 f 5;
#X obj 43 232 until;
#X obj 43 254 f;
#X obj 43 276 + 1;
#X msg 83 232 0;
#X obj 43 184 t b b f;
#X obj 43 298 +;
#X obj 136 64 unpack;
#X floatatom 136 20 5 0 127 0 - - -, f 5;
#X floatatom 176 20 5 0 127 0 - - -, f 5;
#X msg 136 39 \$1 1;
#X msg 176 39 \$1 2;
#X obj 293 56 / 127;
#X obj 293 380 s from_i-score;
#X obj 293 325 pack 0 0;
#X obj 293 121 f;
#X obj 293 78 t b f;
#X obj 293 162 * 5;
#X obj 293 141 - 1;
#X obj 336 124 r polyphony;
#X obj 293 210 f 5;
#X obj 293 232 until;
#X obj 293 254 f;
#X obj 293 276 + 1;
#X msg 333 232 0;
#X obj 293 184 t b b f;
#X obj 293 298 +;
#X obj 386 64 unpack;
#X floatatom 386 20 5 0 127 0 - - -, f 5;
#X floatatom 426 20 5 0 127 0 - - -, f 5;
#X msg 386 39 \$1 1;
#X msg 426 39 \$1 2;
#X obj 563 56 / 127;
#X obj 563 380 s from_i-score;
#X obj 563 325 pack 0 0;
#X obj 563 121 f;
#X obj 563 78 t b f;
#X obj 563 162 * 5;
#X obj 563 141 - 1;
#X obj 606 124 r polyphony;
#X obj 563 210 f 5;
#X obj 563 232 until;
#X obj 563 254 f;
#X obj 563 276 + 1;
#X msg 603 232 0;
#X obj 563 184 t b b f;
#X obj 563 298 +;
#X obj 656 64 unpack;
#X floatatom 656 20 5 0 127 0 - - -, f 5;
#X floatatom 696 20 5 0 127 0 - - -, f 5;
#X msg 656 39 \$1 1;
#X msg 696 39 \$1 2;
#X msg 43 346 /banniere/video_player/\$1/rotate/x \$2;
#X msg 293 346 /banniere/video_player/\$1/rotate/y \$2;
#X obj 328 285 * 360;
#X obj 78 285 * 360;
#X obj 43 34 ctlin 18;
#X obj 293 34 ctlin 19;
#X obj 563 34 ctlin 20;
#X msg 563 346 /banniere/video_player/\$1/rotate/z \$2;
#X obj 184 384 print;
#X obj 598 285 * 360;
#X connect 0 0 4 0;
#X connect 2 0 60 0;
#X connect 3 0 6 0;
#X connect 4 0 3 0;
#X connect 4 1 63 0;
#X connect 5 0 13 0;
#X connect 6 0 5 0;
#X connect 7 0 5 1;
#X connect 7 0 8 1;
#X connect 8 0 9 0;
#X connect 9 0 10 0;
#X connect 10 0 11 0;
#X connect 11 0 10 1;
#X connect 11 0 14 0;
#X connect 12 0 10 1;
#X connect 13 0 8 0;
#X connect 13 1 12 0;
#X connect 13 2 14 1;
#X connect 14 0 2 0;
#X connect 15 0 0 0;
#X connect 15 1 3 1;
#X connect 16 0 18 0;
#X connect 17 0 19 0;
#X connect 18 0 15 0;
#X connect 19 0 15 0;
#X connect 20 0 24 0;
#X connect 22 0 61 0;
#X connect 23 0 26 0;
#X connect 24 0 23 0;
#X connect 24 1 62 0;
#X connect 25 0 33 0;
#X connect 26 0 25 0;
#X connect 27 0 25 1;
#X connect 27 0 28 1;
#X connect 28 0 29 0;
#X connect 29 0 30 0;
#X connect 30 0 31 0;
#X connect 31 0 30 1;
#X connect 31 0 34 0;
#X connect 32 0 30 1;
#X connect 33 0 28 0;
#X connect 33 1 32 0;
#X connect 33 2 34 1;
#X connect 34 0 22 0;
#X connect 35 0 20 0;
#X connect 35 1 23 1;
#X connect 36 0 38 0;
#X connect 37 0 39 0;
#X connect 38 0 35 0;
#X connect 39 0 35 0;
#X connect 40 0 44 0;
#X connect 42 0 67 0;
#X connect 43 0 46 0;
#X connect 44 0 43 0;
#X connect 44 1 69 0;
#X connect 45 0 53 0;
#X connect 46 0 45 0;
#X connect 47 0 45 1;
#X connect 47 0 48 1;
#X connect 48 0 49 0;
#X connect 49 0 50 0;
#X connect 50 0 51 0;
#X connect 51 0 50 1;
#X connect 51 0 54 0;
#X connect 52 0 50 1;
#X connect 53 0 48 0;
#X connect 53 1 52 0;
#X connect 53 2 54 1;
#X connect 54 0 42 0;
#X connect 55 0 40 0;
#X connect 55 1 43 1;
#X connect 56 0 58 0;
#X connect 57 0 59 0;
#X connect 58 0 55 0;
#X connect 59 0 55 0;
#X connect 60 0 1 0;
#X connect 60 0 68 0;
#X connect 61 0 21 0;
#X connect 62 0 22 1;
#X connect 63 0 2 1;
#X connect 64 0 0 0;
#X connect 64 1 3 1;
#X connect 65 0 20 0;
#X connect 65 1 23 1;
#X connect 66 0 40 0;
#X connect 66 1 43 1;
#X connect 67 0 41 0;
#X connect 69 0 42 1;
#X restore 10 68 pd rotate;
#N canvas 611 630 828 438 adsr 0;
#X obj 43 380 s from_i-score;
#X obj 43 325 pack 0 0;
#X obj 43 121 f;
#X obj 43 78 t b f;
#X obj 43 162 * 5;
#X obj 43 141 - 1;
#X obj 86 124 r polyphony;
#X obj 43 210 f 5;
#X obj 43 232 until;
#X obj 43 254 f;
#X obj 43 276 + 1;
#X msg 83 232 0;
#X obj 43 184 t b b f;
#X obj 43 298 +;
#X obj 136 64 unpack;
#X floatatom 136 20 5 0 127 0 - - -, f 5;
#X floatatom 176 20 5 0 127 0 - - -, f 5;
#X msg 136 39 \$1 1;
#X msg 176 39 \$1 2;
#X msg 43 346 /banniere/video_player/\$1/adsr/a \$2;
#X obj 293 380 s from_i-score;
#X obj 293 325 pack 0 0;
#X obj 293 121 f;
#X obj 293 78 t b f;
#X obj 293 162 * 5;
#X obj 293 141 - 1;
#X obj 336 124 r polyphony;
#X obj 293 210 f 5;
#X obj 293 232 until;
#X obj 293 254 f;
#X obj 293 276 + 1;
#X msg 333 232 0;
#X obj 293 184 t b b f;
#X obj 293 298 +;
#X obj 386 64 unpack;
#X floatatom 386 20 5 0 127 0 - - -, f 5;
#X floatatom 426 20 5 0 127 0 - - -, f 5;
#X msg 386 39 \$1 1;
#X msg 426 39 \$1 2;
#X obj 543 380 s from_i-score;
#X obj 543 325 pack 0 0;
#X obj 543 121 f;
#X obj 543 78 t b f;
#X obj 543 162 * 5;
#X obj 543 141 - 1;
#X obj 586 124 r polyphony;
#X obj 543 210 f 5;
#X obj 543 232 until;
#X obj 543 254 f;
#X obj 543 276 + 1;
#X msg 583 232 0;
#X obj 543 184 t b b f;
#X obj 543 298 +;
#X obj 636 64 unpack;
#X floatatom 636 20 5 0 127 0 - - -, f 5;
#X floatatom 676 20 5 0 127 0 - - -, f 5;
#X msg 636 39 \$1 1;
#X msg 676 39 \$1 2;
#X msg 293 346 /banniere/video_player/\$1/adsr/d \$2;
#X msg 543 346 /banniere/video_player/\$1/adsr/r \$2;
#X obj 43 34 ctlin 21;
#X obj 293 34 ctlin 22;
#X obj 543 34 ctlin 23;
#X obj 86 281 / 127;
#X obj 358 277 / 127;
#X obj 607 285 / 127;
#X connect 1 0 19 0;
#X connect 2 0 5 0;
#X connect 3 0 2 0;
#X connect 3 1 63 0;
#X connect 4 0 12 0;
#X connect 5 0 4 0;
#X connect 6 0 4 1;
#X connect 6 0 7 1;
#X connect 7 0 8 0;
#X connect 8 0 9 0;
#X connect 9 0 10 0;
#X connect 10 0 9 1;
#X connect 10 0 13 0;
#X connect 11 0 9 1;
#X connect 12 0 7 0;
#X connect 12 1 11 0;
#X connect 12 2 13 1;
#X connect 13 0 1 0;
#X connect 14 0 3 0;
#X connect 14 1 2 1;
#X connect 15 0 17 0;
#X connect 16 0 18 0;
#X connect 17 0 14 0;
#X connect 18 0 14 0;
#X connect 19 0 0 0;
#X connect 21 0 58 0;
#X connect 22 0 25 0;
#X connect 23 0 22 0;
#X connect 23 1 64 0;
#X connect 24 0 32 0;
#X connect 25 0 24 0;
#X connect 26 0 24 1;
#X connect 26 0 27 1;
#X connect 27 0 28 0;
#X connect 28 0 29 0;
#X connect 29 0 30 0;
#X connect 30 0 29 1;
#X connect 30 0 33 0;
#X connect 31 0 29 1;
#X connect 32 0 27 0;
#X connect 32 1 31 0;
#X connect 32 2 33 1;
#X connect 33 0 21 0;
#X connect 34 0 23 0;
#X connect 34 1 22 1;
#X connect 35 0 37 0;
#X connect 36 0 38 0;
#X connect 37 0 34 0;
#X connect 38 0 34 0;
#X connect 40 0 59 0;
#X connect 41 0 44 0;
#X connect 42 0 41 0;
#X connect 42 1 65 0;
#X connect 43 0 51 0;
#X connect 44 0 43 0;
#X connect 45 0 43 1;
#X connect 45 0 46 1;
#X connect 46 0 47 0;
#X connect 47 0 48 0;
#X connect 48 0 49 0;
#X connect 49 0 48 1;
#X connect 49 0 52 0;
#X connect 50 0 48 1;
#X connect 51 0 46 0;
#X connect 51 1 50 0;
#X connect 51 2 52 1;
#X connect 52 0 40 0;
#X connect 53 0 42 0;
#X connect 53 1 41 1;
#X connect 54 0 56 0;
#X connect 55 0 57 0;
#X connect 56 0 53 0;
#X connect 57 0 53 0;
#X connect 58 0 20 0;
#X connect 59 0 39 0;
#X connect 60 0 3 0;
#X connect 60 1 2 1;
#X connect 61 0 23 0;
#X connect 61 1 22 1;
#X connect 62 0 42 0;
#X connect 62 1 41 1;
#X connect 63 0 1 1;
#X connect 64 0 21 1;
#X connect 65 0 40 1;
#X restore 10 88 pd adsr;
#X restore 481 166 pd ctlmap;
#X msg 67 267 /banniere/video_player/\$1/midi/note \$2 \$3;
#X obj 67 242 pack 0 0 0;
#X floatatom 182 200 5 0 0 0 - - -, f 5;
#X connect 0 0 1 0;
#X connect 0 1 1 1;
#X connect 0 2 7 0;
#X connect 1 0 8 0;
#X connect 1 1 14 1;
#X connect 1 2 14 2;
#X connect 1 2 15 0;
#X connect 3 0 5 0;
#X connect 4 0 5 0;
#X connect 5 0 1 0;
#X connect 5 1 1 1;
#X connect 6 0 8 1;
#X connect 7 0 6 0;
#X connect 8 0 14 0;
#X connect 9 0 6 1;
#X connect 10 0 4 0;
#X connect 11 0 10 0;
#X connect 13 0 2 0;
#X connect 14 0 13 0;
