#N canvas 562 438 653 557 10;
#X obj 91 239 pix_info, f 20;
#X obj 91 191 t b a;
#X obj 91 296 t b a;
#X obj 136 460 list trim;
#X obj 136 480 s to_PixelPusher;
#X obj 63 438 list length;
#X floatatom 63 460 5 0 0 0 - - -, f 5;
#X obj 91 375 pix_dump;
#X obj 128 320 loadbang;
#X floatatom 133 275 5 0 0 0 - - -, f 5;
#X floatatom 167 276 5 0 0 0 - - -, f 5;
#X obj 57 19 inlet;
#X obj 171 86 loadbang;
#X obj 171 108 \$1;
#X msg 128 340 RGB \, bytemode 1;
#X msg 171 153 0 \$1;
#X obj 57 69 pix_coordinate;
#X obj 317 93 pack f f;
#X floatatom 356 26 6 0 0 0 - - -, f 6;
#X obj 356 60 t b f;
#X floatatom 317 25 5 0 0 0 - - -, f 5;
#X obj 459 255 + 0.2;
#X obj 432 224 t f f;
#X obj 57 41 separator;
#X obj 432 74 loadbang;
#X floatatom 207 119 5 0 0 0 - - -, f 5;
#X floatatom 211 157 5 0 0 0 - - -, f 5;
#X obj 136 438 list prepend sendtyped /r ib \$1;
#X msg 122 6 0 0 \$1 0 \$1 \$2 0 \$2;
#X msg 463 40 \$1 \$1 0 \$1 0 0 \$1 0;
#X floatatom 463 23 3 0 256 0 - - -, f 3;
#X text 457 138 numéro de ligne;
#X obj 432 139 \$1;
#X obj 486 234 /;
#X obj 491 76 bng 15 250 50 0 empty empty empty 17 7 0 10 -262144 -1
-1;
#X msg 138 31 0 \$1 1 \$1 1 \$2 0 \$2;
#X obj 57 126 rectangle 4 4;
#X obj 432 182 -;
#X obj 432 96 t b b;
#X obj 92 216 pix_snap 0 0 192 1;
#X obj 432 202 / 32;
#X msg 486 212 1 32;
#X msg 432 161 31 \$1;
#X connect 0 0 2 0;
#X connect 0 1 9 0;
#X connect 0 2 10 0;
#X connect 1 0 39 0;
#X connect 1 1 39 0;
#X connect 2 0 7 0;
#X connect 2 1 7 0;
#X connect 3 0 4 0;
#X connect 5 0 6 0;
#X connect 7 1 5 0;
#X connect 7 1 27 0;
#X connect 8 0 14 0;
#X connect 11 0 23 0;
#X connect 12 0 13 0;
#X connect 13 0 15 0;
#X connect 14 0 7 0;
#X connect 15 0 39 1;
#X connect 16 0 36 0;
#X connect 17 0 35 0;
#X connect 18 0 19 0;
#X connect 19 0 17 0;
#X connect 19 1 17 1;
#X connect 20 0 17 0;
#X connect 21 0 17 1;
#X connect 22 0 17 0;
#X connect 22 1 21 0;
#X connect 23 0 16 0;
#X connect 24 0 38 0;
#X connect 25 0 13 0;
#X connect 26 0 15 0;
#X connect 27 0 3 0;
#X connect 28 0 16 1;
#X connect 29 0 16 1;
#X connect 30 0 29 0;
#X connect 32 0 42 0;
#X connect 33 0 21 1;
#X connect 34 0 38 0;
#X connect 35 0 16 1;
#X connect 36 0 1 0;
#X connect 37 0 40 0;
#X connect 38 0 32 0;
#X connect 38 1 41 0;
#X connect 39 0 0 0;
#X connect 40 0 22 0;
#X connect 41 0 33 0;
#X connect 42 0 37 0;
