#N canvas 1045 522 653 557 10;
#X obj 91 239 pix_info, f 20;
#X obj 91 191 t b a;
#X obj 91 296 t b a;
#X obj 136 460 list trim;
#X obj 136 480 s to_PixelPusher;
#X obj 63 438 list length;
#X floatatom 63 460 5 0 0 0 - - -, f 5;
#X obj 91 375 pix_dump;
#X obj 128 320 loadbang;
#X floatatom 133 275 5 0 0 0 - - -, f 5;
#X floatatom 167 276 5 0 0 0 - - -, f 5;
#X obj 57 19 inlet;
#X obj 171 86 loadbang;
#X obj 171 108 \$1;
#X msg 128 340 RGB \, bytemode 1;
#X msg 171 153 0 \$1;
#X obj 57 69 pix_coordinate;
#X msg 138 31 \$1 0 \$2 0 \$2 1 \$1 1;
#X obj 317 93 pack f f;
#X floatatom 356 26 5 0 0 0 - - -, f 5;
#X obj 356 60 t b f;
#X floatatom 317 25 5 0 0 0 - - -, f 5;
#X obj 57 100 rotateXYZ 0 0 90;
#X obj 327 142 / 5;
#X obj 354 185 + 0.2;
#X obj 327 164 t f f;
#X obj 57 41 separator;
#X floatatom 323 226 5 0 0 0 - - -, f 5;
#X floatatom 365 226 5 0 0 0 - - -, f 5;
#X obj 421 32 loadbang;
#X msg 421 54 0;
#X floatatom 207 119 5 0 0 0 - - -, f 5;
#X floatatom 211 157 5 0 0 0 - - -, f 5;
#X obj 136 438 list prepend sendtyped /s ib \$1;
#X obj 57 127 rectangle -4 4;
#X text 447 57 numéro de banniere;
#X obj 91 213 pix_snap 0 0 80 6;
#X obj 171 130 * 6;
#X connect 0 0 2 0;
#X connect 0 1 9 0;
#X connect 0 2 10 0;
#X connect 1 0 36 0;
#X connect 1 1 36 0;
#X connect 2 0 7 0;
#X connect 2 1 7 0;
#X connect 3 0 4 0;
#X connect 5 0 6 0;
#X connect 7 1 5 0;
#X connect 7 1 33 0;
#X connect 8 0 14 0;
#X connect 11 0 26 0;
#X connect 12 0 13 0;
#X connect 13 0 37 0;
#X connect 14 0 7 0;
#X connect 15 0 36 1;
#X connect 16 0 22 0;
#X connect 17 0 16 1;
#X connect 18 0 17 0;
#X connect 19 0 20 0;
#X connect 20 0 18 0;
#X connect 20 1 18 1;
#X connect 21 0 18 0;
#X connect 22 0 34 0;
#X connect 23 0 25 0;
#X connect 24 0 18 1;
#X connect 24 0 28 0;
#X connect 25 0 18 0;
#X connect 25 0 27 0;
#X connect 25 1 24 0;
#X connect 26 0 16 0;
#X connect 29 0 30 0;
#X connect 30 0 23 0;
#X connect 31 0 13 0;
#X connect 32 0 15 0;
#X connect 33 0 3 0;
#X connect 34 0 1 0;
#X connect 36 0 0 0;
#X connect 37 0 15 0;
