#N canvas 230 85 1228 970 10;
#X obj 51 462 pix_info, f 20;
#X obj 43 292 t b a;
#X obj 51 519 t b a;
#X obj 159 775 list trim;
#X obj 159 795 s to_PixelPusher;
#X obj 86 753 list length;
#X floatatom 86 775 5 0 0 0 - - -, f 5;
#X obj 51 598 pix_dump;
#X obj 88 543 loadbang;
#X floatatom 93 498 5 0 0 0 - - -, f 5;
#X floatatom 127 499 5 0 0 0 - - -, f 5;
#X obj 43 9 inlet;
#X obj 106 339 loadbang;
#X obj 106 361 \$1;
#X msg 88 563 RGB \, bytemode 1;
#X msg 106 406 0 \$1;
#X obj 43 200 pix_coordinate;
#X obj 334 123 pack f f;
#X floatatom 373 56 6 0 0 0 - - -, f 6;
#X obj 373 90 t b f;
#X floatatom 334 55 5 0 0 0 - - -, f 5;
#X obj 476 285 + 0.2;
#X obj 449 254 t f f;
#X obj 43 71 separator;
#X obj 449 104 loadbang;
#X floatatom 142 372 5 0 0 0 - - -, f 5;
#X floatatom 146 410 5 0 0 0 - - -, f 5;
#X obj 159 753 list prepend sendtyped /r ib \$1;
#X msg 108 137 0 0 \$1 0 \$1 \$2 0 \$2;
#X text 474 168 numéro de ligne;
#X obj 449 169 \$1;
#X obj 503 264 /;
#X obj 508 106 bng 15 250 50 0 empty empty empty 17 7 0 10 -262144
-1 -1;
#X msg 124 162 0 \$1 1 \$1 1 \$2 0 \$2;
#X obj 43 257 rectangle 4 4;
#X obj 449 212 -;
#X obj 449 126 t b b;
#X obj 658 554 pix_info, f 20;
#X obj 650 384 t b a;
#X obj 658 611 t b a;
#X obj 658 690 pix_dump;
#X obj 695 635 loadbang;
#X floatatom 700 590 5 0 0 0 - - -, f 5;
#X floatatom 734 591 5 0 0 0 - - -, f 5;
#X obj 713 431 loadbang;
#X obj 713 453 \$1;
#X msg 695 655 RGB \, bytemode 1;
#X msg 713 498 0 \$1;
#X obj 650 292 pix_coordinate;
#X obj 648 153 separator;
#X floatatom 749 464 5 0 0 0 - - -, f 5;
#X floatatom 753 502 5 0 0 0 - - -, f 5;
#X msg 715 229 0 0 \$1 0 \$1 \$2 0 \$2;
#X msg 731 254 0 \$1 1 \$1 1 \$2 0 \$2;
#X obj 650 349 rectangle 4 4;
#X obj 659 531 pix_snap 0 0 192 1;
#X obj 47 38 t a a;
#X obj 897 126 pack f f;
#X floatatom 936 59 6 0 0 0 - - -, f 6;
#X obj 936 93 t b f;
#X floatatom 897 58 5 0 0 0 - - -, f 5;
#X obj 1039 288 + 0.2;
#X obj 1012 257 t f f;
#X obj 1012 107 loadbang;
#X text 1037 151 numéro de ligne;
#X obj 1012 152 \$1;
#X obj 1066 267 /;
#X obj 1071 109 bng 15 250 50 0 empty empty empty 17 7 0 10 -262144
-1 -1;
#X obj 1012 215 -;
#X obj 1012 129 t b b;
#X msg 449 191 31 \$1;
#X obj 449 232 / 32;
#X msg 503 242 1 32;
#X msg 1012 194 31 \$1;
#X obj 1012 235 / 32;
#X msg 1066 245 1 32;
#X obj 1013 173 + 16;
#X obj 52 439 pix_snap 0 0 192 1;
#X obj 95 689 list trim;
#X obj 97 649 list append;
#X connect 0 0 2 0;
#X connect 0 1 9 0;
#X connect 0 2 10 0;
#X connect 1 0 77 0;
#X connect 1 1 77 0;
#X connect 2 0 7 0;
#X connect 2 1 7 0;
#X connect 3 0 4 0;
#X connect 5 0 6 0;
#X connect 7 1 79 0;
#X connect 8 0 14 0;
#X connect 11 0 56 0;
#X connect 12 0 13 0;
#X connect 13 0 15 0;
#X connect 14 0 7 0;
#X connect 15 0 77 1;
#X connect 16 0 34 0;
#X connect 17 0 33 0;
#X connect 18 0 19 0;
#X connect 19 0 17 0;
#X connect 19 1 17 1;
#X connect 20 0 17 0;
#X connect 21 0 17 1;
#X connect 22 0 17 0;
#X connect 22 1 21 0;
#X connect 23 0 16 0;
#X connect 24 0 36 0;
#X connect 25 0 13 0;
#X connect 26 0 15 0;
#X connect 27 0 3 0;
#X connect 28 0 16 1;
#X connect 30 0 70 0;
#X connect 31 0 21 1;
#X connect 32 0 36 0;
#X connect 33 0 16 1;
#X connect 34 0 1 0;
#X connect 35 0 71 0;
#X connect 36 0 30 0;
#X connect 36 1 72 0;
#X connect 37 0 39 0;
#X connect 37 1 42 0;
#X connect 37 2 43 0;
#X connect 38 0 55 0;
#X connect 38 1 55 0;
#X connect 39 0 40 0;
#X connect 39 1 40 0;
#X connect 40 1 79 1;
#X connect 41 0 46 0;
#X connect 44 0 45 0;
#X connect 45 0 47 0;
#X connect 46 0 40 0;
#X connect 47 0 55 1;
#X connect 48 0 54 0;
#X connect 49 0 48 0;
#X connect 50 0 45 0;
#X connect 51 0 47 0;
#X connect 52 0 48 1;
#X connect 53 0 48 1;
#X connect 54 0 38 0;
#X connect 55 0 37 0;
#X connect 56 0 23 0;
#X connect 56 1 49 0;
#X connect 57 0 53 0;
#X connect 58 0 59 0;
#X connect 59 0 57 0;
#X connect 59 1 57 1;
#X connect 60 0 57 0;
#X connect 61 0 57 1;
#X connect 62 0 57 0;
#X connect 62 1 61 0;
#X connect 63 0 69 0;
#X connect 65 0 76 0;
#X connect 66 0 61 1;
#X connect 67 0 69 0;
#X connect 68 0 74 0;
#X connect 69 0 65 0;
#X connect 69 1 75 0;
#X connect 70 0 35 0;
#X connect 71 0 22 0;
#X connect 72 0 31 0;
#X connect 73 0 68 0;
#X connect 74 0 62 0;
#X connect 75 0 66 0;
#X connect 76 0 73 0;
#X connect 77 0 0 0;
#X connect 78 0 27 0;
#X connect 78 0 5 0;
#X connect 79 0 78 0;
