#N canvas 869 444 420 552 10;
#X obj 91 239 pix_info, f 20;
#X obj 91 191 t b a;
#X obj 91 296 t b a;
#X obj 136 460 list trim;
#X obj 136 480 s to_PixelPusher;
#X obj 63 438 list length;
#X floatatom 63 460 5 0 0 0 - - -, f 5;
#X obj 91 375 pix_dump;
#X obj 190 313 loadbang;
#X floatatom 133 275 5 0 0 0 - - -, f 5;
#X floatatom 167 276 5 0 0 0 - - -, f 5;
#X obj 57 19 inlet;
#X msg 190 333 RGB \, bytemode 1;
#X msg 171 153 0 \$1;
#X obj 57 41 separator;
#X obj 136 438 list prepend sendtyped /s ib \$1;
#X obj 91 213 pix_snap 0 0 80 6;
#X obj 171 130 * 6;
#X obj 57 127 rectangle 4 -4;
#X obj 57 63 rotateXYZ 0 0 -90;
#X obj 286 28 loadbang;
#X obj 286 50 \$1;
#X obj 340 28 bng 15 250 50 0 empty empty empty 17 7 0 10 -262144 -1
-1;
#X obj 313 96 div 8;
#X obj 286 72 t f f;
#X obj 313 118 sel 0 1 2;
#X obj 286 213 +;
#X msg 313 141 16;
#X msg 350 141 -16;
#X msg 330 161 0;
#X connect 0 0 2 0;
#X connect 0 1 9 0;
#X connect 0 2 10 0;
#X connect 1 0 16 0;
#X connect 1 1 16 0;
#X connect 2 0 7 0;
#X connect 2 1 7 0;
#X connect 3 0 4 0;
#X connect 5 0 6 0;
#X connect 7 1 5 0;
#X connect 7 1 15 0;
#X connect 8 0 12 0;
#X connect 11 0 14 0;
#X connect 12 0 7 0;
#X connect 13 0 16 1;
#X connect 14 0 19 0;
#X connect 15 0 3 0;
#X connect 16 0 0 0;
#X connect 17 0 13 0;
#X connect 18 0 1 0;
#X connect 19 0 18 0;
#X connect 20 0 21 0;
#X connect 21 0 24 0;
#X connect 22 0 21 0;
#X connect 23 0 25 0;
#X connect 24 0 26 0;
#X connect 24 1 23 0;
#X connect 25 0 27 0;
#X connect 25 1 29 0;
#X connect 25 2 28 0;
#X connect 26 0 17 0;
#X connect 27 0 26 1;
#X connect 28 0 26 1;
#X connect 29 0 26 1;
