#N canvas 79 102 1651 953 10;
#X declare -path ../osc;
#X declare -path ../osc;
#X declare -path ../osc;
#X declare -path ../osc;
#X declare -path ../osc;
#X declare -path ../osc;
#X declare -path ../osc;
#X declare -path ../osc;
#X declare -path ../osc;
#X declare -path ../osc;
#X declare -path ../osc;
#X declare -path ../osc;
#X declare -path ../osc;
#X declare -path ../osc;
#X declare -path ../osc;
#X declare -path ../osc;
#X declare -path ../osc;
#X declare -path ../osc;
#X declare -path ../osc;
#X declare -path ../osc;
#X declare -path ../osc;
#X declare -path ../osc;
#X obj 239 260 separator;
#X msg 141 413 quality 0;
#X obj 141 393 loadbang;
#X obj 212 229 t a a;
#X obj 239 450 pix_texture;
#X msg 357 421 quality \$1;
#X obj 357 401 tgl 15 0 empty empty empty 17 7 0 10 -262144 -1 -1 0
1;
#N canvas 280 306 603 597 roi 0;
#X obj 227 56 * 6;
#X msg 227 362 roi \$1 \$2 \$3 \$4;
#X obj 227 78 t f f;
#X obj 273 100 + 6;
#X obj 69 438 pix_roi 0 0 0 0;
#X obj 69 460 outlet;
#X obj 68 34 inlet;
#X obj 383 130 pix_info, f 14;
#X obj 227 13 inlet;
#X obj 227 325 pack 0 0 0 0;
#X obj 227 285 / 120;
#X obj 327 285 / 120;
#X obj 227 221 unpack 0 0 0 8;
#X obj 354 223 t f;
#X floatatom 394 200 5 0 0 0 - - -, f 5;
#X floatatom 433 201 5 0 0 0 - - -, f 5;
#X obj 383 31 inlet;
#X obj 377 285 / 8;
#X obj 277 285 / 8;
#X obj 319 69 * 8;
#X floatatom 319 52 5 0 0 0 - - -, f 5;
#X obj 270 13 r \$0-font-width;
#X obj 68 59 route offset;
#X obj 227 120 pack 0 0 0 16;
#X connect 0 0 2 0;
#X connect 1 0 4 0;
#X connect 2 0 23 0;
#X connect 2 1 3 0;
#X connect 3 0 23 2;
#X connect 4 0 5 0;
#X connect 6 0 22 0;
#X connect 7 1 13 0;
#X connect 7 1 14 0;
#X connect 7 2 15 0;
#X connect 8 0 0 0;
#X connect 9 0 1 0;
#X connect 10 0 9 0;
#X connect 11 0 9 2;
#X connect 12 0 10 0;
#X connect 12 1 18 0;
#X connect 12 2 11 0;
#X connect 12 3 17 0;
#X connect 13 0 10 1;
#X connect 13 0 11 1;
#X connect 16 0 7 0;
#X connect 17 0 9 3;
#X connect 18 0 9 1;
#X connect 19 0 23 3;
#X connect 19 0 23 1;
#X connect 20 0 19 0;
#X connect 21 0 0 1;
#X connect 21 0 3 1;
#X connect 22 0 0 0;
#X connect 22 1 4 0;
#X connect 23 0 12 0;
#X restore 239 344 pd roi;
#X obj 239 288 color 1 0 0 1;
#X obj 212 803 color 1 1 1 1;
#X symbolatom 659 185 20 0 0 2 text #0-text_in #0-text_out, f 20;
#X floatatom 676 252 5 0 1 0 r #0-color_r_in #0-color_r_out, f 5;
#X floatatom 676 272 5 0 1 0 g #0-color_g_in #0-color_g_out, f 5;
#X floatatom 676 292 5 0 1 0 b #0-color_b_in #0-color_b_out, f 5;
#X floatatom 676 312 5 0 1 0 a #0-color_a_in #0-color_a_out, f 5;
#X obj 1388 453 oscparam /\$2/text/\$1/color/g;
#X obj 1388 513 oscparam /\$2/text/\$1/color/b;
#X obj 1388 573 oscparam /\$2/text/\$1/color/a;
#N canvas 1 119 450 300 pack 0;
#X obj 144 237 pack 1 1 1 1;
#X obj 162 136 t b f;
#X obj 173 163 t b f;
#X obj 332 193 t b f;
#X obj 144 259 outlet;
#X obj 144 17 r \$0-color_r_out;
#X obj 162 37 r \$0-color_g_out;
#X obj 173 57 r \$0-color_b_out;
#X obj 332 26 r \$0-color_a_out;
#X obj 332 136 f;
#X obj 396 79 r \$2-blink;
#X obj 396 105 t b f;
#X obj 332 158 * 1;
#X connect 0 0 4 0;
#X connect 1 0 0 0;
#X connect 1 1 0 1;
#X connect 2 0 0 0;
#X connect 2 1 0 2;
#X connect 3 0 0 0;
#X connect 3 1 0 3;
#X connect 5 0 0 0;
#X connect 6 0 1 0;
#X connect 7 0 2 0;
#X connect 8 0 9 0;
#X connect 9 0 12 0;
#X connect 10 0 11 0;
#X connect 11 0 9 0;
#X connect 11 1 12 1;
#X connect 12 0 3 0;
#X restore 314 244 pd pack;
#X obj 1268 371 loadbang;
#X msg 1268 396 1;
#X text 656 234 color;
#X obj 239 554 translateXYZ;
#X obj 239 620 scaleXYZ 1 1 1;
#X obj 981 720 oscparam /\$2/text/\$1/scale/x;
#X floatatom 747 343 5 0 0 0 x #0-scale_x_in #0-scale_x_out, f 5;
#X floatatom 746 362 5 0 0 0 y #0-scale_y_in #0-scale_y_out, f 5;
#X obj 981 780 oscparam /\$2/text/\$1/scale/y;
#X text 730 324 scale;
#X floatatom 676 342 5 0 0 0 x #0-position_x_in #0-position_x_out,
f 5;
#X floatatom 676 362 5 0 0 0 y #0-position_y_in #0-position_y_out,
f 5;
#X floatatom 676 402 5 0 0 0 z #0-position_z_in #0-position_z_out,
f 5;
#X text 657 324 position;
#X obj 1388 393 oscparam /\$2/text/\$1/color/r;
#X obj 306 376 bng 15 250 50 0 empty empty empty 17 7 0 10 -262144
-1 -1;
#X obj 212 179 gemlist;
#N canvas 815 563 411 438 align 0;
#X obj 80 39 inlet;
#X obj 80 90 pix_info, f 26;
#X obj 103 124 r \$0-length;
#X obj 103 234 /;
#X obj 146 146 r \$0-font-width;
#X obj 103 256 / 2;
#X obj 103 300 spigot;
#X obj 80 365 translateXYZ;
#X obj 80 387 outlet;
#X obj 245 90 r \$0-align;
#X obj 245 228 sel 0;
#X msg 245 250 0;
#X obj 284 142 sel 1 2;
#X msg 284 163 2;
#X obj 245 112 t b f f;
#X msg 314 163 1;
#X obj 103 206 * 6;
#X obj 103 164 + 1;
#X obj 103 278 * -4;
#X obj 146 170 t b f;
#X connect 0 0 1 0;
#X connect 1 0 7 0;
#X connect 1 1 3 1;
#X connect 2 0 17 0;
#X connect 3 0 5 0;
#X connect 4 0 19 0;
#X connect 5 0 18 0;
#X connect 6 0 7 1;
#X connect 7 0 8 0;
#X connect 9 0 14 0;
#X connect 10 0 11 0;
#X connect 11 0 7 1;
#X connect 12 0 13 0;
#X connect 12 1 15 0;
#X connect 13 0 5 1;
#X connect 14 0 16 0;
#X connect 14 1 6 1;
#X connect 14 2 12 0;
#X connect 14 2 10 0;
#X connect 15 0 5 1;
#X connect 16 0 3 0;
#X connect 17 0 16 0;
#X connect 18 0 6 0;
#X connect 19 0 16 0;
#X connect 19 1 16 1;
#X restore 239 643 pd align;
#X obj 662 218 c.menu @size 52 14 @fontname Helvetica @fontweight normal
@fontslant roman @fontsize 11 @receive 0-align_in @send (null) @presetname
(null) @hover 0 @items left center right @states 0 0 0 @bgcolor 0.75
0.75 0.75 1 @bdcolor 0.5 0.5 0.5 1 @textcolor 0 0 0 1;
#X obj 763 214 oscparam /\$2/text/\$1/align;
#X text 653 200 align;
#X obj 239 736 rotateXYZ;
#X floatatom 741 269 5 0 0 0 x #0-rotate_X_in #0-rotate_X_out, f 5
;
#X floatatom 741 289 5 0 0 0 y #0-rotate_y_in #0-rotate_y_out, f 5
;
#X floatatom 741 309 5 0 0 0 z #0-rotate_z_in #0-rotate_z_out, f 5
;
#X text 722 251 rotate;
#X obj 578 600 r \$0-rotate_x_out;
#X obj 578 640 s \$0-rotate_x_in;
#X obj 256 672 r \$0-rotate_x_out;
#X obj 273 692 r \$0-rotate_y_out;
#X obj 290 712 r \$0-rotate_z_out;
#X obj 578 660 r \$0-rotate_y_out;
#X obj 578 700 s \$0-rotate_y_in;
#X obj 578 720 r \$0-rotate_z_out;
#X obj 578 760 s \$0-rotate_z_in;
#X obj 981 800 s \$0-scale_y_in;
#X obj 981 760 r \$0-scale_y_out;
#X obj 981 740 s \$0-scale_x_in;
#X obj 981 700 r \$0-scale_x_out;
#X obj 1388 193 oscparam /\$2/text/\$1/position/x;
#X obj 1388 253 oscparam /\$2/text/\$1/position/y;
#X obj 1388 313 oscparam /\$2/text/\$1/position/z;
#X obj 578 620 oscparam /\$2/text/\$1/rotate/x;
#X obj 578 680 oscparam /\$2/text/\$1/rotate/y;
#X obj 578 740 oscparam /\$2/text/\$1/rotate/z;
#X obj 1388 173 r \$0-position_x_out;
#X obj 1388 213 s \$0-position_x_in;
#X obj 1388 233 r \$0-position_y_out;
#X obj 1388 273 s \$0-position_y_in;
#X obj 1388 293 r \$0-position_z_out;
#X obj 1388 333 s \$0-position_z_in;
#X obj 262 491 r \$0-position_x_out;
#X obj 285 511 r \$0-position_y_out;
#X obj 308 532 r \$0-position_z_out;
#X obj 266 575 r \$0-scale_x_out;
#X obj 293 595 r \$0-scale_y_out;
#X obj 578 490 r \$0-text_out;
#X obj 578 570 s \$0-text_in;
#X obj 1367 43 \$1;
#X obj 895 -66 loadbang;
#X obj 1367 23 bng 15 250 50 0 empty empty empty 17 7 0 10 -262144
-1 -1;
#X obj 1388 373 r \$0-color_r_out;
#X obj 1388 413 s \$0-color_r_in;
#X obj 1388 433 r \$0-color_g_out;
#X obj 1388 473 s \$0-color_g_in;
#X obj 1388 493 r \$0-color_b_out;
#X obj 1388 533 s \$0-color_b_in;
#X obj 1388 553 r \$0-color_a_out;
#X obj 1388 594 s \$0-color_a_in;
#X obj 578 550 symbol;
#X obj 552 470 loadbang;
#N canvas 1 104 471 623 shader 0;
#X obj 189 286 glsl_fragment;
#X obj 189 466 glsl_program;
#X floatatom 241 491 5 0 0 0 ID - -, f 5;
#X msg 200 440 link;
#X msg 198 418 print;
#X floatatom 276 315 5 0 0 0 - - -, f 5;
#X msg 279 259 open matrix.frag;
#X obj 189 256 glsl_vertex;
#X obj 243 417 pack 0 0;
#X obj 264 397 t b f;
#X obj 264 352 change;
#X obj 217 323 change;
#X msg 243 440 link \$1 \$2;
#X floatatom 264 378 2 0 0 0 ID - -, f 2;
#X floatatom 217 346 2 0 0 0 ID - -, f 2;
#X msg 264 226 open matrix.vert;
#N canvas 1 134 450 300 pow-of-2 0;
#X obj 190 212 pack;
#X obj 186 20 inlet;
#X obj 186 42 unpack;
#N canvas 268 198 450 635 nearest-pow-of-2 0;
#X obj 158 152 log;
#X obj 189 153 log;
#X msg 188 126 2;
#X obj 167 193 /;
#X obj 165 87 t f b;
#X obj 194 237 wrap;
#X obj 167 215 t f f;
#X obj 227 282 > 0;
#X obj 194 303 spigot;
#X msg 194 325 1 \$1;
#X obj 194 347 -;
#X obj 178 370 +;
#X obj 194 261 t f f f;
#X obj 164 60 inlet;
#X obj 178 422 outlet;
#X obj 178 392 expr pow(2 \, $f1);
#X connect 0 0 3 0;
#X connect 1 0 3 1;
#X connect 2 0 1 0;
#X connect 3 0 6 0;
#X connect 4 0 0 0;
#X connect 4 1 2 0;
#X connect 5 0 12 0;
#X connect 6 0 11 0;
#X connect 6 1 5 0;
#X connect 7 0 8 1;
#X connect 8 0 9 0;
#X connect 9 0 10 0;
#X connect 10 0 11 1;
#X connect 11 0 15 0;
#X connect 12 0 8 0;
#X connect 12 1 7 0;
#X connect 12 2 11 1;
#X connect 13 0 4 0;
#X connect 15 0 14 0;
#X restore 211 143 pd nearest-pow-of-2;
#X obj 190 234 outlet;
#N canvas 268 198 450 635 nearest-pow-of-2 0;
#X obj 158 152 log;
#X obj 189 153 log;
#X msg 188 126 2;
#X obj 167 193 /;
#X obj 165 87 t f b;
#X obj 194 237 wrap;
#X obj 167 215 t f f;
#X obj 227 282 > 0;
#X obj 194 303 spigot;
#X msg 194 325 1 \$1;
#X obj 194 347 -;
#X obj 178 370 +;
#X obj 194 261 t f f f;
#X obj 164 60 inlet;
#X obj 179 463 outlet;
#X floatatom 110 310 5 0 0 0 - - -, f 5;
#X obj 179 423 expr pow(2 \, $f1);
#X connect 0 0 3 0;
#X connect 1 0 3 1;
#X connect 2 0 1 0;
#X connect 3 0 6 0;
#X connect 4 0 0 0;
#X connect 4 1 2 0;
#X connect 5 0 12 0;
#X connect 6 0 11 0;
#X connect 6 0 15 0;
#X connect 6 1 5 0;
#X connect 7 0 8 1;
#X connect 8 0 9 0;
#X connect 9 0 10 0;
#X connect 10 0 11 1;
#X connect 11 0 16 0;
#X connect 12 0 8 0;
#X connect 12 1 7 0;
#X connect 12 2 11 1;
#X connect 13 0 4 0;
#X connect 16 0 14 0;
#X restore 191 113 pd nearest-pow-of-2;
#X obj 238 79 change;
#X obj 155 79 change;
#X connect 0 0 4 0;
#X connect 1 0 2 0;
#X connect 2 0 7 0;
#X connect 2 1 6 0;
#X connect 3 0 0 1;
#X connect 5 0 0 0;
#X connect 6 0 3 0;
#X connect 7 0 5 0;
#X restore 215 121 pd pow-of-2;
#X obj 189 64 pix_info, f 30;
#X obj 215 92 pack;
#X msg 215 173 dimen \$1 \$2 \, linewidth 0.11;
#X msg 90 368 linewidth \$1;
#X floatatom 90 345 5 0 0 0 - - -, f 5;
#X obj 189 41 inlet;
#X obj 189 520 outlet;
#X connect 0 0 1 0;
#X connect 0 1 5 0;
#X connect 0 1 10 0;
#X connect 1 0 23 0;
#X connect 1 1 2 0;
#X connect 3 0 1 0;
#X connect 4 0 1 0;
#X connect 6 0 0 0;
#X connect 7 0 0 0;
#X connect 7 1 11 0;
#X connect 8 0 12 0;
#X connect 9 0 8 0;
#X connect 9 1 8 1;
#X connect 10 0 13 0;
#X connect 11 0 14 0;
#X connect 12 0 1 0;
#X connect 13 0 9 0;
#X connect 14 0 8 0;
#X connect 15 0 7 0;
#X connect 16 0 19 0;
#X connect 17 0 7 0;
#X connect 17 1 18 0;
#X connect 17 2 18 1;
#X connect 18 0 16 0;
#X connect 19 0 1 0;
#X connect 20 0 1 0;
#X connect 21 0 20 0;
#X connect 22 0 17 0;
#X restore 453 325 pd shader;
#X obj 578 510 list trim;
#N canvas 640 234 675 821 getLetter 0;
#X obj 58 191 gemhead 10;
#N canvas 32 620 750 342 grab-ascii 0;
#X obj 173 47 key;
#X obj 154 242 outlet;
#X text 138 265 remap from 0 to 25;
#X text 327 293 bang on <ENTER>;
#X obj 456 276 outlet;
#X obj 173 75 sel 10 32 8;
#X obj 566 276 outlet;
#X text 557 293 bang on <DEL>;
#X text 447 293 bang on <SPACE>;
#X obj 276 230 loadbang;
#X obj 154 174 - 32;
#X obj 346 235 t b b;
#X obj 154 141 moses 224;
#X obj 205 174 - 113;
#X obj 25 0 inlet;
#X obj 25 41 list fromsymbol;
#X obj 25 104 t b f;
#X obj 87 139 list;
#X obj 25 62 list split 1;
#X obj 25 20 t a b;
#X obj 335 276 outlet RESET;
#X connect 5 0 11 0;
#X connect 5 1 4 0;
#X connect 5 2 6 0;
#X connect 5 3 12 0;
#X connect 9 0 20 0;
#X connect 10 0 1 0;
#X connect 11 0 20 0;
#X connect 11 1 20 0;
#X connect 12 0 10 0;
#X connect 12 1 13 0;
#X connect 13 0 1 0;
#X connect 14 0 19 0;
#X connect 15 0 18 0;
#X connect 16 0 17 0;
#X connect 16 1 12 0;
#X connect 17 0 18 0;
#X connect 18 0 16 0;
#X connect 18 1 17 1;
#X connect 19 0 15 0;
#X restore 100 272 pd grab-ascii;
#X obj 127 363 f;
#X obj 99 539 t b b f;
#X obj 100 323 t f b;
#X obj 154 363 + 1;
#X obj 58 661 pix_dump;
#X obj 58 144 loadbang;
#X msg 58 166 0;
#X obj 58 369 pix_rgba;
#X msg 251 467 roi 0 0 1 1;
#X floatatom 77 304 5 0 0 0 - - -, f 5;
#X floatatom 147 438 5 0 0 0 - - -, f 5;
#X msg 180 333 0;
#X obj 180 293 bng 15 250 50 0 empty empty empty 17 7 0 10 -262144
-1 -1;
#X obj 180 312 t b b b b;
#X obj 58 213 alpha;
#N canvas 135 465 665 573 transcode 0;
#X obj 187 223 outlet;
#X obj 158 22 inlet, f 6;
#X obj 158 63 list fromsymbol;
#X obj 220 161 list;
#X obj 158 84 list split 1;
#X obj 158 42 t a b, f 20;
#X obj 280 225 outlet RESET;
#X obj 158 128 t b f;
#X symbolatom 208 21 10 0 0 0 - - -, f 10;
#X obj 188 199 - 1;
#X connect 1 0 5 0;
#X connect 2 0 4 0;
#X connect 3 0 4 0;
#X connect 4 0 7 0;
#X connect 4 1 3 1;
#X connect 5 0 2 0;
#X connect 5 1 6 0;
#X connect 7 0 3 0;
#X connect 7 1 9 0;
#X connect 8 0 5 0;
#X connect 9 0 0 0;
#X restore 310 235 pd transcode;
#X msg 211 631 rgba \, fill 0 0 0 0 \, bang;
#X obj 127 394 t b f;
#X obj 154 463 s \$0-length;
#X obj 82 485 r \$0-font-width;
#X obj 310 215 r \$0-text_out;
#X obj 373 715 outlet trigRender;
#X msg 225 513 offset \$1;
#X obj 304 715 outlet ROI;
#X obj 41 716 outlet pix_set_left;
#X obj 168 717 outlet pix_set_right;
#X msg 216 651 rgba \, fill 1 1 1 1 \, bang;
#X obj 193 133 inlet clear;
#X obj 99 519 * 6;
#X floatatom 161 574 5 0 0 0 - - -, f 5;
#X floatatom 211 577 5 0 0 0 - - -, f 5;
#X obj 60 610 pix_crop 0 16 12 16;
#X obj 58 232 pix_image ../font/bitmap_font_6x8c.tiff;
#X floatatom 325 315 5 0 0 0 - - -, f 5;
#X obj 156 170 r \$0-alternate_font;
#X msg 158 193 open ../font/bitmap_font_12x16c.tiff;
#X connect 0 0 16 0;
#X connect 1 0 4 0;
#X connect 1 0 11 0;
#X connect 1 1 14 0;
#X connect 1 2 2 0;
#X connect 2 0 5 0;
#X connect 2 0 19 0;
#X connect 3 0 6 0;
#X connect 3 1 0 0;
#X connect 3 2 31 0;
#X connect 3 2 33 3;
#X connect 4 0 30 0;
#X connect 4 1 2 0;
#X connect 5 0 2 1;
#X connect 6 1 27 0;
#X connect 7 0 8 0;
#X connect 8 0 0 0;
#X connect 9 0 33 0;
#X connect 10 0 25 0;
#X connect 13 0 2 1;
#X connect 14 0 15 0;
#X connect 15 0 13 0;
#X connect 15 1 18 0;
#X connect 15 2 23 0;
#X connect 15 3 10 0;
#X connect 16 0 34 0;
#X connect 17 0 4 0;
#X connect 17 0 35 0;
#X connect 17 1 15 0;
#X connect 18 0 26 0;
#X connect 19 0 23 0;
#X connect 19 1 12 0;
#X connect 19 1 20 0;
#X connect 19 1 24 0;
#X connect 21 0 30 1;
#X connect 21 0 33 1;
#X connect 22 0 17 0;
#X connect 24 0 25 0;
#X connect 28 0 26 0;
#X connect 29 0 14 0;
#X connect 30 0 3 0;
#X connect 32 0 33 4;
#X connect 33 0 6 0;
#X connect 34 0 9 0;
#X connect 36 0 37 0;
#X connect 37 0 34 0;
#X restore 125 137 pd getLetter;
#X obj 212 137 r render_text_\$2;
#X obj 578 530 oscparam /\$2/text/\$1/text;
#X obj 1386 661 r \$0-quality_out;
#X obj 1371 751 s \$0-quality_in;
#X obj 1413 703 oscparam /\$2/text/\$1/quality;
#X obj 357 377 r \$0-quality_out;
#X obj 1371 731 f;
#X obj 1386 682 t f f;
#X obj 239 771 rectangle 2 -0.4;
#X obj 1367 137 * 4;
#X obj 1367 87 div 10;
#X obj 1320 86 mod 10;
#X obj 1367 63 - 1;
#X obj 1320 127 * -0.8;
#X obj 1367 109 - 1;
#X obj 1320 149 + 3.6;
#X obj 125 81 oscparam /\$2/text/\$1/clear;
#X obj 125 103 t b;
#X obj 889 675 f;
#X obj 956 668 f;
#X obj 839 29 \$1;
#X obj 924 144 f;
#X msg 559 188 2;
#X floatatom 601 182 5 0 0 0 - - -, f 5;
#X obj 559 218 t a;
#X obj 559 241 s \$0-align;
#X obj 719 236 route bang;
#X obj 985 231 f;
#X floatatom 443 522 5 0 0 0 - - -, f 5;
#X obj 433 488 pix_info -----;
#X floatatom 488 523 5 0 0 0 - - -, f 5;
#X obj 517 101 s \$0-font-width;
#X msg 518 71 6;
#X msg 885 649 5;
#X msg 945 400 -1;
#X msg 929 330 2.5;
#X obj 378 189 s \$0-alternate_font;
#X obj 397 -41 loadbang;
#X obj 392 44 \$1;
#X obj 520 49 t b;
#X msg 428 164 12;
#X msg 992 328 2;
#X msg 1207 560 0;
#X obj 1198 494 \$1;
#X obj 239 406 pix_set 192 16;
#X obj 915 359 sel 6 7 8 9 10 11;
#X msg 894 118 15.5;
#X msg 958 121 29;
#X msg 1021 183 0;
#X msg 1056 184 1;
#X msg 958 647 12, f 4;
#X obj 758 404 r \$0-font_out;
#X obj 758 445 s \$0-font_in;
#X floatatom 729 217 5 0 1 2 font #0-font_in #0-font_out, f 5;
#X obj 758 425 oscparam /\$2/text/\$1/font;
#X obj 692 -68 oscparam /\$2/text/\$1/reset;
#X obj 828 620 t b;
#X obj 891 616 t b;
#X msg 927 647 4;
#X msg 841 650 2;
#X obj 398 -14 symbol \$2;
#X obj 478 -39 bng 15 250 50 0 empty empty empty 17 7 0 10 -262144
-1 -1;
#X obj 817 530 loadbang;
#X obj 811 556 symbol \$2;
#X obj 812 578 sel compteur banniere;
#X obj 699 14 symbol \$2;
#X obj 699 39 sel compteur banniere;
#X obj 1190 421 loadbang;
#X obj 1190 448 symbol \$2;
#X obj 1269 423 bng 15 250 50 0 empty empty empty 17 7 0 10 -262144
-1 -1;
#X obj 1190 472 sel compteur banniere;
#X msg 1236 630 1;
#X msg 665 97 0;
#X msg 1091 150 4.5;
#X obj 1102 178 - \$1;
#X obj 398 10 sel compteur;
#X obj 699 -5 t b b;
#X obj 1103 58 \$1;
#X obj 1127 128 * 0.8;
#X obj 697 -48 t b;
#X obj 699 -28 delay 500;
#X msg 1325 554 1;
#X obj 1193 27 \$1;
#X obj 1189 54 t f f;
#X obj 1193 1 t b;
#X obj 1186 79 > 10.5;
#X obj 1233 83 > 20.5;
#X obj 1233 108 * 4;
#X obj 1186 107 * 4;
#X obj 1186 149 + 2;
#X obj 1185 130 +, f 4;
#N canvas 239 448 1212 553 color_broadcast 0;
#X obj 50 42 oscparam /1/color;
#X obj 50 365 t a;
#X obj 175 46 loadbang;
#X obj 179 73 symbol \$2;
#X obj 179 118 \$1;
#X obj 182 144 < 10.5;
#X obj 47 254 spigot 0;
#X obj 402 52 loadbang;
#X obj 406 79 symbol \$2;
#X obj 406 124 \$1;
#X obj 274 260 spigot 0;
#X obj 647 55 loadbang;
#X obj 651 82 symbol \$2;
#X obj 651 127 \$1;
#X obj 519 263 spigot 0;
#X obj 896 61 loadbang;
#X obj 900 88 symbol \$2;
#X obj 765 271 spigot 0;
#X obj 57 404 outlet;
#X obj 277 48 oscparam /2/color;
#X obj 522 51 oscparam /3/color;
#X obj 771 57 oscparam /4/color;
#X msg 902 157 1;
#X obj 654 153 > 20.5;
#X obj 406 184 > 10.5;
#X obj 409 151 t f f;
#X obj 458 178 < 20.5;
#X obj 179 97 sel banniere;
#X obj 900 112 sel compteur;
#X obj 406 103 sel banniere;
#X obj 651 106 sel banniere;
#X connect 0 0 6 0;
#X connect 1 0 18 0;
#X connect 2 0 3 0;
#X connect 3 0 27 0;
#X connect 4 0 5 0;
#X connect 5 0 6 1;
#X connect 6 0 1 0;
#X connect 7 0 8 0;
#X connect 8 0 29 0;
#X connect 9 0 25 0;
#X connect 10 0 1 0;
#X connect 11 0 12 0;
#X connect 12 0 30 0;
#X connect 13 0 23 0;
#X connect 14 0 1 0;
#X connect 15 0 16 0;
#X connect 16 0 28 0;
#X connect 17 0 1 0;
#X connect 19 0 10 0;
#X connect 20 0 14 0;
#X connect 21 0 17 0;
#X connect 22 0 17 1;
#X connect 23 0 14 1;
#X connect 24 0 10 1;
#X connect 25 0 24 0;
#X connect 25 1 26 0;
#X connect 26 0 10 1;
#X connect 27 0 4 0;
#X connect 28 0 22 0;
#X connect 29 0 9 0;
#X connect 30 0 13 0;
#X restore 1048 482 pd color_broadcast;
#X obj 1042 512 unpack f f f f;
#X obj 1115 95 mod 10;
#X obj 390 66 sel 5 13 14 15;
#X obj 382 103 t b;
#X msg 856 108 14;
#X msg 925 119 47;
#X msg 986 179 32.5;
#X obj 840 60 route 1 2 3 4 5 6 7 8 9 10 11 12 13 14 15;
#X msg 1041 88 23;
#X msg 1054 111 15;
#X msg 1066 138 3.5;
#X obj 1193 521 sel 5 11 12 13 14 15;
#X obj 911 273 sel 1 2 3 4 5 12 13 14 15;
#X msg 878 169 4.5;
#X msg 916 172 13.7;
#X msg 950 176 24;
#X msg 810 108 6.2;
#X connect 0 0 8 0;
#X connect 1 0 4 0;
#X connect 2 0 1 0;
#X connect 3 0 9 0;
#X connect 3 1 0 0;
#X connect 4 0 22 0;
#X connect 4 0 122 0;
#X connect 5 0 4 0;
#X connect 6 0 5 0;
#X connect 7 0 137 0;
#X connect 8 0 7 0;
#X connect 15 0 83 0;
#X connect 16 0 85 0;
#X connect 17 0 87 0;
#X connect 18 0 8 1;
#X connect 19 0 20 0;
#X connect 20 0 81 0;
#X connect 20 0 83 0;
#X connect 20 0 85 0;
#X connect 22 0 23 0;
#X connect 23 0 36 0;
#X connect 24 0 56 0;
#X connect 27 0 54 0;
#X connect 33 0 81 0;
#X connect 34 0 137 0;
#X connect 35 0 3 0;
#X connect 36 0 40 0;
#X connect 37 0 117 0;
#X connect 37 1 38 0;
#X connect 38 0 119 0;
#X connect 40 0 101 0;
#X connect 45 0 61 0;
#X connect 47 0 40 1;
#X connect 48 0 40 2;
#X connect 49 0 40 3;
#X connect 50 0 62 0;
#X connect 52 0 63 0;
#X connect 55 0 27 0;
#X connect 57 0 24 0;
#X connect 58 0 65 0;
#X connect 59 0 67 0;
#X connect 60 0 69 0;
#X connect 61 0 46 0;
#X connect 62 0 51 0;
#X connect 63 0 53 0;
#X connect 64 0 58 0;
#X connect 66 0 59 0;
#X connect 68 0 60 0;
#X connect 70 0 22 1;
#X connect 71 0 22 2;
#X connect 72 0 22 3;
#X connect 73 0 23 1;
#X connect 74 0 23 2;
#X connect 75 0 91 0;
#X connect 77 0 105 0;
#X connect 78 0 169 0;
#X connect 79 0 77 0;
#X connect 80 0 33 0;
#X connect 82 0 15 0;
#X connect 84 0 16 0;
#X connect 86 0 17 0;
#X connect 88 0 76 0;
#X connect 89 0 88 0;
#X connect 91 0 94 0;
#X connect 92 0 137 0;
#X connect 92 1 137 1;
#X connect 92 2 7 0;
#X connect 92 3 35 0;
#X connect 93 0 35 0;
#X connect 94 0 88 0;
#X connect 95 0 100 0;
#X connect 97 0 99 0;
#X connect 98 0 6 0;
#X connect 99 0 96 0;
#X connect 100 0 99 1;
#X connect 100 1 97 0;
#X connect 102 0 65 0;
#X connect 103 0 107 0;
#X connect 104 0 106 0;
#X connect 105 0 103 0;
#X connect 105 0 104 0;
#X connect 106 0 108 0;
#X connect 107 0 102 0;
#X connect 108 0 67 0;
#X connect 109 0 110 0;
#X connect 110 0 92 0;
#X connect 111 0 54 0;
#X connect 112 0 56 0;
#X connect 113 0 138 0;
#X connect 113 0 192 0;
#X connect 113 0 197 0;
#X connect 114 0 65 0;
#X connect 115 0 117 0;
#X connect 116 0 117 0;
#X connect 117 0 118 0;
#X connect 119 1 37 0;
#X connect 120 0 65 0;
#X connect 122 1 121 0;
#X connect 122 2 123 0;
#X connect 125 0 124 0;
#X connect 126 0 111 0;
#X connect 127 0 67 0;
#X connect 128 0 67 0;
#X connect 130 0 153 0;
#X connect 131 0 187 0;
#X connect 132 0 125 0;
#X connect 133 0 124 0;
#X connect 134 0 67 0;
#X connect 135 0 87 0;
#X connect 136 0 196 0;
#X connect 137 0 4 0;
#X connect 137 0 7 2;
#X connect 138 0 127 0;
#X connect 138 1 127 0;
#X connect 138 2 127 0;
#X connect 138 3 127 0;
#X connect 138 4 127 0;
#X connect 138 5 127 0;
#X connect 139 0 114 0;
#X connect 140 0 114 0;
#X connect 141 0 120 0;
#X connect 142 0 120 0;
#X connect 143 0 112 0;
#X connect 144 0 147 0;
#X connect 147 0 145 0;
#X connect 148 0 172 0;
#X connect 149 0 151 0;
#X connect 149 0 152 0;
#X connect 150 0 126 0;
#X connect 150 0 143 0;
#X connect 151 0 112 0;
#X connect 152 0 111 0;
#X connect 153 0 168 0;
#X connect 154 0 153 0;
#X connect 155 0 156 0;
#X connect 156 0 157 0;
#X connect 157 0 150 0;
#X connect 157 1 149 0;
#X connect 158 0 159 0;
#X connect 159 0 113 0;
#X connect 159 1 165 0;
#X connect 159 1 166 0;
#X connect 159 1 177 0;
#X connect 160 0 161 0;
#X connect 161 0 163 0;
#X connect 162 0 161 0;
#X connect 163 0 136 0;
#X connect 163 1 164 0;
#X connect 164 0 87 0;
#X connect 165 0 117 0;
#X connect 166 0 167 0;
#X connect 167 0 67 0;
#X connect 168 0 131 0;
#X connect 168 1 132 0;
#X connect 169 0 158 0;
#X connect 169 1 170 0;
#X connect 170 0 186 0;
#X connect 171 0 167 1;
#X connect 172 0 173 0;
#X connect 173 0 169 0;
#X connect 173 0 156 0;
#X connect 173 0 161 0;
#X connect 174 0 87 0;
#X connect 175 0 176 0;
#X connect 176 0 178 0;
#X connect 176 1 179 0;
#X connect 177 0 175 0;
#X connect 178 0 181 0;
#X connect 179 0 180 0;
#X connect 180 0 183 1;
#X connect 181 0 183 0;
#X connect 182 0 65 0;
#X connect 183 0 182 0;
#X connect 184 0 185 0;
#X connect 185 0 81 0;
#X connect 185 1 83 0;
#X connect 185 2 85 0;
#X connect 185 3 87 0;
#X connect 186 0 171 0;
#X connect 187 0 188 0;
#X connect 187 1 188 0;
#X connect 187 2 188 0;
#X connect 187 3 188 0;
#X connect 187 4 132 0;
#X connect 188 0 129 0;
#X connect 188 0 133 0;
#X connect 189 0 114 0;
#X connect 190 0 114 0;
#X connect 191 0 120 0;
#X connect 192 0 201 0;
#X connect 192 0 115 0;
#X connect 192 1 189 0;
#X connect 192 1 115 0;
#X connect 192 2 139 0;
#X connect 192 3 115 0;
#X connect 192 3 190 0;
#X connect 192 4 140 0;
#X connect 192 5 198 0;
#X connect 192 6 199 0;
#X connect 192 7 200 0;
#X connect 192 8 191 0;
#X connect 192 9 141 0;
#X connect 192 10 142 0;
#X connect 192 11 142 0;
#X connect 192 12 193 0;
#X connect 192 13 194 0;
#X connect 192 14 195 0;
#X connect 193 0 120 0;
#X connect 194 0 120 0;
#X connect 195 0 120 0;
#X connect 196 0 135 0;
#X connect 196 1 135 0;
#X connect 196 2 135 0;
#X connect 196 3 135 0;
#X connect 196 4 135 0;
#X connect 196 5 135 0;
#X connect 196 6 174 0;
#X connect 197 0 128 0;
#X connect 197 1 128 0;
#X connect 197 2 128 0;
#X connect 197 3 128 0;
#X connect 197 4 134 0;
#X connect 197 5 128 0;
#X connect 197 6 134 0;
#X connect 197 7 134 0;
#X connect 197 8 134 0;
#X connect 198 0 120 0;
#X connect 199 0 120 0;
#X connect 200 0 120 0;
#X connect 201 0 114 0;
#X coords 0 -1 1 1 150 240 1 650 150;
