#N canvas 304 358 1497 663 10;
#X declare -path ../zexy -lib zexy;
#X obj 129 87 time -----;
#X obj 50 86 date -----;
#X obj 50 54 t b b;
#X floatatom 129 136 5 0 0 0 - - -, f 5;
#X floatatom 164 136 5 0 0 0 - - -, f 5;
#X floatatom 200 137 5 0 0 0 - - -, f 5;
#X floatatom 50 131 5 0 0 0 - - -, f 5;
#X obj 95 128 + 1;
#N canvas 1 85 450 300 day-mounth_to_day-of-year 0;
#X obj 34 201 +;
#X obj 34 70 sel 1 2 3 4 5 6 7 8 9 10 11 12;
#X msg 34 96 0;
#X msg 48 123 31;
#X msg 63 96 59;
#X msg 78 124 90;
#X obj 34 176 f;
#X msg 96 96 120;
#X msg 114 122 151;
#X msg 130 97 181;
#X msg 149 126 212;
#X msg 169 99 242;
#X msg 193 124 273;
#X msg 207 97 304;
#X msg 233 125 334;
#X floatatom 38 224 5 0 0 0 - - -, f 5;
#X obj 37 46 inlet;
#X obj 91 47 inlet;
#X obj 32 249 outlet;
#X connect 0 0 15 0;
#X connect 0 0 18 0;
#X connect 1 0 2 0;
#X connect 1 1 3 0;
#X connect 1 2 4 0;
#X connect 1 3 5 0;
#X connect 1 4 7 0;
#X connect 1 5 8 0;
#X connect 1 6 9 0;
#X connect 1 7 10 0;
#X connect 1 8 11 0;
#X connect 1 9 12 0;
#X connect 1 10 13 0;
#X connect 1 11 14 0;
#X connect 2 0 6 0;
#X connect 3 0 6 0;
#X connect 4 0 6 0;
#X connect 5 0 6 0;
#X connect 6 0 0 0;
#X connect 7 0 6 0;
#X connect 8 0 6 0;
#X connect 9 0 6 0;
#X connect 10 0 6 0;
#X connect 11 0 6 0;
#X connect 12 0 6 0;
#X connect 13 0 6 0;
#X connect 14 0 6 0;
#X connect 16 0 1 0;
#X connect 17 0 0 1;
#X restore 79 109 pd day-mounth_to_day-of-year;
#X obj 586 387 +;
#X obj 586 337 metro 1000;
#X msg 586 366 1;
#X obj 586 408 t f f;
#X obj 641 431 _fmod 60;
#X floatatom 555 591 5 0 0 0 - - -, f 5;
#X obj 586 319 tgl 15 0 empty empty empty 17 7 0 10 -262144 -1 -1 1
1;
#X obj 743 306 tgl 15 0 empty empty empty 17 7 0 10 -262144 -1 -1 0
1;
#X obj 743 324 metro 20;
#X obj 641 455 i;
#X obj 469 388 +;
#X obj 469 409 t f f;
#X obj 496 432 _fmod 60;
#X obj 496 456 i;
#X floatatom 504 591 5 0 0 0 - - -, f 5;
#X obj 586 430 / 60;
#X obj 743 347 f;
#X obj 743 261 t f f;
#X obj 743 282 != 0;
#X obj 360 397 +;
#X obj 360 418 t f f;
#X obj 387 465 i;
#X floatatom 446 592 5 0 0 0 - - -, f 5;
#X obj 387 441 _fmod 24;
#X obj 240 400 +;
#X obj 240 421 t f f;
#X obj 267 468 i;
#X obj 267 444 _fmod 365;
#X floatatom 138 582 9 0 0 0 - - -, f 9;
#X obj 467 433 / 60;
#X obj 356 441 / 24;
#X obj 230 443 / 365;
#X obj 50 27 bng 15 250 50 0 empty empty empty 17 7 0 10 -262144 -1
-1;
#N canvas 710 419 1167 586 day-of-year_to_mounth-day 0;
#X obj 43 25 inlet;
#X obj 43 278 outlet;
#X obj 152 279 outlet;
#X obj 43 47 moses 31.5;
#X obj 43 84 t b f;
#X msg 43 104 1;
#X obj 117 85 t b f;
#X obj 117 66 moses 28.5;
#X msg 117 104 2;
#X obj 117 47 - 31;
#X obj 187 85 t b f;
#X obj 257 85 t b f;
#X obj 257 47 - 31;
#X obj 327 85 t b f;
#X obj 397 85 t b f;
#X obj 397 47 - 31;
#X obj 467 85 t b f;
#X obj 537 85 t b f;
#X obj 537 47 - 31;
#X obj 607 85 t b f;
#X obj 607 47 - 31;
#X obj 677 85 t b f;
#X obj 747 85 t b f;
#X obj 747 47 - 31;
#X obj 817 85 t b f;
#X obj 817 47 - 31;
#X obj 187 47 - 28;
#X obj 187 66 moses 31.5;
#X obj 257 66 moses 30.5;
#X obj 327 47 - 30;
#X msg 187 104 3;
#X msg 257 104 4;
#X msg 327 104 5;
#X msg 397 104 6;
#X msg 467 104 7;
#X msg 537 104 8;
#X msg 607 104 9;
#X msg 677 104 10;
#X msg 747 104 11;
#X msg 817 104 12;
#X obj 327 66 moses 31.5;
#X obj 397 66 moses 30.5;
#X obj 467 46 - 30;
#X obj 467 66 moses 31.5;
#X obj 537 66 moses 31.5;
#X obj 607 66 moses 30.5;
#X obj 677 47 - 30;
#X obj 677 66 moses 31.5;
#X obj 747 66 moses 30.5;
#X obj 817 66 moses 31.5;
#X connect 0 0 3 0;
#X connect 3 0 4 0;
#X connect 3 1 9 0;
#X connect 4 0 5 0;
#X connect 4 1 2 0;
#X connect 5 0 1 0;
#X connect 6 0 8 0;
#X connect 6 1 2 0;
#X connect 7 0 6 0;
#X connect 7 1 26 0;
#X connect 8 0 1 0;
#X connect 9 0 7 0;
#X connect 10 0 30 0;
#X connect 10 1 2 0;
#X connect 11 0 31 0;
#X connect 11 1 2 0;
#X connect 12 0 28 0;
#X connect 13 0 32 0;
#X connect 13 1 2 0;
#X connect 14 0 33 0;
#X connect 14 1 2 0;
#X connect 15 0 41 0;
#X connect 16 0 34 0;
#X connect 16 1 2 0;
#X connect 17 0 35 0;
#X connect 17 1 2 0;
#X connect 18 0 44 0;
#X connect 19 0 36 0;
#X connect 19 1 2 0;
#X connect 20 0 45 0;
#X connect 21 0 37 0;
#X connect 21 1 2 0;
#X connect 22 0 38 0;
#X connect 22 1 2 0;
#X connect 23 0 48 0;
#X connect 24 0 39 0;
#X connect 24 1 2 0;
#X connect 25 0 49 0;
#X connect 26 0 27 0;
#X connect 27 0 10 0;
#X connect 27 1 12 0;
#X connect 28 0 11 0;
#X connect 28 1 29 0;
#X connect 29 0 40 0;
#X connect 30 0 1 0;
#X connect 31 0 1 0;
#X connect 32 0 1 0;
#X connect 33 0 1 0;
#X connect 34 0 1 0;
#X connect 35 0 1 0;
#X connect 36 0 1 0;
#X connect 37 0 1 0;
#X connect 38 0 1 0;
#X connect 39 0 1 0;
#X connect 40 0 13 0;
#X connect 40 1 15 0;
#X connect 41 0 14 0;
#X connect 41 1 42 0;
#X connect 42 0 43 0;
#X connect 43 0 16 0;
#X connect 43 1 18 0;
#X connect 44 0 17 0;
#X connect 44 1 20 0;
#X connect 45 0 19 0;
#X connect 45 1 46 0;
#X connect 46 0 47 0;
#X connect 47 0 21 0;
#X connect 47 1 23 0;
#X connect 48 0 22 0;
#X connect 48 1 25 0;
#X connect 49 0 24 0;
#X restore 206 550 pd day-of-year_to_mounth-day;
#X floatatom 206 584 5 0 0 0 - - -, f 5;
#X floatatom 269 583 5 0 0 0 - - -, f 5;
#X text 74 25 init a l'heure actuel;
#X obj 586 292 loadbang;
#X text 761 54 vitesse defillement;
#X obj 586 455 moses 0;
#X obj 586 477 - 1;
#X obj 586 498 i;
#X obj 448 459 moses 0;
#X obj 448 481 - 1;
#X obj 448 502 i;
#X obj 328 468 moses 0;
#X obj 328 490 - 1;
#X obj 328 511 i;
#X obj 209 470 moses 0;
#X obj 209 492 - 1;
#X obj 209 513 i;
#X obj 743 211 exp;
#X floatatom 787 291 9 0 0 0 - - -, f 9;
#X obj 742 45 vsl 15 128 0 127 0 0 empty empty empty 0 -9 0 10 -262144
-1 -1 0 1;
#X obj 743 236 - 1;
#X obj 123 400 +;
#X obj 123 421 t f f;
#X obj 150 468 i;
#X obj 92 470 moses 0;
#X obj 92 492 - 1;
#X obj 92 513 i;
#X obj 31 442 +;
#X obj 45 473 f;
#X floatatom 81 582 9 0 0 0 - - -, f 9;
#X obj 42 533 i;
#X text 233 269 init a une data qcq;
#X text 741 18 +;
#X obj 708 45 vsl 15 128 0 127 0 0 empty empty empty 0 -9 0 10 -262144
-1 -1 0 1;
#X obj 708 183 / 5;
#X obj 708 206 exp;
#X obj 708 231 - 1;
#X obj 708 257 * -1;
#X text 710 20 -;
#X obj 879 138 unpack f f;
#X obj 956 185 delay;
#X text 959 115 increment de temps (jours) et temps de transition (s))
;
#X obj 50 302 t a b;
#X msg 93 302 0;
#X obj 918 205 * 50;
#X obj 879 182 * 86400;
#X obj 879 214 /;
#X msg 956 212 0;
#X obj 879 239 f;
#X floatatom 957 473 9 0 0 0 - - -, f 9;
#X obj 956 162 * 1000;
#X obj 879 306 tgl 15 0 empty empty empty 17 7 0 10 -262144 -1 -1 0
1;
#X obj 879 324 metro 20;
#X obj 879 347 f;
#X obj 879 261 t f f;
#X obj 879 282 != 0;
#X floatatom 923 291 9 0 0 0 - - -, f 9;
#X msg 904 114 2920 10;
#X obj 940 451 min 987654;
#X obj 877 449 - 987654;
#X obj 875 469 max 0;
#X obj 877 522 / 86400;
#X obj 877 543 i;
#X obj 151 445 _fmod 1000;
#X obj 95 443 / 1000;
#X obj 50 337 unpack f f f f f f;
#X obj 48 158 t f f;
#X obj 49 181 / 1000;
#X obj 50 208 i;
#X obj 51 232 pack f f f f f f;
#X obj 82 209 % 1000;
#X msg 122 268 2 32 254 12 18 30;
#X text 66 599 milenaire;
#X text 142 598 année;
#X text 216 603 date;
#X text 447 609 h m s;
#X obj 743 393 f;
#X obj 910 551 _fmod 1;
#X obj 910 576 * 86400;
#X msg 879 92 25550 10;
#X obj 742 188 / 5;
#X floatatom 958 517 9 0 0 0 - - -, f 9;
#X obj 877 494 min 987654;
#X obj 743 472 max 0;
#X obj 743 497 / 3.1536e+07;
#X obj 743 524 i;
#X obj 776 532 _fmod 1;
#X obj 776 554 * 3.1536e+07;
#X floatatom 704 555 5 0 0 0 - - -, f 5;
#X floatatom 786 580 9 0 0 0 - - -, f 9;
#X floatatom 874 605 5 0 0 0 - - -, f 5;
#X floatatom 927 611 5 0 0 0 - - -, f 5;
#X obj 743 450 - 987654;
#X obj 1043 183 bng 15 250 50 0 empty empty empty 17 7 0 10 -262144
-1 -1;
#X msg 1043 211 3.65e+08 11;
#X msg 1043 234 \$2;
#X obj 1043 275 delay;
#X obj 1043 255 * 1000;
#X text 1071 180 increment peu precis pour ces vitesse la : impose
une date a la fin;
#X msg 1042 295 1002 15 311 12 34 28;
#X obj 332 75 declare -path ../zexy -lib zexy;
#X connect 0 0 3 0;
#X connect 0 1 4 0;
#X connect 0 2 5 0;
#X connect 1 0 6 0;
#X connect 1 4 7 0;
#X connect 2 0 1 0;
#X connect 2 1 0 0;
#X connect 3 0 112 3;
#X connect 4 0 112 4;
#X connect 5 0 112 5;
#X connect 6 0 109 0;
#X connect 7 0 112 2;
#X connect 9 0 12 0;
#X connect 10 0 11 0;
#X connect 11 0 9 0;
#X connect 12 0 24 0;
#X connect 12 1 13 0;
#X connect 13 0 9 1;
#X connect 13 0 18 0;
#X connect 15 0 10 0;
#X connect 16 0 17 0;
#X connect 17 0 25 0;
#X connect 18 0 14 0;
#X connect 19 0 20 0;
#X connect 20 0 38 0;
#X connect 20 1 21 0;
#X connect 21 0 19 1;
#X connect 21 0 22 0;
#X connect 22 0 23 0;
#X connect 24 0 48 0;
#X connect 25 0 119 0;
#X connect 26 0 27 0;
#X connect 26 1 25 1;
#X connect 26 1 61 0;
#X connect 27 0 16 0;
#X connect 28 0 29 0;
#X connect 29 0 39 0;
#X connect 29 1 32 0;
#X connect 30 0 31 0;
#X connect 32 0 28 1;
#X connect 32 0 30 0;
#X connect 33 0 34 0;
#X connect 34 0 40 0;
#X connect 34 1 36 0;
#X connect 35 0 42 0;
#X connect 36 0 33 1;
#X connect 36 0 35 0;
#X connect 38 0 51 0;
#X connect 39 0 54 0;
#X connect 40 0 57 0;
#X connect 41 0 2 0;
#X connect 42 0 43 0;
#X connect 42 1 44 0;
#X connect 46 0 15 0;
#X connect 48 0 49 0;
#X connect 48 1 50 0;
#X connect 49 0 50 0;
#X connect 50 0 19 0;
#X connect 51 0 52 0;
#X connect 51 1 53 0;
#X connect 52 0 53 0;
#X connect 53 0 28 0;
#X connect 54 0 55 0;
#X connect 54 1 56 0;
#X connect 55 0 56 0;
#X connect 56 0 33 0;
#X connect 57 0 58 0;
#X connect 57 1 59 0;
#X connect 58 0 59 0;
#X connect 59 0 64 0;
#X connect 60 0 63 0;
#X connect 62 0 123 0;
#X connect 63 0 26 0;
#X connect 64 0 65 0;
#X connect 65 0 107 0;
#X connect 65 1 106 0;
#X connect 66 0 37 0;
#X connect 67 0 68 0;
#X connect 67 1 69 0;
#X connect 68 0 69 0;
#X connect 69 0 70 0;
#X connect 70 0 71 0;
#X connect 71 0 70 1;
#X connect 71 0 73 0;
#X connect 73 0 72 0;
#X connect 76 0 77 0;
#X connect 77 0 78 0;
#X connect 78 0 79 0;
#X connect 79 0 80 0;
#X connect 80 0 26 0;
#X connect 82 0 88 0;
#X connect 82 1 93 0;
#X connect 82 1 87 0;
#X connect 83 0 90 0;
#X connect 85 0 108 0;
#X connect 85 1 86 0;
#X connect 86 0 26 0;
#X connect 86 0 91 0;
#X connect 87 0 89 1;
#X connect 88 0 89 0;
#X connect 89 0 91 0;
#X connect 90 0 91 0;
#X connect 91 0 97 0;
#X connect 93 0 83 0;
#X connect 94 0 95 0;
#X connect 95 0 96 0;
#X connect 96 0 119 0;
#X connect 97 0 98 0;
#X connect 97 1 96 1;
#X connect 97 1 99 0;
#X connect 98 0 94 0;
#X connect 100 0 82 0;
#X connect 101 0 92 0;
#X connect 101 0 9 0;
#X connect 102 0 103 0;
#X connect 103 0 125 0;
#X connect 104 0 105 0;
#X connect 104 0 120 0;
#X connect 105 0 33 0;
#X connect 105 0 133 0;
#X connect 106 0 64 1;
#X connect 106 0 66 0;
#X connect 107 0 67 0;
#X connect 108 0 71 0;
#X connect 108 1 65 0;
#X connect 108 2 34 0;
#X connect 108 3 29 0;
#X connect 108 4 20 0;
#X connect 108 5 12 0;
#X connect 109 0 110 0;
#X connect 109 1 113 0;
#X connect 110 0 111 0;
#X connect 111 0 112 0;
#X connect 112 0 85 0;
#X connect 113 0 112 1;
#X connect 114 0 85 0;
#X connect 119 0 102 0;
#X connect 119 0 101 0;
#X connect 119 0 135 0;
#X connect 120 0 121 0;
#X connect 121 0 9 0;
#X connect 121 0 134 0;
#X connect 122 0 82 0;
#X connect 123 0 60 0;
#X connect 125 0 124 0;
#X connect 125 0 104 0;
#X connect 126 0 127 0;
#X connect 127 0 128 0;
#X connect 127 0 129 0;
#X connect 128 0 131 0;
#X connect 128 0 64 0;
#X connect 129 0 130 0;
#X connect 130 0 132 0;
#X connect 130 0 102 0;
#X connect 130 0 101 0;
#X connect 135 0 126 0;
#X connect 136 0 137 0;
#X connect 137 0 138 0;
#X connect 137 0 82 0;
#X connect 138 0 140 0;
#X connect 139 0 142 0;
#X connect 140 0 139 0;
#X connect 142 0 85 0;
