#N canvas 198 177 1721 880 10;
#X obj 129 87 time -----;
#X obj 50 86 date -----;
#X obj 50 54 t b b;
#X floatatom 129 136 5 0 0 0 - - -, f 5;
#X floatatom 164 136 5 0 0 0 - - -, f 5;
#X floatatom 200 137 5 0 0 0 - - -, f 5;
#X floatatom 50 131 5 0 0 0 - - -, f 5;
#X obj 95 128 + 1;
#N canvas 1 85 450 300 day-mounth_to_day-of-year 0;
#X obj 34 201 +;
#X obj 34 70 sel 1 2 3 4 5 6 7 8 9 10 11 12;
#X msg 34 96 0;
#X msg 48 123 31;
#X msg 63 96 59;
#X msg 78 124 90;
#X obj 34 176 f;
#X msg 96 96 120;
#X msg 114 122 151;
#X msg 130 97 181;
#X msg 149 126 212;
#X msg 169 99 242;
#X msg 193 124 273;
#X msg 207 97 304;
#X msg 233 125 334;
#X floatatom 38 224 5 0 0 0 - - -, f 5;
#X obj 37 46 inlet;
#X obj 91 47 inlet;
#X obj 32 249 outlet;
#X connect 0 0 15 0;
#X connect 0 0 18 0;
#X connect 1 0 2 0;
#X connect 1 1 3 0;
#X connect 1 2 4 0;
#X connect 1 3 5 0;
#X connect 1 4 7 0;
#X connect 1 5 8 0;
#X connect 1 6 9 0;
#X connect 1 7 10 0;
#X connect 1 8 11 0;
#X connect 1 9 12 0;
#X connect 1 10 13 0;
#X connect 1 11 14 0;
#X connect 2 0 6 0;
#X connect 3 0 6 0;
#X connect 4 0 6 0;
#X connect 5 0 6 0;
#X connect 6 0 0 0;
#X connect 7 0 6 0;
#X connect 8 0 6 0;
#X connect 9 0 6 0;
#X connect 10 0 6 0;
#X connect 11 0 6 0;
#X connect 12 0 6 0;
#X connect 13 0 6 0;
#X connect 14 0 6 0;
#X connect 16 0 1 0;
#X connect 17 0 0 1;
#X restore 79 109 pd day-mounth_to_day-of-year;
#X obj 586 387 +;
#X obj 586 337 metro 1000;
#X msg 586 366 1;
#X obj 586 408 t f f;
#X obj 647 451 _fmod 60;
#X floatatom 555 591 9 0 0 0 - - -, f 9;
#X obj 586 319 tgl 15 0 empty empty empty 17 7 0 10 -262144 -1 -1 1
1;
#X obj 743 306 tgl 15 0 empty empty empty 17 7 0 10 -262144 -1 -1 0
1;
#X obj 743 324 metro 20;
#X obj 651 488 i;
#X obj 469 388 +;
#X obj 469 409 t f f;
#X obj 512 463 i;
#X floatatom 504 591 5 0 0 0 - - -, f 5;
#X obj 586 430 / 60;
#X obj 743 347 f;
#X obj 743 261 t f f;
#X obj 743 282 != 0;
#X obj 360 397 +;
#X obj 360 418 t f f;
#X floatatom 446 592 5 0 0 0 - - -, f 5;
#X obj 240 400 +;
#X obj 240 421 t f f;
#X floatatom 138 582 9 0 0 0 - - -, f 9;
#X obj 467 433 / 60;
#X obj 356 441 / 24;
#X obj 230 443 / 365;
#X obj 50 27 bng 15 250 50 0 empty empty empty 17 7 0 10 -262144 -1
-1;
#N canvas 710 419 1167 586 day-of-year_to_mounth-day 0;
#X obj 43 25 inlet;
#X obj 43 278 outlet;
#X obj 152 279 outlet;
#X obj 43 47 moses 31.5;
#X obj 43 84 t b f;
#X msg 43 104 1;
#X obj 117 85 t b f;
#X obj 117 66 moses 28.5;
#X msg 117 104 2;
#X obj 117 47 - 31;
#X obj 187 85 t b f;
#X obj 257 85 t b f;
#X obj 257 47 - 31;
#X obj 327 85 t b f;
#X obj 397 85 t b f;
#X obj 397 47 - 31;
#X obj 467 85 t b f;
#X obj 537 85 t b f;
#X obj 537 47 - 31;
#X obj 607 85 t b f;
#X obj 607 47 - 31;
#X obj 677 85 t b f;
#X obj 747 85 t b f;
#X obj 747 47 - 31;
#X obj 817 85 t b f;
#X obj 817 47 - 31;
#X obj 187 47 - 28;
#X obj 187 66 moses 31.5;
#X obj 257 66 moses 30.5;
#X obj 327 47 - 30;
#X msg 187 104 3;
#X msg 257 104 4;
#X msg 327 104 5;
#X msg 397 104 6;
#X msg 467 104 7;
#X msg 537 104 8;
#X msg 607 104 9;
#X msg 677 104 10;
#X msg 747 104 11;
#X msg 817 104 12;
#X obj 327 66 moses 31.5;
#X obj 397 66 moses 30.5;
#X obj 467 46 - 30;
#X obj 467 66 moses 31.5;
#X obj 537 66 moses 31.5;
#X obj 607 66 moses 30.5;
#X obj 677 47 - 30;
#X obj 677 66 moses 31.5;
#X obj 747 66 moses 30.5;
#X obj 817 66 moses 31.5;
#X connect 0 0 3 0;
#X connect 3 0 4 0;
#X connect 3 1 9 0;
#X connect 4 0 5 0;
#X connect 4 1 2 0;
#X connect 5 0 1 0;
#X connect 6 0 8 0;
#X connect 6 1 2 0;
#X connect 7 0 6 0;
#X connect 7 1 26 0;
#X connect 8 0 1 0;
#X connect 9 0 7 0;
#X connect 10 0 30 0;
#X connect 10 1 2 0;
#X connect 11 0 31 0;
#X connect 11 1 2 0;
#X connect 12 0 28 0;
#X connect 13 0 32 0;
#X connect 13 1 2 0;
#X connect 14 0 33 0;
#X connect 14 1 2 0;
#X connect 15 0 41 0;
#X connect 16 0 34 0;
#X connect 16 1 2 0;
#X connect 17 0 35 0;
#X connect 17 1 2 0;
#X connect 18 0 44 0;
#X connect 19 0 36 0;
#X connect 19 1 2 0;
#X connect 20 0 45 0;
#X connect 21 0 37 0;
#X connect 21 1 2 0;
#X connect 22 0 38 0;
#X connect 22 1 2 0;
#X connect 23 0 48 0;
#X connect 24 0 39 0;
#X connect 24 1 2 0;
#X connect 25 0 49 0;
#X connect 26 0 27 0;
#X connect 27 0 10 0;
#X connect 27 1 12 0;
#X connect 28 0 11 0;
#X connect 28 1 29 0;
#X connect 29 0 40 0;
#X connect 30 0 1 0;
#X connect 31 0 1 0;
#X connect 32 0 1 0;
#X connect 33 0 1 0;
#X connect 34 0 1 0;
#X connect 35 0 1 0;
#X connect 36 0 1 0;
#X connect 37 0 1 0;
#X connect 38 0 1 0;
#X connect 39 0 1 0;
#X connect 40 0 13 0;
#X connect 40 1 15 0;
#X connect 41 0 14 0;
#X connect 41 1 42 0;
#X connect 42 0 43 0;
#X connect 43 0 16 0;
#X connect 43 1 18 0;
#X connect 44 0 17 0;
#X connect 44 1 20 0;
#X connect 45 0 19 0;
#X connect 45 1 46 0;
#X connect 46 0 47 0;
#X connect 47 0 21 0;
#X connect 47 1 23 0;
#X connect 48 0 22 0;
#X connect 48 1 25 0;
#X connect 49 0 24 0;
#X restore 206 550 pd day-of-year_to_mounth-day;
#X floatatom 224 584 5 0 0 0 - - -, f 5;
#X floatatom 282 587 5 0 0 0 - - -, f 5;
#X text 74 25 init a l'heure actuel;
#X obj 586 292 loadbang;
#X text 761 54 vitesse defillement;
#X obj 586 455 moses 0;
#X obj 586 477 - 1;
#X obj 586 498 i;
#X obj 448 459 moses 0;
#X obj 448 481 - 1;
#X obj 448 502 i;
#X obj 328 468 moses 0;
#X obj 328 490 - 1;
#X obj 328 511 i;
#X obj 209 470 moses 0;
#X obj 209 492 - 1;
#X obj 209 513 i;
#X obj 743 211 exp;
#X floatatom 787 291 9 0 0 0 - - -, f 9;
#X obj 742 45 vsl 15 128 0 127 0 0 empty empty empty 0 -9 0 10 -262144
-1 -1 0 1;
#X obj 743 236 - 1;
#X obj 123 400 +;
#X obj 123 421 t f f;
#X obj 92 470 moses 0;
#X obj 92 492 - 1;
#X obj 92 513 i;
#X obj 31 442 +;
#X obj 57 441 f;
#X floatatom 81 582 9 0 0 0 - - -, f 9;
#X obj 47 563 i;
#X text 233 269 init a une data qcq;
#X text 741 18 +;
#X obj 708 45 vsl 15 128 0 127 0 0 empty empty empty 0 -9 0 10 -262144
-1 -1 0 1;
#X obj 708 183 / 5;
#X obj 708 206 exp;
#X obj 708 231 - 1;
#X obj 708 257 * -1;
#X text 710 20 -;
#X obj 879 138 unpack f f;
#X obj 991 190 delay;
#X text 970 140 increment de temps (jours) et temps de transition (s))
;
#X obj 50 302 t a b;
#X msg 93 302 0;
#X obj 880 193 /;
#X msg 991 217 0;
#X obj 880 239 f;
#X obj 991 167 * 1000;
#X obj 95 443 / 1000;
#X obj 50 337 unpack f f f f f f;
#X obj 48 158 t f f;
#X obj 49 181 / 1000;
#X obj 50 208 i;
#X obj 51 232 pack f f f f f f;
#X obj 82 209 % 1000;
#X msg 122 268 2 32 254 12 18 30;
#X text 66 599 milenaire;
#X text 142 598 année;
#X text 216 603 date;
#X text 447 609 h m s;
#X obj 743 393 f;
#X obj 742 188 / 5;
#X obj 309 13 inlet;
#X obj 64 721 outlet;
#X obj 63 683 pack f f;
#X obj 219 712 outlet;
#X obj 218 674 pack f f;
#X obj 462 727 outlet;
#X obj 461 689 pack f f f;
#X obj 460 659 _speedlim 40;
#X obj 216 645 _speedlim 40;
#X obj 63 657 _speedlim 40;
#X obj 396 168 exp;
#X obj 396 193 - 1;
#X obj 395 145 / 5;
#X obj 454 119 > 0;
#X obj 395 216 *;
#X obj 454 139 * 2;
#X obj 454 162 - 1;
#X obj 397 89 t f f;
#X obj 397 119 abs;
#X obj 12 498 min 999999;
#X obj 11 520 max -999999;
#X obj 648 405 min 999999;
#X obj 647 427 max -999999;
#X obj 929 468 moses 0;
#X obj 879 498 moses -86400;
#X obj 985 497 moses 86400;
#X obj 1048 517 moses 3.1536e+07;
#X obj 750 522 moses -3.1536e+07;
#X obj 958 550 f;
#X obj 1048 544 / 86400;
#X obj 1048 568 t f f;
#X obj 1048 595 i;
#X obj 1087 595 _fmod 1;
#X msg 1029 401 1e+06;
#X obj 1087 617 * 86400;
#X obj 960 678 f;
#X text 988 551 s;
#X text 992 682 j;
#X obj 966 739 f;
#X text 1001 741 a;
#X obj 1176 568 t f f;
#X obj 1176 595 i;
#X obj 1215 595 _fmod 1;
#X obj 1176 544 / 3.1536e+07;
#X obj 1215 617 * 3.1536e+07;
#X obj 879 558 t f f;
#X obj 879 585 i;
#X obj 918 585 _fmod 1;
#X obj 879 534 / -86400;
#X obj 918 607 * -86400;
#X obj 878 609 * -1;
#X obj 751 576 t f f;
#X obj 751 603 i;
#X obj 790 603 _fmod 1;
#X obj 751 552 / -3.1536e+07;
#X obj 752 627 * -1;
#X obj 790 625 * -3.1536e+07;
#X text 1037 8 1h;
#X msg 964 36 1 1;
#X text 1045 35 1 J;
#X msg 1000 36 1 10;
#X text 1040 67 1 an;
#X msg 986 67 365 11;
#X obj 878 163 * 1728;
#X floatatom 895 221 9 0 0 0 - - -, f 9;
#X msg 957 9 0.0416666 11;
#X msg 875 9 0.0416666 1;
#X obj 509 431 mod 60;
#X obj 400 440 mod 24;
#X obj 267 444 mod 365;
#X obj 151 445 mod 1000;
#X msg 944 68 365 1;
#X msg 938 96 2920 1;
#X msg 1002 96 2920 10;
#X text 1057 100 8 an;
#X obj 1326 103 unpack f f;
#X obj 1437 155 delay;
#X obj 1326 158 /;
#X msg 1437 182 0;
#X obj 1326 204 f;
#X obj 1437 132 * 1000;
#X obj 1325 349 f;
#X floatatom 1341 186 9 0 0 0 - - -, f 9;
#X obj 1383 130 * 50;
#X obj 1326 225 t f f;
#X obj 1326 257 i;
#X obj 1466 228 _fmod 1;
#X obj 1468 253 * 365;
#X obj 1468 276 * 24;
#X obj 1468 300 * 3600;
#X obj 1468 380 f;
#X obj 1545 599 time -----;
#X obj 1466 598 date -----;
#X obj 1466 566 t b b;
#X floatatom 1545 648 5 0 0 0 - - -, f 5;
#X floatatom 1580 648 5 0 0 0 - - -, f 5;
#X obj 1511 640 + 1;
#N canvas 1 85 450 300 day-mounth_to_day-of-year 0;
#X obj 34 201 +;
#X obj 34 70 sel 1 2 3 4 5 6 7 8 9 10 11 12;
#X msg 34 96 0;
#X msg 48 123 31;
#X msg 63 96 59;
#X msg 78 124 90;
#X obj 34 176 f;
#X msg 96 96 120;
#X msg 114 122 151;
#X msg 130 97 181;
#X msg 149 126 212;
#X msg 169 99 242;
#X msg 193 124 273;
#X msg 207 97 304;
#X msg 233 125 334;
#X floatatom 38 224 5 0 0 0 - - -, f 5;
#X obj 37 46 inlet;
#X obj 91 47 inlet;
#X obj 32 249 outlet;
#X connect 0 0 15 0;
#X connect 0 0 18 0;
#X connect 1 0 2 0;
#X connect 1 1 3 0;
#X connect 1 2 4 0;
#X connect 1 3 5 0;
#X connect 1 4 7 0;
#X connect 1 5 8 0;
#X connect 1 6 9 0;
#X connect 1 7 10 0;
#X connect 1 8 11 0;
#X connect 1 9 12 0;
#X connect 1 10 13 0;
#X connect 1 11 14 0;
#X connect 2 0 6 0;
#X connect 3 0 6 0;
#X connect 4 0 6 0;
#X connect 5 0 6 0;
#X connect 6 0 0 0;
#X connect 7 0 6 0;
#X connect 8 0 6 0;
#X connect 9 0 6 0;
#X connect 10 0 6 0;
#X connect 11 0 6 0;
#X connect 12 0 6 0;
#X connect 13 0 6 0;
#X connect 14 0 6 0;
#X connect 16 0 1 0;
#X connect 17 0 0 1;
#X restore 1495 621 pd day-mounth_to_day-of-year;
#X obj 1466 539 bng 15 250 50 0 empty empty empty 17 7 0 10 -262144
-1 -1;
#X text 1490 537 init a l'heure actuel;
#X obj 1467 748 t f f;
#X obj 1468 771 / 1000;
#X obj 1469 798 i;
#X obj 1469 841 pack f f f f f f;
#X obj 1501 799 % 1000;
#X obj 1466 722 +;
#X obj 308 39 route heure_actuel speed increment_jours set increment_annee
;
#X obj 1356 583 * 1000;
#X obj 1356 608 +;
#X obj 1356 557 unpack f f;
#X obj 1456 682 f;
#X obj 1456 637 t b;
#X floatatom 1399 722 9 0 0 0 - - -, f 9;
#X obj 1414 648 f;
#X obj 1326 128 t f f b;
#X obj 884 313 line 0 20;
#X obj 887 275 pack f f;
#X obj 932 249 * 1000;
#X obj 509 88 unpack f f;
#X obj 511 137 pack f f;
#X obj 567 111 / 2;
#X obj 1325 321 line 0 20;
#X obj 1325 297 pack f f;
#X obj 1370 271 * 1000;
#X obj 1467 357 line 0 20;
#X obj 1467 333 pack f f;
#X obj 1512 307 * 1000;
#X obj 622 89 unpack f f;
#X obj 624 138 pack f f;
#X obj 680 112 / 2;
#X msg 1330 42 243245 30;
#X msg 1375 76 0 0;
#X floatatom 1339 385 5 0 0 0 - - -, f 5;
#X connect 0 0 3 0;
#X connect 0 1 4 0;
#X connect 0 2 5 0;
#X connect 1 0 6 0;
#X connect 1 4 7 0;
#X connect 2 0 1 0;
#X connect 2 1 0 0;
#X connect 3 0 90 3;
#X connect 4 0 90 4;
#X connect 5 0 90 5;
#X connect 6 0 87 0;
#X connect 7 0 90 2;
#X connect 9 0 12 0;
#X connect 10 0 11 0;
#X connect 11 0 9 0;
#X connect 12 0 23 0;
#X connect 12 1 120 0;
#X connect 13 0 18 0;
#X connect 13 0 9 1;
#X connect 14 0 105 2;
#X connect 15 0 10 0;
#X connect 16 0 17 0;
#X connect 17 0 24 0;
#X connect 18 0 14 0;
#X connect 19 0 20 0;
#X connect 20 0 33 0;
#X connect 20 1 166 0;
#X connect 21 0 22 0;
#X connect 22 0 105 1;
#X connect 23 0 43 0;
#X connect 24 0 97 0;
#X connect 25 0 26 0;
#X connect 25 1 24 1;
#X connect 25 1 56 0;
#X connect 26 0 16 0;
#X connect 27 0 28 0;
#X connect 28 0 34 0;
#X connect 28 1 167 0;
#X connect 29 0 106 0;
#X connect 30 0 31 0;
#X connect 31 0 35 0;
#X connect 31 1 168 0;
#X connect 32 0 101 1;
#X connect 33 0 46 0;
#X connect 34 0 49 0;
#X connect 35 0 52 0;
#X connect 36 0 2 0;
#X connect 37 0 38 0;
#X connect 37 0 107 0;
#X connect 37 1 39 0;
#X connect 37 1 103 1;
#X connect 41 0 15 0;
#X connect 43 0 44 0;
#X connect 43 1 45 0;
#X connect 44 0 45 0;
#X connect 45 0 19 0;
#X connect 46 0 47 0;
#X connect 46 1 48 0;
#X connect 47 0 48 0;
#X connect 48 0 27 0;
#X connect 49 0 50 0;
#X connect 49 1 51 0;
#X connect 50 0 51 0;
#X connect 51 0 30 0;
#X connect 52 0 53 0;
#X connect 52 1 54 0;
#X connect 53 0 54 0;
#X connect 54 0 59 0;
#X connect 55 0 58 0;
#X connect 57 0 98 0;
#X connect 58 0 25 0;
#X connect 59 0 60 0;
#X connect 60 0 85 0;
#X connect 60 1 169 0;
#X connect 61 0 62 0;
#X connect 61 1 63 0;
#X connect 62 0 63 0;
#X connect 63 0 64 0;
#X connect 64 0 65 0;
#X connect 65 0 67 0;
#X connect 65 0 118 0;
#X connect 67 0 66 0;
#X connect 67 0 108 0;
#X connect 70 0 71 0;
#X connect 71 0 72 0;
#X connect 72 0 73 0;
#X connect 73 0 74 0;
#X connect 74 0 25 0;
#X connect 76 0 162 0;
#X connect 76 1 84 0;
#X connect 76 1 81 1;
#X connect 76 1 216 0;
#X connect 77 0 82 0;
#X connect 79 0 86 0;
#X connect 79 1 80 0;
#X connect 80 0 25 0;
#X connect 80 0 83 0;
#X connect 81 0 83 0;
#X connect 81 0 163 0;
#X connect 82 0 83 0;
#X connect 83 0 215 0;
#X connect 84 0 77 0;
#X connect 85 0 61 0;
#X connect 86 0 65 0;
#X connect 86 1 60 0;
#X connect 86 2 31 0;
#X connect 86 3 28 0;
#X connect 86 4 20 0;
#X connect 86 5 12 0;
#X connect 87 0 88 0;
#X connect 87 1 91 0;
#X connect 88 0 89 0;
#X connect 89 0 90 0;
#X connect 90 0 79 0;
#X connect 91 0 90 1;
#X connect 92 0 79 0;
#X connect 97 0 122 0;
#X connect 98 0 55 0;
#X connect 99 0 205 0;
#X connect 101 0 100 0;
#X connect 101 0 208 0;
#X connect 103 0 102 0;
#X connect 105 0 104 0;
#X connect 106 0 105 0;
#X connect 107 0 103 0;
#X connect 108 0 101 0;
#X connect 109 0 110 0;
#X connect 110 0 113 0;
#X connect 111 0 109 0;
#X connect 112 0 114 0;
#X connect 113 0 25 0;
#X connect 114 0 115 0;
#X connect 115 0 113 1;
#X connect 116 0 117 0;
#X connect 116 1 112 0;
#X connect 117 0 111 0;
#X connect 118 0 119 0;
#X connect 119 0 64 1;
#X connect 120 0 121 0;
#X connect 121 0 13 0;
#X connect 122 0 123 0;
#X connect 122 1 124 0;
#X connect 123 0 126 0;
#X connect 123 0 147 0;
#X connect 123 1 127 0;
#X connect 124 0 127 0;
#X connect 124 1 125 0;
#X connect 125 0 128 0;
#X connect 125 1 142 0;
#X connect 126 0 153 0;
#X connect 127 0 9 0;
#X connect 128 0 129 0;
#X connect 129 0 130 0;
#X connect 129 1 131 0;
#X connect 130 0 134 0;
#X connect 131 0 133 0;
#X connect 132 0 124 0;
#X connect 133 0 127 0;
#X connect 134 0 30 0;
#X connect 137 0 59 0;
#X connect 139 0 140 0;
#X connect 139 1 141 0;
#X connect 140 0 137 0;
#X connect 141 0 143 0;
#X connect 142 0 139 0;
#X connect 143 0 124 0;
#X connect 144 0 145 0;
#X connect 144 1 146 0;
#X connect 145 0 149 0;
#X connect 146 0 148 0;
#X connect 147 0 144 0;
#X connect 148 0 127 0;
#X connect 149 0 134 0;
#X connect 150 0 151 0;
#X connect 150 1 152 0;
#X connect 151 0 154 0;
#X connect 152 0 155 0;
#X connect 153 0 150 0;
#X connect 154 0 137 0;
#X connect 155 0 123 0;
#X connect 157 0 76 0;
#X connect 159 0 76 0;
#X connect 161 0 76 0;
#X connect 162 0 81 0;
#X connect 164 0 76 0;
#X connect 165 0 76 0;
#X connect 166 0 19 1;
#X connect 166 0 21 0;
#X connect 167 0 27 1;
#X connect 167 0 29 0;
#X connect 168 0 30 1;
#X connect 168 0 37 0;
#X connect 169 0 59 1;
#X connect 169 0 32 0;
#X connect 170 0 76 0;
#X connect 171 0 76 0;
#X connect 172 0 76 0;
#X connect 174 0 213 0;
#X connect 174 1 179 0;
#X connect 174 1 182 0;
#X connect 174 1 222 0;
#X connect 174 1 225 0;
#X connect 175 0 177 0;
#X connect 176 0 178 0;
#X connect 176 0 181 0;
#X connect 177 0 178 0;
#X connect 178 0 183 0;
#X connect 179 0 175 0;
#X connect 180 0 59 0;
#X connect 180 0 231 0;
#X connect 182 0 176 1;
#X connect 183 0 184 0;
#X connect 183 1 185 0;
#X connect 184 0 221 0;
#X connect 185 0 186 0;
#X connect 186 0 187 0;
#X connect 187 0 188 0;
#X connect 188 0 224 0;
#X connect 189 0 122 0;
#X connect 190 0 193 0;
#X connect 190 1 194 0;
#X connect 191 0 210 0;
#X connect 191 4 195 0;
#X connect 192 0 191 0;
#X connect 192 1 190 0;
#X connect 193 0 202 3;
#X connect 194 0 202 4;
#X connect 195 0 202 2;
#X connect 197 0 192 0;
#X connect 199 0 200 0;
#X connect 199 1 203 0;
#X connect 200 0 201 0;
#X connect 201 0 202 0;
#X connect 202 0 79 0;
#X connect 203 0 202 1;
#X connect 204 0 199 0;
#X connect 205 0 36 0;
#X connect 205 1 116 0;
#X connect 205 2 217 0;
#X connect 205 3 79 0;
#X connect 205 4 226 0;
#X connect 206 0 207 0;
#X connect 207 0 212 1;
#X connect 208 0 206 0;
#X connect 208 1 207 1;
#X connect 209 0 204 0;
#X connect 209 0 211 0;
#X connect 210 0 209 0;
#X connect 212 0 209 1;
#X connect 213 0 176 0;
#X connect 213 1 204 1;
#X connect 213 2 212 0;
#X connect 214 0 97 0;
#X connect 215 0 214 0;
#X connect 216 0 215 1;
#X connect 217 0 218 0;
#X connect 217 1 219 0;
#X connect 218 0 76 0;
#X connect 219 0 218 1;
#X connect 220 0 180 0;
#X connect 221 0 220 0;
#X connect 222 0 221 1;
#X connect 223 0 189 0;
#X connect 224 0 223 0;
#X connect 225 0 224 1;
#X connect 226 0 227 0;
#X connect 226 1 228 0;
#X connect 227 0 174 0;
#X connect 228 0 227 1;
#X connect 229 0 174 0;
#X connect 230 0 174 0;
