#N canvas 531 200 1139 879 10;
#X declare -path ../osc;
#X declare -path ../osc;
#X declare -path ../osc;
#X declare -path ../osc;
#X declare -path ../osc;
#X declare -path ../osc;
#X declare -path ../osc;
#X declare -path ../osc;
#X declare -path ../osc;
#X declare -path ../osc;
#X declare -path ../osc;
#X declare -path ../osc;
#X declare -path ../osc;
#X declare -path ../osc;
#X declare -path ../osc;
#X declare -path ../osc;
#X declare -path ../osc;
#X obj 46 221 pix_film;
#X obj 46 312 pix_texture;
#X obj 235 59 openpanel;
#X obj 264 245 bng 15 250 50 0 empty empty empty 17 7 0 10 -262144
-1 -1;
#X msg 235 13 ../videos;
#X obj 235 35 symbol;
#X obj 503 157 \$1;
#X obj 503 116 loadbang;
#X obj 503 137 bng 15 250 50 0 empty empty empty 17 7 0 10 -262144
-1 -1;
#X obj 46 50 separator;
#X obj 46 292 spigot;
#X obj 46 249 pix_info, f 13;
#X obj 79 270 > 0;
#X obj 101 221 spigot;
#X obj 271 285 tgl 15 0 empty empty loop 17 7 0 10 -262144 -1 -1 0
1;
#X obj 199 57 bng 15 250 50 0 empty empty empty 17 7 0 10 -262144 -1
-1;
#X obj 235 81 symbol;
#N canvas 1 85 450 300 filter_blank 0;
#X obj 146 32 inlet;
#X obj 146 54 t a a;
#X obj 199 112 list length;
#X obj 199 90 list fromsymbol;
#X obj 199 162 > 0;
#X obj 146 202 spigot;
#X obj 146 224 outlet;
#X text 228 195 filter out blank file name;
#X connect 0 0 1 0;
#X connect 1 0 5 0;
#X connect 1 1 3 0;
#X connect 2 0 4 0;
#X connect 3 0 2 0;
#X connect 4 0 5 1;
#X connect 5 0 6 0;
#X restore 235 103 pd filter_blank;
#X symbolatom 322 44 10 0 0 0 - - -, f 10;
#X obj 282 81 oscparam /\$2/video_player/\$1/file;
#X obj 354 290 oscparam /\$2/video_player/\$1/loop;
#X obj 46 352 color 1 1 1 1;
#X obj 354 270 f;
#X obj 354 250 route bang;
#X obj 503 179 - 1;
#X obj 46 843 rectangle 2 4;
#X obj 503 221 - 8;
#X obj 503 199 * 4;
#X obj 892 45 oscparam /\$2/video_player/\$1/text;
#X obj 645 120 oscparam /\$2/video_player/\$1/color/g;
#X obj 645 180 oscparam /\$2/video_player/\$1/color/b;
#X obj 645 240 oscparam /\$2/video_player/\$1/color/a;
#X obj 587 18 loadbang;
#X msg 587 40 1;
#X obj 927 318 oscparam /\$2/video_player/\$1/scale/x;
#X obj 927 378 oscparam /\$2/video_player/\$1/scale/y;
#X obj 868 276 loadbang;
#X obj 645 60 oscparam /\$2/video_player/\$1/color/r;
#X obj 892 85 r \$0-rotate_x_out;
#X obj 892 125 s \$0-rotate_x_in;
#X obj 892 145 r \$0-rotate_y_out;
#X obj 892 185 s \$0-rotate_y_in;
#X obj 892 205 r \$0-rotate_z_out;
#X obj 892 245 s \$0-rotate_z_in;
#X obj 927 398 s \$0-scale_y_in;
#X obj 927 358 r \$0-scale_y_out;
#X obj 927 338 s \$0-scale_x_in;
#X obj 927 298 r \$0-scale_x_out;
#X obj 649 390 oscparam /\$2/video_player/\$1/position/y;
#X obj 649 450 oscparam /\$2/video_player/\$1/position/z;
#X obj 892 105 oscparam /\$2/video_player/\$1/rotate/x;
#X obj 892 165 oscparam /\$2/video_player/\$1/rotate/y;
#X obj 892 225 oscparam /\$2/video_player/\$1/rotate/z;
#X obj 649 310 r \$0-position_x_out;
#X obj 649 350 s \$0-position_x_in;
#X obj 649 370 r \$0-position_y_out;
#X obj 649 410 s \$0-position_y_in;
#X obj 649 430 r \$0-position_z_out;
#X obj 649 470 s \$0-position_z_in;
#X obj 892 25 r \$0-text_out;
#X obj 892 65 s \$0-text_in;
#X msg 868 298 1;
#X floatatom 291 353 5 0 1 0 r #0-color_r_in #0-color_r_out, f 5;
#X floatatom 291 373 5 0 1 0 g #0-color_g_in #0-color_g_out, f 5;
#X floatatom 291 393 5 0 1 0 b #0-color_b_in #0-color_b_out, f 5;
#X floatatom 291 413 5 0 1 0 a #0-color_a_in #0-color_a_out, f 5;
#X text 271 335 color;
#X floatatom 291 533 5 0 0 0 x #0-scale_x_in #0-scale_x_out, f 5;
#X floatatom 291 553 5 0 0 0 y #0-scale_y_in #0-scale_y_out, f 5;
#X text 275 515 scale;
#X floatatom 291 453 5 0 0 0 x #0-position_x_in #0-position_x_out,
f 5;
#X floatatom 291 473 5 0 0 0 y #0-position_y_in #0-position_y_out,
f 5;
#X floatatom 291 493 5 0 0 0 z #0-position_z_in #0-position_z_out,
f 5;
#X text 272 435 position;
#X floatatom 291 593 5 0 0 0 x #0-rotate_X_in #0-rotate_X_out, f 5
;
#X floatatom 291 613 5 0 0 0 y #0-rotate_y_in #0-rotate_y_out, f 5
;
#X floatatom 291 633 5 0 0 0 z #0-rotate_z_in #0-rotate_z_out, f 5
;
#X text 272 575 rotate;
#X obj 46 437 translateXYZ;
#X obj 46 503 scaleXYZ 1 1 1;
#X obj 46 589 rotateXYZ;
#X obj 63 525 r \$0-rotate_x_out;
#X obj 80 545 r \$0-rotate_y_out;
#X obj 97 565 r \$0-rotate_z_out;
#X obj 69 374 r \$0-position_x_out;
#X obj 92 394 r \$0-position_y_out;
#X obj 115 415 r \$0-position_z_out;
#X obj 73 458 r \$0-scale_x_out;
#X obj 100 478 r \$0-scale_y_out;
#N canvas 1 109 450 300 pack 0;
#X obj 144 237 pack 1 1 1 1;
#X obj 162 136 t b f;
#X obj 173 163 t b f;
#X obj 187 193 t b f;
#X obj 144 259 outlet;
#X obj 144 17 r \$0-color_r_out;
#X obj 162 37 r \$0-color_g_out;
#X obj 173 57 r \$0-color_b_out;
#X obj 187 77 r \$0-color_a_out;
#X connect 0 0 4 0;
#X connect 1 0 0 0;
#X connect 1 1 0 1;
#X connect 2 0 0 0;
#X connect 2 1 0 2;
#X connect 3 0 0 0;
#X connect 3 1 0 3;
#X connect 5 0 0 0;
#X connect 6 0 1 0;
#X connect 7 0 2 0;
#X connect 8 0 3 0;
#X restore 121 332 pd pack;
#X floatatom 301 313 5 0 0 0 speed #0-speed_in #0-speed_out, f 5;
#X obj 154 126 r \$0-speed_out;
#X msg 235 145 open \$1;
#X msg 154 148 auto \$1;
#X obj 902 430 r \$0-speed_out;
#X obj 902 470 s \$0-speed_in;
#X obj 902 450 oscparam /\$2/video_player/\$1/speed;
#X obj 645 40 r \$0-color_r_out;
#X obj 645 80 s \$0-color_r_in;
#X obj 645 100 r \$0-color_g_out;
#X obj 645 140 s \$0-color_g_in;
#X obj 645 160 r \$0-color_b_out;
#X obj 645 200 s \$0-color_b_in;
#X obj 645 220 r \$0-color_a_out;
#X obj 645 260 s \$0-color_a_in;
#X obj 46 29 r render_video_\$2;
#X obj 649 330 oscparam /\$2/video_player/\$1/position/x;
#N canvas 1 92 460 743 shader 0;
#X obj 154 364 glsl_fragment;
#X obj 154 544 glsl_program;
#X floatatom 223 569 5 0 0 0 ID - -, f 5;
#X msg 165 518 link;
#X msg 163 496 print;
#X floatatom 241 393 5 0 0 0 - - -, f 5;
#X msg 244 337 open matrix.frag;
#X obj 154 334 glsl_vertex;
#X obj 208 495 pack 0 0;
#X obj 229 475 t b f;
#X obj 229 430 change;
#X obj 182 401 change;
#X msg 208 518 link \$1 \$2;
#X floatatom 229 456 2 0 0 0 ID - -, f 2;
#X floatatom 182 424 2 0 0 0 ID - -, f 2;
#X msg 229 304 open matrix.vert;
#N canvas 1 134 450 300 pow-of-2 0;
#X obj 190 212 pack;
#X obj 186 20 inlet;
#X obj 186 42 unpack;
#N canvas 268 198 450 635 nearest-pow-of-2 0;
#X obj 158 152 log;
#X obj 189 153 log;
#X msg 188 126 2;
#X obj 167 193 /;
#X obj 165 87 t f b;
#X obj 194 237 wrap;
#X obj 167 215 t f f;
#X obj 227 282 > 0;
#X obj 194 303 spigot;
#X msg 194 325 1 \$1;
#X obj 194 347 -;
#X obj 178 370 +;
#X obj 194 261 t f f f;
#X obj 164 60 inlet;
#X obj 178 422 outlet;
#X obj 178 392 expr pow(2 \, $f1);
#X connect 0 0 3 0;
#X connect 1 0 3 1;
#X connect 2 0 1 0;
#X connect 3 0 6 0;
#X connect 4 0 0 0;
#X connect 4 1 2 0;
#X connect 5 0 12 0;
#X connect 6 0 11 0;
#X connect 6 1 5 0;
#X connect 7 0 8 1;
#X connect 8 0 9 0;
#X connect 9 0 10 0;
#X connect 10 0 11 1;
#X connect 11 0 15 0;
#X connect 12 0 8 0;
#X connect 12 1 7 0;
#X connect 12 2 11 1;
#X connect 13 0 4 0;
#X connect 15 0 14 0;
#X restore 211 143 pd nearest-pow-of-2;
#X obj 190 234 outlet;
#N canvas 268 198 450 635 nearest-pow-of-2 0;
#X obj 158 152 log;
#X obj 189 153 log;
#X msg 188 126 2;
#X obj 167 193 /;
#X obj 165 87 t f b;
#X obj 194 237 wrap;
#X obj 167 215 t f f;
#X obj 227 282 > 0;
#X obj 194 303 spigot;
#X msg 194 325 1 \$1;
#X obj 194 347 -;
#X obj 178 370 +;
#X obj 194 261 t f f f;
#X obj 164 60 inlet;
#X obj 179 463 outlet;
#X floatatom 110 310 5 0 0 0 - - -, f 5;
#X obj 179 423 expr pow(2 \, $f1);
#X connect 0 0 3 0;
#X connect 1 0 3 1;
#X connect 2 0 1 0;
#X connect 3 0 6 0;
#X connect 4 0 0 0;
#X connect 4 1 2 0;
#X connect 5 0 12 0;
#X connect 6 0 11 0;
#X connect 6 0 15 0;
#X connect 6 1 5 0;
#X connect 7 0 8 1;
#X connect 8 0 9 0;
#X connect 9 0 10 0;
#X connect 10 0 11 1;
#X connect 11 0 16 0;
#X connect 12 0 8 0;
#X connect 12 1 7 0;
#X connect 12 2 11 1;
#X connect 13 0 4 0;
#X connect 16 0 14 0;
#X restore 191 113 pd nearest-pow-of-2;
#X obj 238 79 change;
#X obj 155 79 change;
#X connect 0 0 4 0;
#X connect 1 0 2 0;
#X connect 2 0 7 0;
#X connect 2 1 6 0;
#X connect 3 0 0 1;
#X connect 5 0 0 0;
#X connect 6 0 3 0;
#X connect 7 0 5 0;
#X restore 180 199 pd pow-of-2;
#X obj 154 142 pix_info, f 30;
#X obj 180 170 pack;
#X msg 180 251 dimen \$1 \$2 \, linewidth 0.11;
#X msg 55 446 linewidth \$1;
#X floatatom 55 423 5 0 0 0 - - -, f 5;
#X obj 154 81 inlet;
#X obj 154 616 outlet;
#X connect 0 0 1 0;
#X connect 0 1 5 0;
#X connect 0 1 10 0;
#X connect 1 0 23 0;
#X connect 1 1 2 0;
#X connect 3 0 1 0;
#X connect 4 0 1 0;
#X connect 6 0 0 0;
#X connect 7 0 0 0;
#X connect 7 1 11 0;
#X connect 8 0 12 0;
#X connect 9 0 8 0;
#X connect 9 1 8 1;
#X connect 10 0 13 0;
#X connect 11 0 14 0;
#X connect 12 0 1 0;
#X connect 13 0 9 0;
#X connect 14 0 8 0;
#X connect 15 0 7 0;
#X connect 16 0 19 0;
#X connect 17 0 7 0;
#X connect 17 1 18 0;
#X connect 17 2 18 1;
#X connect 18 0 16 0;
#X connect 19 0 1 0;
#X connect 20 0 1 0;
#X connect 21 0 20 0;
#X connect 22 0 17 0;
#X restore 57 624 pd shader;
#X obj -24 221 pix_image;
#X obj 46 102 spigot;
#X obj -4 102 spigot;
#X text 281 245 open film;
#X obj 264 265 bng 15 250 50 0 empty empty empty 17 7 0 10 -262144
-1 -1;
#X text 281 265 open image;
#X obj 235 167 t b a;
#X obj 122 59 t b;
#X msg 122 81 1;
#X msg 89 80 0;
#X obj -265 59 openpanel;
#X obj -265 35 symbol;
#X obj -265 81 symbol;
#N canvas 1 85 450 300 filter_blank 0;
#X obj 146 32 inlet;
#X obj 146 54 t a a;
#X obj 199 112 list length;
#X obj 199 90 list fromsymbol;
#X obj 199 162 > 0;
#X obj 146 202 spigot;
#X obj 146 224 outlet;
#X text 228 195 filter out blank file name;
#X connect 0 0 1 0;
#X connect 1 0 5 0;
#X connect 1 1 3 0;
#X connect 2 0 4 0;
#X connect 3 0 2 0;
#X connect 4 0 5 1;
#X connect 5 0 6 0;
#X restore -265 103 pd filter_blank;
#X symbolatom -178 44 10 0 0 0 - - -, f 10;
#X msg -265 125 open \$1;
#X obj -265 147 t b a;
#X msg -265 13 ../images;
#X obj -218 81 oscparam /\$2/video_player/\$1/image;
#X obj -21 37 t b;
#X msg -21 59 0;
#X msg -51 58 1;
#X obj 46 659 pix_info, f 18;
#X obj 110 693 /;
#X floatatom 110 715 5 0 0 0 - - -, f 5;
#X obj 110 734 moses 1;
#X obj 78 765 * 4;
#X obj 78 787 t a b;
#X msg 121 815 4;
#X obj 158 784 t b a;
#X msg 158 806 2;
#X obj 158 762 * 2;
#X floatatom 178 708 5 0 0 0 - - -, f 5;
#X floatatom 61 707 5 0 0 0 - - -, f 5;
#X floatatom 229 793 5 0 0 0 - - -, f 5;
#X obj 139 257 loadbang;
#X msg 139 278 quality 0;
#X connect 0 0 11 0;
#X connect 0 2 13 0;
#X connect 1 0 21 0;
#X connect 2 0 16 0;
#X connect 3 0 2 0;
#X connect 4 0 5 0;
#X connect 5 0 2 0;
#X connect 6 0 24 0;
#X connect 7 0 8 0;
#X connect 8 0 6 0;
#X connect 9 0 109 0;
#X connect 9 0 110 0;
#X connect 10 0 1 0;
#X connect 11 0 10 0;
#X connect 11 1 12 0;
#X connect 12 0 10 1;
#X connect 13 0 0 1;
#X connect 14 0 13 1;
#X connect 14 0 22 0;
#X connect 15 0 16 0;
#X connect 16 0 17 0;
#X connect 16 0 19 0;
#X connect 17 0 92 0;
#X connect 18 0 16 0;
#X connect 19 0 16 0;
#X connect 20 0 23 0;
#X connect 21 0 78 0;
#X connect 22 0 20 0;
#X connect 23 0 22 0;
#X connect 23 1 14 0;
#X connect 24 0 27 0;
#X connect 26 0 54 0;
#X connect 27 0 26 0;
#X connect 28 0 60 0;
#X connect 29 0 100 0;
#X connect 30 0 102 0;
#X connect 31 0 104 0;
#X connect 32 0 33 0;
#X connect 33 0 98 0;
#X connect 33 0 100 0;
#X connect 33 0 102 0;
#X connect 33 0 104 0;
#X connect 34 0 46 0;
#X connect 35 0 44 0;
#X connect 36 0 61 0;
#X connect 37 0 98 0;
#X connect 38 0 50 0;
#X connect 40 0 51 0;
#X connect 42 0 52 0;
#X connect 45 0 35 0;
#X connect 47 0 34 0;
#X connect 48 0 56 0;
#X connect 49 0 58 0;
#X connect 50 0 39 0;
#X connect 51 0 41 0;
#X connect 52 0 43 0;
#X connect 53 0 106 0;
#X connect 55 0 48 0;
#X connect 57 0 49 0;
#X connect 59 0 28 0;
#X connect 61 0 46 0;
#X connect 61 0 44 0;
#X connect 61 0 95 0;
#X connect 78 0 79 0;
#X connect 79 0 80 0;
#X connect 80 0 130 0;
#X connect 81 0 80 1;
#X connect 82 0 80 2;
#X connect 83 0 80 3;
#X connect 84 0 78 1;
#X connect 85 0 78 2;
#X connect 86 0 78 3;
#X connect 87 0 79 1;
#X connect 88 0 79 2;
#X connect 89 0 21 1;
#X connect 91 0 93 0;
#X connect 92 0 114 0;
#X connect 93 0 0 0;
#X connect 94 0 96 0;
#X connect 96 0 95 0;
#X connect 97 0 37 0;
#X connect 99 0 29 0;
#X connect 101 0 30 0;
#X connect 103 0 31 0;
#X connect 105 0 9 0;
#X connect 106 0 54 0;
#X connect 108 0 11 0;
#X connect 109 0 0 0;
#X connect 110 0 108 0;
#X connect 112 0 118 0;
#X connect 114 0 115 0;
#X connect 114 1 0 0;
#X connect 115 0 116 0;
#X connect 115 0 117 0;
#X connect 116 0 109 1;
#X connect 117 0 110 1;
#X connect 118 0 120 0;
#X connect 119 0 118 0;
#X connect 120 0 121 0;
#X connect 120 0 126 0;
#X connect 121 0 123 0;
#X connect 122 0 120 0;
#X connect 123 0 124 0;
#X connect 124 0 127 0;
#X connect 124 1 108 0;
#X connect 125 0 119 0;
#X connect 126 0 120 0;
#X connect 127 0 128 0;
#X connect 127 0 129 0;
#X connect 128 0 109 1;
#X connect 129 0 110 1;
#X connect 130 0 25 0;
#X connect 130 1 131 0;
#X connect 130 1 141 0;
#X connect 130 2 131 1;
#X connect 130 2 140 0;
#X connect 131 0 132 0;
#X connect 132 0 133 0;
#X connect 133 0 134 0;
#X connect 133 1 139 0;
#X connect 134 0 135 0;
#X connect 135 0 25 1;
#X connect 135 1 136 0;
#X connect 136 0 25 2;
#X connect 137 0 138 0;
#X connect 137 1 25 2;
#X connect 137 1 142 0;
#X connect 138 0 25 1;
#X connect 139 0 137 0;
#X connect 143 0 144 0;
#X connect 144 0 1 0;
#X coords 0 -1 1 1 85 430 1 260 230;
