#N canvas 476 85 1665 895 10;
#X declare -path ../osc;
#X declare -path ../osc;
#X declare -path ../osc;
#X declare -path ../osc;
#X declare -path ../osc;
#X declare -path ../osc;
#X declare -path ../osc;
#X declare -path ../osc;
#X declare -path ../osc;
#X declare -path ../osc;
#X declare -path ../osc;
#X declare -path ../osc;
#X declare -path ../osc;
#X declare -path ../osc;
#X declare -path ../osc;
#X declare -path ../osc;
#X declare -path ../osc;
#X declare -path nusmuk-audio;
#X declare -path ../osc;
#X declare -path ../osc;
#X declare -path ../osc;
#X declare -path ../osc;
#X declare -path ../osc;
#X obj 46 417 pix_texture;
#X obj 250 121 openpanel;
#X obj 264 310 bng 15 250 50 0 empty empty empty 17 7 0 10 -262144
-1 -1;
#X msg 250 75 ../videos;
#X obj 250 97 symbol;
#X obj 936 445 \$1;
#X obj 945 357 loadbang;
#X obj 936 425 bng 15 250 50 0 empty empty empty 17 7 0 10 -262144
-1 -1;
#X obj 1 57 separator;
#X obj 46 397 spigot;
#X obj 46 354 pix_info, f 13;
#X obj 79 375 > 0;
#X obj 265 350 tgl 15 0 empty empty loop 17 7 0 10 -262144 -1 -1 0
1;
#X obj 225 129 bng 15 250 50 0 empty empty empty 17 7 0 10 -262144
-1 -1;
#X obj 250 143 symbol;
#N canvas 1 90 450 300 filter_blank 0;
#X obj 146 32 inlet;
#X obj 146 54 t a a;
#X obj 199 112 list length;
#X obj 199 90 list fromsymbol;
#X obj 199 162 > 0;
#X obj 146 202 spigot;
#X obj 146 224 outlet;
#X text 228 195 filter out blank file name;
#X connect 0 0 1 0;
#X connect 1 0 5 0;
#X connect 1 1 3 0;
#X connect 2 0 4 0;
#X connect 3 0 2 0;
#X connect 4 0 5 1;
#X connect 5 0 6 0;
#X restore 246 166 pd filter_blank;
#X symbolatom 333 107 10 0 0 0 - - -, f 10;
#X obj 293 144 oscparam /\$2/video_player/\$1/file;
#X obj 368 336 oscparam /\$2/video_player/\$1/loop;
#X obj 46 457 color 1 1 1 1;
#X obj 368 316 f;
#X obj 368 296 route bang;
#X obj 936 517 * 4;
#X obj 645 365 oscparam /\$2/video_player/\$1/color/g;
#X obj 645 425 oscparam /\$2/video_player/\$1/color/b;
#X obj 645 485 oscparam /\$2/video_player/\$1/color/a;
#X msg 587 285 1;
#X obj 1022 600 oscparam /\$2/video_player/\$1/scale/x;
#X obj 1022 660 oscparam /\$2/video_player/\$1/scale/y;
#X obj 645 305 oscparam /\$2/video_player/\$1/color/r;
#X obj 942 150 r \$0-rotate_x_out;
#X obj 942 190 s \$0-rotate_x_in;
#X obj 942 210 r \$0-rotate_y_out;
#X obj 942 250 s \$0-rotate_y_in;
#X obj 942 270 r \$0-rotate_z_out;
#X obj 942 310 s \$0-rotate_z_in;
#X obj 1022 680 s \$0-scale_y_in;
#X obj 1022 640 r \$0-scale_y_out;
#X obj 1022 620 s \$0-scale_x_in;
#X obj 1022 580 r \$0-scale_x_out;
#X obj 649 665 oscparam /\$2/video_player/\$1/position/y;
#X obj 649 725 oscparam /\$2/video_player/\$1/position/z;
#X obj 942 170 oscparam /\$2/video_player/\$1/rotate/x;
#X obj 942 230 oscparam /\$2/video_player/\$1/rotate/y;
#X obj 942 290 oscparam /\$2/video_player/\$1/rotate/z;
#X obj 649 585 r \$0-position_x_out;
#X obj 649 625 s \$0-position_x_in;
#X obj 649 645 r \$0-position_y_out;
#X obj 649 685 s \$0-position_y_in;
#X obj 649 705 r \$0-position_z_out;
#X obj 649 745 s \$0-position_z_in;
#X msg 963 580 1;
#X floatatom 271 418 5 0 1 0 r #0-color_r_in #0-color_r_out, f 5;
#X floatatom 271 438 5 0 1 0 g #0-color_g_in #0-color_g_out, f 5;
#X floatatom 271 458 5 0 1 0 b #0-color_b_in #0-color_b_out, f 5;
#X floatatom 271 478 5 0 1 0 a #0-color_a_in #0-color_a_out, f 5;
#X text 271 400 color;
#X floatatom 291 578 5 0 0 0 x #0-scale_x_in #0-scale_x_out, f 5;
#X floatatom 291 598 5 0 0 0 y #0-scale_y_in #0-scale_y_out, f 5;
#X text 275 560 scale;
#X floatatom 291 518 5 0 0 0 x #0-position_x_in #0-position_x_out,
f 5;
#X floatatom 291 538 5 0 0 0 y #0-position_y_in #0-position_y_out,
f 5;
#X floatatom 376 521 5 0 0 0 z #0-position_z_in #0-position_z_out,
f 5;
#X text 272 500 position;
#X floatatom 291 638 5 0 0 0 x #0-rotate_x_in #0-rotate_x_out, f 5
;
#X floatatom 291 658 5 0 0 0 y #0-rotate_y_in #0-rotate_y_out, f 5
;
#X floatatom 291 678 5 0 0 0 z #0-rotate_z_in #0-rotate_z_out, f 5
;
#X text 272 620 rotate;
#X obj 46 542 translateXYZ;
#X obj 46 608 scaleXYZ 1 1 1;
#X obj 46 694 rotateXYZ;
#X obj 63 630 r \$0-rotate_x_out;
#X obj 80 650 r \$0-rotate_y_out;
#X obj 97 670 r \$0-rotate_z_out;
#X obj 69 479 r \$0-position_x_out;
#X obj 92 499 r \$0-position_y_out;
#X obj 115 520 r \$0-position_z_out;
#X obj 73 563 r \$0-scale_x_out;
#X obj 100 583 r \$0-scale_y_out;
#N canvas 1 95 596 329 pack 0;
#X obj 144 237 pack 1 1 1 1;
#X obj 162 136 t b f;
#X obj 173 163 t b f;
#X obj 318 187 t b f;
#X obj 144 259 outlet;
#X obj 144 17 r \$0-color_r_out;
#X obj 162 37 r \$0-color_g_out;
#X obj 173 57 r \$0-color_b_out;
#X obj 349 31 r \$0-color_a_out;
#X obj 332 136 f;
#X obj 396 79 r \$2-blink;
#X obj 396 105 t b f;
#X obj 332 158 * 1;
#X connect 0 0 4 0;
#X connect 1 0 0 0;
#X connect 1 1 0 1;
#X connect 2 0 0 0;
#X connect 2 1 0 2;
#X connect 3 0 0 0;
#X connect 3 1 0 3;
#X connect 5 0 0 0;
#X connect 6 0 1 0;
#X connect 7 0 2 0;
#X connect 8 0 9 0;
#X connect 9 0 12 0;
#X connect 10 0 11 0;
#X connect 11 0 9 0;
#X connect 11 1 12 1;
#X connect 12 0 3 0;
#X restore 121 437 pd pack;
#X floatatom 301 368 5 0 0 0 speed #0-speed_in #0-speed_out, f 5;
#X obj 88 106 r \$0-speed_out;
#X obj 1030 713 r \$0-speed_out;
#X obj 1030 753 s \$0-speed_in;
#X obj 1030 733 oscparam /\$2/video_player/\$1/speed;
#X obj 645 285 r \$0-color_r_out;
#X obj 645 325 s \$0-color_r_in;
#X obj 645 345 r \$0-color_g_out;
#X obj 645 385 s \$0-color_g_in;
#X obj 645 405 r \$0-color_b_out;
#X obj 645 445 s \$0-color_b_in;
#X obj 645 465 r \$0-color_a_out;
#X obj 645 505 s \$0-color_a_in;
#X obj 1 36 r render_video_\$2;
#X obj 649 605 oscparam /\$2/video_player/\$1/position/x;
#N canvas 1 92 460 743 shader 0;
#X obj 154 364 glsl_fragment;
#X obj 154 544 glsl_program;
#X floatatom 223 569 5 0 0 0 ID - -, f 5;
#X msg 165 518 link;
#X msg 163 496 print;
#X floatatom 241 393 5 0 0 0 - - -, f 5;
#X msg 244 337 open matrix.frag;
#X obj 154 334 glsl_vertex;
#X obj 208 495 pack 0 0;
#X obj 229 475 t b f;
#X obj 229 430 change;
#X obj 182 401 change;
#X msg 208 518 link \$1 \$2;
#X floatatom 229 456 2 0 0 0 ID - -, f 2;
#X floatatom 182 424 2 0 0 0 ID - -, f 2;
#X msg 229 304 open matrix.vert;
#N canvas 1 134 450 300 pow-of-2 0;
#X obj 190 212 pack;
#X obj 186 20 inlet;
#X obj 186 42 unpack;
#N canvas 268 198 450 635 nearest-pow-of-2 0;
#X obj 158 152 log;
#X obj 189 153 log;
#X msg 188 126 2;
#X obj 167 193 /;
#X obj 165 87 t f b;
#X obj 194 237 wrap;
#X obj 167 215 t f f;
#X obj 227 282 > 0;
#X obj 194 303 spigot;
#X msg 194 325 1 \$1;
#X obj 194 347 -;
#X obj 178 370 +;
#X obj 194 261 t f f f;
#X obj 164 60 inlet;
#X obj 178 422 outlet;
#X obj 178 392 expr pow(2 \, $f1);
#X connect 0 0 3 0;
#X connect 1 0 3 1;
#X connect 2 0 1 0;
#X connect 3 0 6 0;
#X connect 4 0 0 0;
#X connect 4 1 2 0;
#X connect 5 0 12 0;
#X connect 6 0 11 0;
#X connect 6 1 5 0;
#X connect 7 0 8 1;
#X connect 8 0 9 0;
#X connect 9 0 10 0;
#X connect 10 0 11 1;
#X connect 11 0 15 0;
#X connect 12 0 8 0;
#X connect 12 1 7 0;
#X connect 12 2 11 1;
#X connect 13 0 4 0;
#X connect 15 0 14 0;
#X restore 211 143 pd nearest-pow-of-2;
#X obj 190 234 outlet;
#N canvas 268 198 450 635 nearest-pow-of-2 0;
#X obj 158 152 log;
#X obj 189 153 log;
#X msg 188 126 2;
#X obj 167 193 /;
#X obj 165 87 t f b;
#X obj 194 237 wrap;
#X obj 167 215 t f f;
#X obj 227 282 > 0;
#X obj 194 303 spigot;
#X msg 194 325 1 \$1;
#X obj 194 347 -;
#X obj 178 370 +;
#X obj 194 261 t f f f;
#X obj 164 60 inlet;
#X obj 179 463 outlet;
#X floatatom 110 310 5 0 0 0 - - -, f 5;
#X obj 179 423 expr pow(2 \, $f1);
#X connect 0 0 3 0;
#X connect 1 0 3 1;
#X connect 2 0 1 0;
#X connect 3 0 6 0;
#X connect 4 0 0 0;
#X connect 4 1 2 0;
#X connect 5 0 12 0;
#X connect 6 0 11 0;
#X connect 6 0 15 0;
#X connect 6 1 5 0;
#X connect 7 0 8 1;
#X connect 8 0 9 0;
#X connect 9 0 10 0;
#X connect 10 0 11 1;
#X connect 11 0 16 0;
#X connect 12 0 8 0;
#X connect 12 1 7 0;
#X connect 12 2 11 1;
#X connect 13 0 4 0;
#X connect 16 0 14 0;
#X restore 191 113 pd nearest-pow-of-2;
#X obj 238 79 change;
#X obj 155 79 change;
#X connect 0 0 4 0;
#X connect 1 0 2 0;
#X connect 2 0 7 0;
#X connect 2 1 6 0;
#X connect 3 0 0 1;
#X connect 5 0 0 0;
#X connect 6 0 3 0;
#X connect 7 0 5 0;
#X restore 180 199 pd pow-of-2;
#X obj 154 142 pix_info, f 30;
#X obj 180 170 pack;
#X msg 180 251 dimen \$1 \$2 \, linewidth 0.11;
#X msg 55 446 linewidth \$1;
#X floatatom 55 423 5 0 0 0 - - -, f 5;
#X obj 154 81 inlet;
#X obj 154 616 outlet;
#X connect 0 0 1 0;
#X connect 0 1 5 0;
#X connect 0 1 10 0;
#X connect 1 0 23 0;
#X connect 1 1 2 0;
#X connect 3 0 1 0;
#X connect 4 0 1 0;
#X connect 6 0 0 0;
#X connect 7 0 0 0;
#X connect 7 1 11 0;
#X connect 8 0 12 0;
#X connect 9 0 8 0;
#X connect 9 1 8 1;
#X connect 10 0 13 0;
#X connect 11 0 14 0;
#X connect 12 0 1 0;
#X connect 13 0 9 0;
#X connect 14 0 8 0;
#X connect 15 0 7 0;
#X connect 16 0 19 0;
#X connect 17 0 7 0;
#X connect 17 1 18 0;
#X connect 17 2 18 1;
#X connect 18 0 16 0;
#X connect 19 0 1 0;
#X connect 20 0 1 0;
#X connect 21 0 20 0;
#X connect 22 0 17 0;
#X restore 57 729 pd shader;
#X obj -21 269 pix_image;
#X text 281 310 open film;
#X obj 264 330 bng 15 250 50 0 empty empty empty 17 7 0 10 -262144
-1 -1;
#X text 281 330 open image;
#X obj 246 230 t b a;
#X obj -121 299 openpanel;
#X obj -265 146 symbol;
#N canvas 56 521 450 300 filter_blank 0;
#X obj 146 32 inlet;
#X obj 146 54 t a a;
#X obj 199 112 list length;
#X obj 199 90 list fromsymbol;
#X obj 199 162 > 0;
#X obj 146 202 spigot;
#X obj 146 224 outlet;
#X text 228 195 filter out blank file name;
#X connect 0 0 1 0;
#X connect 1 0 5 0;
#X connect 1 1 3 0;
#X connect 2 0 4 0;
#X connect 3 0 2 0;
#X connect 4 0 5 1;
#X connect 5 0 6 0;
#X restore -265 168 pd filter_blank;
#X symbolatom -178 109 10 0 0 0 - - -, f 10;
#X obj -265 212 t b a;
#X obj -218 146 oscparam /\$2/video_player/\$1/image;
#X obj 46 764 pix_info, f 18;
#X obj 110 778 /;
#X floatatom 110 800 5 0 0 0 - - -, f 5;
#X obj 110 819 moses 1;
#X obj 170 851 * 4;
#X obj 170 873 t a b;
#X msg 213 901 4;
#X obj 95 874 t b a;
#X msg 95 896 2;
#X floatatom 178 793 5 0 0 0 - - -, f 5;
#X floatatom 61 792 5 0 0 0 - - -, f 5;
#X floatatom 124 900 5 0 0 0 - - -, f 5;
#X obj 139 362 loadbang;
#X msg 139 383 quality 0;
#N canvas 1143 201 690 676 MIDI 0;
#N canvas 665 585 614 375 note2name 0;
#X obj 137 100 % 12;
#X floatatom 180 9 5 0 0 0 - - -, f 5;
#X obj 182 77 div 12;
#X obj 137 150 route 0 1 2 3 4 5 6 7 8 9 10 11, f 68;
#X msg 137 199 C\$1;
#X obj 137 122 pack 0 0;
#X obj 182 99 - 2;
#X text 228 83 60 = C3;
#X obj 137 32 t f f;
#X msg 166 199 C#\$1;
#X msg 207 199 D\$1;
#X msg 236 199 D#\$1;
#X msg 278 169 E\$1;
#X msg 307 169 F\$1;
#X msg 348 169 F#\$1;
#X msg 387 169 G\$1;
#X msg 428 169 G#\$1;
#X msg 467 169 A\$1;
#X msg 502 169 A#\$1;
#X msg 542 168 B\$1;
#X obj 137 4 inlet;
#X obj 137 331 outlet;
#X text 218 6 midi note number;
#X text 180 330 midi note nmae;
#X obj 137 309 symbol;
#X connect 0 0 5 0;
#X connect 1 0 8 0;
#X connect 2 0 6 0;
#X connect 3 0 4 0;
#X connect 3 1 9 0;
#X connect 3 2 10 0;
#X connect 3 3 11 0;
#X connect 3 4 12 0;
#X connect 3 5 13 0;
#X connect 3 6 14 0;
#X connect 3 7 15 0;
#X connect 3 8 16 0;
#X connect 3 9 17 0;
#X connect 3 10 18 0;
#X connect 3 11 19 0;
#X connect 4 0 24 0;
#X connect 5 0 3 0;
#X connect 6 0 5 1;
#X connect 8 0 0 0;
#X connect 8 1 2 0;
#X connect 9 0 24 0;
#X connect 10 0 24 0;
#X connect 11 0 24 0;
#X connect 12 0 24 0;
#X connect 13 0 24 0;
#X connect 14 0 24 0;
#X connect 15 0 24 0;
#X connect 16 0 24 0;
#X connect 17 0 24 0;
#X connect 18 0 24 0;
#X connect 19 0 24 0;
#X connect 20 0 8 0;
#X connect 24 0 21 0;
#X restore 93 161 pd note2name;
#X obj 66 -6 oscparam /\$2/video_player/\$1/midi/note;
#X obj 66 140 \$1;
#N canvas 248 291 579 300 ADSR 0;
#X obj 48 97 t f f;
#X obj 75 121 moses;
#X obj 48 146 > 0;
#X msg 92 154 10;
#X obj 48 68 inlet;
#X obj 171 29 declare -path nusmuk-audio;
#X obj 48 229 outlet;
#X obj 213 90 loadbang;
#X msg 237 165 20;
#X obj 325 239 oscparam /\$2/video_player/\$1/adsr/r;
#X obj 325 219 r \$0-adsr_r_out;
#X obj 325 149 r \$0-adsr_d_out;
#X obj 325 169 oscparam /\$2/video_player/\$1/adsr/d;
#X obj 325 79 r \$0-adsr_a_out;
#X obj 325 99 oscparam /\$2/video_player/\$1/adsr/a;
#X obj 325 119 s \$0-adsr_a_in;
#X obj 325 189 s \$0-adsr_d_in;
#X obj 325 259 s \$0-adsr_r_in;
#X obj 178 128 * 127;
#X obj 256 132 * 127;
#X obj 264 207 * 127;
#X obj 180 154 / 127;
#X obj 48 202 _ADSR, f 30;
#X connect 0 0 2 0;
#X connect 0 1 1 0;
#X connect 1 1 21 0;
#X connect 2 0 22 0;
#X connect 3 0 22 1;
#X connect 3 0 22 2;
#X connect 4 0 0 0;
#X connect 7 0 3 0;
#X connect 7 0 8 0;
#X connect 8 0 22 4;
#X connect 9 0 17 0;
#X connect 9 0 20 0;
#X connect 10 0 9 0;
#X connect 11 0 12 0;
#X connect 12 0 16 0;
#X connect 12 0 19 0;
#X connect 13 0 14 0;
#X connect 14 0 15 0;
#X connect 14 0 18 0;
#X connect 18 0 22 1;
#X connect 19 0 22 2;
#X connect 20 0 22 4;
#X connect 21 0 22 3;
#X connect 22 0 6 0;
#X restore 4 120 pd ADSR;
#X obj 66 329 s from_i-score;
#X obj 66 75 unpack f f;
#X obj 66 118 t b f;
#X msg 66 262 /banniere/video_player/\$1/image ../images/ch1/\$2.png
;
#X msg 66 54 \$2 \$1;
#X obj 66 237 pack 0 s;
#X obj 4 240 pack;
#X msg 4 284 /banniere/video_player/\$2/color/a \$1;
#X obj 66 13 route bang;
#X obj 157 102 print \$1;
#X connect 0 0 9 1;
#X connect 1 0 12 0;
#X connect 2 0 9 0;
#X connect 2 0 10 1;
#X connect 3 0 10 0;
#X connect 5 0 3 0;
#X connect 5 1 6 0;
#X connect 6 0 2 0;
#X connect 6 1 0 0;
#X connect 7 0 4 0;
#X connect 8 0 5 0;
#X connect 8 0 13 0;
#X connect 9 0 7 0;
#X connect 10 0 11 0;
#X connect 11 0 4 0;
#X connect 12 1 8 0;
#X restore 678 823 pd MIDI;
#X obj 936 497 div 5;
#X obj 936 467 - 1;
#X floatatom 291 718 5 0 0 0 a #0-adsr_a_in #0-adsr_a_out, f 5;
#X floatatom 291 738 5 0 0 0 d #0-adsr_d_in #0-adsr_d_out, f 5;
#X floatatom 291 758 5 0 0 0 r #0-adsr_r_in #0-adsr_r_out, f 5;
#X text 272 700 ADSR;
#X floatatom 313 418 5 0 1 0 h #0-color_h_in #0-color_h_out, f 5;
#X floatatom 313 438 5 0 1 0 s #0-color_s_in #0-color_s_out, f 5;
#X floatatom 313 458 5 0 1 0 v #0-color_v_in #0-color_v_out, f 5;
#X obj 406 763 hsv2rgb, f 8;
#X obj 406 617 r \$0-color_h_out;
#X obj 406 739 pack f f f;
#X obj 426 637 r \$0-color_s_out;
#X obj 456 657 r \$0-color_v_out;
#X obj 415 679 t b f;
#X obj 456 679 t b f;
#X obj 405 813 unpack f f f;
#X obj 314 862 s \$0-color_r_in;
#X obj 507 862 s \$0-color_b_in;
#X obj 411 862 s \$0-color_g_in;
#N canvas 1 181 643 425 select 0;
#X obj 300 241 spigot;
#X obj 173 243 spigot;
#X obj 64 225 spigot;
#X obj 64 326 outlet;
#X obj 71 35 inlet;
#X obj 376 14 inlet;
#X obj 97 183 == 1;
#X obj 217 183 == 2;
#X obj 351 185 == 3;
#X text 442 117 input selector;
#X text 447 150 1- still image;
#X text 447 170 2- video file;
#X text 447 190 3- live video camera;
#X obj 173 326 outlet;
#X obj -1 321 outlet;
#X connect 0 0 14 0;
#X connect 1 0 13 0;
#X connect 2 0 3 0;
#X connect 4 0 2 0;
#X connect 4 0 1 0;
#X connect 4 0 0 0;
#X connect 5 0 6 0;
#X connect 5 0 7 0;
#X connect 5 0 8 0;
#X connect 6 0 2 1;
#X connect 7 0 1 1;
#X connect 8 0 0 1;
#X restore 1 99 pd select;
#X msg 245 254 2;
#X msg -265 235 1;
#X floatatom 77 76 5 0 0 0 - - -, f 5;
#X floatatom 301 388 5 0 3 0 cam #0-cam_in #0-cam_out, f 5;
#X obj 1024 510 oscparam /\$2/video_player/\$1/cam;
#X obj 1024 531 s \$0-cam_in;
#X obj 1024 490 r \$0-cam_out;
#X obj -140 181 r \$0-cam_out;
#X obj -140 203 t f b;
#X msg 77 55 3;
#X floatatom 159 899 5 0 0 0 - - -, f 5;
#X msg -141 224 set cam\$1 640 480 4;
#X obj -141 244 pix_share_read cam1 640 480 4;
#X floatatom 58 888 5 0 0 0 - - -, f 5;
#X obj 95 852 * 2.4;
#X obj 44 929 rectangle 2 4;
#X obj -248 348 r from_i-score;
#X obj -248 370 route get, f 10;
#X msg -191 412 0;
#X obj 936 539 - 4;
#X msg -265 190 open ../images/\$1;
#X msg 246 208 open ../videos/\$1;
#X obj 372 219 openpanel;
#X msg 372 173 ../videos;
#X obj 372 195 symbol;
#X obj 372 239 symbol;
#X msg 372 261 open \$1;
#X msg -121 341 open \$1;
#X obj -121 321 symbol;
#X obj -184 455 bng 15 250 50 0 empty empty empty 17 7 0 10 -262144
-1 -1;
#X obj -191 390 routeOSC /\$2/video_player/\$1/clear;
#X obj 1218 384 symbol \$2;
#X obj 1223 364 bng 15 250 50 0 empty empty empty 17 7 0 10 -262144
-1 -1;
#X obj 1218 406 sel compteur;
#X obj 1219 428 f \$1;
#X obj 1217 451 sel 1;
#X msg 874 536 -1;
#X msg 1217 486 12;
#X obj 940 384 t b b;
#X obj -231 532 symbol \$2;
#X obj -231 554 sel compteur;
#X obj -230 576 f \$1;
#X obj -232 599 sel 1;
#X obj -217 472 loadbang;
#X msg -216 630 symbol calendrier.png;
#X obj -216 499 delay 2000;
#X msg 776 522 0;
#X msg 65 290 \$1;
#X obj 373 374 oscparam /\$2/video_player/\$1/last;
#X obj 110 162 f;
#X obj 52 122 t a b;
#X obj 79 164 +;
#X obj 78 143 f;
#X obj 50 256 pix_film;
#X obj -39 87 p;
#X obj 96 193 min;
#X obj 53 316 - 1;
#N canvas 103 600 450 300 loop 0;
#X obj 65 40 inlet;
#X obj 216 52 inlet;
#X obj 305 59 inlet;
#X obj 68 151 spigot 0;
#X obj 65 178 sel;
#X obj 64 238 outlet;
#X msg 70 207 0;
#X floatatom 73 95 5 0 0 0 - - -, f 5;
#X connect 0 0 3 0;
#X connect 0 0 7 0;
#X connect 1 0 4 1;
#X connect 2 0 3 1;
#X connect 3 0 4 0;
#X connect 4 0 6 0;
#X connect 6 0 5 0;
#X restore 153 240 pd loop;
#X obj 95 224 t f f;
#N canvas 1 105 450 300 last 0;
#X obj 65 39 inlet;
#X obj 216 52 inlet;
#X obj 305 59 inlet;
#X obj 65 178 sel;
#X obj 64 238 outlet;
#X msg 70 207 0;
#X obj 68 151 spigot 1;
#X obj 286 147 == 0;
#X obj 354 54 inlet;
#X obj 331 112 ||;
#X obj 348 84 t b f;
#X connect 0 0 6 0;
#X connect 1 0 3 1;
#X connect 2 0 9 0;
#X connect 3 0 5 0;
#X connect 5 0 4 0;
#X connect 6 0 3 0;
#X connect 7 0 6 1;
#X connect 8 0 10 0;
#X connect 9 0 7 0;
#X connect 10 0 9 0;
#X connect 10 1 9 1;
#X restore 134 296 pd last;
#X obj 157 271 tgl 15 0 empty empty empty 17 7 0 10 -262144 -1 -1 0
1;
#X msg 122 131 0;
#X connect 0 0 19 0;
#X connect 1 0 14 0;
#X connect 2 0 165 0;
#X connect 3 0 4 0;
#X connect 4 0 1 0;
#X connect 5 0 123 0;
#X connect 6 0 181 0;
#X connect 7 0 5 0;
#X connect 8 0 142 0;
#X connect 9 0 0 0;
#X connect 10 0 9 0;
#X connect 10 1 11 0;
#X connect 11 0 9 1;
#X connect 12 0 20 0;
#X connect 12 0 200 2;
#X connect 12 0 202 3;
#X connect 13 0 14 0;
#X connect 14 0 15 0;
#X connect 14 0 17 0;
#X connect 15 0 164 0;
#X connect 16 0 14 0;
#X connect 17 0 14 0;
#X connect 18 0 21 0;
#X connect 19 0 68 0;
#X connect 20 0 18 0;
#X connect 21 0 20 0;
#X connect 21 1 12 0;
#X connect 22 0 162 0;
#X connect 23 0 88 0;
#X connect 24 0 90 0;
#X connect 25 0 92 0;
#X connect 26 0 86 0;
#X connect 26 0 88 0;
#X connect 26 0 90 0;
#X connect 26 0 92 0;
#X connect 27 0 38 0;
#X connect 28 0 36 0;
#X connect 29 0 86 0;
#X connect 30 0 42 0;
#X connect 32 0 43 0;
#X connect 34 0 44 0;
#X connect 37 0 28 0;
#X connect 39 0 27 0;
#X connect 40 0 48 0;
#X connect 41 0 50 0;
#X connect 42 0 31 0;
#X connect 43 0 33 0;
#X connect 44 0 35 0;
#X connect 45 0 94 0;
#X connect 47 0 40 0;
#X connect 49 0 41 0;
#X connect 51 0 38 0;
#X connect 51 0 36 0;
#X connect 51 0 83 0;
#X connect 68 0 69 0;
#X connect 69 0 70 0;
#X connect 70 0 107 0;
#X connect 71 0 70 1;
#X connect 72 0 70 2;
#X connect 73 0 70 3;
#X connect 74 0 68 1;
#X connect 75 0 68 2;
#X connect 76 0 68 3;
#X connect 77 0 69 1;
#X connect 78 0 69 2;
#X connect 79 0 19 1;
#X connect 81 0 195 1;
#X connect 82 0 84 0;
#X connect 84 0 83 0;
#X connect 85 0 29 0;
#X connect 87 0 23 0;
#X connect 89 0 24 0;
#X connect 91 0 25 0;
#X connect 93 0 8 0;
#X connect 94 0 46 0;
#X connect 96 0 10 0;
#X connect 98 0 101 0;
#X connect 100 0 143 0;
#X connect 100 0 204 0;
#X connect 100 1 196 0;
#X connect 101 0 171 0;
#X connect 102 0 103 0;
#X connect 102 0 106 0;
#X connect 103 0 163 0;
#X connect 104 0 102 0;
#X connect 105 0 144 0;
#X connect 105 1 96 0;
#X connect 106 0 102 0;
#X connect 107 0 158 0;
#X connect 107 1 117 0;
#X connect 107 2 108 1;
#X connect 107 2 116 0;
#X connect 108 0 109 0;
#X connect 109 0 110 0;
#X connect 110 0 157 0;
#X connect 110 1 111 0;
#X connect 111 0 112 0;
#X connect 112 0 153 0;
#X connect 112 0 158 1;
#X connect 112 1 113 0;
#X connect 113 0 158 2;
#X connect 114 0 115 0;
#X connect 114 1 118 0;
#X connect 114 1 158 2;
#X connect 115 0 158 1;
#X connect 119 0 120 0;
#X connect 120 0 0 0;
#X connect 122 0 22 0;
#X connect 123 0 122 0;
#X connect 131 0 138 0;
#X connect 132 0 133 0;
#X connect 133 0 131 0;
#X connect 134 0 136 0;
#X connect 135 0 137 0;
#X connect 136 0 133 0;
#X connect 136 1 133 1;
#X connect 137 0 133 0;
#X connect 137 1 133 2;
#X connect 138 0 139 0;
#X connect 138 1 141 0;
#X connect 138 2 140 0;
#X connect 142 0 155 0;
#X connect 142 1 96 0;
#X connect 142 2 193 0;
#X connect 143 0 142 1;
#X connect 144 0 142 1;
#X connect 145 0 142 1;
#X connect 147 0 148 0;
#X connect 149 0 147 0;
#X connect 150 0 151 0;
#X connect 151 0 154 0;
#X connect 151 1 152 0;
#X connect 152 0 145 0;
#X connect 154 0 155 0;
#X connect 155 0 10 0;
#X connect 156 0 158 1;
#X connect 157 0 114 0;
#X connect 159 0 160 0;
#X connect 160 1 173 0;
#X connect 161 0 142 1;
#X connect 161 0 172 0;
#X connect 162 0 46 0;
#X connect 163 0 105 0;
#X connect 164 0 100 0;
#X connect 165 0 168 0;
#X connect 166 0 167 0;
#X connect 167 0 165 0;
#X connect 168 0 169 0;
#X connect 169 0 100 0;
#X connect 170 0 105 0;
#X connect 171 0 170 0;
#X connect 173 0 161 0;
#X connect 174 0 176 0;
#X connect 175 0 174 0;
#X connect 176 0 177 0;
#X connect 177 0 178 0;
#X connect 178 0 179 0;
#X connect 178 0 180 0;
#X connect 178 0 189 0;
#X connect 179 0 46 0;
#X connect 180 0 38 0;
#X connect 181 0 174 0;
#X connect 181 1 7 0;
#X connect 181 1 51 0;
#X connect 181 1 26 0;
#X connect 182 0 183 0;
#X connect 183 0 184 0;
#X connect 184 0 185 0;
#X connect 185 0 187 0;
#X connect 186 0 188 0;
#X connect 187 0 163 0;
#X connect 188 0 182 0;
#X connect 189 0 92 0;
#X connect 190 0 199 0;
#X connect 191 0 203 0;
#X connect 192 0 194 1;
#X connect 193 0 196 0;
#X connect 193 1 195 0;
#X connect 194 0 192 0;
#X connect 194 0 198 0;
#X connect 195 0 194 0;
#X connect 196 0 10 0;
#X connect 196 1 190 0;
#X connect 198 0 201 0;
#X connect 199 0 198 1;
#X connect 199 0 200 1;
#X connect 199 0 202 1;
#X connect 200 0 192 0;
#X connect 201 0 196 1;
#X connect 201 1 200 0;
#X connect 201 1 202 0;
#X connect 202 0 142 1;
#X connect 203 0 202 2;
#X connect 204 0 192 0;
#X coords 0 -1 1 1 85 480 1 260 300;
