#N canvas 7 60 915 389 10;
#X msg 53 353 0 \, destroy;
#X obj 270 356 gemhead;
#X msg 293 450 auto 1;
#X obj 293 418 loadbang;
#X msg 578 407 1 \$1;
#X obj 578 433 line 1;
#X msg 527 407 open \$1;
#X msg 629 408 0 \$1;
#X obj 271 826 rectangle 4 4;
#X obj 44 381 t a;
#X obj 153 427 route dimen;
#X obj 153 451 /;
#X obj 153 474 * 4;
#X obj 527 338 netreceive 9030 1;
#X msg 86 280 dimen 320 240 \, border 1 \, create \, 1;
#X obj 578 384 * 1000;
#X obj 629 384 * 1000;
#X obj 527 384 symbol;
#X floatatom 356 477 5 0 0 0 - - -;
#X obj 271 565 pix_texture;
#X obj 41 296 loadbang;
#X msg 44 325 dimen 800 600 \, offset 1024 0 \, border 0 \, cursor
0 \, create \, 1;
#X obj 337 501 t b;
#X obj 271 539 colorRGB 1 1 1 1;
#X obj 271 477 pix_film;
#X obj 271 746 translateXYZ;
#X obj 389 628 line;
#X msg 389 606 0 \, 360 60000;
#X obj 389 559 tgl 15 0 empty empty empty 17 7 0 10 -262144 -1 -1 1
1;
#X obj 389 582 metro 60000;
#X obj 271 630 rotateXYZ;
#X obj 687 593 line;
#X obj 540 426 t b;
#X msg 698 317 eject;
#X obj 271 680 rotateXYZ;
#X obj 534 586 line;
#X obj 649 500 t b;
#X obj 268 383 spigot 1;
#X obj 374 360 gemhead;
#X obj 372 387 spigot 0;
#X obj 440 335 f;
#X msg 545 465 1;
#X msg 705 415 0;
#X obj 440 363 == 0;
#X msg 791 326 image test;
#X obj 271 775 scaleXYZ 1 1 1;
#X obj 413 774 f;
#X obj 362 422 pix_image;
#X msg 722 489 open \$1;
#X obj 722 465 symbol;
#X msg 501 206 image acte2-1.jpg;
#X msg 471 176 image acte3-1.jpg;
#X obj 268 803 scaleXYZ 1.1 1.1 1;
#X msg 561 298 fadein 1;
#X msg 534 266 fadeout 0;
#X msg 527 222 video acte1.mov \, fadein 2;
#X msg 458 145 image acte4-1.jpg;
#X obj 44 401 gemwin;
#X obj 526 361 route video fadein fadeout rotate image scale translate
;
#X connect 0 0 9 0;
#X connect 1 0 37 0;
#X connect 2 0 24 0;
#X connect 3 0 2 0;
#X connect 3 0 28 0;
#X connect 4 0 5 0;
#X connect 5 0 23 1;
#X connect 5 0 23 2;
#X connect 5 0 23 3;
#X connect 6 0 24 0;
#X connect 7 0 5 0;
#X connect 9 0 10 0;
#X connect 9 0 57 0;
#X connect 10 0 11 0;
#X connect 11 0 12 0;
#X connect 12 0 8 1;
#X connect 13 0 58 0;
#X connect 14 0 9 0;
#X connect 15 0 4 0;
#X connect 16 0 7 0;
#X connect 17 0 6 0;
#X connect 18 0 24 1;
#X connect 19 0 30 0;
#X connect 20 0 21 0;
#X connect 21 0 9 0;
#X connect 22 0 18 0;
#X connect 23 0 19 0;
#X connect 24 0 23 0;
#X connect 24 2 22 0;
#X connect 25 0 45 0;
#X connect 26 0 30 3;
#X connect 27 0 26 0;
#X connect 28 0 29 0;
#X connect 29 0 27 0;
#X connect 30 0 34 0;
#X connect 31 0 25 2;
#X connect 32 0 36 0;
#X connect 33 0 58 0;
#X connect 34 0 25 0;
#X connect 35 0 34 3;
#X connect 37 0 24 0;
#X connect 38 0 39 0;
#X connect 39 0 47 0;
#X connect 40 0 37 1;
#X connect 40 0 43 0;
#X connect 41 0 40 0;
#X connect 42 0 40 0;
#X connect 43 0 39 1;
#X connect 44 0 58 0;
#X connect 45 0 52 0;
#X connect 46 0 45 2;
#X connect 46 0 45 1;
#X connect 47 0 23 0;
#X connect 48 0 47 0;
#X connect 49 0 48 0;
#X connect 50 0 58 0;
#X connect 51 0 58 0;
#X connect 52 0 8 0;
#X connect 53 0 58 0;
#X connect 54 0 58 0;
#X connect 55 0 58 0;
#X connect 56 0 58 0;
#X connect 58 0 17 0;
#X connect 58 0 32 0;
#X connect 58 0 41 0;
#X connect 58 1 15 0;
#X connect 58 2 16 0;
#X connect 58 3 35 0;
#X connect 58 4 36 0;
#X connect 58 4 42 0;
#X connect 58 4 49 0;
#X connect 58 5 46 0;
#X connect 58 6 31 0;
