#N canvas 45 682 606 371 10;
#X declare -path osc -path iemnet -path abs;
#X obj 434 53 gemwin;
#X msg 435 31 create \, 1;
#N canvas 721 669 897 300 receiveOSC 1;
#X obj 171 54 unpackOSC;
#X obj 171 33 udpreceive 15000;
#X obj 242 141 unpack 0 0;
#X obj 172 76 routeOSC /drawbars /note;
#X obj 406 129 routeOSC /speaker/comb/drive;
#X msg 406 151 127 \$1;
#X obj 406 173 -;
#X msg 406 215 1 \$1 \$1;
#X floatatom 323 167 5 0 0 0 - - -, f 5;
#X floatatom 502 168 5 0 0 0 - - -, f 5;
#X floatatom 507 214 5 0 0 0 - - -, f 5;
#X obj 406 195 / 127;
#X obj 406 237 s /bar/color;
#N canvas 216 148 971 339 drawbars 1;
#X obj 219 55 routeOSC /*;
#X obj 219 82 route /1 /2 /3 /4 /5 /6 /7 /8 /9;
#X obj -15 207 / 127;
#X obj -15 241 s /bar/1/size;
#X obj 85 207 / 127;
#X obj 85 241 s /bar/2/size;
#X obj 185 207 / 127;
#X obj 285 207 / 127;
#X obj 185 241 s /bar/3/size;
#X obj 285 241 s /bar/4/size;
#X obj 375 205 / 127;
#X obj 475 205 / 127;
#X obj 575 205 / 127;
#X obj 675 205 / 127;
#X obj 772 205 / 127;
#X obj 234 23 inlet;
#X obj 375 239 s /bar/5/size;
#X obj 475 239 s /bar/6/size;
#X obj 575 239 s /bar/7/size;
#X obj 675 239 s /bar/8/size;
#X obj 772 239 s /bar/9/size;
#X floatatom 373 143 5 0 0 0 - - -, f 5;
#X connect 0 0 1 0;
#X connect 1 0 2 0;
#X connect 1 1 4 0;
#X connect 1 2 6 0;
#X connect 1 3 7 0;
#X connect 1 4 10 0;
#X connect 1 5 11 0;
#X connect 1 5 21 0;
#X connect 1 6 12 0;
#X connect 1 7 13 0;
#X connect 1 8 14 0;
#X connect 2 0 3 0;
#X connect 4 0 5 0;
#X connect 6 0 8 0;
#X connect 7 0 9 0;
#X connect 10 0 16 0;
#X connect 11 0 17 0;
#X connect 12 0 18 0;
#X connect 13 0 19 0;
#X connect 14 0 20 0;
#X connect 15 0 0 0;
#X restore 122 139 pd drawbars;
#X obj 299 199 s /bar/alpha;
#X obj 221 218 s note;
#X connect 0 0 3 0;
#X connect 1 0 0 0;
#X connect 2 1 8 0;
#X connect 2 1 14 0;
#X connect 3 0 13 0;
#X connect 3 1 2 0;
#X connect 3 1 15 0;
#X connect 3 2 4 0;
#X connect 4 0 5 0;
#X connect 4 0 9 0;
#X connect 5 0 6 0;
#X connect 6 0 10 0;
#X connect 6 0 11 0;
#X connect 7 0 12 0;
#X connect 11 0 7 0;
#X restore 344 27 pd receiveOSC;
#X obj 344 7 declare -path osc -path iemnet -path abs;
#X obj 153 218 drawbar 2;
#X obj 83 218 drawbar 1;
#X obj 223 218 drawbar 3;
#X obj 83 238 drawbar 4;
#X obj 153 238 drawbar 5;
#X obj 223 238 drawbar 6;
#X obj 83 258 drawbar 7;
#X obj 153 258 drawbar 8;
#X obj 223 258 drawbar 9;
#N canvas 453 128 561 300 image 1;
#X obj 49 67 picto_loader black_hole;
#X obj 350 57 r note;
#X obj 350 79 unpack;
#X obj 350 131 % 12;
#X obj 350 175 route 0 1 2 3 4 5 6 7 8 9 10 11;
#X obj 350 153 pack 0 0 0;
#X obj 350 101 t f f;
#X obj 403 130 div 12;
#X obj 333 233 s black_hole;
#X obj 49 89 picto_loader black_hole_2;
#X obj 49 109 picto_loader rocket;
#X obj 49 129 picto_loader rock;
#X obj 49 149 picto_loader space_ship;
#X obj 49 169 picto_loader saturn;
#X obj 49 189 picto_loader galaxy;
#X connect 1 0 2 0;
#X connect 2 0 6 0;
#X connect 2 1 5 1;
#X connect 3 0 5 0;
#X connect 4 0 8 0;
#X connect 5 0 4 0;
#X connect 6 0 3 0;
#X connect 6 1 7 0;
#X connect 7 0 5 2;
#X restore 114 107 pd image;
#X msg 487 90 color 1 1 1 1;
#X msg 375 92 destroy;
#X connect 1 0 0 0;
#X connect 14 0 0 0;
#X connect 15 0 0 0;
