#N canvas 580 165 450 300 10;
#X declare -path iemnet -path osc;
#N canvas 1 112 1418 423 drawbars/upper 0;
#X obj 58 180 ctlin 16, f 9;
#X msg 58 202 /drawbars/upper/1 \$1;
#X obj 500 312 s to_OSC_out;
#X obj 198 180 ctlin 17, f 9;
#X obj 338 180 ctlin 18, f 9;
#X obj 478 180 ctlin 19, f 9;
#X obj 628 180 ctlin 20, f 9;
#X obj 768 180 ctlin 21, f 9;
#X obj 908 180 ctlin 22, f 9;
#X obj 1048 180 ctlin 23, f 9;
#X msg 198 202 /drawbars/upper/2 \$1;
#X msg 337 202 /drawbars/upper/3 \$1;
#X msg 478 202 /drawbars/upper/4 \$1;
#X msg 628 202 /drawbars/upper/5 \$1;
#X msg 768 202 /drawbars/upper/6 \$1;
#X msg 908 202 /drawbars/upper/7 \$1;
#X msg 1048 202 /drawbars/upper/8 \$1;
#X msg 1188 202 /drawbars/upper/9 \$1;
#X obj 1188 180 ctlin 24, f 9;
#X connect 0 0 1 0;
#X connect 1 0 2 0;
#X connect 3 0 10 0;
#X connect 4 0 11 0;
#X connect 5 0 12 0;
#X connect 6 0 13 0;
#X connect 7 0 14 0;
#X connect 8 0 15 0;
#X connect 9 0 16 0;
#X connect 10 0 2 0;
#X connect 11 0 2 0;
#X connect 12 0 2 0;
#X connect 13 0 2 0;
#X connect 14 0 2 0;
#X connect 15 0 2 0;
#X connect 16 0 2 0;
#X connect 17 0 2 0;
#X connect 18 0 17 0;
#X restore 32 156 pd drawbars/upper;
#N canvas 1 144 1418 423 drawbars/lower 0;
#X msg 58 202 /drawbars/upper/1 \$1;
#X obj 500 312 s to_OSC_out;
#X msg 198 202 /drawbars/upper/2 \$1;
#X msg 337 202 /drawbars/upper/3 \$1;
#X msg 478 202 /drawbars/upper/4 \$1;
#X msg 628 202 /drawbars/upper/5 \$1;
#X msg 768 202 /drawbars/upper/6 \$1;
#X msg 908 202 /drawbars/upper/7 \$1;
#X msg 1048 202 /drawbars/upper/8 \$1;
#X msg 1188 202 /drawbars/upper/9 \$1;
#X obj 58 180 ctlin 70, f 9;
#X obj 198 180 ctlin 71, f 9;
#X obj 338 180 ctlin 72, f 9;
#X obj 478 180 ctlin 73, f 9;
#X obj 628 180 ctlin 74, f 9;
#X obj 768 180 ctlin 75, f 9;
#X obj 908 180 ctlin 76, f 9;
#X obj 1048 180 ctlin 77, f 9;
#X obj 1188 180 ctlin 78, f 9;
#X connect 0 0 1 0;
#X connect 2 0 1 0;
#X connect 3 0 1 0;
#X connect 4 0 1 0;
#X connect 5 0 1 0;
#X connect 6 0 1 0;
#X connect 7 0 1 0;
#X connect 8 0 1 0;
#X connect 9 0 1 0;
#X connect 10 0 0 0;
#X connect 11 0 2 0;
#X connect 12 0 3 0;
#X connect 13 0 4 0;
#X connect 14 0 5 0;
#X connect 15 0 6 0;
#X connect 16 0 7 0;
#X connect 17 0 8 0;
#X connect 18 0 9 0;
#X restore 32 176 pd drawbars/lower;
#N canvas 95 238 990 402 effect 0;
#X obj 420 158 s to_OSC_out;
#X obj 58 27 ctlin 63, f 9;
#X obj 198 27 ctlin 60, f 9;
#X obj 338 27 ctlin 69, f 9;
#X obj 478 27 ctlin 62, f 9;
#X obj 628 27 ctlin 61, f 9;
#X obj 768 27 ctlin 80, f 9;
#X obj 422 335 s to_OSC_out;
#X obj 60 204 ctlin 111;
#X obj 200 204 ctlin 81, f 9;
#X obj 340 204 ctlin 86, f 9;
#X obj 480 204 ctlin 102;
#X obj 630 204 ctlin 96, f 9;
#X obj 770 204 ctlin 97, f 9;
#X msg 770 226 /reverb/on \$1;
#X msg 630 226 /reverb/sel \$1;
#X msg 480 226 /reverb/wet-dry \$1;
#X msg 339 226 /speaker/comb/on \$1;
#X msg 200 226 /speaker/comb/sel \$1;
#X msg 60 226 /speaker/comb/drive \$1;
#X msg 58 49 /effect/1/rate \$1;
#X msg 198 49 /effect/1/sel \$1;
#X msg 337 49 /effect/1/on \$1;
#X msg 478 49 /effect/2/rate \$1;
#X msg 628 49 /effect/2/sel \$1;
#X msg 768 49 /effect/2/on \$1;
#X obj 490 254 ctlin 92;
#X obj 640 254 ctlin 93, f 9;
#X obj 780 254 ctlin 94, f 9;
#X msg 490 276 /delay/rate \$1;
#X msg 640 276 /delay/ping-pong \$1;
#X msg 780 276 /delay/on \$1;
#X connect 1 0 20 0;
#X connect 2 0 21 0;
#X connect 3 0 22 0;
#X connect 4 0 23 0;
#X connect 5 0 24 0;
#X connect 6 0 25 0;
#X connect 8 0 19 0;
#X connect 9 0 18 0;
#X connect 10 0 17 0;
#X connect 11 0 16 0;
#X connect 12 0 15 0;
#X connect 13 0 14 0;
#X connect 14 0 7 0;
#X connect 15 0 7 0;
#X connect 16 0 7 0;
#X connect 17 0 7 0;
#X connect 18 0 7 0;
#X connect 19 0 7 0;
#X connect 20 0 0 0;
#X connect 21 0 0 0;
#X connect 22 0 0 0;
#X connect 23 0 0 0;
#X connect 24 0 0 0;
#X connect 25 0 0 0;
#X connect 26 0 29 0;
#X connect 27 0 30 0;
#X connect 28 0 31 0;
#X connect 29 0 7 0;
#X connect 30 0 7 0;
#X connect 31 0 7 0;
#X restore 32 196 pd effect;
#N canvas 423 170 450 300 oscout 1;
#X obj 217 196 udpsend;
#X obj 274 89 loadbang;
#X obj 217 222 tgl 15 0 empty empty empty 17 7 0 10 -262144 -1 -1 1
1;
#X obj 160 43 r to_OSC_out;
#X obj 160 66 packOSC;
#X obj 69 127 spigot;
#X obj 69 149 print OSC_out;
#X obj 98 105 tgl 15 0 empty empty empty 17 7 0 10 -262144 -1 -1 0
1;
#X msg 274 111 connect 255.255.255.255 15000;
#X msg 256 162 disconnect;
#X connect 0 0 2 0;
#X connect 1 0 8 0;
#X connect 3 0 4 0;
#X connect 3 0 5 0;
#X connect 4 0 0 0;
#X connect 5 0 6 0;
#X connect 7 0 5 1;
#X connect 8 0 0 0;
#X connect 9 0 0 0;
#X restore 250 52 pd oscout;
#N canvas 1 128 450 300 note 0;
#X obj 129 55 notein;
#X obj 129 97 pack 0 0;
#X msg 129 119 /note \$1 \$2;
#X obj 129 141 s to_OSC_out;
#X connect 0 0 1 0;
#X connect 0 1 1 1;
#X connect 1 0 2 0;
#X connect 2 0 3 0;
#X restore 32 136 pd note;
#X obj 226 17 declare -path iemnet -path osc;
