#N canvas 325 327 450 614 10;
#X obj 123 476 udpsend;
#X obj 123 498 tgl 15 0 empty empty empty 17 7 0 10 -262144 -1 -1 1
1;
#X msg 129 304 disconnect;
#X msg 142 437 connect 192.168.1.33 9897;
#X msg 65 276 send \$1 0 0 0 0 255 255 255 255 255 255;
#X obj 96 225 list;
#X obj 96 191 list prepend send;
#X obj 96 247 list trim;
#X obj 96 48 inlet;
#X obj 96 157 list \$1 0;
#X obj 142 337 loadbang;
#X obj 255 114 inlet;
#X obj 142 359 \$1;
#X obj 142 381 * 100;
#X obj 142 403 delay;
#X connect 0 0 1 0;
#X connect 2 0 0 0;
#X connect 3 0 0 0;
#X connect 4 0 0 0;
#X connect 5 0 7 0;
#X connect 6 0 5 0;
#X connect 7 0 0 0;
#X connect 8 0 9 0;
#X connect 9 0 6 0;
#X connect 10 0 12 0;
#X connect 11 0 5 1;
#X connect 12 0 13 0;
#X connect 13 0 14 0;
#X connect 14 0 3 0;
