#N canvas 543 183 1132 713 10;
#X declare -path osc -path iemnet;
#X obj 401 13 declare -path osc -path iemnet;
#X obj 232 639 udpsend;
#X obj 232 538 list prepend send;
#X obj 232 560 list trim;
#X msg 253 595 connect 127.0.0.1 10001;
#X msg 670 73 create \, 1;
#X obj 232 661 tgl 15 0 empty empty empty 17 7 0 10 -262144 -1 -1 1
1;
#X msg 264 615 disconnect;
#X msg 682 97 destroy;
#X obj 670 138 gemwin 5;
#X msg 294 571 connect 127.0.0.1 7770;
#X obj 232 515 packOSC;
#X obj 116 87 pix_texture;
#X obj 116 109 rectangle 4 4;
#X obj 117 24 pix_video;
#X obj 117 3 gemhead;
#X msg 312 126 420;
#X obj 312 179 until;
#X obj 312 206 random 256;
#X obj 312 228 list;
#X obj 312 250 list;
#X obj 305 1 tgl 15 0 empty empty empty 17 7 0 10 -262144 -1 -1 0 1
;
#X obj 309 25 metro 1000;
#X obj 306 47 t b b b;
#X obj 296 271 list;
#X obj 293 430 list trim;
#X obj 312 150 * 3;
#X obj 293 297 list prepend sendtyped /s1 b;
#X obj 474 299 list prepend sendtyped /s0 b;
#X obj 333 320 list prepend sendtyped /s2 b;
#X obj 510 322 list prepend sendtyped /s3 b;
#X obj 304 346 list prepend sendtyped /s4 b;
#X obj 485 348 list prepend sendtyped /s5 b;
#X obj 344 369 list prepend sendtyped /s6 b;
#X obj 521 371 list prepend sendtyped /s7 b;
#X obj 200 369 list length;
#X floatatom 200 391 5 0 0 0 - - -, f 5;
#N canvas 107 678 422 375 strip 1;
#X obj 108 252 list prepend sendtyped /pp b;
#X obj 107 273 list trim;
#X obj 32 157 bng 15 250 50 0 empty empty empty 17 7 0 10 -262144 -1
-1;
#X floatatom 184 302 5 0 0 0 - - -, f 5;
#X obj 52 136 t b a;
#X msg 110 224 0 1 2 3 4 5 6 7 8 9 10;
#X obj 184 280 list length;
#X obj 107 313 outlet;
#X obj 52 20 inlet;
#X obj 100 122 loadbang;
#X msg 100 146 RGB \, bytemode 0;
#X floatatom 265 199 5 0 0 0 - - -, f 5;
#X obj 265 177 list length;
#X obj 52 177 pix_dump;
#X msg 308 250 send size 40 84;
#X obj 230 98 pix_info, f 23;
#X floatatom 227 123 5 0 0 0 - - -, f 5;
#X floatatom 270 128 5 0 0 0 - - -, f 5;
#X obj 216 32 pix_info, f 23;
#X floatatom 213 57 5 0 0 0 - - -, f 5;
#X floatatom 256 62 5 0 0 0 - - -, f 5;
#X obj 52 63 pix_resize 40 84;
#X connect 0 0 1 0;
#X connect 0 0 6 0;
#X connect 1 0 7 0;
#X connect 2 0 13 0;
#X connect 4 0 13 0;
#X connect 4 1 13 0;
#X connect 5 0 0 0;
#X connect 6 0 3 0;
#X connect 8 0 18 0;
#X connect 8 0 21 0;
#X connect 9 0 10 0;
#X connect 10 0 13 0;
#X connect 12 0 11 0;
#X connect 13 1 0 0;
#X connect 13 1 12 0;
#X connect 14 0 7 0;
#X connect 15 1 16 0;
#X connect 15 2 17 0;
#X connect 18 1 19 0;
#X connect 18 2 20 0;
#X connect 21 0 15 0;
#X connect 21 0 4 0;
#X restore 116 230 pd strip;
#X floatatom 440 450 5 0 0 0 - - -, f 5;
#X msg 428 482 sendtyped /brightness i \$1;
#X msg 480 531 sendtyped /all b \$1 0 0;
#X floatatom 481 509 5 0 0 0 - - -, f 5;
#X obj 646 437 tgl 15 0 empty empty empty 17 7 0 10 -262144 -1 -1 0
1;
#X obj 521 422 until;
#X msg 521 399 5;
#X obj 645 475 metro 100;
#X obj 51 383 tgl 15 0 empty empty empty 17 7 0 10 -262144 -1 -1 0
1;
#X obj 50 421 metro 500;
#X msg 50 458 sendtyped /r ib 1 255 255 255 0 0 0 255 0 0 0 255 0 0
0 255;
#X obj 822 7 tgl 15 0 empty empty empty 17 7 0 10 -262144 -1 -1 0 1
;
#X obj 826 31 metro 1000;
#X obj 735 303 list length;
#X floatatom 735 325 5 0 0 0 - - -, f 5;
#X obj 731 267 list;
#X obj 764 109 sel 32;
#X obj 764 90 key;
#X obj 731 245 list;
#X obj 760 149 bng 15 250 50 0 empty empty empty 17 7 0 10 -262144
-1 -1;
#X msg 784 192 255 0 0;
#X obj 813 303 list prepend sendtyped /r ib 0;
#X connect 1 0 6 0;
#X connect 2 0 3 0;
#X connect 3 0 1 0;
#X connect 4 0 1 0;
#X connect 5 0 9 0;
#X connect 7 0 1 0;
#X connect 8 0 9 0;
#X connect 10 0 1 0;
#X connect 11 0 2 0;
#X connect 12 0 13 0;
#X connect 13 0 37 0;
#X connect 14 0 12 0;
#X connect 15 0 14 0;
#X connect 16 0 26 0;
#X connect 17 0 18 0;
#X connect 18 0 19 0;
#X connect 19 0 20 0;
#X connect 20 0 19 1;
#X connect 20 0 24 1;
#X connect 21 0 22 0;
#X connect 22 0 23 0;
#X connect 23 0 24 0;
#X connect 23 1 16 0;
#X connect 23 2 19 1;
#X connect 24 0 27 0;
#X connect 24 0 28 0;
#X connect 24 0 29 0;
#X connect 24 0 30 0;
#X connect 24 0 31 0;
#X connect 24 0 32 0;
#X connect 24 0 33 0;
#X connect 24 0 34 0;
#X connect 24 0 35 0;
#X connect 25 0 11 0;
#X connect 26 0 17 0;
#X connect 27 0 25 0;
#X connect 28 0 25 0;
#X connect 29 0 25 0;
#X connect 30 0 25 0;
#X connect 31 0 25 0;
#X connect 32 0 25 0;
#X connect 33 0 25 0;
#X connect 34 0 25 0;
#X connect 35 0 36 0;
#X connect 37 0 11 0;
#X connect 38 0 39 0;
#X connect 39 0 11 0;
#X connect 40 0 11 0;
#X connect 41 0 40 0;
#X connect 42 0 45 0;
#X connect 43 0 38 0;
#X connect 44 0 43 0;
#X connect 45 0 41 0;
#X connect 46 0 47 0;
#X connect 47 0 48 0;
#X connect 48 0 11 0;
#X connect 49 0 50 0;
#X connect 51 0 52 0;
#X connect 53 0 51 0;
#X connect 53 0 56 1;
#X connect 53 0 59 0;
#X connect 54 0 57 0;
#X connect 54 0 58 0;
#X connect 55 0 54 0;
#X connect 56 0 53 0;
#X connect 58 0 56 0;
#X connect 59 0 25 0;
