#N canvas 1 96 450 300 10;
#X obj 201 237 udpsend;
#X msg 219 203 connect 127.0.0.1 12000;
#X obj 201 266 tgl 15 0 empty empty empty 17 7 0 10 -262144 -1 -1 0
1;
#X obj 195 145 list prepend send;
#X obj 195 167 list trim;
#X obj 195 124 packOSC;
#X msg 190 66 sendtyped /test b 12 34 9;
#X connect 0 0 2 0;
#X connect 1 0 0 0;
#X connect 3 0 4 0;
#X connect 4 0 0 0;
#X connect 5 0 3 0;
#X connect 6 0 5 0;
