#N canvas 1068 750 450 300 10;
#X obj 76 20 netreceive -u 9010;
#X obj 133 98 unpack f f f;
#X obj 133 129 ctlout;
#X obj 179 130 unpack f f f;
#X obj 179 161 noteout;
#X obj 71 122 print;
#X obj 76 44 route ping;
#X obj 133 73 route ctlin note;
#X obj 76 73 bng 15 250 50 0 empty empty empty 17 7 0 10 -262144 -1
-1;
#X connect 0 0 6 0;
#X connect 1 0 2 0;
#X connect 1 1 2 1;
#X connect 1 2 2 2;
#X connect 3 0 4 0;
#X connect 3 1 4 1;
#X connect 3 2 4 2;
#X connect 6 0 8 0;
#X connect 6 1 7 0;
#X connect 6 1 5 0;
#X connect 7 0 1 0;
#X connect 7 1 3 0;
