#N canvas 1345 205 450 300 10;
#X obj 76 50 netreceive -u 9010;
#X obj 76 110 bng 15 250 50 0 empty empty empty 17 7 0 10 -262144 -1
-1;
#X obj 117 107 unpack f f f;
#X obj 117 138 ctlout;
#X obj 158 167 unpack f f f;
#X obj 158 198 noteout;
#X obj 229 130 p;
#X obj 76 78 route ping ctlin_ note_;
#X connect 0 0 7 0;
#X connect 2 0 3 0;
#X connect 2 1 3 1;
#X connect 2 2 3 2;
#X connect 4 0 5 0;
#X connect 4 1 5 1;
#X connect 4 2 5 2;
#X connect 7 0 1 0;
#X connect 7 1 2 0;
#X connect 7 2 4 0;
#X connect 7 3 6 0;
