#N canvas 816 237 563 721 10;
#X declare -path bin/hid;
#X obj 148 100 loadbang;
#X msg 173 142 open keyboard;
#X obj 148 593 netsend -u;
#X obj 293 471 metro 1000;
#X obj 293 450 loadbang;
#X obj 148 617 tgl 15 0 empty empty empty 17 7 0 10 -262144 -1 -1 0
1;
#X obj 148 640 == 0;
#X obj 293 517 spigot 1;
#X obj 39 391 metro 1000;
#X obj 148 522 spigot 0;
#X obj 39 369 loadbang;
#X msg 307 563 disconnect;
#X msg 39 412 send ping bang;
#X msg 307 541 connect 127.0.0.1 9011;
#X msg 293 492 connect 10.42.0.1 9011;
#X obj 148 292 list fromsymbol;
#X obj 148 210 list;
#X msg 148 230 \$2 \$1;
#X obj 148 250 route 1;
#X obj 148 271 symbol;
#X msg 148 330 send key \$5;
#X obj 147 47 declare -path bin/hid;
#X obj 148 170 hid 0;
#X msg 213 166 close;
#X obj 148 190 route key rel;
#X obj 247 243 change;
#X msg 148 122 open 0x046d 0xc52b \, 20;
#X obj 365 464 tgl 15 0 empty empty empty 17 7 0 10 -262144 -1 -1 0
1;
#X obj 247 222 route rel_x rel_y;
#X obj 296 243 change;
#X obj 247 293 +;
#X obj 296 291 +;
#X obj 265 321 min 127;
#X obj 265 345 max 0;
#X obj 314 343 max 0;
#X obj 314 319 min 127;
#X obj 247 264 / 2;
#X obj 296 264 / 2;
#X obj 314 368 t b f;
#X obj 265 397 pack f f;
#X msg 265 419 send pad \$1 \$2;
#X connect 0 0 26 0;
#X connect 1 0 22 0;
#X connect 2 0 5 0;
#X connect 3 0 14 0;
#X connect 4 0 3 0;
#X connect 5 0 6 0;
#X connect 5 0 9 1;
#X connect 6 0 7 1;
#X connect 7 0 2 0;
#X connect 8 0 12 0;
#X connect 9 0 2 0;
#X connect 10 0 8 0;
#X connect 11 0 2 0;
#X connect 12 0 9 0;
#X connect 13 0 2 0;
#X connect 14 0 7 0;
#X connect 15 0 20 0;
#X connect 16 0 17 0;
#X connect 17 0 18 0;
#X connect 18 0 19 0;
#X connect 19 0 15 0;
#X connect 20 0 9 0;
#X connect 22 0 24 0;
#X connect 23 0 22 0;
#X connect 24 0 16 0;
#X connect 24 1 28 0;
#X connect 25 0 36 0;
#X connect 26 0 22 0;
#X connect 27 0 3 0;
#X connect 28 0 25 0;
#X connect 28 1 29 0;
#X connect 29 0 37 0;
#X connect 30 0 32 0;
#X connect 31 0 35 0;
#X connect 32 0 33 0;
#X connect 33 0 30 1;
#X connect 33 0 39 0;
#X connect 34 0 31 1;
#X connect 34 0 38 0;
#X connect 35 0 34 0;
#X connect 36 0 30 0;
#X connect 37 0 31 0;
#X connect 38 0 39 0;
#X connect 38 1 39 1;
#X connect 39 0 40 0;
#X connect 40 0 9 0;
