#N canvas 909 362 891 688 10;
#X declare -path bin/hid;
#X obj 188 100 loadbang;
#X msg 213 142 open keyboard;
#X obj 188 513 netsend -u;
#X obj 266 395 metro 1000;
#X obj 266 374 loadbang;
#X obj 188 537 tgl 15 0 empty empty empty 17 7 0 10 -262144 -1 -1 1
1;
#X obj 188 560 == 0;
#X obj 266 441 spigot 1;
#X obj 58 340 metro 1000;
#X obj 188 442 spigot 0;
#X obj 58 318 loadbang;
#X msg 342 479 disconnect;
#X msg 58 361 send ping bang;
#X msg 342 457 connect 127.0.0.1 9011;
#X obj 188 190 route key;
#X msg 266 416 connect 10.42.0.1 9011;
#X obj 188 292 list fromsymbol;
#X obj 188 210 list;
#X msg 188 230 \$2 \$1;
#X obj 188 250 route 1;
#X obj 188 271 symbol;
#X msg 188 330 send key \$5;
#X obj 48 18 declare -path bin/hid;
#X msg 188 122 open 0x046d 0xc52b \, 10;
#X obj 188 170 hid 0;
#X connect 0 0 23 0;
#X connect 1 0 24 0;
#X connect 2 0 5 0;
#X connect 3 0 15 0;
#X connect 4 0 3 0;
#X connect 5 0 6 0;
#X connect 5 0 9 1;
#X connect 6 0 7 1;
#X connect 7 0 2 0;
#X connect 8 0 12 0;
#X connect 9 0 2 0;
#X connect 10 0 8 0;
#X connect 11 0 2 0;
#X connect 12 0 9 0;
#X connect 13 0 2 0;
#X connect 14 0 17 0;
#X connect 15 0 7 0;
#X connect 16 0 21 0;
#X connect 17 0 18 0;
#X connect 18 0 19 0;
#X connect 19 0 20 0;
#X connect 20 0 16 0;
#X connect 21 0 9 0;
#X connect 23 0 24 0;
#X connect 24 0 14 0;
