#N canvas 368 427 684 543 10;
#X obj 173 83 ctlin;
#X obj 173 109 pack f f f;
#X obj 173 400 netsend -u;
#X obj 251 282 metro 1000;
#X obj 251 261 loadbang;
#X obj 173 424 tgl 15 0 empty empty empty 17 7 0 10 -262144 -1 -1 1
1;
#X obj 173 447 == 0;
#X obj 251 328 spigot 1;
#X obj 43 227 metro 1000;
#X obj 173 329 spigot 0;
#X obj 43 205 loadbang;
#X msg 327 344 connect 127.0.0.1 9010;
#X msg 327 366 disconnect;
#X msg 173 132 send ctlin \$1 \$2 \$3;
#X obj 200 184 pack f f f;
#X obj 200 158 notein;
#X msg 200 207 send note \$1 \$2 \$3;
#X msg 43 248 send ping bang;
#X msg 251 303 connect 10.42.0.11 9010;
#X connect 0 0 1 0;
#X connect 0 1 1 1;
#X connect 0 2 1 2;
#X connect 1 0 13 0;
#X connect 2 0 5 0;
#X connect 3 0 18 0;
#X connect 4 0 3 0;
#X connect 5 0 6 0;
#X connect 5 0 9 1;
#X connect 6 0 7 1;
#X connect 7 0 2 0;
#X connect 8 0 17 0;
#X connect 9 0 2 0;
#X connect 10 0 8 0;
#X connect 11 0 2 0;
#X connect 12 0 2 0;
#X connect 13 0 9 0;
#X connect 14 0 16 0;
#X connect 15 0 14 0;
#X connect 15 1 14 1;
#X connect 15 2 14 2;
#X connect 16 0 9 0;
#X connect 17 0 9 0;
#X connect 18 0 7 0;
