#N canvas 329 474 684 543 10;
#X obj 173 83 ctlin;
#X obj 173 109 pack f f f;
#X obj 173 400 netsend -u;
#X msg 251 303 connect 10.42.0.1 9010;
#X obj 251 282 metro 1000;
#X obj 251 261 loadbang;
#X obj 173 424 tgl 15 0 empty empty empty 17 7 0 10 -262144 -1 -1 1
1;
#X obj 173 447 == 0;
#X obj 251 328 spigot 1;
#X obj 43 227 metro 1000;
#X obj 173 329 spigot 0;
#X obj 43 205 loadbang;
#X msg 327 344 connect 127.0.0.1 9010;
#X msg 327 366 disconnect;
#X msg 173 132 send ctlin \$1 \$2 \$3;
#X obj 200 184 pack f f f;
#X obj 200 158 notein;
#X msg 200 207 send note \$1 \$2 \$3;
#X msg 43 248 send ping bang;
#N canvas 115 279 781 661 aconnect 0;
#X obj 99 260 aconnect;
#X msg 99 224 devices;
#X obj 99 334 route BCF2000;
#X obj 432 270 list tosymbol;
#X msg 432 247 80 117 114 101 32 68 97 116 97;
#X obj 174 357 route symbol;
#X obj 288 338 route BCF2000;
#X obj 363 361 route symbol;
#X obj 63 99 bng 15 250 50 0 empty empty empty 17 7 0 10 -262144 -1
-1;
#X msg 99 311 \$2 \$1 \$3;
#X obj 174 475 spigot 1;
#X obj 174 501 t a b;
#X msg 201 527 0;
#X msg 219 234 1;
#X obj 99 474 spigot 1;
#X obj 99 500 t a b;
#X msg 126 526 0;
#X obj 288 477 spigot 1;
#X obj 288 503 t a b;
#X msg 315 529 0;
#X obj 363 480 spigot 1;
#X obj 363 506 t a b;
#X msg 390 532 0;
#X obj 82 193 t b b b b;
#X msg 425 168 bang;
#X text 467 167 disconnect all;
#X obj 425 193 aconnect;
#X msg 491 194 disconnect \$1 \$2 \$3 \$4;
#N canvas 1261 340 299 212 pipe 0;
#X obj 83 36 inlet;
#X obj 83 140 outlet;
#X obj 83 64 unpack 0 0 0 0;
#X obj 83 104 pack 0 0 0 0;
#X obj 83 84 pipe 0 0 0 0 0;
#X connect 0 0 2 0;
#X connect 2 0 4 0;
#X connect 2 1 4 1;
#X connect 2 2 4 2;
#X connect 2 3 4 3;
#X connect 3 0 1 0;
#X connect 4 0 3 0;
#X connect 4 1 3 1;
#X connect 4 2 3 2;
#X connect 4 3 3 3;
#X restore 425 216 pd pipe;
#X obj 99 597 pack f f f f;
#X obj 145 574 unpack f f;
#X obj 99 285 route dst src;
#X msg 99 632 connect \$3 \$4 \$1 \$2;
#X obj 222 595 pack f f f f;
#X obj 268 572 unpack f f;
#X obj 99 660 aconnect;
#X msg 288 315 \$2 \$1 \$3;
#X obj 82 171 delay 1;
#X obj 63 46 r lb0;
#X obj 63 124 t b b b;
#X obj 82 686 s init_bcf;
#X obj 222 572 spigot;
#X obj 255 544 == 0;
#X obj 174 378 t a a;
#X msg 201 402 \$1;
#X obj 201 424 change -1;
#X msg 201 448 1;
#X obj 363 383 t a a;
#X msg 390 407 \$1;
#X obj 390 429 change -1;
#X msg 390 453 1;
#X connect 0 0 31 0;
#X connect 1 0 0 0;
#X connect 2 0 14 0;
#X connect 2 1 5 0;
#X connect 3 0 5 1;
#X connect 3 0 7 1;
#X connect 4 0 3 0;
#X connect 5 0 43 0;
#X connect 6 0 17 0;
#X connect 6 1 7 0;
#X connect 7 0 47 0;
#X connect 8 0 39 0;
#X connect 9 0 2 0;
#X connect 10 0 11 0;
#X connect 11 0 41 0;
#X connect 11 1 12 0;
#X connect 12 0 10 1;
#X connect 13 0 10 1;
#X connect 13 0 14 1;
#X connect 13 0 17 1;
#X connect 13 0 20 1;
#X connect 13 0 42 0;
#X connect 14 0 15 0;
#X connect 15 0 29 0;
#X connect 15 1 16 0;
#X connect 16 0 14 1;
#X connect 17 0 18 0;
#X connect 18 0 34 0;
#X connect 18 1 19 0;
#X connect 19 0 17 1;
#X connect 19 0 42 0;
#X connect 20 0 21 0;
#X connect 21 0 30 0;
#X connect 21 1 22 0;
#X connect 22 0 20 1;
#X connect 23 0 40 0;
#X connect 23 1 1 0;
#X connect 23 2 13 0;
#X connect 23 3 4 0;
#X connect 24 0 26 0;
#X connect 26 0 28 0;
#X connect 27 0 26 0;
#X connect 28 0 27 0;
#X connect 29 0 32 0;
#X connect 30 0 29 2;
#X connect 30 1 29 3;
#X connect 31 0 9 0;
#X connect 31 1 36 0;
#X connect 32 0 35 0;
#X connect 33 0 32 0;
#X connect 34 0 33 2;
#X connect 34 1 33 3;
#X connect 36 0 6 0;
#X connect 37 0 23 0;
#X connect 38 0 8 0;
#X connect 39 1 37 0;
#X connect 39 2 24 0;
#X connect 41 0 33 0;
#X connect 42 0 41 1;
#X connect 43 0 10 0;
#X connect 43 1 44 0;
#X connect 44 0 45 0;
#X connect 45 0 46 0;
#X connect 46 0 10 1;
#X connect 47 0 20 0;
#X connect 47 1 48 0;
#X connect 48 0 49 0;
#X connect 49 0 50 0;
#X connect 50 0 20 1;
#X restore 390 65 pd aconnect;
#X connect 0 0 1 0;
#X connect 0 1 1 1;
#X connect 0 2 1 2;
#X connect 1 0 14 0;
#X connect 2 0 6 0;
#X connect 3 0 8 0;
#X connect 4 0 3 0;
#X connect 5 0 4 0;
#X connect 6 0 7 0;
#X connect 6 0 10 1;
#X connect 7 0 8 1;
#X connect 8 0 2 0;
#X connect 9 0 18 0;
#X connect 10 0 2 0;
#X connect 11 0 9 0;
#X connect 12 0 2 0;
#X connect 13 0 2 0;
#X connect 14 0 10 0;
#X connect 15 0 17 0;
#X connect 16 0 15 0;
#X connect 16 1 15 1;
#X connect 16 2 15 2;
#X connect 17 0 10 0;
#X connect 18 0 10 0;
