#N canvas 1036 192 778 497 10;
#X obj 16 74 gemhead;
#X obj 16 130 gemframebuffer;
#X obj 129 13 loadbang;
#X obj 16 185 translateXYZ 0 0 -4;
#X obj 129 54 s to_fb;
#X obj 30 103 r to_fb;
#X msg 129 34 dimen 500 500 \, rectangle 0;
#X obj 327 379 pix_texture;
#X obj 327 399 square 4;
#X msg 344 358 quality 1 \, rectangle 0;
#X obj 344 337 loadbang;
#X obj 327 309 gemhead 99;
#N canvas 1 85 454 304 gemwin 0;
#X obj 67 89 outlet;
#X obj 67 10 inlet;
#X obj 67 41 route create;
#X msg 67 70 set destroy;
#X msg 182 68 set create;
#X msg 132 112 create \, 1;
#X msg 238 112 destroy;
#N canvas 87 154 850 451 Gem.init 0;
#X obj 59 46 loadbang;
#X obj 119 130 outlet;
#X msg 118 81 reset \, dimen 500 500 \, lighting 1 \, title blur \,
frame 20 \,;
#X connect 0 0 2 0;
#X connect 2 0 1 0;
#X restore 289 80 pd Gem.init;
#X obj 75 217 world_light;
#X obj 75 194 gemhead 1;
#X obj 132 136 gemwin 50;
#X connect 1 0 2 0;
#X connect 2 0 3 0;
#X connect 2 0 5 0;
#X connect 2 1 4 0;
#X connect 2 1 6 0;
#X connect 3 0 0 0;
#X connect 4 0 0 0;
#X connect 5 0 10 0;
#X connect 6 0 10 0;
#X connect 7 0 10 0;
#X connect 9 0 8 0;
#X restore 17 32 pd gemwin;
#X msg 17 8 destroy;
#X obj 383 89 cnv 15 150 25 empty empty empty 20 12 0 14 -257985 -66577
0;
#X obj 392 99 hsl 128 15 0 1 0 0 empty empty empty -2 -8 0 10 -262144
-1 -1 0 1;
#X obj 389 178 s blur;
#X text 389 69 blur;
#X obj 16 357 pix_texture;
#X obj 16 302 rotateXYZ;
#X floatatom 73 249 5 0 0 0 - - -, f 5;
#X obj 73 278 +;
#X obj 105 282 f;
#X obj 16 230 t a b;
#X obj 15 438 square 4;
#X msg 173 242 360 1500;
#X obj 176 266 /;
#X floatatom 486 156 5 0 0 0 - - -, f 5;
#X obj 385 139 / 4;
#X floatatom 345 285 5 0 0 0 - - -, f 5;
#X obj 312 234 / 360;
#X floatatom 436 138 5 0 0 0 - - -, f 5;
#X obj 310 262 * 2;
#X obj 16 333 pix_image acte2-2.jpg;
#N canvas 1062 156 503 739 14_pass_blur 0;
#X obj 87 102 inlet;
#X obj 87 527 outlet;
#X obj 87 252 single_blur 76 512;
#X obj 121 481 single_blur 84 1;
#X obj 121 347 single_blur 76 64;
#X obj 121 370 single_blur 79 32;
#X obj 121 397 single_blur 80 16;
#X obj 121 418 single_blur 81 8;
#X obj 121 439 single_blur 82 4;
#X obj 121 460 single_blur 83 2;
#X obj 121 317 single_blur 80 128;
#X obj 121 290 single_blur 79 256;
#X connect 0 0 2 0;
#X connect 2 0 11 0;
#X connect 3 0 1 0;
#X connect 4 0 5 0;
#X connect 5 0 6 0;
#X connect 6 0 7 0;
#X connect 7 0 8 0;
#X connect 8 0 9 0;
#X connect 9 0 3 0;
#X connect 10 0 4 0;
#X connect 11 0 10 0;
#X restore 114 149 pd 14_pass_blur;
#X floatatom 472 219 5 0 0 0 - - -, f 5;
#X obj 466 241 s boost;
#X obj 18 391 scaleXYZ;
#X floatatom 105 359 5 0 0 0 - - -, f 5;
#X connect 0 0 1 0;
#X connect 1 0 3 0;
#X connect 1 1 34 0;
#X connect 2 0 6 0;
#X connect 3 0 23 0;
#X connect 5 0 1 0;
#X connect 6 0 4 0;
#X connect 7 0 8 0;
#X connect 9 0 7 0;
#X connect 10 0 9 0;
#X connect 11 0 7 0;
#X connect 12 0 13 0;
#X connect 13 0 12 0;
#X connect 15 0 28 0;
#X connect 18 0 37 0;
#X connect 19 0 33 0;
#X connect 20 0 21 0;
#X connect 20 0 30 0;
#X connect 21 0 22 0;
#X connect 21 0 19 3;
#X connect 22 0 21 1;
#X connect 23 0 19 0;
#X connect 23 1 20 0;
#X connect 25 0 26 0;
#X connect 26 0 20 0;
#X connect 27 0 16 0;
#X connect 28 0 16 0;
#X connect 28 0 31 0;
#X connect 30 0 32 0;
#X connect 32 0 29 0;
#X connect 32 0 28 0;
#X connect 33 0 18 0;
#X connect 34 0 7 1;
#X connect 35 0 36 0;
#X connect 37 0 24 0;
#X connect 38 0 37 1;
#X connect 38 0 37 2;
