#N canvas 1 85 450 300 10;
#X obj 244 19 gemhead;
#X obj 244 40 t b b;
#X obj 244 61 realtime;
#X obj 244 80 iir 55;
#X obj 244 121 /;
#X msg 244 101 1000 \$1;
#X obj 244 162 i;
#X obj 244 183 change;
#X floatatom 147 103 5 0 0 0 - - -, f 5;
#X obj 244 141 + 0.5;
#X connect 0 0 1 0;
#X connect 1 0 2 0;
#X connect 1 1 2 1;
#X connect 2 0 3 0;
#X connect 3 0 5 0;
#X connect 4 0 9 0;
#X connect 5 0 4 0;
#X connect 6 0 7 0;
#X connect 7 0 8 0;
#X connect 9 0 6 0;
#X coords 0 -1 1 1 85 20 1 100 100;
