#N canvas 375 151 1130 872 10;
#X obj 16 134 gemhead;
#X obj 16 190 gemframebuffer;
#X obj 774 62 loadbang;
#X obj 16 245 translateXYZ 0 0 -4;
#X obj 774 103 s to_fb;
#X obj 30 163 r to_fb;
#X obj 213 431 pix_texture;
#X obj 213 451 square 4;
#X msg 230 410 quality 1 \, rectangle 0;
#X obj 230 389 loadbang;
#X obj 244 333 s blur;
#X obj 660 719 pix_texture;
#X obj 16 391 rotateXYZ;
#X obj 73 367 +;
#X obj 16 319 t a b;
#X obj 660 822 square 4;
#X obj 244 174 /;
#X obj 244 248 / 360;
#N canvas 1060 161 503 739 14_pass_blur 0;
#X obj 87 102 inlet;
#X obj 87 527 outlet;
#X obj 87 252 single_blur 76 512;
#X obj 91 469 single_blur 84 1;
#X obj 91 335 single_blur 76 64;
#X obj 91 358 single_blur 79 32;
#X obj 91 385 single_blur 80 16;
#X obj 91 406 single_blur 81 8;
#X obj 91 427 single_blur 82 4;
#X obj 91 448 single_blur 83 2;
#X obj 91 305 single_blur 80 128;
#X obj 91 278 single_blur 79 256;
#X connect 0 0 2 0;
#X connect 2 0 11 0;
#X connect 3 0 1 0;
#X connect 4 0 5 0;
#X connect 5 0 6 0;
#X connect 6 0 7 0;
#X connect 7 0 8 0;
#X connect 8 0 9 0;
#X connect 9 0 3 0;
#X connect 10 0 4 0;
#X connect 11 0 10 0;
#X restore 114 209 pd 14_pass_blur;
#X floatatom 388 260 5 0 0 0 - - -, f 5;
#X obj 382 282 s boost;
#X obj 71 338 f;
#X obj 660 625 separator;
#X obj 386 393 pix_texture;
#X obj 386 463 square 4;
#X obj 386 328 alpha;
#X obj 213 361 gemhead 97;
#X obj 386 305 gemhead 98;
#X obj 549 436 pix_texture;
#X obj 549 456 square 4;
#X obj 549 392 alpha;
#X obj 549 349 gemhead 99;
#X obj 549 414 pix_image cercle.png;
#X obj 16 272 alpha;
#X obj 660 661 colorRGB;
#X floatatom 735 651 5 0 0 0 - - -, f 5;
#X obj 434 721 pix_texture;
#X obj 434 824 square 4;
#X obj 434 805 scaleXYZ;
#X obj 434 627 separator;
#X obj 434 663 colorRGB;
#X obj 16 727 pix_texture;
#X obj 16 790 square 4;
#X obj 16 761 scaleXYZ;
#X floatatom 105 729 5 0 0 0 - - -, f 5;
#X obj 16 703 pix_image acte4_.jpg;
#X obj 16 633 separator;
#X obj 16 669 colorRGB;
#X floatatom 91 659 5 0 0 0 - - -, f 5;
#X obj 863 721 pix_texture;
#X obj 863 809 square 4;
#X obj 863 627 separator;
#X obj 863 663 colorRGB;
#X msg 998 732 0;
#X obj 863 697 pix_film acte1.mov;
#X obj 660 695 pix_image acte2_.jpg;
#X obj 434 697 pix_image acte3.jpg;
#X obj 981 648 metro 40;
#X obj 981 672 f;
#X obj 999 699 + 1;
#X obj 981 625 != 0;
#X obj 981 599 f;
#X obj 863 785 translateXYZ;
#X floatatom 116 402 5 0 0 0 - - -, f 5;
#X obj 105 371 fmod 360;
#X msg 127 338 0;
#X obj 774 19 _fps;
#X obj 244 291 / 4, f 5;
#X obj 740 605 line;
#X obj 244 123 loadbang;
#X obj 244 227 * 1;
#X obj 258 203 t b f;
#X floatatom 315 176 5 0 0 0 - - -, f 5;
#X obj 283 177 + 1;
#X obj 244 269 * 4;
#X obj 387 80 unpack f f;
#X obj 444 103 / 2;
#X obj 387 203 pack f f;
#X obj 460 148 delay;
#X msg 460 172 0;
#X obj 514 605 line;
#X obj 93 609 line;
#X floatatom 321 272 5 0 0 0 - - -, f 5;
#X obj 243 311 min 0.5;
#X obj 387 235 line3;
#X obj 907 766 line3;
#X obj 386 418 rotateXYZ 0 0 -4;
#X msg 471 56 1000 20000;
#X obj 444 126 f;
#X obj 388 55 r acc;
#X msg 521 196 0;
#X floatatom 352 154 5 0 0 0 - - -, f 5;
#X floatatom 472 464 5 0 0 0 - - -, f 5;
#X obj 386 440 translateXYZ 0 -0.1 0;
#X obj 231 720 pix_texture;
#X obj 231 822 square 4;
#X obj 231 803 scaleXYZ;
#X obj 231 640 separator;
#X obj 231 676 colorRGB;
#X obj 308 616 line;
#X obj 16 421 t a a a a a;
#X obj 231 696 pix_image transition.jpg;
#X obj 386 350 colorRGB;
#X obj 509 306 line;
#X msg 509 257 1;
#X msg 314 744 1;
#X msg 514 743 1;
#X msg 738 745 1;
#X obj 660 793 scaleXYZ;
#X obj 738 770 line3;
#X obj 514 766 line3;
#X obj 314 767 line3;
#X obj 509 159 r init;
#X obj 907 745 r TX_video;
#X obj 522 280 r color_ISS;
#X obj 93 583 r color_act_4;
#X obj 514 584 r color_act_3;
#X obj 308 591 r color_transition;
#X obj 740 583 r color_act_2;
#X obj 445 202 r acc2;
#X obj 981 576 r play_video;
#X obj 314 721 r init;
#X obj 343 743 r scale_transition;
#X obj 549 370 spigot 0;
#X obj 608 372 tgl 15 0 empty empty empty 17 7 0 10 -262144 -1 -1 0
1;
#X obj 554 742 r scale_act3;
#X obj 767 746 r scale_act2;
#X obj 514 721 r init;
#X obj 738 722 r init;
#X obj 781 608 r init;
#X msg 781 631 0;
#X obj 554 606 r init;
#X msg 554 629 0;
#X obj 348 613 r init;
#X msg 348 636 0;
#X obj 128 610 r init;
#X msg 128 633 0;
#X obj 779 156 netreceive 9030 1;
#X obj 806 203 list split 1;
#X obj 779 180 t a a;
#X obj 806 224 list trim;
#X obj 813 324 send;
#X obj 779 280 list split 1;
#X obj 813 303 list trim;
#X msg 32 77 destroy;
#X msg 774 82 dimen 1080 1080 \, rectangle 0;
#X msg 221 14 dimen 1080 1080 \, offset 2340 0 \, border 0 \, create
\, 1;
#X obj 31 35 loadbang;
#X obj 13 107 gemwin 30;
#X floatatom 632 472 5 0 0 0 - - -, f 5;
#X msg 439 505 repeat 0;
#X obj 439 484 loadbang;
#X msg 13 15 dimen 1080 1080 \, create \, 1;
#X msg 31 55 dimen 1080 1080 \, offset 420 0 \, border 0 \, create
:0 \, 1;
#X obj 386 372 pix_image iss1_.png;
#X obj 806 252 symbol;
#X msg 244 150 360 1800;
#X connect 0 0 1 0;
#X connect 1 0 3 0;
#X connect 1 1 18 0;
#X connect 2 0 145 0;
#X connect 3 0 33 0;
#X connect 5 0 1 0;
#X connect 6 0 7 0;
#X connect 8 0 6 0;
#X connect 9 0 8 0;
#X connect 11 0 108 0;
#X connect 12 0 100 0;
#X connect 13 0 12 3;
#X connect 13 0 64 0;
#X connect 13 0 63 0;
#X connect 14 0 12 0;
#X connect 14 1 21 0;
#X connect 16 0 70 0;
#X connect 17 0 74 0;
#X connect 18 0 6 1;
#X connect 19 0 20 0;
#X connect 21 0 13 0;
#X connect 22 0 34 0;
#X connect 23 0 86 0;
#X connect 25 0 102 0;
#X connect 26 0 6 0;
#X connect 27 0 25 0;
#X connect 28 0 29 0;
#X connect 30 0 32 0;
#X connect 31 0 123 0;
#X connect 32 0 28 0;
#X connect 33 0 14 0;
#X connect 34 0 55 0;
#X connect 35 0 34 4;
#X connect 36 0 38 0;
#X connect 38 0 37 0;
#X connect 39 0 40 0;
#X connect 40 0 56 0;
#X connect 41 0 43 0;
#X connect 43 0 42 0;
#X connect 44 0 43 1;
#X connect 44 0 43 2;
#X connect 45 0 41 0;
#X connect 46 0 47 0;
#X connect 47 0 45 0;
#X connect 48 0 47 4;
#X connect 49 0 62 0;
#X connect 51 0 52 0;
#X connect 52 0 54 0;
#X connect 53 0 58 0;
#X connect 54 0 49 0;
#X connect 54 2 53 0;
#X connect 55 0 11 0;
#X connect 56 0 36 0;
#X connect 57 0 58 0;
#X connect 58 0 54 1;
#X connect 58 0 59 0;
#X connect 59 0 58 1;
#X connect 60 0 57 0;
#X connect 61 0 52 4;
#X connect 61 0 60 0;
#X connect 62 0 50 0;
#X connect 64 0 13 1;
#X connect 65 0 13 1;
#X connect 67 0 83 0;
#X connect 68 0 34 4;
#X connect 69 0 156 0;
#X connect 70 0 17 0;
#X connect 70 0 21 1;
#X connect 71 0 70 0;
#X connect 71 1 70 1;
#X connect 72 0 73 0;
#X connect 73 0 71 0;
#X connect 74 0 67 0;
#X connect 75 0 77 0;
#X connect 75 1 76 0;
#X connect 76 0 88 0;
#X connect 77 0 84 0;
#X connect 78 0 79 0;
#X connect 79 0 77 0;
#X connect 80 0 40 4;
#X connect 81 0 47 4;
#X connect 82 0 10 0;
#X connect 83 0 10 0;
#X connect 84 0 73 0;
#X connect 85 0 62 2;
#X connect 86 0 93 0;
#X connect 87 0 75 0;
#X connect 88 0 77 1;
#X connect 88 0 78 0;
#X connect 89 0 75 0;
#X connect 90 0 84 0;
#X connect 91 0 84 0;
#X connect 92 0 93 2;
#X connect 93 0 24 0;
#X connect 94 0 96 0;
#X connect 96 0 95 0;
#X connect 97 0 98 0;
#X connect 98 0 101 0;
#X connect 99 0 98 4;
#X connect 100 0 46 0;
#X connect 100 1 97 0;
#X connect 100 2 39 0;
#X connect 100 3 22 0;
#X connect 100 4 51 0;
#X connect 101 0 94 0;
#X connect 102 0 154 0;
#X connect 103 0 102 4;
#X connect 104 0 103 0;
#X connect 105 0 111 0;
#X connect 106 0 110 0;
#X connect 107 0 109 0;
#X connect 108 0 15 0;
#X connect 109 0 108 2;
#X connect 109 0 108 1;
#X connect 110 0 38 1;
#X connect 110 0 38 2;
#X connect 111 0 96 2;
#X connect 111 0 96 1;
#X connect 112 0 90 0;
#X connect 112 0 104 0;
#X connect 113 0 85 0;
#X connect 114 0 103 0;
#X connect 115 0 81 0;
#X connect 116 0 80 0;
#X connect 117 0 99 0;
#X connect 118 0 68 0;
#X connect 119 0 84 0;
#X connect 120 0 61 0;
#X connect 121 0 105 0;
#X connect 122 0 111 0;
#X connect 123 0 30 0;
#X connect 124 0 123 1;
#X connect 125 0 110 0;
#X connect 126 0 109 0;
#X connect 127 0 106 0;
#X connect 128 0 107 0;
#X connect 129 0 130 0;
#X connect 130 0 68 0;
#X connect 131 0 132 0;
#X connect 132 0 80 0;
#X connect 133 0 134 0;
#X connect 134 0 99 0;
#X connect 135 0 136 0;
#X connect 136 0 81 0;
#X connect 137 0 139 0;
#X connect 138 0 140 0;
#X connect 139 0 142 0;
#X connect 139 1 138 0;
#X connect 140 0 155 0;
#X connect 142 1 143 0;
#X connect 142 2 143 0;
#X connect 143 0 141 0;
#X connect 144 0 148 0;
#X connect 145 0 4 0;
#X connect 146 0 148 0;
#X connect 147 0 153 0;
#X connect 149 0 29 1;
#X connect 150 0 23 0;
#X connect 151 0 150 0;
#X connect 152 0 148 0;
#X connect 153 0 148 0;
#X connect 154 0 23 0;
#X connect 155 0 141 1;
#X connect 156 0 16 0;
