#N canvas 400 164 1447 891 10;
#X obj 16 134 gemhead;
#X obj 16 190 gemframebuffer;
#X obj 129 13 loadbang;
#X obj 16 245 translateXYZ 0 0 -4;
#X obj 129 54 s to_fb;
#X obj 30 163 r to_fb;
#X obj 213 431 pix_texture;
#X obj 213 451 square 4;
#X msg 230 410 quality 1 \, rectangle 0;
#X obj 230 389 loadbang;
#N canvas 1 105 454 304 gemwin 0;
#X obj 67 89 outlet;
#X obj 67 10 inlet;
#X obj 67 41 route create;
#X msg 67 70 set destroy;
#X msg 182 68 set create;
#X msg 238 112 destroy;
#X obj 75 217 world_light;
#X obj 75 194 gemhead 1;
#X obj 79 155 gemwin 50;
#X msg 79 130 dimen 1024 1024 \, create \, 1;
#X connect 1 0 2 0;
#X connect 2 0 3 0;
#X connect 2 0 9 0;
#X connect 2 1 4 0;
#X connect 2 1 5 0;
#X connect 3 0 0 0;
#X connect 4 0 0 0;
#X connect 5 0 8 0;
#X connect 7 0 6 0;
#X connect 9 0 8 0;
#X restore 17 32 pd gemwin;
#X msg 17 8 destroy;
#X obj 244 333 s blur;
#X obj 466 739 pix_texture;
#X obj 16 391 rotateXYZ;
#X obj 73 367 +;
#X obj 16 319 t a b;
#X obj 466 802 square 4;
#X msg 244 150 360 1500;
#X obj 244 174 /;
#X obj 244 248 / 360;
#N canvas 1060 161 503 739 14_pass_blur 0;
#X obj 87 102 inlet;
#X obj 87 527 outlet;
#X obj 87 252 single_blur 76 512;
#X obj 91 469 single_blur 84 1;
#X obj 91 335 single_blur 76 64;
#X obj 91 358 single_blur 79 32;
#X obj 91 385 single_blur 80 16;
#X obj 91 406 single_blur 81 8;
#X obj 91 427 single_blur 82 4;
#X obj 91 448 single_blur 83 2;
#X obj 91 305 single_blur 80 128;
#X obj 91 278 single_blur 79 256;
#X connect 0 0 2 0;
#X connect 2 0 11 0;
#X connect 3 0 1 0;
#X connect 4 0 5 0;
#X connect 5 0 6 0;
#X connect 6 0 7 0;
#X connect 7 0 8 0;
#X connect 8 0 9 0;
#X connect 9 0 3 0;
#X connect 10 0 4 0;
#X connect 11 0 10 0;
#X restore 114 209 pd 14_pass_blur;
#X floatatom 388 260 5 0 0 0 - - -, f 5;
#X obj 382 282 s boost;
#X floatatom 555 741 5 0 0 0 - - -, f 5;
#X obj 71 338 f;
#X msg 129 33 dimen 1024 1024 \, rectangle 0;
#X obj 466 645 separator;
#X obj 386 393 pix_texture;
#X obj 386 463 square 4;
#X obj 386 328 alpha;
#X obj 213 361 gemhead 97;
#X obj 386 305 gemhead 98;
#X obj 549 417 pix_texture;
#X obj 549 437 square 4;
#X obj 549 372 alpha;
#X obj 549 349 gemhead 99;
#X obj 550 396 pix_image cercle.png;
#X obj 16 272 alpha;
#X obj 466 681 colorRGB;
#X floatatom 541 671 5 0 0 0 - - -, f 5;
#X obj 310 741 pix_texture;
#X obj 310 804 square 4;
#X obj 310 775 scaleXYZ;
#X floatatom 399 743 5 0 0 0 - - -, f 5;
#X obj 310 647 separator;
#X obj 310 683 colorRGB;
#X floatatom 385 673 5 0 0 0 - - -, f 5;
#X obj 31 747 pix_texture;
#X obj 31 810 square 4;
#X obj 31 781 scaleXYZ;
#X floatatom 120 749 5 0 0 0 - - -, f 5;
#X obj 31 723 pix_image acte4_.jpg;
#X obj 31 653 separator;
#X obj 31 689 colorRGB;
#X floatatom 106 679 5 0 0 0 - - -, f 5;
#X obj 609 741 pix_texture;
#X obj 609 804 square 4;
#X obj 609 647 separator;
#X obj 609 683 colorRGB;
#X msg 744 752 0;
#X obj 609 717 pix_film acte1.mov;
#X obj 466 715 pix_image acte2_.jpg;
#X obj 310 717 pix_image acte3.jpg;
#X obj 727 668 metro 40;
#X obj 727 692 f;
#X obj 745 719 + 1;
#X obj 727 645 != 0;
#X obj 725 619 f;
#X obj 609 775 translateXYZ;
#X floatatom 116 402 5 0 0 0 - - -, f 5;
#X obj 105 371 fmod 360;
#X msg 127 338 0;
#X obj 142 82 _fps;
#X obj 244 291 / 4, f 5;
#X floatatom 826 774 5 0 0 0 - - -, f 5;
#X msg 569 545 0;
#X obj 546 625 line;
#X obj 244 123 loadbang;
#X obj 244 227 * 1;
#X obj 258 203 t b f;
#X floatatom 315 176 5 0 0 0 - - -, f 5;
#X obj 283 177 + 1;
#X obj 244 269 * 4;
#X obj 387 80 unpack f f;
#X obj 444 103 / 2;
#X obj 387 203 pack f f;
#X obj 460 148 delay;
#X msg 460 172 0;
#X msg 589 591 0 2000;
#X msg 411 542 0;
#X obj 390 625 line;
#X msg 433 591 0 2000;
#X msg 131 549 0;
#X obj 108 629 line;
#X msg 140 571 1 2000;
#X msg 151 595 0 2000;
#X floatatom 321 272 5 0 0 0 - - -, f 5;
#X obj 243 311 min 0.5;
#X obj 387 224 line3;
#X obj 745 440 t b;
#X msg 724 591 1;
#X msg 685 582 0;
#X msg 589 18 debut_acte1;
#X msg 847 640 0;
#X obj 848 714 line3;
#X msg 603 46 fin_acte1;
#X obj 386 418 rotateXYZ 0 0 -4;
#X msg 868 663 -8 10000;
#X msg 388 29 1000 20000;
#X obj 444 126 f;
#X obj 402 57 r acc;
#X obj 887 621 s acc;
#X msg 887 598 10 10000;
#X obj 872 549 t b;
#X msg 958 625 0 1000;
#X msg 953 579 10000;
#X obj 961 604 delay;
#X msg 796 574 0;
#X msg 1003 576 stop;
#X msg 679 21 debut_acte2;
#X msg 716 99 fin_acte2;
#X obj 817 505 t b;
#X obj 730 198 s acc;
#X msg 731 179 50 20000;
#X obj 791 202 s acc;
#X msg 792 183 20 10000;
#X obj 844 235 s acc;
#X msg 845 216 50 10000;
#X obj 901 199 s acc;
#X msg 902 180 100 10000;
#X msg 697 43 acc1;
#X msg 736 46 acc2;
#X msg 704 68 acc3;
#X msg 743 71 acc4;
#X msg 670 93 acc5;
#X obj 959 243 s acc;
#X msg 960 224 100 10000;
#X msg 422 567 1 5000;
#X obj 1066 190 t b;
#X msg 521 196 0;
#X msg 773 18 debut_acte3;
#X msg 578 567 1 5000;
#X floatatom 352 154 5 0 0 0 - - -, f 5;
#X msg 1016 252 250 10000;
#X msg 1080 287 0 5000;
#X floatatom 472 464 5 0 0 0 - - -, f 5;
#X obj 386 440 translateXYZ 0 -0.1 0;
#X msg 881 86 fin_acte4;
#X obj 167 754 pix_texture;
#X obj 167 827 square 4;
#X obj 167 798 scaleXYZ;
#X obj 167 660 separator;
#X obj 167 696 colorRGB;
#X floatatom 242 686 5 0 0 0 - - -, f 5;
#X msg 267 556 0;
#X obj 244 636 line;
#X msg 276 578 1 2000;
#X msg 287 602 0 2000;
#X obj 16 421 t a a a a a;
#X obj 167 730 pix_image transition.jpg;
#X obj 568 512 t b;
#X msg 534 555 1;
#X msg 1180 182 1000 30000;
#X obj 1183 204 s acc;
#X msg 809 40 transition_3-4A;
#X msg 845 64 transition_3-4B;
#X obj 563 128 route debut_acte1 fin_acte1 debut_acte2 acc1 acc2 acc3
acc4 acc5 fin_acte2 debut_acte3 transition_3-4A transition_3-4B fin_acte4
, f 139;
#X obj 1202 229 delay 10000;
#X msg 1203 252 1 20000;
#X msg 1277 179 1000 30000;
#X obj 1280 201 s acc;
#X obj 1299 226 delay 10000;
#X msg 1300 249 1 20000;
#X obj 1357 422 t b;
#X obj 389 349 colorRGB;
#X obj 490 309 line;
#X msg 513 286 0 2000;
#X msg 503 260 1;
#X msg 241 765 1;
#X msg 385 780 1;
#X msg 540 797 1;
#X msg 547 823 20 20000;
#X obj 466 773 scaleXYZ;
#X obj 543 852 line3;
#X obj 385 835 line3;
#X obj 241 820 line3;
#X obj 428 851 delay 5000;
#X obj 279 851 delay 5000;
#X msg 756 600 0;
#X obj 386 372 pix_image iss2_.png;
#X obj 754 407 loadbang;
#X msg 248 791 20 25000;
#X msg 392 806 20 25000;
#X obj 1002 85 netreceive 9030 1;
#X connect 0 0 1 0;
#X connect 1 0 3 0;
#X connect 1 1 21 0;
#X connect 2 0 26 0;
#X connect 3 0 38 0;
#X connect 5 0 1 0;
#X connect 6 0 7 0;
#X connect 8 0 6 0;
#X connect 9 0 8 0;
#X connect 10 0 11 0;
#X connect 11 0 10 0;
#X connect 13 0 183 0;
#X connect 14 0 159 0;
#X connect 15 0 14 3;
#X connect 15 0 71 0;
#X connect 15 0 70 0;
#X connect 16 0 14 0;
#X connect 16 1 25 0;
#X connect 18 0 19 0;
#X connect 19 0 79 0;
#X connect 20 0 83 0;
#X connect 21 0 6 1;
#X connect 22 0 23 0;
#X connect 24 0 183 2;
#X connect 25 0 15 0;
#X connect 26 0 4 0;
#X connect 27 0 39 0;
#X connect 28 0 107 0;
#X connect 30 0 175 0;
#X connect 31 0 6 0;
#X connect 32 0 30 0;
#X connect 33 0 34 0;
#X connect 35 0 37 0;
#X connect 37 0 33 0;
#X connect 38 0 16 0;
#X connect 39 0 62 0;
#X connect 40 0 39 4;
#X connect 41 0 43 0;
#X connect 43 0 42 0;
#X connect 44 0 43 1;
#X connect 44 0 43 2;
#X connect 45 0 46 0;
#X connect 46 0 63 0;
#X connect 47 0 46 4;
#X connect 48 0 50 0;
#X connect 50 0 49 0;
#X connect 51 0 50 1;
#X connect 51 0 50 2;
#X connect 52 0 48 0;
#X connect 53 0 54 0;
#X connect 54 0 52 0;
#X connect 55 0 54 4;
#X connect 56 0 69 0;
#X connect 58 0 59 0;
#X connect 59 0 61 0;
#X connect 60 0 65 0;
#X connect 61 0 56 0;
#X connect 61 2 60 0;
#X connect 62 0 13 0;
#X connect 63 0 41 0;
#X connect 64 0 65 0;
#X connect 65 0 61 1;
#X connect 65 0 66 0;
#X connect 66 0 65 1;
#X connect 67 0 64 0;
#X connect 68 0 59 4;
#X connect 68 0 67 0;
#X connect 69 0 57 0;
#X connect 71 0 15 1;
#X connect 72 0 15 1;
#X connect 74 0 98 0;
#X connect 75 0 69 2;
#X connect 76 0 77 0;
#X connect 77 0 39 4;
#X connect 78 0 18 0;
#X connect 79 0 20 0;
#X connect 79 0 25 1;
#X connect 80 0 79 0;
#X connect 80 1 79 1;
#X connect 81 0 82 0;
#X connect 82 0 80 0;
#X connect 83 0 74 0;
#X connect 84 0 86 0;
#X connect 84 1 85 0;
#X connect 85 0 110 0;
#X connect 86 0 99 0;
#X connect 87 0 88 0;
#X connect 88 0 86 0;
#X connect 89 0 77 0;
#X connect 90 0 91 0;
#X connect 91 0 46 4;
#X connect 92 0 91 0;
#X connect 93 0 94 0;
#X connect 94 0 54 4;
#X connect 95 0 94 0;
#X connect 96 0 94 0;
#X connect 97 0 12 0;
#X connect 98 0 12 0;
#X connect 99 0 82 0;
#X connect 100 0 102 0;
#X connect 100 0 101 0;
#X connect 100 0 104 0;
#X connect 100 0 118 0;
#X connect 100 0 119 0;
#X connect 100 0 180 0;
#X connect 100 0 179 0;
#X connect 100 0 181 0;
#X connect 101 0 68 0;
#X connect 102 0 77 0;
#X connect 102 0 91 0;
#X connect 102 0 94 0;
#X connect 102 0 156 0;
#X connect 103 0 167 0;
#X connect 104 0 105 0;
#X connect 105 0 69 2;
#X connect 106 0 167 0;
#X connect 107 0 147 0;
#X connect 108 0 105 0;
#X connect 109 0 84 0;
#X connect 110 0 86 1;
#X connect 110 0 87 0;
#X connect 111 0 84 0;
#X connect 113 0 112 0;
#X connect 114 0 113 0;
#X connect 114 0 108 0;
#X connect 114 0 116 0;
#X connect 115 0 68 0;
#X connect 116 0 117 0;
#X connect 117 0 115 0;
#X connect 118 0 112 0;
#X connect 119 0 117 0;
#X connect 120 0 167 0;
#X connect 121 0 167 0;
#X connect 122 0 142 0;
#X connect 124 0 123 0;
#X connect 126 0 125 0;
#X connect 128 0 127 0;
#X connect 130 0 129 0;
#X connect 131 0 167 0;
#X connect 132 0 167 0;
#X connect 133 0 167 0;
#X connect 134 0 167 0;
#X connect 135 0 167 0;
#X connect 137 0 136 0;
#X connect 138 0 91 0;
#X connect 139 0 145 0;
#X connect 139 0 161 0;
#X connect 140 0 99 0;
#X connect 141 0 167 0;
#X connect 142 0 77 0;
#X connect 143 0 99 0;
#X connect 144 0 99 0;
#X connect 145 0 99 0;
#X connect 146 0 147 2;
#X connect 147 0 29 0;
#X connect 148 0 167 0;
#X connect 149 0 151 0;
#X connect 151 0 150 0;
#X connect 152 0 153 0;
#X connect 153 0 160 0;
#X connect 154 0 153 4;
#X connect 155 0 156 0;
#X connect 156 0 153 4;
#X connect 157 0 156 0;
#X connect 158 0 156 0;
#X connect 159 0 53 0;
#X connect 159 1 152 0;
#X connect 159 2 45 0;
#X connect 159 3 27 0;
#X connect 159 4 58 0;
#X connect 160 0 149 0;
#X connect 161 0 138 0;
#X connect 161 0 155 0;
#X connect 161 0 162 0;
#X connect 161 0 93 0;
#X connect 162 0 77 0;
#X connect 163 0 164 0;
#X connect 165 0 167 0;
#X connect 166 0 167 0;
#X connect 167 0 100 0;
#X connect 167 0 140 0;
#X connect 167 0 178 0;
#X connect 167 1 114 0;
#X connect 167 2 122 0;
#X connect 167 2 189 0;
#X connect 167 3 124 0;
#X connect 167 4 126 0;
#X connect 167 5 128 0;
#X connect 167 6 130 0;
#X connect 167 7 137 0;
#X connect 167 8 144 0;
#X connect 167 9 139 0;
#X connect 167 9 182 0;
#X connect 167 10 163 0;
#X connect 167 10 168 0;
#X connect 167 10 187 0;
#X connect 167 11 170 0;
#X connect 167 11 172 0;
#X connect 167 11 188 0;
#X connect 167 12 174 0;
#X connect 168 0 169 0;
#X connect 169 0 156 0;
#X connect 170 0 171 0;
#X connect 172 0 173 0;
#X connect 173 0 94 0;
#X connect 174 0 76 0;
#X connect 174 0 90 0;
#X connect 174 0 155 0;
#X connect 174 0 96 0;
#X connect 174 0 177 0;
#X connect 174 0 189 0;
#X connect 175 0 190 0;
#X connect 176 0 175 4;
#X connect 177 0 176 0;
#X connect 178 0 176 0;
#X connect 179 0 186 0;
#X connect 180 0 185 0;
#X connect 181 0 184 0;
#X connect 182 0 184 0;
#X connect 183 0 17 0;
#X connect 184 0 183 2;
#X connect 184 0 183 1;
#X connect 185 0 43 1;
#X connect 185 0 43 2;
#X connect 186 0 151 2;
#X connect 186 0 151 1;
#X connect 187 0 193 0;
#X connect 188 0 192 0;
#X connect 189 0 68 0;
#X connect 190 0 28 0;
#X connect 191 0 100 0;
#X connect 192 0 186 0;
#X connect 193 0 185 0;
#X connect 194 0 167 0;
