#N canvas 88 406 600 431 10;
#X msg 52 72 dimen 800 600 \, offset 0 0 \, border 0 \, cursor 0 \,
create \, 1;
#X msg 62 96 0 \, destroy;
#X obj 279 128 gemhead;
#X obj 279 224 pix_film;
#X msg 301 197 auto 1;
#X msg 346 227 0;
#X obj 301 175 loadbang;
#X obj 279 286 color 1 1 1 1;
#X obj 279 250 alpha;
#X obj 387 112 netreceive -u 9030;
#X obj 387 135 route video fadein fadeout;
#X msg 438 161 1 \$1;
#X obj 438 187 line 1;
#X msg 387 161 open \$1;
#X msg 489 162 0 \$1;
#X obj 279 359 rectangle 4 4;
#X obj 52 148 gemwin 25;
#X obj 52 128 t a;
#X obj 161 174 route dimen;
#X obj 161 198 /;
#X obj 161 221 * 4;
#X connect 0 0 17 0;
#X connect 1 0 17 0;
#X connect 2 0 3 0;
#X connect 3 0 8 0;
#X connect 3 2 5 0;
#X connect 4 0 3 0;
#X connect 5 0 3 1;
#X connect 6 0 4 0;
#X connect 7 0 15 0;
#X connect 8 0 7 0;
#X connect 9 0 10 0;
#X connect 10 0 13 0;
#X connect 10 1 11 0;
#X connect 10 2 14 0;
#X connect 11 0 12 0;
#X connect 12 0 7 1;
#X connect 13 0 3 0;
#X connect 14 0 12 0;
#X connect 17 0 16 0;
#X connect 17 0 18 0;
#X connect 18 0 19 0;
#X connect 19 0 20 0;
#X connect 20 0 15 1;
