#N canvas 137 404 917 614 10;
#X msg 61 100 0 \, destroy;
#X obj 278 103 gemhead;
#X msg 301 197 auto 1;
#X obj 301 165 loadbang;
#X msg 586 154 1 \$1;
#X obj 586 180 line 1;
#X msg 535 154 open \$1;
#X msg 637 155 0 \$1;
#X obj 279 553 rectangle 4 4;
#X obj 52 128 t a;
#X obj 161 174 route dimen;
#X obj 161 198 /;
#X obj 161 221 * 4;
#X obj 535 85 netreceive 9030 1;
#X msg 94 27 dimen 320 240 \, border 1 \, create \, 1;
#X obj 586 131 * 1000;
#X obj 637 131 * 1000;
#X msg 573 59 fadeout 2;
#X obj 535 131 symbol;
#X floatatom 364 224 5 0 0 0 - - -, f 5;
#X obj 279 312 pix_texture;
#X obj 49 43 loadbang;
#X msg 52 72 dimen 800 600 \, offset 1024 0 \, border 0 \, cursor 0
\, create \, 1;
#X obj 345 248 t b;
#X obj 279 286 colorRGB 1 1 1 1;
#X msg 564 18 video 640/hub-acte1.mov \, fadein 2;
#X obj 279 224 pix_film;
#X obj 279 493 translateXYZ;
#X obj 397 375 line;
#X msg 397 353 0 \, 360 60000;
#X obj 397 306 tgl 15 0 empty empty empty 17 7 0 10 -262144 -1 -1 1
1;
#X obj 397 329 metro 60000;
#X obj 279 377 rotateXYZ;
#X msg 656 458 0;
#X obj 654 479 line;
#X obj 548 173 t b;
#X msg 706 64 eject;
#X obj 52 148 gemwin 15;
#X obj 279 427 rotateXYZ;
#X obj 400 456 line;
#X msg 558 446 0;
#X obj 657 247 t b;
#X msg 401 422 0 \, 3600 10000;
#X msg 691 457 15 10000;
#X obj 276 130 spigot 1;
#X obj 382 107 gemhead;
#X obj 380 134 spigot 0;
#X obj 448 82 f;
#X msg 553 212 1;
#X msg 713 162 0;
#X obj 448 110 == 0;
#X msg 799 73 image test;
#X obj 279 522 scaleXYZ 1 1 1;
#X obj 534 108 route video fadein fadeout eject image scale;
#X obj 421 521 f;
#X obj 370 169 pix_image;
#X msg 786 227 open \$1;
#X obj 786 203 symbol;
#X connect 0 0 9 0;
#X connect 1 0 44 0;
#X connect 2 0 26 0;
#X connect 3 0 2 0;
#X connect 3 0 30 0;
#X connect 4 0 5 0;
#X connect 5 0 24 1;
#X connect 5 0 24 2;
#X connect 5 0 24 3;
#X connect 6 0 26 0;
#X connect 7 0 5 0;
#X connect 9 0 10 0;
#X connect 9 0 37 0;
#X connect 10 0 11 0;
#X connect 11 0 12 0;
#X connect 12 0 8 1;
#X connect 13 0 53 0;
#X connect 14 0 9 0;
#X connect 15 0 4 0;
#X connect 16 0 7 0;
#X connect 17 0 53 0;
#X connect 18 0 6 0;
#X connect 19 0 26 1;
#X connect 20 0 32 0;
#X connect 21 0 22 0;
#X connect 22 0 9 0;
#X connect 23 0 19 0;
#X connect 24 0 20 0;
#X connect 25 0 53 0;
#X connect 26 0 24 0;
#X connect 26 2 23 0;
#X connect 27 0 52 0;
#X connect 28 0 32 3;
#X connect 29 0 28 0;
#X connect 30 0 31 0;
#X connect 31 0 29 0;
#X connect 32 0 38 0;
#X connect 33 0 34 0;
#X connect 34 0 27 2;
#X connect 35 0 41 0;
#X connect 36 0 53 0;
#X connect 38 0 27 0;
#X connect 39 0 38 3;
#X connect 40 0 39 0;
#X connect 41 0 33 0;
#X connect 41 0 40 0;
#X connect 42 0 39 0;
#X connect 43 0 34 0;
#X connect 44 0 26 0;
#X connect 45 0 46 0;
#X connect 46 0 55 0;
#X connect 47 0 44 1;
#X connect 47 0 50 0;
#X connect 48 0 47 0;
#X connect 49 0 47 0;
#X connect 50 0 46 1;
#X connect 51 0 53 0;
#X connect 52 0 8 0;
#X connect 53 0 18 0;
#X connect 53 0 35 0;
#X connect 53 0 48 0;
#X connect 53 1 15 0;
#X connect 53 2 16 0;
#X connect 53 3 43 0;
#X connect 53 3 42 0;
#X connect 53 4 41 0;
#X connect 53 4 49 0;
#X connect 53 5 54 0;
#X connect 53 5 57 0;
#X connect 54 0 52 2;
#X connect 54 0 52 1;
#X connect 55 0 24 0;
#X connect 56 0 55 0;
#X connect 57 0 56 0;
