#N canvas 179 248 725 594 10;
#X msg 61 100 0 \, destroy;
#X obj 279 128 gemhead;
#X msg 301 197 auto 1;
#X obj 301 165 loadbang;
#X msg 438 181 1 \$1;
#X obj 438 207 line 1;
#X msg 387 181 open \$1;
#X msg 489 182 0 \$1;
#X obj 279 483 rectangle 4 4;
#X obj 52 148 gemwin 25;
#X obj 52 128 t a;
#X obj 161 174 route dimen;
#X obj 161 198 /;
#X obj 161 221 * 4;
#X obj 387 112 netreceive 9030 1;
#X msg 94 27 dimen 320 240 \, border 1 \, create \, 1;
#X obj 438 158 * 1000;
#X obj 489 158 * 1000;
#X msg 425 86 fadeout 2;
#X obj 387 158 symbol;
#X floatatom 364 224 5 0 0 0 - - -, f 5;
#X floatatom 438 248 5 0 0 0 - - -, f 5;
#X obj 279 312 pix_texture;
#X obj 49 43 loadbang;
#X msg 52 72 dimen 800 600 \, offset 1024 0 \, border 0 \, cursor 0
\, create \, 1;
#X obj 345 248 t b;
#X obj 279 286 colorRGB 1 1 1 1;
#X msg 416 45 video 640/hub-acte1.mov \, fadein 2;
#X obj 279 224 pix_film;
#X obj 279 423 translateXYZ;
#X obj 397 375 line;
#X msg 397 353 0 \, 360 60000;
#X obj 397 306 tgl 15 0 empty empty empty 17 7 0 10 -262144 -1 -1 1
1;
#X obj 397 329 metro 60000;
#X obj 279 377 rotateXYZ;
#X msg 496 368 0;
#X obj 494 389 line;
#X obj 400 200 t b;
#X obj 386 135 route video fadein fadeout eject;
#X msg 529 364 10 10000;
#X connect 0 0 10 0;
#X connect 1 0 28 0;
#X connect 2 0 28 0;
#X connect 3 0 2 0;
#X connect 3 0 32 0;
#X connect 4 0 5 0;
#X connect 5 0 21 0;
#X connect 5 0 26 1;
#X connect 5 0 26 2;
#X connect 5 0 26 3;
#X connect 6 0 28 0;
#X connect 7 0 5 0;
#X connect 10 0 9 0;
#X connect 10 0 11 0;
#X connect 11 0 12 0;
#X connect 12 0 13 0;
#X connect 13 0 8 1;
#X connect 14 0 38 0;
#X connect 15 0 10 0;
#X connect 16 0 4 0;
#X connect 17 0 7 0;
#X connect 18 0 38 0;
#X connect 19 0 6 0;
#X connect 20 0 28 1;
#X connect 22 0 34 0;
#X connect 23 0 24 0;
#X connect 24 0 10 0;
#X connect 25 0 20 0;
#X connect 26 0 22 0;
#X connect 27 0 38 0;
#X connect 28 0 26 0;
#X connect 28 2 25 0;
#X connect 29 0 8 0;
#X connect 30 0 34 3;
#X connect 31 0 30 0;
#X connect 32 0 33 0;
#X connect 33 0 31 0;
#X connect 34 0 29 0;
#X connect 35 0 36 0;
#X connect 36 0 29 2;
#X connect 37 0 35 0;
#X connect 38 0 19 0;
#X connect 38 0 37 0;
#X connect 38 1 16 0;
#X connect 38 2 17 0;
#X connect 38 3 39 0;
#X connect 39 0 36 0;
