#N canvas 1119 460 681 595 10;
#X obj 99 59 inlet;
#X obj 26 145 gemframebuffer;
#X obj 26 215 translateXYZ 0 0 -4;
#X obj 26 285 pix_texture;
#X obj 26 305 square 4;
#X msg 43 264 quality 1 \, rectangle 0;
#X obj 43 243 loadbang;
#X obj 128 431 outlet;
#X obj 26 195 _glsl blur;
#X obj 47 166 bng 15 250 50 0 empty empty empty 17 7 0 10 -262144 -1
-1;
#X obj 248 17 r blur;
#X obj 26 85 gemhead \$1;
#X obj 248 92 * \$2;
#X obj 42 119 r to_fb;
#X obj 248 39 route float;
#X obj 250 285 pack f f f f;
#X obj 247 171 t f f;
#X obj 243 231 t f f;
#X msg 249 310 rot \$1 \$2 \$3 \$4;
#X obj 248 202 cos;
#X obj 303 203 sin;
#X obj 284 232 * -1;
#X obj 246 119 / 512;
#X obj 244 146 * 6.28;
#X msg 467 267 boost \$1;
#X obj 466 241 r boost;
#X obj 251 71 f;
#X connect 0 0 3 1;
#X connect 1 0 8 0;
#X connect 1 1 7 0;
#X connect 2 0 3 0;
#X connect 3 0 4 0;
#X connect 5 0 3 0;
#X connect 6 0 5 0;
#X connect 8 0 2 0;
#X connect 8 1 26 0;
#X connect 9 0 8 0;
#X connect 10 0 14 0;
#X connect 11 0 1 0;
#X connect 12 0 22 0;
#X connect 13 0 1 0;
#X connect 14 0 26 0;
#X connect 15 0 18 0;
#X connect 16 0 19 0;
#X connect 16 1 20 0;
#X connect 17 0 15 0;
#X connect 17 1 15 3;
#X connect 18 0 8 1;
#X connect 19 0 17 0;
#X connect 20 0 15 1;
#X connect 20 0 21 0;
#X connect 21 0 15 2;
#X connect 22 0 23 0;
#X connect 23 0 16 0;
#X connect 24 0 8 1;
#X connect 25 0 24 0;
#X connect 26 0 12 0;
