#N canvas 13 485 418 263 10;
#X declare -path ../osc;
#X declare -path ../osc;
#X declare -path ../osc;
#X declare -path ../osc;
#X declare -path ../osc;
#X declare -path ../osc;
#X declare -path ../osc;
#X declare -path ../osc;
#X declare -path ../osc;
#X declare -path ../osc;
#X declare -path ../osc;
#X declare -path ../osc;
#X declare -path ../osc;
#X declare -path ../osc;
#X declare -path ../osc;
#X declare -path ../osc;
#X declare -path ../osc;
#X declare -path nusmuk-audio;
#X declare -path ../osc;
#X declare -path ../osc;
#X declare -path ../osc;
#X declare -path nusmuk-audio;
#X declare -path ../osc;
#X declare -path ../osc;
#X declare -path ../osc;
#X declare -path ../osc;
#X declare -path ../osc;
#X declare -path ../osc;
#X declare -path ../osc;
#X declare -path ../osc;
#X declare -path ../osc;
#X declare -path ../osc;
#X declare -path ../osc;
#X declare -path ../osc;
#X declare -path ../osc;
#X declare -path ../osc;
#X declare -path ../osc;
#X declare -path ../osc;
#X declare -path ../osc;
#X declare -path ../osc;
#X declare -path ../osc;
#X declare -path ../osc;
#X declare -path ../osc;
#X declare -path nusmuk-audio;
#X declare -path ../osc;
#X declare -path ../osc;
#X declare -path ../osc;
#X declare -path nusmuk-audio;
#X declare -path ../osc;
#X declare -path ../osc;
#X declare -path ../osc;
#X declare -path ../osc;
#X declare -path ../osc;
#X declare -path ../osc;
#X declare -path ../osc;
#X declare -path ../osc;
#X declare -path ../osc;
#X declare -path ../osc;
#X declare -path ../osc;
#X declare -path ../osc;
#X declare -path ../osc;
#X declare -path ../osc;
#X declare -path ../osc;
#X declare -path ../osc;
#X declare -path ../osc;
#X declare -path ../osc;
#X declare -path ../osc;
#X declare -path ../osc;
#X declare -path ../osc;
#X declare -path nusmuk-audio;
#X declare -path ../osc;
#X declare -path ../osc;
#X declare -path ../osc;
#X declare -path nusmuk-audio;
#X declare -path ../osc;
#X declare -path ../osc;
#X declare -path ../osc;
#X declare -path ../osc;
#X declare -path ../osc;
#X declare -path ../osc;
#X declare -path ../osc;
#X declare -path ../osc;
#X declare -path ../osc;
#X declare -path ../osc;
#X declare -path ../osc;
#X declare -path ../osc;
#X declare -path ../osc;
#X declare -path ../osc;
#X declare -path ../osc;
#X declare -path ../osc;
#X declare -path ../osc;
#X declare -path ../osc;
#X declare -path ../osc;
#X declare -path ../osc;
#X declare -path ../osc;
#X declare -path nusmuk-audio;
#X declare -path ../osc;
#X declare -path ../osc;
#X declare -path ../osc;
#X declare -path nusmuk-audio;
#X declare -path ../osc;
#X declare -path ../osc;
#X declare -path ../osc;
#X declare -path ../osc;
#X declare -path ../osc;
#X declare -path ../osc;
#X declare -path ../osc;
#X declare -path ../osc;
#X declare -path ../osc;
#X declare -path ../osc;
#X declare -path ../osc;
#X declare -path ../osc;
#X declare -path ../osc;
#X declare -path ../osc;
#X declare -path ../osc;
#X declare -path ../osc;
#X declare -path ../osc;
#X declare -path ../osc;
#X declare -path ../osc;
#X declare -path ../osc;
#X declare -path ../osc;
#X declare -path nusmuk-audio;
#X declare -path ../osc;
#X declare -path ../osc;
#X declare -path ../osc;
#X declare -path nusmuk-audio;
#X declare -path ../osc;
#X declare -path ../osc;
#X declare -path ../osc;
#X declare -path ../osc;
#X declare -path ../osc;
#X declare -path ../osc;
#X declare -path ../osc;
#X declare -path ../osc;
#X declare -path ../osc;
#X declare -path ../osc;
#X declare -path ../osc;
#X declare -path ../osc;
#X declare -path ../osc;
#X declare -path ../osc;
#X declare -path ../osc;
#X declare -path ../osc;
#X declare -path ../osc;
#X declare -path ../osc;
#X declare -path ../osc;
#X declare -path ../osc;
#X declare -path ../osc;
#X declare -path nusmuk-audio;
#X declare -path ../osc;
#X declare -path ../osc;
#X declare -path ../osc;
#X declare -path nusmuk-audio;
#X declare -path ../osc;
#X declare -path ../osc;
#X declare -path ../osc;
#X declare -path ../osc;
#X declare -path ../osc;
#X declare -path ../osc;
#X declare -path ../osc;
#X declare -path ../osc;
#X declare -path ../osc;
#X declare -path ../osc;
#X declare -path ../osc;
#X declare -path ../osc;
#X declare -path ../osc;
#X declare -path ../osc;
#X declare -path ../osc;
#X declare -path ../osc;
#X declare -path ../osc;
#X declare -path ../osc;
#X declare -path ../osc;
#X declare -path ../osc;
#X declare -path ../osc;
#X declare -path nusmuk-audio;
#X declare -path ../osc;
#X declare -path ../osc;
#X declare -path ../osc;
#X declare -path nusmuk-audio;
#X declare -path ../osc;
#X declare -path ../osc;
#X declare -path ../osc;
#X declare -path ../osc;
#X declare -path ../osc;
#X declare -path ../osc;
#X declare -path ../osc;
#X declare -path ../osc;
#X declare -path ../osc;
#X declare -path ../osc;
#X declare -path ../osc;
#X declare -path ../osc;
#X declare -path ../osc;
#X declare -path ../osc;
#X declare -path ../osc;
#X declare -path ../osc;
#X declare -path ../osc;
#X declare -path ../osc;
#X declare -path ../osc;
#X declare -path ../osc;
#X declare -path ../osc;
#X declare -path nusmuk-audio;
#X declare -path ../osc;
#X declare -path ../osc;
#X declare -path ../osc;
#X declare -path nusmuk-audio;
#X declare -path ../osc;
#X declare -path ../osc;
#X declare -path ../osc;
#X declare -path ../osc;
#X declare -path ../osc;
#X declare -path ../osc;
#X declare -path ../osc;
#X declare -path ../osc;
#X declare -path ../osc;
#X declare -path ../osc;
#X declare -path ../osc;
#X declare -path ../osc;
#X declare -path ../osc;
#X declare -path ../osc;
#X declare -path ../osc;
#X declare -path ../osc;
#X declare -path ../osc;
#X declare -path ../osc;
#X declare -path ../osc;
#X declare -path ../osc;
#X declare -path ../osc;
#X declare -path nusmuk-audio;
#X declare -path ../osc;
#X declare -path ../osc;
#X declare -path ../osc;
#X declare -path nusmuk-audio;
#X declare -path ../osc;
#X declare -path ../osc;
#X declare -path ../osc;
#X declare -path ../osc;
#X declare -path ../osc;
#X declare -path ../osc;
#X declare -path ../osc;
#X declare -path ../osc;
#X declare -path ../osc;
#X declare -path ../osc;
#X declare -path ../osc;
#X declare -path ../osc;
#X declare -path ../osc;
#X declare -path ../osc;
#X declare -path ../osc;
#X declare -path ../osc;
#X declare -path ../osc;
#X declare -path ../osc;
#X declare -path ../osc;
#X declare -path ../osc;
#X declare -path ../osc;
#X declare -path nusmuk-audio;
#X declare -path ../osc;
#X declare -path ../osc;
#X declare -path ../osc;
#X declare -path nusmuk-audio;
#X declare -path ../osc;
#X declare -path ../osc;
#X declare -path ../osc;
#X declare -path ../osc;
#X declare -path ../osc;
#X declare -path ../osc;
#X declare -path ../osc;
#X declare -path ../osc;
#X declare -path ../osc;
#X declare -path ../osc;
#X declare -path ../osc;
#X declare -path ../osc;
#X declare -path ../osc;
#X declare -path ../osc;
#X declare -path ../osc;
#X declare -path ../osc;
#X declare -path ../osc;
#X declare -path ../osc;
#X declare -path ../osc;
#X declare -path ../osc;
#X declare -path ../osc;
#X declare -path nusmuk-audio;
#X declare -path ../osc;
#X declare -path ../osc;
#X declare -path ../osc;
#X declare -path nusmuk-audio;
#X declare -path ../osc;
#X declare -path ../osc;
#X declare -path ../osc;
#X declare -path ../osc;
#X declare -path ../osc;
#X declare -path ../osc;
#X declare -path ../osc;
#X declare -path ../osc;
#X declare -path ../osc;
#X declare -path ../osc;
#X declare -path ../osc;
#X declare -path ../osc;
#X declare -path ../osc;
#X declare -path ../osc;
#X declare -path ../osc;
#X declare -path ../osc;
#X declare -path ../osc;
#X declare -path ../osc;
#X declare -path ../osc;
#X declare -path ../osc;
#X declare -path ../osc;
#X declare -path nusmuk-audio;
#X declare -path ../osc;
#X declare -path ../osc;
#X declare -path ../osc;
#X declare -path nusmuk-audio;
#X declare -path ../osc;
#X declare -path ../osc;
#X declare -path ../osc;
#X declare -path ../osc;
#X declare -path ../osc;
#X declare -path ../osc;
#X declare -path ../osc;
#X declare -path ../osc;
#X declare -path ../osc;
#X declare -path ../osc;
#X declare -path ../osc;
#X declare -path ../osc;
#X declare -path ../osc;
#X declare -path ../osc;
#X declare -path ../osc;
#X declare -path ../osc;
#X declare -path ../osc;
#X declare -path ../osc;
#X declare -path ../osc;
#X declare -path ../osc;
#X declare -path ../osc;
#X declare -path nusmuk-audio;
#X declare -path ../osc;
#X declare -path ../osc;
#X declare -path ../osc;
#X declare -path nusmuk-audio;
#X declare -path ../osc;
#X declare -path ../osc;
#X declare -path ../osc;
#X declare -path ../osc;
#X declare -path ../osc;
#X declare -path ../osc;
#X declare -path ../osc;
#X declare -path ../osc;
#X declare -path ../osc;
#X declare -path ../osc;
#X declare -path ../osc;
#X declare -path ../osc;
#X declare -path ../osc;
#X declare -path ../osc;
#X declare -path ../osc;
#X declare -path ../osc;
#X declare -path ../osc;
#X declare -path ../osc;
#X declare -path ../osc;
#X declare -path ../osc;
#X declare -path ../osc;
#X declare -path nusmuk-audio;
#X declare -path ../osc;
#X declare -path ../osc;
#X declare -path ../osc;
#X declare -path nusmuk-audio;
#X declare -path ../osc;
#X declare -path ../osc;
#X declare -path ../osc;
#X declare -path ../osc;
#X declare -path ../osc;
#X declare -path ../osc;
#X declare -path ../osc;
#X declare -path ../osc;
#X declare -path ../osc;
#X declare -path ../osc;
#X declare -path ../osc;
#X declare -path ../osc;
#X declare -path ../osc;
#X declare -path ../osc;
#X declare -path ../osc;
#X declare -path ../osc;
#X declare -path ../osc;
#X declare -path ../osc;
#X declare -path ../osc;
#X declare -path ../osc;
#X declare -path ../osc;
#X declare -path nusmuk-audio;
#X declare -path ../osc;
#X declare -path ../osc;
#X declare -path ../osc;
#X declare -path nusmuk-audio;
#X declare -path ../osc;
#X declare -path ../osc;
#X declare -path ../osc;
#X declare -path ../osc;
#X declare -path ../osc;
#X declare -path ../osc;
#X declare -path ../osc;
#X declare -path ../osc;
#X declare -path ../osc;
#X declare -path ../osc;
#X declare -path ../osc;
#X declare -path ../osc;
#X declare -path ../osc;
#X declare -path ../osc;
#X declare -path ../osc;
#X declare -path ../osc;
#X declare -path ../osc;
#X declare -path ../osc;
#X declare -path ../osc;
#X declare -path ../osc;
#X declare -path ../osc;
#X declare -path ../osc;
#X declare -path ../osc;
#X declare -path ../osc;
#X declare -path ../osc;
#X declare -path ../osc;
#X declare -path ../osc;
#X declare -path ../osc;
#X declare -path ../osc;
#X declare -path ../osc;
#X declare -path ../osc;
#X declare -path ../osc;
#X declare -path ../osc;
#X declare -path ../osc;
#X declare -path ../osc;
#X declare -path ../osc;
#X declare -path ../osc;
#X declare -path ../osc;
#X declare -path ../osc;
#X declare -path ../osc;
#X declare -path ../osc;
#X declare -path ../osc;
#X declare -path ../osc;
#X declare -path ../osc;
#X declare -path ../osc;
#X declare -path ../osc;
#X declare -path ../osc;
#X declare -path ../osc;
#X declare -path ../osc;
#X declare -path ../osc;
#X declare -path ../osc;
#X declare -path ../osc;
#X declare -path ../osc;
#X declare -path ../osc;
#X declare -path ../osc;
#X declare -path ../osc;
#X declare -path ../osc;
#X declare -path ../osc;
#X declare -path ../osc;
#X declare -path ../osc;
#X declare -path ../osc;
#X declare -path ../osc;
#X declare -path ../osc;
#X declare -path ../osc;
#X declare -path ../osc;
#X declare -path ../osc;
#X declare -path ../osc;
#X declare -path ../osc;
#X declare -path ../osc;
#X declare -path ../osc;
#X declare -path ../osc;
#X declare -path ../osc;
#X declare -path ../osc;
#X declare -path ../osc;
#X declare -path ../osc;
#X declare -path ../osc;
#X declare -path ../osc;
#X declare -path ../osc;
#X declare -path ../osc;
#X declare -path ../osc;
#X declare -path ../osc;
#X declare -path ../osc;
#X declare -path ../osc;
#X declare -path ../osc;
#X declare -path ../osc;
#X declare -path ../osc;
#X declare -path ../osc;
#X declare -path ../osc;
#X declare -path ../osc;
#X declare -path ../osc;
#X declare -path ../osc;
#X declare -path ../osc;
#X declare -path ../osc;
#X declare -path ../osc;
#X declare -path ../osc;
#X declare -path ../osc;
#X declare -path ../osc;
#X declare -path ../osc;
#X declare -path ../osc;
#X declare -path ../osc;
#X declare -path ../osc;
#X declare -path ../osc;
#X declare -path ../osc;
#X declare -path ../osc;
#X declare -path ../osc;
#X declare -path ../osc;
#X declare -path ../osc;
#X declare -path ../osc;
#X declare -path ../osc;
#X declare -path ../osc;
#X declare -path ../osc;
#X declare -path ../osc;
#X declare -path ../osc;
#X declare -path ../osc;
#X declare -path ../osc;
#X declare -path ../osc;
#X declare -path ../osc;
#X declare -path ../osc;
#X declare -path ../osc;
#X declare -path ../osc;
#X declare -path ../osc;
#X declare -path ../osc;
#X declare -path ../osc;
#X declare -path ../osc;
#X declare -path ../osc;
#X declare -path ../osc;
#X declare -path ../osc;
#X declare -path ../osc;
#X declare -path ../osc;
#X declare -path ../osc;
#X declare -path ../osc;
#X declare -path ../osc;
#X declare -path ../osc;
#X declare -path ../osc;
#X declare -path ../osc;
#X declare -path ../osc;
#X declare -path ../osc;
#X declare -path ../osc;
#X declare -path ../osc;
#X declare -path ../osc;
#X declare -path ../osc;
#X declare -path ../osc;
#X declare -path ../osc;
#X declare -path ../osc;
#X declare -path ../osc;
#X declare -path ../osc;
#X declare -path ../osc;
#X declare -path ../osc;
#X declare -path ../osc;
#X declare -path ../osc;
#X declare -path ../osc;
#X declare -path ../osc;
#X declare -path ../osc;
#X declare -path ../osc;
#X declare -path ../osc;
#X declare -path ../osc;
#X declare -path ../osc;
#X declare -path ../osc;
#X declare -path ../osc;
#X declare -path ../osc;
#X declare -path ../osc;
#X declare -path ../osc;
#X declare -path ../osc;
#X declare -path ../osc;
#X declare -path ../osc;
#X declare -path ../osc;
#X declare -path ../osc;
#X declare -path ../osc;
#X declare -path ../osc;
#X declare -path ../osc;
#X declare -path ../osc;
#X declare -path ../osc;
#X declare -path ../osc;
#X declare -path ../osc;
#X declare -path ../osc;
#X declare -path ../osc;
#X declare -path ../osc;
#X declare -path ../osc;
#X declare -path ../osc;
#X declare -path ../osc;
#X declare -path ../osc;
#X declare -path ../osc;
#X declare -path ../osc;
#X declare -path ../osc;
#X declare -path ../osc;
#X declare -path ../osc;
#X declare -path ../osc;
#X declare -path ../osc;
#X declare -path ../osc;
#X declare -path ../osc;
#X declare -path ../osc;
#X declare -path ../osc;
#X declare -path ../osc;
#X declare -path ../osc;
#X declare -path ../osc;
#X declare -path ../osc;
#X declare -path ../osc;
#X declare -path ../osc;
#X declare -path ../osc;
#X declare -path ../osc;
#X declare -path ../osc;
#X declare -path ../osc;
#X declare -path ../osc;
#X declare -path ../osc;
#X declare -path ../osc;
#X declare -path ../osc;
#X declare -path ../osc;
#X declare -path ../osc;
#X declare -path ../osc;
#X declare -path ../osc;
#X declare -path ../osc;
#X declare -path ../osc;
#X declare -path ../osc;
#X declare -path ../osc;
#X declare -path ../osc;
#X declare -path ../osc;
#X declare -path ../osc;
#X declare -path ../osc;
#X declare -path ../osc;
#X declare -path ../osc;
#X declare -path ../osc;
#X declare -path ../osc;
#X declare -path ../osc;
#X declare -path ../osc;
#X declare -path ../osc;
#X declare -path ../osc;
#X declare -path ../osc;
#X declare -path ../osc;
#X declare -path ../osc;
#X declare -path ../osc;
#X declare -path ../osc;
#X declare -path ../osc;
#X declare -path ../osc;
#X declare -path ../osc;
#X declare -path ../osc;
#X declare -path ../osc;
#X declare -path ../osc;
#X declare -path ../osc;
#X declare -path ../osc;
#X declare -path ../osc;
#X declare -path ../osc;
#X declare -path ../osc;
#X declare -path ../osc;
#X declare -path ../osc;
#X declare -path ../osc;
#X declare -path ../osc;
#X declare -path ../osc;
#X declare -path ../osc;
#X declare -path ../osc;
#X declare -path ../osc;
#X declare -path ../osc;
#X declare -path ../osc;
#X declare -path ../osc;
#X declare -path ../osc;
#X declare -path ../osc;
#X declare -path ../osc;
#X declare -path ../osc;
#X declare -path ../osc;
#X declare -path ../osc;
#X declare -path ../osc;
#X declare -path ../osc;
#X declare -path ../osc;
#X declare -path ../osc;
#X declare -path ../osc;
#X declare -path ../osc;
#X declare -path ../osc;
#X declare -path ../osc;
#X declare -path ../osc;
#X declare -path ../osc;
#X declare -path ../osc;
#X declare -path ../osc;
#X declare -path ../osc;
#X declare -path ../osc;
#X declare -path ../osc;
#X declare -path ../osc;
#X declare -path ../osc;
#X declare -path ../osc;
#X declare -path ../osc;
#X declare -path ../osc;
#X declare -path ../osc;
#X declare -path ../osc;
#X declare -path ../osc;
#X declare -path ../osc;
#X declare -path ../osc;
#X declare -path ../osc;
#X declare -path ../osc;
#X declare -path ../osc;
#X declare -path ../osc;
#X declare -path ../osc;
#X declare -path ../osc;
#X declare -path ../osc;
#X declare -path ../osc;
#X declare -path ../osc;
#X declare -path ../osc;
#X declare -path ../osc;
#X declare -path ../osc;
#X declare -path ../osc;
#X declare -path ../osc;
#X declare -path ../osc;
#X declare -path ../osc;
#X declare -path ../osc;
#X declare -path ../osc;
#X declare -path ../osc;
#X declare -path ../osc;
#X declare -path ../osc;
#X declare -path ../osc;
#X declare -path ../osc;
#X declare -path ../osc;
#X declare -path ../osc;
#X declare -path ../osc;
#X declare -path ../osc;
#X declare -path ../osc;
#X declare -path ../osc;
#X declare -path ../osc;
#X declare -path ../osc;
#X declare -path ../osc;
#X declare -path ../osc;
#X declare -path ../osc;
#X declare -path ../osc;
#X declare -path ../osc;
#X declare -path ../osc;
#X declare -path ../osc;
#X declare -path ../osc;
#X declare -path ../osc;
#X declare -path ../osc;
#X declare -path ../osc;
#X declare -path ../osc;
#X declare -path ../osc;
#X declare -path ../osc;
#X declare -path ../osc;
#X declare -path ../osc;
#X declare -path ../osc;
#X declare -path ../osc;
#X declare -path ../osc;
#X declare -path ../osc;
#X declare -path ../osc;
#X declare -path ../osc;
#X declare -path ../osc;
#X declare -path ../osc;
#X declare -path ../osc;
#X declare -path ../osc;
#X declare -path ../osc;
#X declare -path ../osc;
#X declare -path ../osc;
#X declare -path ../osc;
#X declare -path ../osc;
#X declare -path ../osc;
#X declare -path ../osc;
#X declare -path ../osc;
#X declare -path ../osc;
#X declare -path ../osc;
#X declare -path ../osc;
#X declare -path ../osc;
#X declare -path ../osc;
#X declare -path ../osc;
#X declare -path ../osc;
#X declare -path ../osc;
#X declare -path ../osc;
#X declare -path ../osc;
#X declare -path ../osc;
#X declare -path ../osc;
#X declare -path ../osc;
#X declare -path ../osc;
#X declare -path ../osc;
#X declare -path ../osc;
#X declare -path ../osc;
#X declare -path ../osc;
#X declare -path ../osc;
#X declare -path ../osc;
#X declare -path ../osc;
#X declare -path ../osc;
#X declare -path ../osc;
#X declare -path ../osc;
#X declare -path ../osc;
#X declare -path ../osc;
#X declare -path ../osc;
#X declare -path ../osc;
#X declare -path ../osc;
#X declare -path ../osc;
#X declare -path ../osc;
#X declare -path ../osc;
#X declare -path ../osc;
#X declare -path ../osc;
#X declare -path ../osc;
#X declare -path ../osc;
#X declare -path ../osc;
#X declare -path ../osc;
#X declare -path ../osc;
#X declare -path ../osc;
#X declare -path ../osc;
#X declare -path ../osc;
#X declare -path ../osc;
#X declare -path ../osc;
#X declare -path ../osc;
#X declare -path ../osc;
#X declare -path ../osc;
#X declare -path ../osc;
#X declare -path ../osc;
#X declare -path ../osc;
#X declare -path ../osc;
#X declare -path ../osc;
#X declare -path ../osc;
#X declare -path ../osc;
#X declare -path ../osc;
#X declare -path ../osc;
#X declare -path ../osc;
#X declare -path ../osc;
#X declare -path ../osc;
#X declare -path ../osc;
#X declare -path ../osc;
#X declare -path ../osc;
#X declare -path ../osc;
#X declare -path ../osc;
#X declare -path ../osc;
#X declare -path ../osc;
#X declare -path ../osc;
#X declare -path ../osc;
#X declare -path ../osc;
#X declare -path ../osc;
#X declare -path ../osc;
#X declare -path ../osc;
#X declare -path ../osc;
#X declare -path ../osc;
#X declare -path ../osc;
#X declare -path ../osc;
#X declare -path ../osc;
#X declare -path ../osc;
#X declare -path ../osc;
#X declare -path ../osc;
#X declare -path ../osc;
#X declare -path ../osc;
#X declare -path ../osc;
#X declare -path ../osc;
#X declare -path ../osc;
#X declare -path ../osc;
#X declare -path ../osc;
#X declare -path ../osc;
#X declare -path ../osc;
#X declare -path ../osc;
#X declare -path ../osc;
#X declare -path ../osc;
#X declare -path ../osc;
#X declare -path ../osc;
#X declare -path ../osc;
#X declare -path ../osc;
#X declare -path ../osc;
#X declare -path ../osc;
#X declare -path ../osc;
#X declare -path ../osc;
#X declare -path ../osc;
#X declare -path ../osc;
#X declare -path ../osc;
#X declare -path ../osc;
#X declare -path ../osc;
#X declare -path ../osc;
#X declare -path ../osc;
#X declare -path ../osc;
#X declare -path ../osc;
#X declare -path ../osc;
#X declare -path ../osc;
#X declare -path ../osc;
#X declare -path ../osc;
#X declare -path ../osc;
#X declare -path ../osc;
#X declare -path ../osc;
#X declare -path ../osc;
#X declare -path ../osc;
#X declare -path ../osc;
#X declare -path ../osc;
#X declare -path ../osc;
#X declare -path ../osc;
#X declare -path ../osc;
#X declare -path ../osc;
#X declare -path ../osc;
#X declare -path ../osc;
#X declare -path ../osc;
#X declare -path ../osc;
#X declare -path ../osc;
#X declare -path ../osc;
#X declare -path ../osc;
#X declare -path ../osc;
#X declare -path ../osc;
#X declare -path ../osc;
#X declare -path ../osc;
#X declare -path abs -path osc;
#X declare -path iemnet;
#X declare -path hcs;
#X declare -lib cream;
#X declare -path ../zexy -lib zexy;
#X declare -path ../osc;
#X declare -path ../osc;
#X declare -path ../osc;
#X declare -path ../osc;
#X declare -path ../osc;
#X declare -path ../osc;
#X declare -path ../osc;
#X declare -path ../osc;
#X declare -path ../osc;
#X declare -path ../osc;
#X declare -path ../osc;
#X declare -path ../osc;
#X declare -path ../osc;
#X declare -path ../osc;
#X declare -path ../osc;
#X declare -path ../osc;
#X declare -path ../osc;
#X declare -path nusmuk-audio;
#X declare -path ../osc;
#X declare -path ../osc;
#X declare -path ../osc;
#X declare -path nusmuk-audio;
#X declare -path ../osc;
#X declare -path ../osc;
#X declare -path ../osc;
#X declare -path ../osc;
#X declare -path ../osc;
#X declare -path ../osc;
#X declare -path ../osc;
#X declare -path ../osc;
#X declare -path ../osc;
#X declare -path ../osc;
#X declare -path ../osc;
#X declare -path ../osc;
#X declare -path ../osc;
#X declare -path ../osc;
#X declare -path ../osc;
#X declare -path ../osc;
#X declare -path ../osc;
#X declare -path ../osc;
#X declare -path ../osc;
#X declare -path ../osc;
#X declare -path ../osc;
#X declare -path nusmuk-audio;
#X declare -path ../osc;
#X declare -path ../osc;
#X declare -path ../osc;
#X declare -path nusmuk-audio;
#X declare -path ../osc;
#X declare -path ../osc;
#X declare -path ../osc;
#X declare -path ../osc;
#X declare -path ../osc;
#X declare -path ../osc;
#X declare -path ../osc;
#X declare -path ../osc;
#X declare -path ../osc;
#X declare -path ../osc;
#X declare -path ../osc;
#X declare -path ../osc;
#X declare -path ../osc;
#X declare -path ../osc;
#X declare -path ../osc;
#X declare -path ../osc;
#X declare -path ../osc;
#X declare -path ../osc;
#X declare -path ../osc;
#X declare -path ../osc;
#X declare -path ../osc;
#X declare -path nusmuk-audio;
#X declare -path ../osc;
#X declare -path ../osc;
#X declare -path ../osc;
#X declare -path nusmuk-audio;
#X declare -path ../osc;
#X declare -path ../osc;
#X declare -path ../osc;
#X declare -path ../osc;
#X declare -path ../osc;
#X declare -path ../osc;
#X declare -path ../osc;
#X declare -path ../osc;
#X declare -path ../osc;
#X declare -path ../osc;
#X declare -path ../osc;
#X declare -path ../osc;
#X declare -path ../osc;
#X declare -path ../osc;
#X declare -path ../osc;
#X declare -path ../osc;
#X declare -path ../osc;
#X declare -path ../osc;
#X declare -path ../osc;
#X declare -path ../osc;
#X declare -path ../osc;
#X declare -path nusmuk-audio;
#X declare -path ../osc;
#X declare -path ../osc;
#X declare -path ../osc;
#X declare -path nusmuk-audio;
#X declare -path ../osc;
#X declare -path ../osc;
#X declare -path ../osc;
#X declare -path ../osc;
#X declare -path ../osc;
#X declare -path ../osc;
#X declare -path ../osc;
#X declare -path ../osc;
#X declare -path ../osc;
#X declare -path ../osc;
#X declare -path ../osc;
#X declare -path ../osc;
#X declare -path ../osc;
#X declare -path ../osc;
#X declare -path ../osc;
#X declare -path ../osc;
#X declare -path ../osc;
#X declare -path ../osc;
#X declare -path ../osc;
#X declare -path ../osc;
#X declare -path ../osc;
#X declare -path nusmuk-audio;
#X declare -path ../osc;
#X declare -path ../osc;
#X declare -path ../osc;
#X declare -path nusmuk-audio;
#X declare -path ../osc;
#X declare -path ../osc;
#X declare -path ../osc;
#X declare -path ../osc;
#X declare -path ../osc;
#X declare -path ../osc;
#X declare -path ../osc;
#X declare -path ../osc;
#X declare -path ../osc;
#X declare -path ../osc;
#X declare -path ../osc;
#X declare -path ../osc;
#X declare -path ../osc;
#X declare -path ../osc;
#X declare -path ../osc;
#X declare -path ../osc;
#X declare -path ../osc;
#X declare -path ../osc;
#X declare -path ../osc;
#X declare -path ../osc;
#X declare -path ../osc;
#X declare -path nusmuk-audio;
#X declare -path ../osc;
#X declare -path ../osc;
#X declare -path ../osc;
#X declare -path nusmuk-audio;
#X declare -path ../osc;
#X declare -path ../osc;
#X declare -path ../osc;
#X declare -path ../osc;
#X declare -path ../osc;
#X declare -path ../osc;
#X declare -path ../osc;
#X declare -path ../osc;
#X declare -path ../osc;
#X declare -path ../osc;
#X declare -path ../osc;
#X declare -path ../osc;
#X declare -path ../osc;
#X declare -path ../osc;
#X declare -path ../osc;
#X declare -path ../osc;
#X declare -path ../osc;
#X declare -path ../osc;
#X declare -path ../osc;
#X declare -path ../osc;
#X declare -path ../osc;
#X declare -path nusmuk-audio;
#X declare -path ../osc;
#X declare -path ../osc;
#X declare -path ../osc;
#X declare -path nusmuk-audio;
#X declare -path ../osc;
#X declare -path ../osc;
#X declare -path ../osc;
#X declare -path ../osc;
#X declare -path ../osc;
#X declare -path ../osc;
#X declare -path ../osc;
#X declare -path ../osc;
#X declare -path ../osc;
#X declare -path ../osc;
#X declare -path ../osc;
#X declare -path ../osc;
#X declare -path ../osc;
#X declare -path ../osc;
#X declare -path ../osc;
#X declare -path ../osc;
#X declare -path ../osc;
#X declare -path ../osc;
#X declare -path ../osc;
#X declare -path ../osc;
#X declare -path ../osc;
#X declare -path nusmuk-audio;
#X declare -path ../osc;
#X declare -path ../osc;
#X declare -path ../osc;
#X declare -path nusmuk-audio;
#X declare -path ../osc;
#X declare -path ../osc;
#X declare -path ../osc;
#X declare -path ../osc;
#X declare -path ../osc;
#X declare -path ../osc;
#X declare -path ../osc;
#X declare -path ../osc;
#X declare -path ../osc;
#X declare -path ../osc;
#X declare -path ../osc;
#X declare -path ../osc;
#X declare -path ../osc;
#X declare -path ../osc;
#X declare -path ../osc;
#X declare -path ../osc;
#X declare -path ../osc;
#X declare -path ../osc;
#X declare -path ../osc;
#X declare -path ../osc;
#X declare -path ../osc;
#X declare -path nusmuk-audio;
#X declare -path ../osc;
#X declare -path ../osc;
#X declare -path ../osc;
#X declare -path nusmuk-audio;
#X declare -path ../osc;
#X declare -path ../osc;
#X declare -path ../osc;
#X declare -path ../osc;
#X declare -path ../osc;
#X declare -path ../osc;
#X declare -path ../osc;
#X declare -path ../osc;
#X declare -path ../osc;
#X declare -path ../osc;
#X declare -path ../osc;
#X declare -path ../osc;
#X declare -path ../osc;
#X declare -path ../osc;
#X declare -path ../osc;
#X declare -path ../osc;
#X declare -path ../osc;
#X declare -path ../osc;
#X declare -path ../osc;
#X declare -path ../osc;
#X declare -path ../osc;
#X declare -path nusmuk-audio;
#X declare -path ../osc;
#X declare -path ../osc;
#X declare -path ../osc;
#X declare -path nusmuk-audio;
#X declare -path ../osc;
#X declare -path ../osc;
#X declare -path ../osc;
#X declare -path ../osc;
#X declare -path ../osc;
#X declare -path ../osc;
#X declare -path ../osc;
#X declare -path ../osc;
#X declare -path ../osc;
#X declare -path ../osc;
#X declare -path ../osc;
#X declare -path ../osc;
#X declare -path ../osc;
#X declare -path ../osc;
#X declare -path ../osc;
#X declare -path ../osc;
#X declare -path ../osc;
#X declare -path ../osc;
#X declare -path ../osc;
#X declare -path ../osc;
#X declare -path ../osc;
#X declare -path nusmuk-audio;
#X declare -path ../osc;
#X declare -path ../osc;
#X declare -path ../osc;
#X declare -path nusmuk-audio;
#X declare -path ../osc;
#X declare -path ../osc;
#X declare -path ../osc;
#X declare -path ../osc;
#X declare -path ../osc;
#X declare -path ../osc;
#X declare -path ../osc;
#X declare -path ../osc;
#X declare -path ../osc;
#X declare -path ../osc;
#X declare -path ../osc;
#X declare -path ../osc;
#X declare -path ../osc;
#X declare -path ../osc;
#X declare -path ../osc;
#X declare -path ../osc;
#X declare -path ../osc;
#X declare -path ../osc;
#X declare -path ../osc;
#X declare -path ../osc;
#X declare -path ../osc;
#X declare -path nusmuk-audio;
#X declare -path ../osc;
#X declare -path ../osc;
#X declare -path ../osc;
#X declare -path nusmuk-audio;
#X declare -path ../osc;
#X declare -path ../osc;
#X declare -path ../osc;
#X declare -path ../osc;
#X declare -path ../osc;
#X declare -path ../osc;
#X declare -path ../osc;
#X declare -path ../osc;
#X declare -path ../osc;
#X declare -path ../osc;
#X declare -path ../osc;
#X declare -path ../osc;
#X declare -path ../osc;
#X declare -path ../osc;
#X declare -path ../osc;
#X declare -path ../osc;
#X declare -path ../osc;
#X declare -path ../osc;
#X declare -path ../osc;
#X declare -path ../osc;
#X declare -path ../osc;
#X declare -path nusmuk-audio;
#X declare -path ../osc;
#X declare -path ../osc;
#X declare -path ../osc;
#X declare -path nusmuk-audio;
#X declare -path ../osc;
#X declare -path ../osc;
#X declare -path ../osc;
#X declare -path ../osc;
#X declare -path ../osc;
#X declare -path ../osc;
#X declare -path ../osc;
#X declare -path ../osc;
#X declare -path ../osc;
#X declare -path ../osc;
#X declare -path ../osc;
#X declare -path ../osc;
#X declare -path ../osc;
#X declare -path ../osc;
#X declare -path ../osc;
#X declare -path ../osc;
#X declare -path ../osc;
#X declare -path ../osc;
#X declare -path ../osc;
#X declare -path ../osc;
#X declare -path ../osc;
#X declare -path nusmuk-audio;
#X declare -path ../osc;
#X declare -path ../osc;
#X declare -path ../osc;
#X declare -path nusmuk-audio;
#X declare -path ../osc;
#X declare -path ../osc;
#X declare -path ../osc;
#X declare -path ../osc;
#X declare -path ../osc;
#X declare -path ../osc;
#X declare -path ../osc;
#X declare -path ../osc;
#X declare -path ../osc;
#X declare -path ../osc;
#X declare -path ../osc;
#X declare -path ../osc;
#X declare -path ../osc;
#X declare -path ../osc;
#X declare -path ../osc;
#X declare -path ../osc;
#X declare -path ../osc;
#X declare -path ../osc;
#X declare -path ../osc;
#X declare -path ../osc;
#X declare -path ../osc;
#X declare -path nusmuk-audio;
#X declare -path ../osc;
#X declare -path ../osc;
#X declare -path ../osc;
#X declare -path nusmuk-audio;
#X declare -path ../osc;
#X declare -path ../osc;
#X declare -path ../osc;
#X declare -path ../osc;
#X declare -path ../osc;
#X declare -path ../osc;
#X declare -path ../osc;
#X declare -path ../osc;
#X declare -path ../osc;
#X declare -path ../osc;
#X declare -path ../osc;
#X declare -path ../osc;
#X declare -path ../osc;
#X declare -path ../osc;
#X declare -path ../osc;
#X declare -path ../osc;
#X declare -path ../osc;
#X declare -path ../osc;
#X declare -path ../osc;
#X declare -path ../osc;
#X declare -path ../osc;
#X declare -path ../osc;
#X declare -path ../osc;
#X declare -path ../osc;
#X declare -path ../osc;
#X declare -path ../osc;
#X declare -path ../osc;
#X declare -path ../osc;
#X declare -path ../osc;
#X declare -path ../osc;
#X declare -path ../osc;
#X declare -path ../osc;
#X declare -path ../osc;
#X declare -path ../osc;
#X declare -path ../osc;
#X declare -path ../osc;
#X declare -path ../osc;
#X declare -path ../osc;
#X declare -path ../osc;
#X declare -path ../osc;
#X declare -path ../osc;
#X declare -path ../osc;
#X declare -path ../osc;
#X declare -path ../osc;
#X declare -path ../osc;
#X declare -path ../osc;
#X declare -path ../osc;
#X declare -path ../osc;
#X declare -path ../osc;
#X declare -path ../osc;
#X declare -path ../osc;
#X declare -path ../osc;
#X declare -path ../osc;
#X declare -path ../osc;
#X declare -path ../osc;
#X declare -path ../osc;
#X declare -path ../osc;
#X declare -path ../osc;
#X declare -path ../osc;
#X declare -path ../osc;
#X declare -path ../osc;
#X declare -path ../osc;
#X declare -path ../osc;
#X declare -path ../osc;
#X declare -path ../osc;
#X declare -path ../osc;
#X declare -path ../osc;
#X declare -path ../osc;
#X declare -path ../osc;
#X declare -path ../osc;
#X declare -path ../osc;
#X declare -path ../osc;
#X declare -path ../osc;
#X declare -path ../osc;
#X declare -path ../osc;
#X declare -path ../osc;
#X declare -path ../osc;
#X declare -path ../osc;
#X declare -path ../osc;
#X declare -path ../osc;
#X declare -path ../osc;
#X declare -path ../osc;
#X declare -path ../osc;
#X declare -path ../osc;
#X declare -path ../osc;
#X declare -path ../osc;
#X declare -path ../osc;
#X declare -path ../osc;
#X declare -path ../osc;
#X declare -path ../osc;
#X declare -path ../osc;
#X declare -path ../osc;
#X declare -path ../osc;
#X declare -path ../osc;
#X declare -path ../osc;
#X declare -path ../osc;
#X declare -path ../osc;
#X declare -path ../osc;
#X declare -path ../osc;
#X declare -path ../osc;
#X declare -path ../osc;
#X declare -path ../osc;
#X declare -path ../osc;
#X declare -path ../osc;
#X declare -path ../osc;
#X declare -path ../osc;
#X declare -path ../osc;
#X declare -path ../osc;
#X declare -path ../osc;
#X declare -path ../osc;
#X declare -path ../osc;
#X declare -path ../osc;
#X declare -path ../osc;
#X declare -path ../osc;
#X declare -path ../osc;
#X declare -path ../osc;
#X declare -path ../osc;
#X declare -path ../osc;
#X declare -path ../osc;
#X declare -path ../osc;
#X declare -path ../osc;
#X declare -path ../osc;
#X declare -path ../osc;
#X declare -path ../osc;
#X declare -path ../osc;
#X declare -path ../osc;
#X declare -path ../osc;
#X declare -path ../osc;
#X declare -path ../osc;
#X declare -path ../osc;
#X declare -path ../osc;
#X declare -path ../osc;
#X declare -path ../osc;
#X declare -path ../osc;
#X declare -path ../osc;
#X declare -path ../osc;
#X declare -path ../osc;
#X declare -path ../osc;
#X declare -path ../osc;
#X declare -path ../osc;
#X declare -path ../osc;
#X declare -path ../osc;
#X declare -path ../osc;
#X declare -path ../osc;
#X declare -path ../osc;
#X declare -path ../osc;
#X declare -path ../osc;
#X declare -path ../osc;
#X declare -path ../osc;
#X declare -path ../osc;
#X declare -path ../osc;
#X declare -path ../osc;
#X declare -path ../osc;
#X declare -path ../osc;
#X declare -path ../osc;
#X declare -path ../osc;
#X declare -path ../osc;
#X declare -path ../osc;
#X declare -path ../osc;
#X declare -path ../osc;
#X declare -path ../osc;
#X declare -path ../osc;
#X declare -path ../osc;
#X declare -path ../osc;
#X declare -path ../osc;
#X declare -path ../osc;
#X declare -path ../osc;
#X declare -path ../osc;
#X declare -path ../osc;
#X declare -path ../osc;
#X declare -path ../osc;
#X declare -path ../osc;
#X declare -path ../osc;
#X declare -path ../osc;
#X declare -path ../osc;
#X declare -path ../osc;
#X declare -path ../osc;
#X declare -path ../osc;
#X declare -path ../osc;
#X declare -path ../osc;
#X declare -path ../osc;
#X declare -path ../osc;
#X declare -path ../osc;
#X declare -path ../osc;
#X declare -path ../osc;
#X declare -path ../osc;
#X declare -path ../osc;
#X declare -path ../osc;
#X declare -path ../osc;
#X declare -path ../osc;
#X declare -path ../osc;
#X declare -path ../osc;
#X declare -path ../osc;
#X declare -path ../osc;
#X declare -path ../osc;
#X declare -path ../osc;
#X declare -path ../osc;
#X declare -path ../osc;
#X declare -path ../osc;
#X declare -path ../osc;
#X declare -path ../osc;
#X declare -path ../osc;
#X declare -path ../osc;
#X declare -path ../osc;
#X declare -path ../osc;
#X declare -path ../osc;
#X declare -path ../osc;
#X declare -path ../osc;
#X declare -path ../osc;
#X declare -path ../osc;
#X declare -path ../osc;
#X declare -path ../osc;
#X declare -path ../osc;
#X declare -path ../osc;
#X declare -path ../osc;
#X declare -path ../osc;
#X declare -path ../osc;
#X declare -path ../osc;
#X declare -path ../osc;
#X declare -path ../osc;
#X declare -path ../osc;
#X declare -path ../osc;
#X declare -path ../osc;
#X declare -path ../osc;
#X declare -path ../osc;
#X declare -path ../osc;
#X declare -path ../osc;
#X declare -path ../osc;
#X declare -path ../osc;
#X declare -path ../osc;
#X declare -path ../osc;
#X declare -path ../osc;
#X declare -path ../osc;
#X declare -path ../osc;
#X declare -path ../osc;
#X declare -path ../osc;
#X declare -path ../osc;
#X declare -path ../osc;
#X declare -path ../osc;
#X declare -path ../osc;
#X declare -path ../osc;
#X declare -path ../osc;
#X declare -path ../osc;
#X declare -path ../osc;
#X declare -path ../osc;
#X declare -path ../osc;
#X declare -path ../osc;
#X declare -path ../osc;
#X declare -path ../osc;
#X declare -path ../osc;
#X declare -path ../osc;
#X declare -path ../osc;
#X declare -path ../osc;
#X declare -path ../osc;
#X declare -path ../osc;
#X declare -path ../osc;
#X declare -path ../osc;
#X declare -path ../osc;
#X declare -path ../osc;
#X declare -path ../osc;
#X declare -path ../osc;
#X declare -path ../osc;
#X declare -path ../osc;
#X declare -path ../osc;
#X declare -path ../osc;
#X declare -path ../osc;
#X declare -path ../osc;
#X declare -path ../osc;
#X declare -path ../osc;
#X declare -path ../osc;
#X declare -path ../osc;
#X declare -path ../osc;
#X declare -path ../osc;
#X declare -path ../osc;
#X declare -path ../osc;
#X declare -path ../osc;
#X declare -path ../osc;
#X declare -path ../osc;
#X declare -path ../osc;
#X declare -path ../osc;
#X declare -path ../osc;
#X declare -path ../osc;
#X declare -path ../osc;
#X declare -path ../osc;
#X declare -path ../osc;
#X declare -path ../osc;
#X declare -path ../osc;
#X declare -path ../osc;
#X declare -path ../osc;
#X declare -path ../osc;
#X declare -path ../osc;
#X declare -path ../osc;
#X declare -path ../osc;
#X declare -path ../osc;
#X declare -path ../osc;
#X declare -path ../osc;
#X declare -path ../osc;
#X declare -path ../osc;
#X declare -path ../osc;
#X declare -path ../osc;
#X declare -path ../osc;
#X declare -path ../osc;
#X declare -path ../osc;
#X declare -path ../osc;
#X declare -path ../osc;
#X declare -path ../osc;
#X declare -path ../osc;
#X declare -path ../osc;
#X declare -path ../osc;
#X declare -path ../osc;
#X declare -path ../osc;
#X declare -path ../osc;
#X declare -path ../osc;
#X declare -path ../osc;
#X declare -path ../osc;
#X declare -path ../osc;
#X declare -path ../osc;
#X declare -path ../osc;
#X declare -path ../osc;
#X declare -path ../osc;
#X declare -path ../osc;
#X declare -path ../osc;
#X declare -path ../osc;
#X declare -path ../osc;
#X declare -path ../osc;
#X declare -path ../osc;
#X declare -path ../osc;
#X declare -path ../osc;
#X declare -path ../osc;
#X declare -path ../osc;
#X declare -path ../osc;
#X declare -path ../osc;
#X declare -path ../osc;
#X declare -path ../osc;
#X declare -path ../osc;
#X declare -path ../osc;
#X declare -path ../osc;
#X declare -path ../osc;
#X declare -path ../osc;
#X declare -path ../osc;
#X declare -path ../osc;
#X declare -path ../osc;
#X declare -path ../osc;
#X declare -path ../osc;
#X declare -path ../osc;
#X declare -path ../osc;
#X declare -path ../osc;
#X declare -path ../osc;
#X declare -path ../osc;
#X declare -path ../osc;
#X declare -path ../osc;
#X declare -path ../osc;
#X declare -path ../osc;
#X declare -path ../osc;
#X declare -path ../osc;
#X declare -path ../osc;
#X declare -path ../osc;
#X declare -path ../osc;
#X declare -path ../osc;
#X declare -path ../osc;
#X declare -path ../osc;
#X declare -path ../osc;
#X declare -path ../osc;
#X declare -path ../osc;
#X declare -path ../osc;
#X declare -path ../osc;
#X declare -path ../osc;
#X declare -path ../osc;
#X declare -path ../osc;
#X declare -path ../osc;
#X declare -path ../osc;
#X declare -path ../osc;
#X declare -path ../osc;
#X declare -path ../osc;
#X declare -path ../osc;
#X declare -path ../osc;
#X declare -path ../osc;
#X declare -path ../osc;
#X declare -path ../osc;
#X declare -path ../osc;
#X declare -path ../osc;
#X declare -path ../osc;
#X declare -path ../osc;
#X declare -path ../osc;
#X declare -path ../osc;
#X declare -path ../osc;
#X declare -path ../osc;
#X declare -path ../osc;
#X declare -path ../osc;
#X declare -path ../osc;
#X declare -path ../osc;
#X declare -path ../osc;
#X declare -path ../osc;
#X declare -path ../osc;
#X declare -path ../osc;
#X declare -path ../osc;
#X declare -path ../osc;
#X declare -path ../osc;
#X declare -path ../osc;
#X declare -path ../osc;
#X declare -path ../osc;
#X declare -path ../osc;
#X declare -path ../osc;
#X declare -path ../osc;
#X declare -path ../osc;
#X declare -path ../osc;
#X declare -path ../osc;
#X declare -path ../osc;
#X declare -path ../osc;
#X declare -path ../osc;
#X declare -path ../osc;
#X declare -path ../osc;
#X declare -path ../osc;
#X declare -path ../osc;
#X declare -path ../osc;
#X declare -path ../osc;
#X declare -path ../osc;
#X declare -path ../osc;
#X declare -path ../osc;
#X declare -path ../osc;
#X declare -path ../osc;
#X declare -path ../osc;
#X declare -path ../osc;
#X declare -path ../osc;
#X declare -path ../osc;
#X declare -path ../osc;
#X declare -path ../osc;
#X declare -path ../osc;
#X declare -path ../osc;
#X declare -path ../osc;
#X declare -path ../osc;
#X declare -path ../osc;
#X declare -path ../osc;
#X declare -path ../osc;
#X declare -path ../osc;
#X declare -path ../osc;
#X declare -path ../osc;
#X declare -path ../osc;
#X declare -path ../osc;
#X declare -path ../osc;
#X declare -path ../osc;
#X declare -path ../osc;
#X declare -path ../osc;
#X declare -path ../osc;
#X declare -path ../osc;
#X declare -path ../osc;
#X declare -path ../osc;
#X declare -path ../osc;
#X declare -path ../osc;
#X declare -path ../osc;
#X declare -path ../osc;
#X declare -path ../osc;
#X declare -path ../osc;
#X declare -path ../osc;
#X declare -path ../osc;
#X declare -path ../osc;
#X declare -path ../osc;
#X declare -path ../osc;
#X declare -path ../osc;
#X declare -path ../osc;
#X declare -path ../osc;
#X declare -path ../osc;
#X declare -path ../osc;
#X declare -path ../osc;
#X declare -path ../osc;
#X declare -path ../osc;
#X declare -path ../osc;
#X declare -path ../osc;
#X declare -path ../osc;
#X declare -path ../osc;
#X declare -path ../osc;
#X declare -path ../osc;
#X declare -path ../osc;
#X declare -path ../osc;
#X declare -path ../osc;
#X declare -path ../osc;
#X declare -path ../osc;
#X declare -path ../osc;
#X declare -path ../osc;
#X declare -path ../osc;
#X declare -path ../osc;
#X declare -path ../osc;
#X declare -path ../osc;
#X declare -path ../osc;
#X declare -path ../osc;
#X declare -path ../osc;
#N canvas 1131 632 450 342 gemwin 0;
#X msg 38 79 destroy;
#X obj 38 57 sel 0 1;
#X obj 38 39 tgl 15 0 empty empty empty 17 7 0 10 -262144 -1 -1 0 1
;
#X obj 38 16 inlet;
#X obj 114 29 loadbang;
#X obj 114 71 del 1000;
#X msg 74 213 dimen 1000 100 \, title Compteur \, create \, 1;
#X msg 189 287 color 0 0 1 1;
#X obj 62 260 t a;
#X msg 197 148 color 0 0 1 1;
#X obj 62 170 gemwin 20 banniere;
#X obj 62 143 t a;
#X obj 62 290 gemwin 20 compteur;
#X msg 118 233 destroy;
#X msg 62 114 dimen 360 200 \, title Bannieres \, create \, 1;
#X connect 0 0 8 0;
#X connect 0 0 11 0;
#X connect 1 0 0 0;
#X connect 1 1 14 0;
#X connect 1 1 6 0;
#X connect 2 0 1 0;
#X connect 3 0 2 0;
#X connect 4 0 5 0;
#X connect 5 0 14 0;
#X connect 5 0 6 0;
#X connect 6 0 8 0;
#X connect 7 0 8 0;
#X connect 8 0 12 0;
#X connect 9 0 11 0;
#X connect 11 0 10 0;
#X connect 13 0 8 0;
#X connect 14 0 11 0;
#X restore 8 85 pd gemwin;
#X obj 8 67 tgl 15 0 empty empty empty 17 7 0 10 -262144 -1 -1 0 1
;
#N canvas 409 377 1088 594 banniere 0;
#X obj 197 18 loadbang;
#X obj 94 18 gemhead banniere;
#X obj 94 38 t a a;
#X obj 121 120 translateXYZ 0 0 -4;
#X obj 121 80 gemframebuffer;
#X obj 121 100 alpha;
#X obj 24 185 loadbang;
#X msg 24 207 quality 0;
#X obj 94 268 pix_texture;
#X obj 221 72 s banniere-framebuffer;
#X obj 121 144 t a a;
#X obj 148 165 s render_video_banniere;
#X obj 121 185 s render_text_banniere;
#X obj 260 245 videolayer banniere;
#X obj 492 211 gemframebuffer;
#X obj 492 231 translateXYZ 0 0 -4;
#X obj 492 261 pix_texture;
#X obj 512 171 loadbang;
#X obj 465 482 pix_texture;
#X obj 465 159 t a a;
#X obj 465 137 gemhead banniere 1000;
#X obj 465 535 rectangle 9.52 4;
#X obj 465 103 tgl 15 0 empty empty empty 17 7 0 10 -262144 -1 -1 0
1;
#X obj 492 320 t a;
#X floatatom 625 246 5 0 0 0 - - -, f 5;
#X msg 385 412 quality 0;
#X obj 385 387 loadbang;
#X obj 260 265 textlayer banniere;
#X obj 644 347 t a;
#X floatatom 558 517 5 0 0 0 - - -, f 5;
#X floatatom 511 517 5 0 0 0 - - -, f 5;
#X msg 650 129 color 0 0 1;
#X msg 512 191 dimen 80 144 \, format RGB \, type BYTE;
#X obj 828 347 t a;
#X msg 197 38 dimen 720 400 \, perspec -1.5 1.5 -1 1 1 20 \, format
RGB \, type BYTE;
#X obj 781 179 pack f f;
#X floatatom 820 112 5 0 0 0 - - -, f 5;
#X obj 820 146 t b f;
#X floatatom 781 111 5 0 0 0 - - -, f 5;
#X obj 94 290 rectangle 7.2 4;
#X obj 492 391 snapStrip 0;
#X obj 595 451 snapStrip 7;
#X obj 679 386 snapStrip 8;
#X obj 565 391 snapStrip 1;
#X obj 495 411 snapStrip 2;
#X obj 505 431 snapStrip 4;
#X obj 515 451 snapStrip 6;
#X obj 575 411 snapStrip 3;
#X obj 585 431 snapStrip 5;
#X obj 752 386 snapStrip 9;
#X obj 762 406 snapStrip 11;
#X obj 772 426 snapStrip 13;
#X obj 782 446 snapStrip 15;
#X obj 682 406 snapStrip 10;
#X obj 692 426 snapStrip 12;
#X obj 702 446 snapStrip 14;
#X obj 863 386 snapStrip 16;
#X obj 936 386 snapStrip 17;
#X obj 866 406 snapStrip 18;
#X obj 946 406 snapStrip 19;
#X obj 876 426 snapStrip 20;
#X obj 956 426 snapStrip 21;
#X obj 886 446 snapStrip 22;
#X obj 966 446 snapStrip 23;
#X connect 0 0 34 0;
#X connect 1 0 2 0;
#X connect 2 0 8 0;
#X connect 2 1 4 0;
#X connect 3 0 10 0;
#X connect 4 0 5 0;
#X connect 4 1 8 1;
#X connect 4 1 16 1;
#X connect 5 0 3 0;
#X connect 6 0 7 0;
#X connect 7 0 8 0;
#X connect 8 0 39 0;
#X connect 10 0 12 0;
#X connect 10 1 11 0;
#X connect 14 0 15 0;
#X connect 14 1 18 1;
#X connect 15 0 16 0;
#X connect 16 0 23 0;
#X connect 16 0 28 0;
#X connect 16 0 33 0;
#X connect 17 0 32 0;
#X connect 18 0 21 0;
#X connect 19 1 14 0;
#X connect 20 0 19 0;
#X connect 22 0 20 0;
#X connect 23 0 40 0;
#X connect 23 0 41 0;
#X connect 23 0 43 0;
#X connect 23 0 44 0;
#X connect 23 0 45 0;
#X connect 23 0 46 0;
#X connect 23 0 47 0;
#X connect 23 0 48 0;
#X connect 24 0 15 1;
#X connect 25 0 18 0;
#X connect 26 0 25 0;
#X connect 28 0 42 0;
#X connect 28 0 49 0;
#X connect 28 0 50 0;
#X connect 28 0 51 0;
#X connect 28 0 52 0;
#X connect 28 0 53 0;
#X connect 28 0 54 0;
#X connect 28 0 55 0;
#X connect 29 0 21 2;
#X connect 30 0 21 1;
#X connect 31 0 14 0;
#X connect 32 0 14 0;
#X connect 33 0 56 0;
#X connect 33 0 57 0;
#X connect 33 0 58 0;
#X connect 33 0 59 0;
#X connect 33 0 60 0;
#X connect 33 0 61 0;
#X connect 33 0 62 0;
#X connect 33 0 63 0;
#X connect 34 0 4 0;
#X connect 34 0 9 0;
#X connect 36 0 37 0;
#X connect 37 0 35 0;
#X connect 37 1 35 1;
#X connect 38 0 35 0;
#X restore 8 105 pd banniere;
#X text 125 47 Corps Diplomatique - Halory Goerger;
#X text 200 74 2014 - Antoine Villeret;
#X obj 8 2 bng 15 250 50 0 empty empty reconnect 17 7 0 10 -262144
-1 -1;
#N canvas 34 414 440 509 PixelPusherOSC 0;
#X obj 195 178 loadbang;
#X obj 133 152 spigot;
#X obj 152 277 tgl 15 0 empty empty empty 17 7 0 10 -262144 -1 -1 1
1;
#X obj 252 92 spigot;
#X obj 285 73 tgl 15 0 empty empty empty 17 7 0 10 -262144 -1 -1 0
1;
#X obj 133 246 t f f f;
#X obj 133 107 list prepend send;
#X obj 133 129 list trim;
#X obj 133 301 sel 1;
#X obj 197 297 sel 0 1;
#X obj 212 332 del 1000;
#X obj 133 226 udpsend;
#X obj 106 436 spigot;
#X obj 139 417 tgl 15 0 empty empty empty 17 7 0 10 -262144 -1 -1 0
1;
#X obj 106 476 print from_i-score;
#X obj 106 388 unpackOSC;
#X obj 106 367 netreceive -u -b 11000;
#X obj 252 38 r to_PixelPusher;
#N canvas 506 571 753 454 test 0;
#X obj 60 410 s to_PixelPusher;
#X obj 71 50 metro 1000;
#X obj 67 15 tgl 15 0 empty empty empty 17 7 0 10 -262144 -1 -1 0 1
;
#X msg 74 156 sendtyped /pp b 255 0 0 0 255 0 0 0 255 255 0 0 0 255
0 0 0 255;
#X obj 71 72 f;
#X obj 115 79 + 1;
#X obj 115 101 % 256;
#X floatatom 128 23 5 0 0 0 - - -, f 5;
#X floatatom 25 95 5 0 255 0 - - -, f 5;
#X floatatom 234 116 5 0 0 0 - - -, f 5;
#X obj 222 56 metro 1000;
#X obj 224 28 tgl 15 0 empty empty empty 17 7 0 10 -262144 -1 -1 0
1;
#X msg 90 193 sendtyped /pp b \$1 0 0 0 \$1 0 0 0 \$1 \$1 0 0 0 \$1
0 0 0 \$1;
#X floatatom 119 291 5 0 0 0 - - -, f 5;
#X floatatom 254 136 5 0 0 0 - - -, f 5;
#X msg 110 213 sendtyped /pp b \$1 \$1 \$1 \$1 \$1 \$1 \$1 \$1 \$1
\$1 \$1 \$1 \$1 \$1 \$1 \$1 \$1 \$1;
#X floatatom 119 335 5 0 100 0 - - -, f 5;
#X msg 119 311 sendtyped /brightnessScale f \$1;
#X msg 314 357 sendtyped /pp;
#X msg 61 129 sendtyped /pp b \$1 0 0;
#X obj 322 306 pack 0 0 0;
#X floatatom 313 262 5 0 255 0 - - -, f 5;
#X floatatom 366 251 5 0 255 0 - - -, f 5;
#X floatatom 424 252 5 0 255 0 - - -, f 5;
#X obj 424 271 t b a;
#X obj 367 270 t b a;
#X msg 322 328 sendtyped /all b \$1 \$2 \$3;
#X floatatom 499 181 5 0 255 0 - - -, f 5;
#X obj 465 109 tgl 15 0 empty empty empty 17 7 0 10 -262144 -1 -1 0
1;
#X obj 465 129 * 128;
#X obj 463 52 tgl 15 0 empty empty empty 17 7 0 10 -262144 -1 -1 0
1;
#X obj 465 75 metro 200;
#X floatatom 508 45 5 0 0 0 - - -, f 5;
#X obj 587 69 tgl 15 0 empty empty empty 17 7 0 10 -262144 -1 -1 0
1;
#X obj 589 92 metro 200;
#X floatatom 632 62 5 0 0 0 - - -, f 5;
#X obj 589 114 f;
#X obj 589 136 + 1;
#X msg 119 385 sendtyped /brightness i \$1;
#N canvas 680 399 830 611 mapping 0;
#X obj 64 322 t b a;
#X obj 114 452 list trim;
#X obj 114 472 s to_PixelPusher;
#X obj 41 430 list length;
#X floatatom 41 452 5 0 0 0 - - -, f 5;
#X obj 69 367 pix_dump;
#X obj 106 312 loadbang;
#X msg 106 332 RGB \, bytemode 1;
#X obj 69 80 gemhead banniere 1000;
#X obj 69 46 tgl 15 0 empty empty empty 17 7 0 10 -262144 -1 -1 0 1
;
#X obj 69 498 pix_texture;
#X obj 68 521 rectangle 9.52 4;
#X floatatom 209 29 5 0 255 0 - - -, f 5;
#X floatatom 249 29 5 0 255 0 - - -, f 5;
#X floatatom 289 29 5 0 255 0 - - -, f 5;
#X obj 289 46 t b f;
#X obj 249 46 t b f;
#X text 220 117 in RGB mode you can set each channel;
#X msg 209 96 fill \$1 \$2 \$3 \, bang;
#X obj 209 74 pack 0 0 0;
#X msg 232 515 quality 0;
#X obj 22 123 t b a;
#X obj 114 430 list prepend sendtyped /s0 b;
#X floatatom 292 187 5 0 0 0 - - -, f 5;
#X obj 279 302 pack 0 0;
#X obj 301 215 t f f;
#X msg 276 328 roi \$1 0 \$2 1;
#X msg 200 196 roi 0 0 1 1;
#X obj 69 260 pix_roi 0 0 1 1;
#X obj 69 214 pix_set 84 5;
#X msg 233 155 255 0 0;
#X obj 69 163 pix_roi 0 0 1 1;
#X obj 282 266 / 84, f 7;
#X obj 338 265 / 84, f 7;
#X obj 332 241 + 1;
#X obj 92 33 loadbang;
#X msg 92 55 0;
#X connect 0 1 5 0;
#X connect 1 0 2 0;
#X connect 3 0 4 0;
#X connect 5 0 10 0;
#X connect 5 1 3 0;
#X connect 5 1 22 0;
#X connect 6 0 7 0;
#X connect 7 0 5 0;
#X connect 7 0 29 0;
#X connect 8 0 31 0;
#X connect 9 0 8 0;
#X connect 10 0 11 0;
#X connect 12 0 19 0;
#X connect 13 0 16 0;
#X connect 14 0 15 0;
#X connect 15 0 19 0;
#X connect 15 1 19 2;
#X connect 16 0 19 0;
#X connect 16 1 19 1;
#X connect 18 0 21 0;
#X connect 19 0 18 0;
#X connect 20 0 10 0;
#X connect 21 0 5 0;
#X connect 21 1 29 0;
#X connect 22 0 1 0;
#X connect 23 0 25 0;
#X connect 24 0 26 0;
#X connect 25 0 32 0;
#X connect 25 1 34 0;
#X connect 26 0 31 0;
#X connect 27 0 31 0;
#X connect 28 0 0 0;
#X connect 29 0 28 0;
#X connect 30 0 29 1;
#X connect 31 0 29 0;
#X connect 32 0 24 0;
#X connect 33 0 24 1;
#X connect 34 0 33 0;
#X connect 35 0 36 0;
#X connect 36 0 8 0;
#X restore 520 310 pd mapping;
#X obj 119 360 * 655.35;
#X obj 13 218 loadbang;
#X msg 84 255 5;
#X obj 13 262 metro 1000;
#X obj 13 240 t b b;
#X obj 14 193 bng 15 250 50 0 empty empty empty 17 7 0 10 -262144 -1
-1;
#X connect 1 0 4 0;
#X connect 2 0 1 0;
#X connect 3 0 0 0;
#X connect 4 0 5 0;
#X connect 4 0 12 0;
#X connect 5 0 6 0;
#X connect 6 0 4 1;
#X connect 7 0 1 1;
#X connect 8 0 19 0;
#X connect 9 0 12 0;
#X connect 10 0 9 0;
#X connect 11 0 10 0;
#X connect 12 0 0 0;
#X connect 13 0 17 0;
#X connect 14 0 15 0;
#X connect 15 0 0 0;
#X connect 16 0 40 0;
#X connect 17 0 0 0;
#X connect 18 0 0 0;
#X connect 19 0 0 0;
#X connect 20 0 26 0;
#X connect 21 0 20 0;
#X connect 22 0 25 0;
#X connect 23 0 24 0;
#X connect 24 0 20 0;
#X connect 24 1 20 2;
#X connect 25 0 20 0;
#X connect 25 1 20 1;
#X connect 26 0 0 0;
#X connect 27 0 23 0;
#X connect 27 0 22 0;
#X connect 27 0 21 0;
#X connect 28 0 29 0;
#X connect 29 0 27 0;
#X connect 30 0 31 0;
#X connect 31 0 28 0;
#X connect 32 0 31 1;
#X connect 33 0 34 0;
#X connect 34 0 36 0;
#X connect 35 0 34 1;
#X connect 36 0 37 0;
#X connect 37 0 36 1;
#X connect 37 0 27 0;
#X connect 38 0 0 0;
#X connect 40 0 38 0;
#X connect 41 0 44 0;
#X connect 42 0 16 0;
#X connect 43 0 16 0;
#X connect 44 0 43 0;
#X connect 44 1 42 0;
#X connect 45 0 44 0;
#X restore 246 421 pd test;
#X msg 195 198 connect 127.0.0.1 10001;
#X msg 63 196 disconnect;
#X obj 252 163 print to_PixelPusher;
#X obj 320 71 list length;
#X floatatom 320 93 5 0 0 0 - - -, f 5;
#X obj 252 125 t a b;
#X msg 317 125 0;
#X obj 133 86 packOSC;
#X msg 51 31 sendtyped ib /s 1 25 52 5 25;
#X obj 63 144 inlet;
#X connect 0 0 19 0;
#X connect 1 0 11 0;
#X connect 2 0 9 0;
#X connect 3 0 24 0;
#X connect 4 0 3 1;
#X connect 5 0 8 0;
#X connect 5 1 2 0;
#X connect 5 2 1 1;
#X connect 6 0 7 0;
#X connect 7 0 1 0;
#X connect 9 0 10 0;
#X connect 10 0 19 0;
#X connect 11 0 5 0;
#X connect 12 0 14 0;
#X connect 13 0 12 1;
#X connect 15 0 12 0;
#X connect 16 0 15 0;
#X connect 17 0 3 0;
#X connect 17 0 22 0;
#X connect 17 0 26 0;
#X connect 19 0 11 0;
#X connect 20 0 11 0;
#X connect 22 0 23 0;
#X connect 24 0 21 0;
#X connect 24 1 25 0;
#X connect 25 0 4 0;
#X connect 26 0 6 0;
#X connect 27 0 26 0;
#X connect 28 0 20 0;
#X restore 92 22 pd PixelPusherOSC;
#N canvas 285 496 596 375 init 0;
#X obj 8 27 declare -path abs -path osc;
#X obj 8 7 declare -path iemnet;
#X obj 8 47 declare -path hcs;
#X obj 134 198 noquit;
#X obj 226 127 canvas_name 1;
#X obj 226 167 sys_gui;
#X obj 226 85 bng 15 250 50 0 empty empty empty 17 7 0 10 -262144 -1
-1;
#X msg 226 147 \$1 configure -background grey;
#X obj 226 61 loadbang;
#X obj 226 107 t b b;
#X obj 135 7 declare -lib cream;
#X obj 253 338 s text-banniere;
#X msg 253 263 vis 1;
#X obj 264 318 s video-banniere;
#X msg 331 209 vis 1;
#X obj 342 264 s video-compteur;
#X obj 331 284 s text-compteur;
#X obj 7 69 declare -path ../zexy -lib zexy;
#X connect 4 0 7 0;
#X connect 6 0 9 0;
#X connect 7 0 5 0;
#X connect 8 0 6 0;
#X connect 9 0 4 0;
#X connect 9 1 12 0;
#X connect 9 1 14 0;
#X connect 12 0 11 0;
#X connect 12 0 13 0;
#X connect 14 0 15 0;
#X connect 14 0 16 0;
#X restore 8 44 pd init;
#N canvas 831 85 1030 673 compteur 1;
#X obj 197 18 loadbang;
#X obj 94 38 t a a;
#X obj 121 120 translateXYZ 0 0 -4;
#X obj 121 80 gemframebuffer;
#X obj 121 100 alpha;
#X obj 24 185 loadbang;
#X msg 24 207 quality 0;
#X obj 94 268 pix_texture;
#X obj 121 144 t a a;
#X obj 94 18 gemhead compteur;
#X obj 221 72 s compteur-framebuffer;
#X obj 148 165 s render_video_compteur;
#X obj 121 185 s render_text_compteur;
#N canvas 123 648 1529 706 compteur-de-temps 1;
#X obj 801 65 f;
#X obj 826 65 + 1;
#X obj 881 511 s from_i-score;
#X obj 801 12 tgl 15 0 empty empty empty 17 7 0 10 -262144 -1 -1 1
1;
#X obj 801 45 metro 1000;
#X obj 801 125 t f f f f f;
#X obj 864 147 t f f;
#X obj 1071 511 s from_i-score;
#X text 1084 482 minutes;
#X text 1137 483 secondes;
#X obj 864 303 t f f;
#X obj 780 367 mod 24;
#X obj 891 344 mod 60;
#X obj 780 345 div 60;
#X text 904 484 heures;
#X obj 488 511 s from_i-score;
#X text 511 484 jours;
#X obj 298 511 s from_i-score;
#X text 321 484 mois;
#X obj 128 511 s from_i-score;
#X msg 128 459 /compteur/text/1/text \$1;
#X obj 1071 406 pack f f;
#X text 151 484 anne;
#X msg 1071 459 /compteur/text/5/text \$1\$2:\$3\$4;
#N canvas 1 92 450 300 0padding 0;
#X obj 119 20 inlet;
#X obj 119 231 outlet;
#X obj 119 68 unpack f f;
#X obj 119 196 pack f f f f;
#X obj 119 104 t f f;
#X obj 119 137 div 10;
#X obj 119 159 mod 10;
#X obj 170 149 mod 10;
#X obj 219 104 t f f;
#X obj 219 137 div 10;
#X obj 219 159 mod 10;
#X obj 270 149 mod 10;
#X connect 0 0 2 0;
#X connect 2 0 4 0;
#X connect 2 1 8 0;
#X connect 3 0 1 0;
#X connect 4 0 5 0;
#X connect 4 1 7 0;
#X connect 5 0 6 0;
#X connect 6 0 3 0;
#X connect 7 0 3 1;
#X connect 8 0 9 0;
#X connect 8 1 11 0;
#X connect 9 0 10 0;
#X connect 10 0 3 2;
#X connect 11 0 3 3;
#X restore 1071 430 pd 0padding;
#X floatatom 788 420 5 0 0 0 - - -, f 5;
#X floatatom 865 25 5 0 0 0 - - -, f 5;
#N canvas 1 109 450 300 0padding 1;
#X obj 119 20 inlet;
#X obj 119 231 outlet;
#X obj 119 104 t f f;
#X obj 119 137 div 10;
#X obj 119 159 mod 10;
#X obj 170 149 mod 10;
#X obj 119 196 pack f f;
#X connect 0 0 2 0;
#X connect 2 0 3 0;
#X connect 2 1 5 0;
#X connect 3 0 4 0;
#X connect 4 0 6 0;
#X connect 5 0 6 1;
#X connect 6 0 1 0;
#X restore 881 422 pd 0padding;
#X msg 881 459 /compteur/text/4/text \$1\$2;
#X floatatom 919 306 5 0 0 0 - - -, f 5;
#X floatatom 867 61 5 0 0 0 - - -, f 5;
#X obj 943 214 mod 60;
#X obj 864 185 div 60;
#X obj 659 337 div 24;
#N canvas 1 128 450 300 0padding 0;
#X obj 119 20 inlet;
#X obj 119 231 outlet;
#X obj 119 64 t f f;
#X obj 119 159 mod 10;
#X obj 170 149 mod 10;
#X obj 119 137 div 100;
#X obj 237 140 mod 10;
#X obj 119 196 pack f f f;
#X obj 170 128 div 10;
#X connect 0 0 2 0;
#X connect 2 0 5 0;
#X connect 2 1 6 0;
#X connect 2 1 8 0;
#X connect 3 0 7 0;
#X connect 4 0 7 1;
#X connect 5 0 3 0;
#X connect 6 0 7 2;
#X connect 7 0 1 0;
#X connect 8 0 4 0;
#X restore 659 401 pd 0padding;
#N canvas 1 128 450 300 0padding 0;
#X obj 119 20 inlet;
#X obj 119 231 outlet;
#X obj 119 64 t f f;
#X obj 119 159 mod 10;
#X obj 170 149 mod 10;
#X obj 119 137 div 100;
#X obj 237 140 mod 10;
#X obj 119 196 pack f f f;
#X obj 170 128 div 10;
#X connect 0 0 2 0;
#X connect 2 0 5 0;
#X connect 2 1 6 0;
#X connect 2 1 8 0;
#X connect 3 0 7 0;
#X connect 4 0 7 1;
#X connect 5 0 3 0;
#X connect 6 0 7 2;
#X connect 7 0 1 0;
#X connect 8 0 4 0;
#X restore 298 435 pd 0padding;
#X obj 659 359 mod 46;
#X obj 659 381 + 4;
#X obj 298 392 div 36;
#X msg 298 459 /compteur/text/2/text \$1\$2\$3;
#X msg 488 459 /compteur/text/3/text \$2\$3;
#X floatatom 647 114 80 0 0 0 - - -, f 80;
#X obj 280 137 time_counter;
#X connect 0 0 1 0;
#X connect 0 0 5 0;
#X connect 0 0 41 0;
#X connect 1 0 0 1;
#X connect 3 0 4 0;
#X connect 4 0 0 0;
#X connect 5 4 6 0;
#X connect 6 0 32 0;
#X connect 6 1 31 0;
#X connect 10 0 13 0;
#X connect 10 1 12 0;
#X connect 11 0 25 0;
#X connect 11 0 27 0;
#X connect 12 0 21 0;
#X connect 13 0 11 0;
#X connect 13 0 33 0;
#X connect 20 0 19 0;
#X connect 21 0 24 0;
#X connect 23 0 7 0;
#X connect 24 0 23 0;
#X connect 26 0 4 1;
#X connect 27 0 28 0;
#X connect 28 0 2 0;
#X connect 30 0 1 1;
#X connect 31 0 21 1;
#X connect 32 0 10 0;
#X connect 33 0 36 0;
#X connect 33 0 38 0;
#X connect 34 0 40 0;
#X connect 35 0 39 0;
#X connect 36 0 37 0;
#X connect 37 0 34 0;
#X connect 38 0 35 0;
#X connect 39 0 17 0;
#X connect 40 0 15 0;
#X restore 299 228 pd compteur-de-temps;
#X msg 403 96 color 1 0 0 1;
#X obj 94 290 rectangle 40 4;
#X obj 642 122 gemframebuffer;
#X obj 641 188 pix_texture;
#X obj 662 82 loadbang;
#X obj 615 70 t a a;
#X obj 615 14 tgl 15 0 empty empty empty 17 7 0 10 -262144 -1 -1 0
1;
#X obj 641 217 t a;
#X floatatom 775 157 5 0 0 0 - - -, f 5;
#X msg 523 116 quality 0;
#X obj 523 91 loadbang;
#X obj 615 48 gemhead compteur 1000;
#X msg 662 102 dimen 160 16 \, format RGB \, type BYTE;
#X obj 593 472 pix_texture;
#X obj 759 388 t a;
#X obj 593 495 rectangle 40 1;
#X obj 642 299 snapStripRpi 0;
#X obj 263 360 t f f;
#X obj 263 392 * -1;
#X floatatom 266 322 5 0 0 0 - - -, f 5;
#X obj 263 455 pack 0 0 0 0;
#X obj 305 391 t f f;
#X obj 263 414 t f f;
#X obj 317 428 * 5;
#X obj 343 430 * 5;
#X msg 263 506 perspec \$3 \$4 \$1 \$2 1 20;
#X msg 197 38 dimen 160 16 \, perspec -5 5 -0.5 0.5 1 20 \, format
RGB \, type BYTE;
#X obj 642 142 translateXYZ 0 0 -4;
#X obj 732 456 snapStripRpi 8;
#X obj 735 299 snapStripRpi 1;
#X obj 645 319 snapStripRpi 2;
#X obj 655 339 snapStripRpi 4;
#X obj 665 359 snapStripRpi 6;
#X obj 765 359 snapStripRpi 7;
#X obj 755 339 snapStripRpi 5;
#X obj 745 319 snapStripRpi 3;
#X obj 825 456 snapStripRpi 9;
#X obj 735 476 snapStripRpi 10;
#X obj 835 476 snapStripRpi 11;
#X obj 745 496 snapStripRpi 12;
#X obj 755 516 snapStripRpi 14;
#X obj 845 496 snapStripRpi 13;
#X obj 855 516 snapStripRpi 15;
#X obj 300 164 videolayer compteur;
#X obj 300 185 textlayer compteur;
#X connect 0 0 40 0;
#X connect 1 0 7 0;
#X connect 1 1 3 0;
#X connect 2 0 8 0;
#X connect 3 0 4 0;
#X connect 3 1 7 1;
#X connect 3 1 17 1;
#X connect 4 0 2 0;
#X connect 5 0 6 0;
#X connect 6 0 7 0;
#X connect 7 0 15 0;
#X connect 8 0 12 0;
#X connect 8 1 11 0;
#X connect 9 0 1 0;
#X connect 14 0 3 0;
#X connect 16 0 41 0;
#X connect 16 1 27 1;
#X connect 17 0 21 0;
#X connect 18 0 26 0;
#X connect 19 1 16 0;
#X connect 20 0 25 0;
#X connect 21 0 28 0;
#X connect 21 0 30 0;
#X connect 21 0 43 0;
#X connect 21 0 44 0;
#X connect 21 0 45 0;
#X connect 21 0 46 0;
#X connect 21 0 47 0;
#X connect 21 0 48 0;
#X connect 21 0 49 0;
#X connect 22 0 41 1;
#X connect 23 0 27 0;
#X connect 23 0 17 0;
#X connect 24 0 23 0;
#X connect 25 0 19 0;
#X connect 26 0 16 0;
#X connect 27 0 29 0;
#X connect 28 0 42 0;
#X connect 28 0 50 0;
#X connect 28 0 51 0;
#X connect 28 0 52 0;
#X connect 28 0 53 0;
#X connect 28 0 54 0;
#X connect 28 0 55 0;
#X connect 28 0 56 0;
#X connect 31 0 32 0;
#X connect 31 1 35 0;
#X connect 32 0 36 0;
#X connect 33 0 31 0;
#X connect 34 0 39 0;
#X connect 35 0 34 1;
#X connect 35 1 38 0;
#X connect 36 0 34 0;
#X connect 36 1 37 0;
#X connect 37 0 34 2;
#X connect 38 0 34 3;
#X connect 39 0 3 0;
#X connect 40 0 3 0;
#X connect 40 0 10 0;
#X connect 41 0 17 0;
#X restore 8 125 pd compteur;
#X obj 262 137 oscparam /test;
#X floatatom 226 138 5 0 0 0 - - -, f 5;
#X floatatom 243 116 5 0 0 0 - - -, f 5;
#X obj 279 115 oscparam /test2;
#X obj 8 145 midi-remote;
#N canvas 1 126 783 321 camera 0;
#X obj 439 82 pix_info, f 27;
#X floatatom 457 116 5 0 0 0 - - -, f 5;
#X floatatom 492 115 5 0 0 0 - - -, f 5;
#X obj 439 37 gemhead banniere 0;
#X obj 529 115 == -1;
#X obj 529 137 change;
#X obj 529 159 metro 5000;
#X msg 529 178 device /dev/video3;
#X obj 229 82 pix_info, f 27;
#X floatatom 247 116 5 0 0 0 - - -, f 5;
#X floatatom 282 115 5 0 0 0 - - -, f 5;
#X obj 229 37 gemhead banniere 0;
#X obj 229 220 pix_share_write cam2 640 480 4;
#X obj 319 115 == -1;
#X obj 319 137 change;
#X obj 319 159 metro 5000;
#X obj 19 82 pix_info, f 27;
#X floatatom 37 116 5 0 0 0 - - -, f 5;
#X floatatom 72 115 5 0 0 0 - - -, f 5;
#X obj 19 37 gemhead banniere 0;
#X obj 109 115 == -1;
#X obj 109 137 change;
#X obj 109 159 metro 5000;
#X obj 19 59 pix_video /dev/video1;
#X obj 19 220 pix_share_write cam1 640 480 4;
#X msg 109 178 device /dev/video1;
#X msg 319 178 device /dev/video2;
#X obj 229 59 pix_video /dev/video2;
#X obj 439 59 pix_video /dev/video3;
#X obj 439 220 pix_share_write cam3 640 480 4;
#X connect 0 0 29 0;
#X connect 0 1 1 0;
#X connect 0 2 2 0;
#X connect 0 2 4 0;
#X connect 3 0 28 0;
#X connect 4 0 5 0;
#X connect 5 0 6 0;
#X connect 6 0 7 0;
#X connect 8 0 12 0;
#X connect 8 1 9 0;
#X connect 8 2 10 0;
#X connect 8 2 13 0;
#X connect 11 0 27 0;
#X connect 13 0 14 0;
#X connect 14 0 15 0;
#X connect 15 0 26 0;
#X connect 16 0 24 0;
#X connect 16 1 17 0;
#X connect 16 2 18 0;
#X connect 16 2 20 0;
#X connect 19 0 23 0;
#X connect 20 0 21 0;
#X connect 21 0 22 0;
#X connect 22 0 25 0;
#X connect 23 0 16 0;
#X connect 27 0 8 0;
#X connect 28 0 0 0;
#X restore 105 103 pd camera;
#N canvas 1501 516 418 510 OSC 0;
#X obj 41 413 s from_i-score;
#X obj 252 38 r to_i-score;
#X obj 195 158 loadbang;
#X obj 133 152 spigot;
#X obj 152 277 tgl 15 0 empty empty empty 17 7 0 10 -262144 -1 -1 1
1;
#X msg 195 205 connect 127.0.0.1 9996;
#X obj 106 368 netreceive -u -b 9997;
#X obj 252 142 spigot;
#X obj 285 123 tgl 15 0 empty empty empty 17 7 0 10 -262144 -1 -1 0
1;
#X obj 252 162 print to_i-score;
#X obj 106 436 spigot;
#X obj 139 417 tgl 15 0 empty empty empty 17 7 0 10 -262144 -1 -1 0
1;
#X obj 133 246 t f f f;
#X obj 133 107 list prepend send;
#X obj 133 129 list trim;
#X msg 41 367 get;
#X obj 133 86 packOSC;
#X obj 106 388 unpackOSC;
#X obj 65 35 t b b b;
#X msg 103 56 [;
#X msg 53 56 ];
#X obj 212 332 del 1000;
#X msg 227 242 disconnect;
#X obj 285 85 loadbang;
#X obj 89 330 del 2000;
#X obj 149 329 del 500;
#X obj 133 301 sel 1 0;
#X obj 269 278 t b b;
#X msg 269 300 stop;
#X obj 320 252 bng 15 250 50 0 empty empty empty 17 7 0 10 -262144
-1 -1;
#X msg 112 185 send 20 \, send 20;
#X text 15 184 test connection;
#X obj 133 226 udpsend;
#X obj 227 11 inlet;
#X obj 106 476 print from_osc;
#X connect 1 0 7 0;
#X connect 1 0 16 0;
#X connect 2 0 5 0;
#X connect 3 0 32 0;
#X connect 5 0 32 0;
#X connect 6 0 17 0;
#X connect 7 0 9 0;
#X connect 8 0 7 1;
#X connect 10 0 34 0;
#X connect 11 0 10 1;
#X connect 12 0 26 0;
#X connect 12 1 4 0;
#X connect 12 2 3 1;
#X connect 13 0 14 0;
#X connect 14 0 3 0;
#X connect 15 0 0 0;
#X connect 16 0 13 0;
#X connect 17 0 10 0;
#X connect 17 0 0 0;
#X connect 18 0 20 0;
#X connect 18 1 15 0;
#X connect 18 2 19 0;
#X connect 21 0 5 0;
#X connect 22 0 32 0;
#X connect 24 0 18 0;
#X connect 26 0 24 0;
#X connect 26 0 25 0;
#X connect 26 1 21 0;
#X connect 27 0 28 0;
#X connect 27 1 22 0;
#X connect 28 0 21 0;
#X connect 29 0 27 0;
#X connect 30 0 32 0;
#X connect 32 0 12 0;
#X connect 33 0 22 0;
#X restore 7 22 pd OSC;
#X connect 1 0 0 0;
#X connect 5 0 6 0;
#X connect 9 0 10 0;
#X connect 10 0 9 0;
#X connect 11 0 12 0;
#X connect 12 0 11 0;
