#N canvas 370 363 857 302 10;
#X declare -lib zexy/zexy -path iemnet;
#N canvas 248 362 1671 651 parse_discovery 0;
#X obj 151 45 udpreceive 7331;
#X obj 178 90 list split 6;
#X obj 35 250 unpack f f f f f f;
#X obj 35 427 pack s s s s s s;
#X obj 35 300 makefilename %02x;
#X obj 54 320 makefilename %02x;
#X obj 75 340 makefilename %02x;
#X obj 117 380 makefilename %02x;
#X obj 134 400 makefilename %02x;
#X obj 92 360 makefilename %02x;
#X obj 281 174 list split 4;
#X obj 378 176 list split 2;
#X obj 378 236 unpack 0 0;
#X obj 378 258 sel 0 1 2;
#X obj 381 515 t a;
#X msg 35 449 mac \$1:\$2:\$3:\$4:\$5:\$6;
#X obj 371 368 t a;
#X msg 347 298 device Etherdream;
#X msg 380 319 device Lumiabridge;
#X msg 402 341 device PixelPusher;
#X msg 281 240 ip \$1.\$2.\$3.\$4;
#X obj 604 216 list split 2;
#X obj 604 276 unpack 0 0;
#X obj 661 300 << 8;
#X obj 646 329 +;
#X msg 540 349 protocol \$1;
#X obj 704 276 unpack 0 0;
#X obj 761 300 << 8;
#X obj 746 329 +;
#X obj 704 216 list split 2;
#X obj 804 276 unpack 0 0;
#X obj 861 300 << 8;
#X obj 846 329 +;
#X obj 804 216 list split 2;
#X msg 646 352 vendor_id \$1;
#X msg 746 352 product_id \$1;
#X obj 904 276 unpack 0 0;
#X obj 961 300 << 8;
#X obj 946 329 +;
#X obj 904 216 list split 2;
#X msg 946 352 sw_rev \$1;
#X msg 846 352 hw_rev \$1;
#X obj 1029 380 << 8;
#X obj 1014 400 +;
#X obj 1014 216 list split 4;
#X obj 1014 276 unpack 0 0 0 0;
#X obj 1044 340 << 8;
#X obj 1029 360 +;
#X obj 1059 300 << 8;
#X obj 1044 320 +;
#X msg 1014 423 link_speed \$1;
#X obj 151 67 t b a;
#N canvas 1 96 1669 476 parse_particular 0;
#X obj 131 25 inlet;
#X obj 131 61 list split 2;
#X msg 188 114 max_strips_per_packet \$1;
#X obj 131 83 unpack f f;
#X msg 78 135 strips_attached \$1;
#X obj 517 416 outlet;
#X obj 517 383 t a;
#X obj 372 61 list split 2;
#X obj 372 83 unpack f f;
#X obj 380 131 +;
#X obj 428 104 << 8;
#X msg 380 153 pixels_per_strip;
#X obj 542 213 << 8;
#X obj 527 233 +;
#X obj 527 59 list split 4;
#X obj 527 109 unpack 0 0 0 0;
#X obj 557 173 << 8;
#X obj 542 193 +;
#X obj 572 133 << 8;
#X obj 557 153 +;
#X msg 527 256 update_period \$1;
#X text 631 257 in µs;
#X obj 717 214 << 8;
#X obj 702 234 +;
#X obj 702 60 list split 4, f 15;
#X obj 702 110 unpack 0 0 0 0;
#X obj 732 174 << 8;
#X obj 717 194 +;
#X obj 747 134 << 8;
#X obj 732 154 +;
#X msg 702 257 power_total \$1;
#X text 795 257 in PWM unit;
#X obj 897 214 << 8;
#X obj 882 234 +;
#X obj 882 110 unpack 0 0 0 0;
#X obj 912 174 << 8;
#X obj 897 194 +;
#X obj 927 134 << 8;
#X obj 912 154 +;
#X msg 882 257 delta_sequnence \$1;
#X obj 882 61 list split 4, f 15;
#X obj 1038 215 << 8;
#X obj 1023 235 +;
#X obj 1023 111 unpack 0 0 0 0;
#X obj 1053 175 << 8;
#X obj 1038 195 +;
#X obj 1068 135 << 8;
#X obj 1053 155 +;
#X obj 1023 58 list split 4, f 15;
#X msg 1023 258 controller_number \$1;
#X obj 1199 215 << 8;
#X obj 1184 235 +;
#X obj 1184 111 unpack 0 0 0 0;
#X obj 1214 175 << 8;
#X obj 1199 195 +;
#X obj 1229 135 << 8;
#X obj 1214 155 +;
#X obj 1184 58 list split 4, f 15;
#X msg 1184 258 group_number \$1;
#X obj 1330 62 list split 2;
#X obj 1330 84 unpack f f;
#X obj 1338 132 +;
#X obj 1386 105 << 8;
#X msg 1338 257 arnet_universe \$1;
#X obj 1479 60 list split 2;
#X obj 1479 82 unpack f f;
#X obj 1487 130 +;
#X obj 1535 103 << 8;
#X msg 1487 256 arnet_channel \$1;
#X connect 0 0 1 0;
#X connect 1 0 3 0;
#X connect 1 1 7 0;
#X connect 2 0 6 0;
#X connect 3 0 4 0;
#X connect 3 1 2 0;
#X connect 4 0 6 0;
#X connect 6 0 5 0;
#X connect 7 0 8 0;
#X connect 7 1 14 0;
#X connect 8 0 9 0;
#X connect 8 1 10 0;
#X connect 9 0 11 0;
#X connect 10 0 9 1;
#X connect 11 0 6 0;
#X connect 12 0 13 1;
#X connect 13 0 20 0;
#X connect 14 0 15 0;
#X connect 14 1 24 0;
#X connect 15 0 13 0;
#X connect 15 1 17 0;
#X connect 15 2 19 0;
#X connect 15 3 18 0;
#X connect 16 0 17 1;
#X connect 17 0 12 0;
#X connect 18 0 19 1;
#X connect 19 0 16 0;
#X connect 20 0 6 0;
#X connect 22 0 23 1;
#X connect 23 0 30 0;
#X connect 24 0 25 0;
#X connect 24 1 40 0;
#X connect 25 0 23 0;
#X connect 25 1 27 0;
#X connect 25 2 29 0;
#X connect 25 3 28 0;
#X connect 26 0 27 1;
#X connect 27 0 22 0;
#X connect 28 0 29 1;
#X connect 29 0 26 0;
#X connect 30 0 6 0;
#X connect 32 0 33 1;
#X connect 33 0 39 0;
#X connect 34 0 33 0;
#X connect 34 1 36 0;
#X connect 34 2 38 0;
#X connect 34 3 37 0;
#X connect 35 0 36 1;
#X connect 36 0 32 0;
#X connect 37 0 38 1;
#X connect 38 0 35 0;
#X connect 39 0 6 0;
#X connect 40 0 34 0;
#X connect 40 1 48 0;
#X connect 41 0 42 1;
#X connect 42 0 49 0;
#X connect 43 0 42 0;
#X connect 43 1 45 0;
#X connect 43 2 47 0;
#X connect 43 3 46 0;
#X connect 44 0 45 1;
#X connect 45 0 41 0;
#X connect 46 0 47 1;
#X connect 47 0 44 0;
#X connect 48 0 43 0;
#X connect 48 1 57 0;
#X connect 49 0 6 0;
#X connect 50 0 51 1;
#X connect 51 0 58 0;
#X connect 52 0 51 0;
#X connect 52 1 54 0;
#X connect 52 2 56 0;
#X connect 52 3 55 0;
#X connect 53 0 54 1;
#X connect 54 0 50 0;
#X connect 55 0 56 1;
#X connect 56 0 53 0;
#X connect 57 0 52 0;
#X connect 57 1 59 0;
#X connect 58 0 6 0;
#X connect 59 0 60 0;
#X connect 59 1 64 0;
#X connect 60 0 61 0;
#X connect 60 1 62 0;
#X connect 61 0 63 0;
#X connect 62 0 61 1;
#X connect 63 0 6 0;
#X connect 64 0 65 0;
#X connect 65 0 66 0;
#X connect 65 1 67 0;
#X connect 66 0 68 0;
#X connect 67 0 66 1;
#X connect 68 0 6 0;
#X restore 1213 213 pd parse_particular;
#X obj 381 543 outlet;
#X connect 0 0 51 0;
#X connect 1 0 2 0;
#X connect 1 1 10 0;
#X connect 2 0 4 0;
#X connect 2 1 5 0;
#X connect 2 2 6 0;
#X connect 2 3 9 0;
#X connect 2 4 7 0;
#X connect 2 5 8 0;
#X connect 3 0 15 0;
#X connect 4 0 3 0;
#X connect 5 0 3 1;
#X connect 6 0 3 2;
#X connect 7 0 3 4;
#X connect 8 0 3 5;
#X connect 9 0 3 3;
#X connect 10 0 20 0;
#X connect 10 1 11 0;
#X connect 11 0 12 0;
#X connect 11 1 21 0;
#X connect 12 0 13 0;
#X connect 12 1 25 0;
#X connect 13 0 17 0;
#X connect 13 1 18 0;
#X connect 13 2 19 0;
#X connect 14 0 53 0;
#X connect 15 0 14 0;
#X connect 16 0 14 0;
#X connect 17 0 16 0;
#X connect 18 0 16 0;
#X connect 19 0 16 0;
#X connect 20 0 14 0;
#X connect 21 0 22 0;
#X connect 21 1 29 0;
#X connect 22 0 24 0;
#X connect 22 1 23 0;
#X connect 23 0 24 1;
#X connect 24 0 34 0;
#X connect 25 0 14 0;
#X connect 26 0 28 0;
#X connect 26 1 27 0;
#X connect 27 0 28 1;
#X connect 28 0 35 0;
#X connect 29 0 26 0;
#X connect 29 1 33 0;
#X connect 30 0 32 0;
#X connect 30 1 31 0;
#X connect 31 0 32 1;
#X connect 32 0 41 0;
#X connect 33 0 30 0;
#X connect 33 1 39 0;
#X connect 34 0 14 0;
#X connect 35 0 14 0;
#X connect 36 0 38 0;
#X connect 36 1 37 0;
#X connect 37 0 38 1;
#X connect 38 0 40 0;
#X connect 39 0 36 0;
#X connect 39 1 44 0;
#X connect 40 0 14 0;
#X connect 41 0 14 0;
#X connect 42 0 43 1;
#X connect 43 0 50 0;
#X connect 44 0 45 0;
#X connect 44 1 52 0;
#X connect 45 0 43 0;
#X connect 45 1 47 0;
#X connect 45 2 49 0;
#X connect 45 3 48 0;
#X connect 46 0 47 1;
#X connect 47 0 42 0;
#X connect 48 0 49 1;
#X connect 49 0 46 0;
#X connect 50 0 14 0;
#X connect 51 0 14 0;
#X connect 51 1 1 0;
#X connect 52 0 14 0;
#X restore 211 91 pd parse_discovery;
#N canvas 724 234 834 611 send_packet 1;
#X obj 69 119 f;
#X obj 69 141 + 1;
#X obj 69 87 bng 15 250 50 0 empty empty empty 17 7 0 10 -262144 -1
-1;
#X obj 69 185 t f f f f;
#X floatatom 120 267 5 0 0 0 - - -, f 5;
#X floatatom 81 267 5 0 0 0 - - -, f 5;
#X floatatom 34 253 5 0 0 0 - - -, f 5;
#X obj 119 223 >> 16;
#X obj 77 222 >> 8;
#X obj 139 6 tgl 15 0 empty empty empty 17 7 0 10 -262144 -1 -1 0 1
;
#X obj 138 24 metro 100;
#X msg 138 46 8;
#X obj 138 68 until;
#X obj 138 90 t b b;
#X obj 34 226 & 255;
#X obj 77 242 & 255;
#X obj 119 243 & 255;
#X obj 171 221 >> 24;
#X obj 171 241 & 255;
#X obj 198 282 sel 255;
#X msg 223 189 0;
#X obj 171 261 t f f;
#X obj 408 230 until;
#X obj 408 308 list;
#X obj 408 330 list;
#X obj 403 126 bng 15 250 50 0 empty empty empty 17 7 0 10 -262144
-1 -1;
#X obj 391 372 list;
#X obj 392 151 t b b b;
#X obj 408 280 list;
#X obj 376 50 pack f f f;
#X floatatom 376 7 5 0 255 0 - - -, f 5;
#X obj 376 26 t b f;
#X floatatom 416 7 5 0 255 0 - - -, f 5;
#X obj 416 26 t b f;
#X obj 376 73 t b a;
#X floatatom 336 3 5 0 255 0 - - -, f 5;
#X msg 408 183 426;
#X obj 346 109 t b b;
#X obj 51 312 pack 0 0 0 0;
#N canvas 149 278 450 437 (subpatch) 1;
#X obj 43 44 inlet;
#X obj 357 12 inlet;
#X obj 87 198 pp_sendstrip 0;
#X obj 80 239 pp_sendstrip 2;
#X obj 210 197 pp_sendstrip 1;
#X obj 198 337 pp_sendstrip 7;
#X obj 204 238 pp_sendstrip 3;
#X obj 74 295 pp_sendstrip 4;
#X obj 197 294 pp_sendstrip 5;
#X obj 68 336 pp_sendstrip 6;
#X connect 0 0 2 0;
#X connect 0 0 3 0;
#X connect 0 0 4 0;
#X connect 0 0 5 0;
#X connect 0 0 6 0;
#X connect 0 0 7 0;
#X connect 0 0 8 0;
#X connect 0 0 9 0;
#X connect 1 0 2 1;
#X connect 1 0 3 1;
#X connect 1 0 4 1;
#X connect 1 0 5 1;
#X connect 1 0 6 1;
#X connect 1 0 8 1;
#X connect 1 0 7 1;
#X connect 1 0 9 1;
#X restore 222 444 pd 8 pp;
#X connect 0 0 1 0;
#X connect 1 0 3 0;
#X connect 1 0 0 1;
#X connect 2 0 0 0;
#X connect 3 0 14 0;
#X connect 3 1 8 0;
#X connect 3 2 7 0;
#X connect 3 3 17 0;
#X connect 7 0 16 0;
#X connect 8 0 15 0;
#X connect 9 0 10 0;
#X connect 10 0 11 0;
#X connect 11 0 12 0;
#X connect 12 0 13 0;
#X connect 13 0 0 0;
#X connect 14 0 6 0;
#X connect 14 0 38 0;
#X connect 15 0 5 0;
#X connect 15 0 38 1;
#X connect 16 0 4 0;
#X connect 16 0 38 2;
#X connect 17 0 18 0;
#X connect 18 0 21 0;
#X connect 19 0 20 0;
#X connect 20 0 0 1;
#X connect 21 0 38 3;
#X connect 21 1 19 0;
#X connect 22 0 28 0;
#X connect 23 0 24 0;
#X connect 24 0 23 1;
#X connect 24 0 26 1;
#X connect 25 0 27 0;
#X connect 26 0 39 1;
#X connect 27 0 26 0;
#X connect 27 1 36 0;
#X connect 27 2 23 1;
#X connect 28 0 23 0;
#X connect 29 0 34 0;
#X connect 30 0 31 0;
#X connect 31 0 29 0;
#X connect 31 1 29 1;
#X connect 32 0 33 0;
#X connect 33 0 29 0;
#X connect 33 1 29 2;
#X connect 34 0 37 0;
#X connect 34 1 28 1;
#X connect 35 0 29 0;
#X connect 36 0 22 0;
#X connect 37 0 0 0;
#X connect 37 1 27 0;
#X connect 38 0 39 0;
#X restore 209 209 pd send_packet;
#X obj 211 118 route ip;
#X obj 3 4 declare -lib zexy/zexy -path iemnet;
#X obj 211 140 list prepend set;
#X msg 211 184 192.168.1.33;
#X obj 211 162 list trim;
#X connect 0 0 2 0;
#X connect 2 0 4 0;
#X connect 4 0 6 0;
#X connect 6 0 5 0;
