#N canvas 919 113 551 417 10;
#X declare -path osc -path iemnet;
#X obj 180 109 unpackOSC;
#X obj 180 183 list length;
#X floatatom 180 205 5 0 0 0 - - -, f 5;
#X obj 59 159 gemhead;
#X obj 59 232 pix_texture;
#X obj 274 286 gemwin;
#X msg 274 188 create \, 1;
#X msg 297 216 destroy;
#X obj 59 254 rectangle 2 2;
#X obj 60 25 declare -path osc -path iemnet;
#X obj 59 210 pix_set 10 10;
#X obj 180 131 routeOSC /pp /size;
#X msg 199 160 set \$1 \$2;
#X msg 20 168 RGBA;
#X obj 192 250 print;
#X obj 374 73 udpreceive 10001;
#X obj 375 48 netreceive -u -b 10001;
#X obj 156 318 list split 1000;
#X obj 198 350 list length;
#X floatatom 198 372 5 0 0 0 - - -, f 5;
#X obj 298 354 print;
#X obj 177 86 udpreceive 10001;
#X connect 0 0 11 0;
#X connect 1 0 2 0;
#X connect 3 0 10 0;
#X connect 4 0 8 0;
#X connect 6 0 5 0;
#X connect 7 0 5 0;
#X connect 10 0 4 0;
#X connect 11 0 1 0;
#X connect 11 0 10 1;
#X connect 11 0 17 0;
#X connect 11 1 12 0;
#X connect 11 1 14 0;
#X connect 12 0 10 0;
#X connect 13 0 10 0;
#X connect 17 1 18 0;
#X connect 18 0 19 0;
#X connect 21 0 0 0;
