#N canvas 1194 636 450 364 10;
#X declare -path osc -path iemnet;
#X obj 216 127 packOSC;
#X obj 123 15 declare -path osc -path iemnet;
#X obj 216 250 udpsend;
#X obj 216 149 list prepend send;
#X obj 216 171 list trim;
#X msg 237 206 connect 127.0.0.1 10001;
#X obj 52 42 pix_video;
#X obj 52 21 gemhead;
#X obj 52 126 pix_dump;
#X obj 52 148 pix_texture;
#X obj 52 170 rectangle 4 4;
#X obj 349 272 gemwin;
#X msg 348 247 create \, 1;
#X obj 216 73 list prepend sendtyped /pp b;
#X obj 216 95 list trim;
#X obj 32 107 bng 15 250 50 0 empty empty empty 17 7 0 10 -262144 -1
-1;
#X obj 293 102 list length;
#X floatatom 293 124 5 0 0 0 - - -, f 5;
#X obj 216 272 tgl 15 0 empty empty empty 17 7 0 10 -262144 -1 -1 1
1;
#X msg 248 226 disconnect;
#X obj 139 141 loadbang;
#X msg 139 164 normalize 0;
#X obj 52 86 t b a;
#X obj 52 191 pix_info, f 19;
#X obj 75 281 pack;
#X obj 98 253 t b f;
#X obj 64 220 change -1;
#X obj 126 220 change -1;
#X msg 75 303 send /size \$1 \$2;
#X obj 53 327 print;
#X obj 52 63 pix_resize 40 84;
#X connect 0 0 3 0;
#X connect 2 0 18 0;
#X connect 3 0 4 0;
#X connect 4 0 2 0;
#X connect 5 0 2 0;
#X connect 6 0 30 0;
#X connect 7 0 6 0;
#X connect 8 0 9 0;
#X connect 8 1 13 0;
#X connect 9 0 10 0;
#X connect 10 0 23 0;
#X connect 12 0 11 0;
#X connect 13 0 14 0;
#X connect 13 0 16 0;
#X connect 14 0 0 0;
#X connect 15 0 8 0;
#X connect 16 0 17 0;
#X connect 19 0 2 0;
#X connect 20 0 21 0;
#X connect 21 0 8 0;
#X connect 22 0 8 0;
#X connect 22 1 8 0;
#X connect 23 1 26 0;
#X connect 23 2 27 0;
#X connect 24 0 28 0;
#X connect 24 0 29 0;
#X connect 25 0 24 0;
#X connect 25 1 24 1;
#X connect 26 0 24 0;
#X connect 27 0 25 0;
#X connect 28 0 0 0;
#X connect 30 0 22 0;
