#N canvas 1 85 450 300 10;
#X obj 197 205 s compteur-blink;
#X obj 197 182 tgl 15 0 empty empty empty 17 7 0 10 -262144 -1 -1 1
1;
#X obj 197 30 r /compteur/blink;
#X obj 197 62 metro 1000;
#X obj 261 93 delay 200;
#X msg 261 123 1;
#X msg 197 120 0;
#X connect 1 0 0 0;
#X connect 2 0 3 0;
#X connect 3 0 6 0;
#X connect 3 0 4 0;
#X connect 4 0 5 0;
#X connect 5 0 1 0;
#X connect 6 0 1 0;
