#N canvas 786 132 946 651 10;
#N canvas 62 230 733 762 data 0;
#X obj 21 52 metro 100;
#X obj 21 32 loadbang;
#X obj 48 158 f;
#X obj 48 183 + 1;
#X obj 70 210 % 100;
#X obj 21 135 t f b;
#X obj 85 32 tgl 15 0 empty empty empty 17 7 0 10 -262144 -1 -1 0 1
;
#X obj 21 72 random 1001;
#X obj 41 252 iir 2;
#X obj 21 208 iir 20;
#X obj 21 93 - 500;
#X obj 20 113 / 400;
#X obj 21 232 tabwrite \$0-array1;
#X obj 42 272 tabwrite \$0-array2;
#X obj 172 35 loadbang;
#X obj 199 161 f;
#X obj 199 186 + 1;
#X obj 280 209 % 100;
#X obj 172 138 t f b;
#X obj 236 35 tgl 15 0 empty empty empty 17 7 0 10 -262144 -1 -1 0
1;
#X obj 172 75 random 1001;
#X obj 172 96 - 500;
#X obj 172 55 metro 55;
#X obj 172 235 tabwrite \$0-array3;
#X obj 193 275 tabwrite \$0-array4;
#X obj 171 116 / 600;
#X obj 172 211 median_3;
#X obj 192 255 iir 7;
#X obj 360 34 loadbang;
#X obj 387 160 f;
#X obj 387 185 + 1;
#X obj 360 137 t f b;
#X obj 424 34 tgl 15 0 empty empty empty 17 7 0 10 -262144 -1 -1 1
1;
#X obj 360 74 random 1001;
#X obj 360 95 - 500;
#X obj 34 353 metro 100;
#X obj 34 333 loadbang;
#X obj 61 459 f;
#X obj 61 484 + 1;
#X obj 83 511 % 100;
#X obj 34 436 t f b;
#X obj 98 333 tgl 15 0 empty empty empty 17 7 0 10 -262144 -1 -1 1
1;
#X obj 34 373 random 1001;
#X obj 34 394 - 500;
#X obj 33 414 / 400;
#X obj 341 365 loadbang;
#X obj 368 491 f;
#X obj 368 516 + 1;
#X obj 449 539 % 100;
#X obj 405 365 tgl 15 0 empty empty empty 17 7 0 10 -262144 -1 -1 1
1;
#X obj 341 385 metro 55;
#X obj 529 364 loadbang;
#X obj 556 490 f;
#X obj 556 515 + 1;
#X obj 637 588 % 100;
#X obj 529 467 t f b;
#X obj 593 364 tgl 15 0 empty empty empty 17 7 0 10 -262144 -1 -1 1
1;
#X obj 529 404 random 1001;
#X obj 529 425 - 500;
#X obj 549 634 iir 7;
#X obj 36 541 tabwrite \$0-array8;
#X obj 341 565 tabwrite \$0-array9;
#X obj 530 615 tabwrite \$0-array11;
#X obj 550 654 tabwrite \$0-array12;
#X obj 360 210 iir 5;
#X obj 513 39 loadbang;
#X obj 540 165 f;
#X obj 540 190 + 1;
#X obj 513 142 t f b;
#X obj 577 39 tgl 15 0 empty empty empty 17 7 0 10 -262144 -1 -1 1
1;
#X obj 513 79 random 1001;
#X obj 513 100 - 500;
#X obj 514 259 tabwrite \$0-array6;
#X obj 513 215 iir 5;
#X obj 361 254 tabwrite \$0-array5;
#X obj 360 54 metro 60;
#X obj 513 59 metro 66;
#X obj 512 120 / 300;
#X obj 359 115 / 300;
#X obj 514 240 clip -1 1;
#X obj 361 235 clip -1 1;
#X obj 33 520 iir 5;
#X obj 205 458 f;
#X obj 205 483 + 1;
#X obj 227 510 % 100;
#X obj 178 435 t f b;
#X obj 178 372 random 1001;
#X obj 178 393 - 500;
#X obj 177 413 / 400;
#X obj 180 532 tabwrite \$0-array7;
#X obj 178 507 iir 2;
#X obj 364 605 tabwrite \$0-array10;
#X obj 343 543 clip -1 1;
#X obj 341 433 t f b;
#X obj 339 410 rnd_flow 0.2 50 50;
#X obj 395 456 rnd_flow 0.4 50 50;
#X obj 361 585 clip -1 1;
#X obj 529 540 iir 7;
#X obj 529 560 iir 7;
#X obj 529 580 iir 7;
#X obj 529 383 metro 78;
#X obj 528 445 / 300;
#X obj 466 233 % 20;
#X obj 619 238 % 20;
#X connect 0 0 7 0;
#X connect 1 0 0 0;
#X connect 2 0 3 0;
#X connect 3 0 4 0;
#X connect 4 0 2 1;
#X connect 4 0 12 1;
#X connect 4 0 13 1;
#X connect 5 0 8 0;
#X connect 5 0 9 0;
#X connect 5 1 2 0;
#X connect 6 0 0 0;
#X connect 7 0 10 0;
#X connect 8 0 13 0;
#X connect 9 0 12 0;
#X connect 10 0 11 0;
#X connect 11 0 5 0;
#X connect 14 0 22 0;
#X connect 15 0 16 0;
#X connect 16 0 17 0;
#X connect 17 0 15 1;
#X connect 17 0 23 1;
#X connect 17 0 24 1;
#X connect 18 0 26 0;
#X connect 18 0 27 0;
#X connect 18 1 15 0;
#X connect 19 0 22 0;
#X connect 20 0 21 0;
#X connect 21 0 25 0;
#X connect 22 0 20 0;
#X connect 25 0 18 0;
#X connect 26 0 23 0;
#X connect 27 0 24 0;
#X connect 28 0 75 0;
#X connect 29 0 30 0;
#X connect 30 0 102 0;
#X connect 31 0 64 0;
#X connect 31 1 29 0;
#X connect 32 0 75 0;
#X connect 33 0 34 0;
#X connect 34 0 78 0;
#X connect 35 0 42 0;
#X connect 35 0 86 0;
#X connect 36 0 35 0;
#X connect 37 0 38 0;
#X connect 38 0 39 0;
#X connect 39 0 37 1;
#X connect 39 0 60 1;
#X connect 40 0 81 0;
#X connect 40 1 37 0;
#X connect 41 0 35 0;
#X connect 42 0 43 0;
#X connect 43 0 44 0;
#X connect 44 0 40 0;
#X connect 45 0 50 0;
#X connect 46 0 47 0;
#X connect 47 0 48 0;
#X connect 48 0 46 1;
#X connect 48 0 61 1;
#X connect 48 0 91 1;
#X connect 49 0 50 0;
#X connect 50 0 94 0;
#X connect 50 0 95 0;
#X connect 51 0 100 0;
#X connect 52 0 53 0;
#X connect 53 0 54 0;
#X connect 54 0 52 1;
#X connect 54 0 62 1;
#X connect 54 0 63 1;
#X connect 55 0 59 0;
#X connect 55 0 97 0;
#X connect 55 1 52 0;
#X connect 56 0 100 0;
#X connect 57 0 58 0;
#X connect 58 0 101 0;
#X connect 59 0 63 0;
#X connect 64 0 80 0;
#X connect 65 0 76 0;
#X connect 66 0 67 0;
#X connect 67 0 103 0;
#X connect 68 0 73 0;
#X connect 68 1 66 0;
#X connect 69 0 76 0;
#X connect 70 0 71 0;
#X connect 71 0 77 0;
#X connect 73 0 79 0;
#X connect 75 0 33 0;
#X connect 76 0 70 0;
#X connect 77 0 68 0;
#X connect 78 0 31 0;
#X connect 79 0 72 0;
#X connect 80 0 74 0;
#X connect 81 0 60 0;
#X connect 82 0 83 0;
#X connect 83 0 84 0;
#X connect 84 0 82 1;
#X connect 84 0 89 1;
#X connect 85 0 90 0;
#X connect 85 1 82 0;
#X connect 86 0 87 0;
#X connect 87 0 88 0;
#X connect 88 0 85 0;
#X connect 90 0 89 0;
#X connect 92 0 61 0;
#X connect 93 0 92 0;
#X connect 93 1 46 0;
#X connect 94 0 93 0;
#X connect 95 0 96 0;
#X connect 96 0 91 0;
#X connect 97 0 98 0;
#X connect 98 0 99 0;
#X connect 99 0 62 0;
#X connect 100 0 57 0;
#X connect 101 0 55 0;
#X connect 102 0 29 1;
#X connect 102 0 74 1;
#X connect 103 0 66 1;
#X connect 103 0 72 1;
#X restore 14 21 pd data;
#N canvas 1 85 450 250 (subpatch) 0;
#X array \$0-array2 100 float 2;
#X coords 0 1 100 -1 300 300 1 0 0;
#X restore 14 21 graph;
#N canvas 0 50 450 250 (subpatch) 0;
#X array \$0-array1 100 float 0;
#X coords 0 1 99 -1 300 300 2 0 0;
#X restore 14 21 graph;
#N canvas 0 50 450 250 (subpatch) 0;
#X array \$0-array3 100 float 0;
#X coords 0 1 99 -1 300 300 1 0 0;
#X restore 323 21 graph;
#N canvas 1 85 450 250 (subpatch) 0;
#X array \$0-array4 100 float 0;
#X coords 0 1 99 -1 300 300 1 0 0;
#X restore 323 21 graph;
#N canvas 0 50 450 250 (subpatch) 0;
#X array \$0-array5 20 float 0;
#X coords 0 1 19 -1 300 300 1 0 0;
#X restore 629 22 graph;
#N canvas 1 85 450 250 (subpatch) 0;
#X array \$0-array6 20 float 0;
#X coords 0 1 19 -1 300 300 1 0 0;
#X restore 629 22 graph;
#N canvas 1 85 450 250 (subpatch) 0;
#X array \$0-array7 100 float 2;
#X coords 0 1 100 -1 300 300 1 0 0;
#X restore 13 335 graph;
#N canvas 0 50 450 250 (subpatch) 0;
#X array \$0-array8 100 float 0;
#X coords 0 1 99 -1 300 300 2 0 0;
#X restore 13 335 graph;
#N canvas 0 50 450 250 (subpatch) 0;
#X array \$0-array9 100 float 0;
#X coords 0 1 99 -1 300 300 1 0 0;
#X restore 322 335 graph;
#N canvas 1 85 450 250 (subpatch) 0;
#X array \$0-array10 100 float 4;
#X coords 0 1 99 -1 300 300 1 0 0;
#X restore 322 335 graph;
#N canvas 0 50 450 250 (subpatch) 0;
#X array \$0-array11 100 float 0;
#X coords 0 1 99 -1 300 300 1 0 0;
#X restore 628 336 graph;
#N canvas 1 85 450 250 (subpatch) 0;
#X array \$0-array12 100 float 2;
#X coords 0 1 100 -1 300 300 1 0 0;
#X restore 628 336 graph;
