#N canvas 9 85 962 630 10;
#N canvas 83 709 450 300 data 0;
#X obj 21 52 metro 100;
#X obj 21 32 loadbang;
#X obj 23 175 t f b;
#X obj 85 32 tgl 15 0 empty empty empty 17 7 0 10 -262144 -1 -1 1 1
;
#X obj 21 72 random 1001;
#X obj 37 281 iir 2;
#X obj 44 215 iir 20;
#X obj 20 113 / 400;
#X obj 38 301 s graph2;
#X obj 43 241 s graph1;
#X obj 21 145 * 63.5;
#X connect 0 0 4 0;
#X connect 1 0 0 0;
#X connect 2 0 5 0;
#X connect 2 0 6 0;
#X connect 3 0 0 0;
#X connect 4 0 7 0;
#X connect 5 0 8 0;
#X connect 6 0 9 0;
#X connect 7 0 10 0;
#X connect 10 0 2 0;
#X restore 12 30 pd data;
#N canvas 510 211 1169 608 graph1 0;
#X obj 101 103 vsl 15 300 0 127 0 0 empty empty empty 0 -9 0 10 -1
-262144 -1 21150 1;
#X obj 117 103 vsl 15 300 0 127 0 0 empty empty empty 0 -9 0 10 -1
-262144 -1 20786 1;
#X obj 99 414 t f b;
#X obj 124 435 f;
#X obj 121 466 t f b;
#X obj 146 487 f;
#X obj 133 103 vsl 15 300 0 127 0 0 empty empty empty 0 -9 0 10 -1
-262144 -1 20833 1;
#X obj 149 103 vsl 15 300 0 127 0 0 empty empty empty 0 -9 0 10 -1
-262144 -1 21424 1;
#X obj 136 513 t f b;
#X obj 161 534 f;
#X obj 158 565 t f b;
#X obj 183 586 f;
#X obj 165 103 vsl 15 300 0 127 0 0 empty empty empty 0 -9 0 10 -1
-262144 -1 20834 1;
#X obj 181 103 vsl 15 300 0 127 0 0 empty empty empty 0 -9 0 10 -1
-262144 -1 20263 1;
#X obj 163 414 t f b;
#X obj 188 435 f;
#X obj 185 466 t f b;
#X obj 210 487 f;
#X obj 197 103 vsl 15 300 0 127 0 0 empty empty empty 0 -9 0 10 -1
-262144 -1 20661 1;
#X obj 213 103 vsl 15 300 0 127 0 0 empty empty empty 0 -9 0 10 -1
-262144 -1 21653 1;
#X obj 200 513 t f b;
#X obj 225 534 f;
#X obj 222 565 t f b;
#X obj 247 586 f;
#X obj 229 103 vsl 15 300 0 127 0 0 empty empty empty 0 -9 0 10 -1
-262144 -1 21996 1;
#X obj 245 103 vsl 15 300 0 127 0 0 empty empty empty 0 -9 0 10 -1
-262144 -1 21841 1;
#X obj 227 414 t f b;
#X obj 252 435 f;
#X obj 249 466 t f b;
#X obj 274 487 f;
#X obj 261 103 vsl 15 300 0 127 0 0 empty empty empty 0 -9 0 10 -1
-262144 -1 21274 1;
#X obj 277 103 vsl 15 300 0 127 0 0 empty empty empty 0 -9 0 10 -1
-262144 -1 21185 1;
#X obj 264 513 t f b;
#X obj 289 534 f;
#X obj 286 565 t f b;
#X obj 311 586 f;
#X obj 293 103 vsl 15 300 0 127 0 0 empty empty empty 0 -9 0 10 -1
-262144 -1 21224 1;
#X obj 309 103 vsl 15 300 0 127 0 0 empty empty empty 0 -9 0 10 -1
-262144 -1 20908 1;
#X obj 291 414 t f b;
#X obj 316 435 f;
#X obj 313 466 t f b;
#X obj 338 487 f;
#X obj 325 103 vsl 15 300 0 127 0 0 empty empty empty 0 -9 0 10 -1
-262144 -1 20279 1;
#X obj 341 103 vsl 15 300 0 127 0 0 empty empty empty 0 -9 0 10 -1
-262144 -1 20235 1;
#X obj 328 513 t f b;
#X obj 353 534 f;
#X obj 350 565 t f b;
#X obj 375 586 f;
#X obj 357 103 vsl 15 300 0 127 0 0 empty empty empty 0 -9 0 10 -1
-262144 -1 19899 1;
#X obj 373 103 vsl 15 300 0 127 0 0 empty empty empty 0 -9 0 10 -1
-262144 -1 19429 1;
#X obj 355 414 t f b;
#X obj 380 435 f;
#X obj 377 466 t f b;
#X obj 402 487 f;
#X obj 389 103 vsl 15 300 0 127 0 0 empty empty empty 0 -9 0 10 -1
-262144 -1 19124 1;
#X obj 405 103 vsl 15 300 0 127 0 0 empty empty empty 0 -9 0 10 -1
-262144 -1 19910 1;
#X obj 392 513 t f b;
#X obj 417 534 f;
#X obj 414 565 t f b;
#X obj 439 586 f;
#X obj 421 103 vsl 15 300 0 127 0 0 empty empty empty 0 -9 0 10 -1
-262144 -1 19820 1;
#X obj 437 103 vsl 15 300 0 127 0 0 empty empty empty 0 -9 0 10 -1
-262144 -1 18985 1;
#X obj 419 414 t f b;
#X obj 444 435 f;
#X obj 441 466 t f b;
#X obj 466 487 f;
#X obj 453 103 vsl 15 300 0 127 0 0 empty empty empty 0 -9 0 10 -1
-262144 -1 18539 1;
#X obj 469 103 vsl 15 300 0 127 0 0 empty empty empty 0 -9 0 10 -1
-262144 -1 17845 1;
#X obj 456 513 t f b;
#X obj 481 534 f;
#X obj 478 565 t f b;
#X obj 503 586 f;
#X obj 485 103 vsl 15 300 0 127 0 0 empty empty empty 0 -9 0 10 -1
-262144 -1 18577 1;
#X obj 501 103 vsl 15 300 0 127 0 0 empty empty empty 0 -9 0 10 -1
-262144 -1 19164 1;
#X obj 483 414 t f b;
#X obj 508 435 f;
#X obj 505 466 t f b;
#X obj 530 487 f;
#X obj 517 103 vsl 15 300 0 127 0 0 empty empty empty 0 -9 0 10 -1
-262144 -1 19636 1;
#X obj 533 103 vsl 15 300 0 127 0 0 empty empty empty 0 -9 0 10 -1
-262144 -1 19169 1;
#X obj 520 513 t f b;
#X obj 545 534 f;
#X obj 542 565 t f b;
#X obj 567 586 f;
#X obj 549 103 vsl 15 300 0 127 0 0 empty empty empty 0 -9 0 10 -1
-262144 -1 19186 1;
#X obj 565 103 vsl 15 300 0 127 0 0 empty empty empty 0 -9 0 10 -1
-262144 -1 19688 1;
#X obj 547 414 t f b;
#X obj 572 435 f;
#X obj 569 466 t f b;
#X obj 594 487 f;
#X obj 581 103 vsl 15 300 0 127 0 0 empty empty empty 0 -9 0 10 -1
-262144 -1 19571 1;
#X obj 597 103 vsl 15 300 0 127 0 0 empty empty empty 0 -9 0 10 -1
-262144 -1 19283 1;
#X obj 584 513 t f b;
#X obj 609 534 f;
#X obj 606 565 t f b;
#X obj 631 586 f;
#X obj 613 103 vsl 15 300 0 127 0 0 empty empty empty 0 -9 0 10 -1
-262144 -1 19449 1;
#X obj 629 103 vsl 15 300 0 127 0 0 empty empty empty 0 -9 0 10 -1
-262144 -1 19975 1;
#X obj 611 414 t f b;
#X obj 636 435 f;
#X obj 633 466 t f b;
#X obj 658 487 f;
#X obj 645 103 vsl 15 300 0 127 0 0 empty empty empty 0 -9 0 10 -1
-262144 -1 19460 1;
#X obj 661 103 vsl 15 300 0 127 0 0 empty empty empty 0 -9 0 10 -1
-262144 -1 20089 1;
#X obj 648 513 t f b;
#X obj 673 534 f;
#X obj 670 565 t f b;
#X obj 695 586 f;
#X obj 677 103 vsl 15 300 0 127 0 0 empty empty empty 0 -9 0 10 -1
-262144 -1 19610 1;
#X obj 693 103 vsl 15 300 0 127 0 0 empty empty empty 0 -9 0 10 -1
-262144 -1 19198 1;
#X obj 675 414 t f b;
#X obj 700 435 f;
#X obj 697 466 t f b;
#X obj 722 487 f;
#X obj 709 103 vsl 15 300 0 127 0 0 empty empty empty 0 -9 0 10 -1
-262144 -1 19741 1;
#X obj 725 103 vsl 15 300 0 127 0 0 empty empty empty 0 -9 0 10 -1
-262144 -1 19958 1;
#X obj 712 513 t f b;
#X obj 737 534 f;
#X obj 734 565 t f b;
#X obj 759 586 f;
#X obj 741 103 vsl 15 300 0 127 0 0 empty empty empty 0 -9 0 10 -1
-262144 -1 19278 1;
#X obj 757 103 vsl 15 300 0 127 0 0 empty empty empty 0 -9 0 10 -1
-262144 -1 20040 1;
#X obj 739 414 t f b;
#X obj 764 435 f;
#X obj 761 466 t f b;
#X obj 786 487 f;
#X obj 773 103 vsl 15 300 0 127 0 0 empty empty empty 0 -9 0 10 -1
-262144 -1 19412 1;
#X obj 789 103 vsl 15 300 0 127 0 0 empty empty empty 0 -9 0 10 -1
-262144 -1 18976 1;
#X obj 776 513 t f b;
#X obj 801 534 f;
#X obj 798 565 t f b;
#X obj 823 586 f;
#X obj 805 103 vsl 15 300 0 127 0 0 empty empty empty 0 -9 0 10 -1
-262144 -1 19168 1;
#X obj 821 103 vsl 15 300 0 127 0 0 empty empty empty 0 -9 0 10 -1
-262144 -1 18799 1;
#X obj 803 414 t f b;
#X obj 828 435 f;
#X obj 825 466 t f b;
#X obj 850 487 f;
#X obj 837 103 vsl 15 300 0 127 0 0 empty empty empty 0 -9 0 10 -1
-262144 -1 19646 1;
#X obj 853 103 vsl 15 300 0 127 0 0 empty empty empty 0 -9 0 10 -1
-262144 -1 19430 1;
#X obj 840 513 t f b;
#X obj 865 534 f;
#X obj 862 565 t f b;
#X obj 887 586 f;
#X obj 869 103 vsl 15 300 0 127 0 0 empty empty empty 0 -9 0 10 -1
-262144 -1 19703 1;
#X obj 885 103 vsl 15 300 0 127 0 0 empty empty empty 0 -9 0 10 -1
-262144 -1 20260 1;
#X obj 867 414 t f b;
#X obj 892 435 f;
#X obj 889 466 t f b;
#X obj 914 487 f;
#X obj 901 103 vsl 15 300 0 127 0 0 empty empty empty 0 -9 0 10 -1
-262144 -1 19722 1;
#X obj 917 103 vsl 15 300 0 127 0 0 empty empty empty 0 -9 0 10 -1
-262144 -1 20116 1;
#X obj 904 513 t f b;
#X obj 929 534 f;
#X obj 926 565 t f b;
#X obj 951 586 f;
#X obj 933 103 vsl 15 300 0 127 0 0 empty empty empty 0 -9 0 10 -1
-262144 -1 20628 1;
#X obj 949 103 vsl 15 300 0 127 0 0 empty empty empty 0 -9 0 10 -1
-262144 -1 19955 1;
#X obj 931 414 t f b;
#X obj 956 435 f;
#X obj 953 466 t f b;
#X obj 978 487 f;
#X obj 965 103 vsl 15 300 0 127 0 0 empty empty empty 0 -9 0 10 -1
-262144 -1 19894 1;
#X obj 981 103 vsl 15 300 0 127 0 0 empty empty empty 0 -9 0 10 -1
-262144 -1 19774 1;
#X obj 968 513 t f b;
#X obj 993 534 f;
#X obj 990 565 t f b;
#X obj 1015 586 f;
#X obj 997 103 vsl 15 300 0 127 0 0 empty empty empty 0 -9 0 10 -1
-262144 -1 18973 1;
#X obj 1013 103 vsl 15 300 0 127 0 0 empty empty empty 0 -9 0 10 -1
-262144 -1 18370 1;
#X obj 995 414 t f b;
#X obj 1020 435 f;
#X obj 1017 466 t f b;
#X obj 1042 487 f;
#X obj 1029 103 vsl 15 300 0 127 0 0 empty empty empty 0 -9 0 10 -1
-262144 -1 18504 1;
#X obj 1032 513 t f b;
#X obj 1057 534 f;
#X obj 101 71 r graph1;
#X connect 0 0 2 0;
#X connect 1 0 4 0;
#X connect 2 0 3 1;
#X connect 2 1 3 0;
#X connect 3 0 1 0;
#X connect 4 0 5 1;
#X connect 4 1 5 0;
#X connect 5 0 6 0;
#X connect 6 0 8 0;
#X connect 7 0 10 0;
#X connect 8 0 9 1;
#X connect 8 1 9 0;
#X connect 9 0 7 0;
#X connect 10 0 11 1;
#X connect 10 1 11 0;
#X connect 11 0 12 0;
#X connect 12 0 14 0;
#X connect 13 0 16 0;
#X connect 14 0 15 1;
#X connect 14 1 15 0;
#X connect 15 0 13 0;
#X connect 16 0 17 1;
#X connect 16 1 17 0;
#X connect 17 0 18 0;
#X connect 18 0 20 0;
#X connect 19 0 22 0;
#X connect 20 0 21 1;
#X connect 20 1 21 0;
#X connect 21 0 19 0;
#X connect 22 0 23 1;
#X connect 22 1 23 0;
#X connect 23 0 24 0;
#X connect 24 0 26 0;
#X connect 25 0 28 0;
#X connect 26 0 27 1;
#X connect 26 1 27 0;
#X connect 27 0 25 0;
#X connect 28 0 29 1;
#X connect 28 1 29 0;
#X connect 29 0 30 0;
#X connect 30 0 32 0;
#X connect 31 0 34 0;
#X connect 32 0 33 1;
#X connect 32 1 33 0;
#X connect 33 0 31 0;
#X connect 34 0 35 1;
#X connect 34 1 35 0;
#X connect 35 0 36 0;
#X connect 36 0 38 0;
#X connect 37 0 40 0;
#X connect 38 0 39 1;
#X connect 38 1 39 0;
#X connect 39 0 37 0;
#X connect 40 0 41 1;
#X connect 40 1 41 0;
#X connect 41 0 42 0;
#X connect 42 0 44 0;
#X connect 43 0 46 0;
#X connect 44 0 45 1;
#X connect 44 1 45 0;
#X connect 45 0 43 0;
#X connect 46 0 47 1;
#X connect 46 1 47 0;
#X connect 47 0 48 0;
#X connect 48 0 50 0;
#X connect 49 0 52 0;
#X connect 50 0 51 1;
#X connect 50 1 51 0;
#X connect 51 0 49 0;
#X connect 52 0 53 1;
#X connect 52 1 53 0;
#X connect 53 0 54 0;
#X connect 54 0 56 0;
#X connect 55 0 58 0;
#X connect 56 0 57 1;
#X connect 56 1 57 0;
#X connect 57 0 55 0;
#X connect 58 0 59 1;
#X connect 58 1 59 0;
#X connect 59 0 60 0;
#X connect 60 0 62 0;
#X connect 61 0 64 0;
#X connect 62 0 63 1;
#X connect 62 1 63 0;
#X connect 63 0 61 0;
#X connect 64 0 65 1;
#X connect 64 1 65 0;
#X connect 65 0 66 0;
#X connect 66 0 68 0;
#X connect 67 0 70 0;
#X connect 68 0 69 1;
#X connect 68 1 69 0;
#X connect 69 0 67 0;
#X connect 70 0 71 1;
#X connect 70 1 71 0;
#X connect 71 0 72 0;
#X connect 72 0 74 0;
#X connect 73 0 76 0;
#X connect 74 0 75 1;
#X connect 74 1 75 0;
#X connect 75 0 73 0;
#X connect 76 0 77 1;
#X connect 76 1 77 0;
#X connect 77 0 78 0;
#X connect 78 0 80 0;
#X connect 79 0 82 0;
#X connect 80 0 81 1;
#X connect 80 1 81 0;
#X connect 81 0 79 0;
#X connect 82 0 83 1;
#X connect 82 1 83 0;
#X connect 83 0 84 0;
#X connect 84 0 86 0;
#X connect 85 0 88 0;
#X connect 86 0 87 1;
#X connect 86 1 87 0;
#X connect 87 0 85 0;
#X connect 88 0 89 1;
#X connect 88 1 89 0;
#X connect 89 0 90 0;
#X connect 90 0 92 0;
#X connect 91 0 94 0;
#X connect 92 0 93 1;
#X connect 92 1 93 0;
#X connect 93 0 91 0;
#X connect 94 0 95 1;
#X connect 94 1 95 0;
#X connect 95 0 96 0;
#X connect 96 0 98 0;
#X connect 97 0 100 0;
#X connect 98 0 99 1;
#X connect 98 1 99 0;
#X connect 99 0 97 0;
#X connect 100 0 101 1;
#X connect 100 1 101 0;
#X connect 101 0 102 0;
#X connect 102 0 104 0;
#X connect 103 0 106 0;
#X connect 104 0 105 1;
#X connect 104 1 105 0;
#X connect 105 0 103 0;
#X connect 106 0 107 1;
#X connect 106 1 107 0;
#X connect 107 0 108 0;
#X connect 108 0 110 0;
#X connect 109 0 112 0;
#X connect 110 0 111 1;
#X connect 110 1 111 0;
#X connect 111 0 109 0;
#X connect 112 0 113 1;
#X connect 112 1 113 0;
#X connect 113 0 114 0;
#X connect 114 0 116 0;
#X connect 115 0 118 0;
#X connect 116 0 117 1;
#X connect 116 1 117 0;
#X connect 117 0 115 0;
#X connect 118 0 119 1;
#X connect 118 1 119 0;
#X connect 119 0 120 0;
#X connect 120 0 122 0;
#X connect 121 0 124 0;
#X connect 122 0 123 1;
#X connect 122 1 123 0;
#X connect 123 0 121 0;
#X connect 124 0 125 1;
#X connect 124 1 125 0;
#X connect 125 0 126 0;
#X connect 126 0 128 0;
#X connect 127 0 130 0;
#X connect 128 0 129 1;
#X connect 128 1 129 0;
#X connect 129 0 127 0;
#X connect 130 0 131 1;
#X connect 130 1 131 0;
#X connect 131 0 132 0;
#X connect 132 0 134 0;
#X connect 133 0 136 0;
#X connect 134 0 135 1;
#X connect 134 1 135 0;
#X connect 135 0 133 0;
#X connect 136 0 137 1;
#X connect 136 1 137 0;
#X connect 137 0 138 0;
#X connect 138 0 140 0;
#X connect 139 0 142 0;
#X connect 140 0 141 1;
#X connect 140 1 141 0;
#X connect 141 0 139 0;
#X connect 142 0 143 1;
#X connect 142 1 143 0;
#X connect 143 0 144 0;
#X connect 144 0 146 0;
#X connect 145 0 148 0;
#X connect 146 0 147 1;
#X connect 146 1 147 0;
#X connect 147 0 145 0;
#X connect 148 0 149 1;
#X connect 148 1 149 0;
#X connect 149 0 150 0;
#X connect 150 0 152 0;
#X connect 151 0 154 0;
#X connect 152 0 153 1;
#X connect 152 1 153 0;
#X connect 153 0 151 0;
#X connect 154 0 155 1;
#X connect 154 1 155 0;
#X connect 155 0 156 0;
#X connect 156 0 158 0;
#X connect 157 0 160 0;
#X connect 158 0 159 1;
#X connect 158 1 159 0;
#X connect 159 0 157 0;
#X connect 160 0 161 1;
#X connect 160 1 161 0;
#X connect 161 0 162 0;
#X connect 162 0 164 0;
#X connect 163 0 166 0;
#X connect 164 0 165 1;
#X connect 164 1 165 0;
#X connect 165 0 163 0;
#X connect 166 0 167 1;
#X connect 166 1 167 0;
#X connect 167 0 168 0;
#X connect 168 0 170 0;
#X connect 169 0 172 0;
#X connect 170 0 171 1;
#X connect 170 1 171 0;
#X connect 171 0 169 0;
#X connect 172 0 173 1;
#X connect 172 1 173 0;
#X connect 173 0 174 0;
#X connect 174 0 175 0;
#X connect 175 0 176 1;
#X connect 175 1 176 0;
#X connect 177 0 0 0;
#X coords 0 -1 1 1 945 306 1 100 100;
#X restore 12 12 pd graph1;
#N canvas 418 181 1169 608 graph1 0;
#X obj 101 103 vsl 15 300 0 127 0 0 empty empty empty 0 -9 0 10 -1
-262144 -1 22518 1;
#X obj 117 103 vsl 15 300 0 127 0 0 empty empty empty 0 -9 0 10 -1
-262144 -1 19555 1;
#X obj 99 414 t f b;
#X obj 124 435 f;
#X obj 121 466 t f b;
#X obj 146 487 f;
#X obj 133 103 vsl 15 300 0 127 0 0 empty empty empty 0 -9 0 10 -1
-262144 -1 19410 1;
#X obj 149 103 vsl 15 300 0 127 0 0 empty empty empty 0 -9 0 10 -1
-262144 -1 24611 1;
#X obj 136 513 t f b;
#X obj 161 534 f;
#X obj 158 565 t f b;
#X obj 183 586 f;
#X obj 165 103 vsl 15 300 0 127 0 0 empty empty empty 0 -9 0 10 -1
-262144 -1 20303 1;
#X obj 181 103 vsl 15 300 0 127 0 0 empty empty empty 0 -9 0 10 -1
-262144 -1 14327 1;
#X obj 163 414 t f b;
#X obj 188 435 f;
#X obj 185 466 t f b;
#X obj 210 487 f;
#X obj 197 103 vsl 15 300 0 127 0 0 empty empty empty 0 -9 0 10 -1
-262144 -1 15342 1;
#X obj 213 103 vsl 15 300 0 127 0 0 empty empty empty 0 -9 0 10 -1
-262144 -1 22602 1;
#X obj 200 513 t f b;
#X obj 225 534 f;
#X obj 222 565 t f b;
#X obj 247 586 f;
#X obj 229 103 vsl 15 300 0 127 0 0 empty empty empty 0 -9 0 10 -1
-262144 -1 26503 1;
#X obj 245 103 vsl 15 300 0 127 0 0 empty empty empty 0 -9 0 10 -1
-262144 -1 27215 1;
#X obj 227 414 t f b;
#X obj 252 435 f;
#X obj 249 466 t f b;
#X obj 274 487 f;
#X obj 261 103 vsl 15 300 0 127 0 0 empty empty empty 0 -9 0 10 -1
-262144 -1 24229 1;
#X obj 277 103 vsl 15 300 0 127 0 0 empty empty empty 0 -9 0 10 -1
-262144 -1 24813 1;
#X obj 264 513 t f b;
#X obj 289 534 f;
#X obj 286 565 t f b;
#X obj 311 586 f;
#X obj 293 103 vsl 15 300 0 127 0 0 empty empty empty 0 -9 0 10 -1
-262144 -1 27016 1;
#X obj 309 103 vsl 15 300 0 127 0 0 empty empty empty 0 -9 0 10 -1
-262144 -1 26751 1;
#X obj 291 414 t f b;
#X obj 316 435 f;
#X obj 313 466 t f b;
#X obj 338 487 f;
#X obj 325 103 vsl 15 300 0 127 0 0 empty empty empty 0 -9 0 10 -1
-262144 -1 23383 1;
#X obj 341 103 vsl 15 300 0 127 0 0 empty empty empty 0 -9 0 10 -1
-262144 -1 24497 1;
#X obj 328 513 t f b;
#X obj 353 534 f;
#X obj 350 565 t f b;
#X obj 375 586 f;
#X obj 357 103 vsl 15 300 0 127 0 0 empty empty empty 0 -9 0 10 -1
-262144 -1 23272 1;
#X obj 373 103 vsl 15 300 0 127 0 0 empty empty empty 0 -9 0 10 -1
-262144 -1 20257 1;
#X obj 355 414 t f b;
#X obj 380 435 f;
#X obj 377 466 t f b;
#X obj 402 487 f;
#X obj 389 103 vsl 15 300 0 127 0 0 empty empty empty 0 -9 0 10 -1
-262144 -1 17622 1;
#X obj 405 103 vsl 15 300 0 127 0 0 empty empty empty 0 -9 0 10 -1
-262144 -1 24732 1;
#X obj 392 513 t f b;
#X obj 417 534 f;
#X obj 414 565 t f b;
#X obj 439 586 f;
#X obj 421 103 vsl 15 300 0 127 0 0 empty empty empty 0 -9 0 10 -1
-262144 -1 26240 1;
#X obj 437 103 vsl 15 300 0 127 0 0 empty empty empty 0 -9 0 10 -1
-262144 -1 21103 1;
#X obj 419 414 t f b;
#X obj 444 435 f;
#X obj 441 466 t f b;
#X obj 466 487 f;
#X obj 453 103 vsl 15 300 0 127 0 0 empty empty empty 0 -9 0 10 -1
-262144 -1 17694 1;
#X obj 469 103 vsl 15 300 0 127 0 0 empty empty empty 0 -9 0 10 -1
-262144 -1 10339 1;
#X obj 456 513 t f b;
#X obj 481 534 f;
#X obj 478 565 t f b;
#X obj 503 586 f;
#X obj 485 103 vsl 15 300 0 127 0 0 empty empty empty 0 -9 0 10 -1
-262144 -1 13902 1;
#X obj 501 103 vsl 15 300 0 127 0 0 empty empty empty 0 -9 0 10 -1
-262144 -1 17433 1;
#X obj 483 414 t f b;
#X obj 508 435 f;
#X obj 505 466 t f b;
#X obj 530 487 f;
#X obj 517 103 vsl 15 300 0 127 0 0 empty empty empty 0 -9 0 10 -1
-262144 -1 21291 1;
#X obj 533 103 vsl 15 300 0 127 0 0 empty empty empty 0 -9 0 10 -1
-262144 -1 17453 1;
#X obj 520 513 t f b;
#X obj 545 534 f;
#X obj 542 565 t f b;
#X obj 567 586 f;
#X obj 549 103 vsl 15 300 0 127 0 0 empty empty empty 0 -9 0 10 -1
-262144 -1 16761 1;
#X obj 565 103 vsl 15 300 0 127 0 0 empty empty empty 0 -9 0 10 -1
-262144 -1 20564 1;
#X obj 547 414 t f b;
#X obj 572 435 f;
#X obj 569 466 t f b;
#X obj 594 487 f;
#X obj 581 103 vsl 15 300 0 127 0 0 empty empty empty 0 -9 0 10 -1
-262144 -1 19839 1;
#X obj 597 103 vsl 15 300 0 127 0 0 empty empty empty 0 -9 0 10 -1
-262144 -1 17088 1;
#X obj 584 513 t f b;
#X obj 609 534 f;
#X obj 606 565 t f b;
#X obj 631 586 f;
#X obj 613 103 vsl 15 300 0 127 0 0 empty empty empty 0 -9 0 10 -1
-262144 -1 17652 1;
#X obj 629 103 vsl 15 300 0 127 0 0 empty empty empty 0 -9 0 10 -1
-262144 -1 22012 1;
#X obj 611 414 t f b;
#X obj 636 435 f;
#X obj 633 466 t f b;
#X obj 658 487 f;
#X obj 645 103 vsl 15 300 0 127 0 0 empty empty empty 0 -9 0 10 -1
-262144 -1 17881 1;
#X obj 661 103 vsl 15 300 0 127 0 0 empty empty empty 0 -9 0 10 -1
-262144 -1 23383 1;
#X obj 648 513 t f b;
#X obj 673 534 f;
#X obj 670 565 t f b;
#X obj 695 586 f;
#X obj 677 103 vsl 15 300 0 127 0 0 empty empty empty 0 -9 0 10 -1
-262144 -1 20237 1;
#X obj 693 103 vsl 15 300 0 127 0 0 empty empty empty 0 -9 0 10 -1
-262144 -1 16433 1;
#X obj 675 414 t f b;
#X obj 700 435 f;
#X obj 697 466 t f b;
#X obj 722 487 f;
#X obj 709 103 vsl 15 300 0 127 0 0 empty empty empty 0 -9 0 10 -1
-262144 -1 20482 1;
#X obj 725 103 vsl 15 300 0 127 0 0 empty empty empty 0 -9 0 10 -1
-262144 -1 23024 1;
#X obj 712 513 t f b;
#X obj 737 534 f;
#X obj 734 565 t f b;
#X obj 759 586 f;
#X obj 741 103 vsl 15 300 0 127 0 0 empty empty empty 0 -9 0 10 -1
-262144 -1 17755 1;
#X obj 757 103 vsl 15 300 0 127 0 0 empty empty empty 0 -9 0 10 -1
-262144 -1 24614 1;
#X obj 739 414 t f b;
#X obj 764 435 f;
#X obj 761 466 t f b;
#X obj 786 487 f;
#X obj 773 103 vsl 15 300 0 127 0 0 empty empty empty 0 -9 0 10 -1
-262144 -1 20626 1;
#X obj 789 103 vsl 15 300 0 127 0 0 empty empty empty 0 -9 0 10 -1
-262144 -1 16867 1;
#X obj 776 513 t f b;
#X obj 801 534 f;
#X obj 798 565 t f b;
#X obj 823 586 f;
#X obj 805 103 vsl 15 300 0 127 0 0 empty empty empty 0 -9 0 10 -1
-262144 -1 17732 1;
#X obj 821 103 vsl 15 300 0 127 0 0 empty empty empty 0 -9 0 10 -1
-262144 -1 13329 1;
#X obj 803 414 t f b;
#X obj 828 435 f;
#X obj 825 466 t f b;
#X obj 850 487 f;
#X obj 837 103 vsl 15 300 0 127 0 0 empty empty empty 0 -9 0 10 -1
-262144 -1 19059 1;
#X obj 853 103 vsl 15 300 0 127 0 0 empty empty empty 0 -9 0 10 -1
-262144 -1 16610 1;
#X obj 840 513 t f b;
#X obj 865 534 f;
#X obj 862 565 t f b;
#X obj 887 586 f;
#X obj 869 103 vsl 15 300 0 127 0 0 empty empty empty 0 -9 0 10 -1
-262144 -1 17926 1;
#X obj 885 103 vsl 15 300 0 127 0 0 empty empty empty 0 -9 0 10 -1
-262144 -1 22610 1;
#X obj 867 414 t f b;
#X obj 892 435 f;
#X obj 889 466 t f b;
#X obj 914 487 f;
#X obj 901 103 vsl 15 300 0 127 0 0 empty empty empty 0 -9 0 10 -1
-262144 -1 18405 1;
#X obj 917 103 vsl 15 300 0 127 0 0 empty empty empty 0 -9 0 10 -1
-262144 -1 21683 1;
#X obj 904 513 t f b;
#X obj 929 534 f;
#X obj 926 565 t f b;
#X obj 951 586 f;
#X obj 933 103 vsl 15 300 0 127 0 0 empty empty empty 0 -9 0 10 -1
-262144 -1 27591 1;
#X obj 949 103 vsl 15 300 0 127 0 0 empty empty empty 0 -9 0 10 -1
-262144 -1 24343 1;
#X obj 931 414 t f b;
#X obj 956 435 f;
#X obj 953 466 t f b;
#X obj 978 487 f;
#X obj 965 103 vsl 15 300 0 127 0 0 empty empty empty 0 -9 0 10 -1
-262144 -1 25919 1;
#X obj 981 103 vsl 15 300 0 127 0 0 empty empty empty 0 -9 0 10 -1
-262144 -1 27741 1;
#X obj 968 513 t f b;
#X obj 993 534 f;
#X obj 990 565 t f b;
#X obj 1015 586 f;
#X obj 997 103 vsl 15 300 0 127 0 0 empty empty empty 0 -9 0 10 -1
-262144 -1 23708 1;
#X obj 1013 103 vsl 15 300 0 127 0 0 empty empty empty 0 -9 0 10 -1
-262144 -1 20052 1;
#X obj 995 414 t f b;
#X obj 1020 435 f;
#X obj 1017 466 t f b;
#X obj 1042 487 f;
#X obj 1029 103 vsl 15 300 0 127 0 0 empty empty empty 0 -9 0 10 -1
-262144 -1 22229 1;
#X obj 1032 513 t f b;
#X obj 1057 534 f;
#X obj 101 71 r graph2;
#X connect 0 0 2 0;
#X connect 1 0 4 0;
#X connect 2 0 3 1;
#X connect 2 1 3 0;
#X connect 3 0 1 0;
#X connect 4 0 5 1;
#X connect 4 1 5 0;
#X connect 5 0 6 0;
#X connect 6 0 8 0;
#X connect 7 0 10 0;
#X connect 8 0 9 1;
#X connect 8 1 9 0;
#X connect 9 0 7 0;
#X connect 10 0 11 1;
#X connect 10 1 11 0;
#X connect 11 0 12 0;
#X connect 12 0 14 0;
#X connect 13 0 16 0;
#X connect 14 0 15 1;
#X connect 14 1 15 0;
#X connect 15 0 13 0;
#X connect 16 0 17 1;
#X connect 16 1 17 0;
#X connect 17 0 18 0;
#X connect 18 0 20 0;
#X connect 19 0 22 0;
#X connect 20 0 21 1;
#X connect 20 1 21 0;
#X connect 21 0 19 0;
#X connect 22 0 23 1;
#X connect 22 1 23 0;
#X connect 23 0 24 0;
#X connect 24 0 26 0;
#X connect 25 0 28 0;
#X connect 26 0 27 1;
#X connect 26 1 27 0;
#X connect 27 0 25 0;
#X connect 28 0 29 1;
#X connect 28 1 29 0;
#X connect 29 0 30 0;
#X connect 30 0 32 0;
#X connect 31 0 34 0;
#X connect 32 0 33 1;
#X connect 32 1 33 0;
#X connect 33 0 31 0;
#X connect 34 0 35 1;
#X connect 34 1 35 0;
#X connect 35 0 36 0;
#X connect 36 0 38 0;
#X connect 37 0 40 0;
#X connect 38 0 39 1;
#X connect 38 1 39 0;
#X connect 39 0 37 0;
#X connect 40 0 41 1;
#X connect 40 1 41 0;
#X connect 41 0 42 0;
#X connect 42 0 44 0;
#X connect 43 0 46 0;
#X connect 44 0 45 1;
#X connect 44 1 45 0;
#X connect 45 0 43 0;
#X connect 46 0 47 1;
#X connect 46 1 47 0;
#X connect 47 0 48 0;
#X connect 48 0 50 0;
#X connect 49 0 52 0;
#X connect 50 0 51 1;
#X connect 50 1 51 0;
#X connect 51 0 49 0;
#X connect 52 0 53 1;
#X connect 52 1 53 0;
#X connect 53 0 54 0;
#X connect 54 0 56 0;
#X connect 55 0 58 0;
#X connect 56 0 57 1;
#X connect 56 1 57 0;
#X connect 57 0 55 0;
#X connect 58 0 59 1;
#X connect 58 1 59 0;
#X connect 59 0 60 0;
#X connect 60 0 62 0;
#X connect 61 0 64 0;
#X connect 62 0 63 1;
#X connect 62 1 63 0;
#X connect 63 0 61 0;
#X connect 64 0 65 1;
#X connect 64 1 65 0;
#X connect 65 0 66 0;
#X connect 66 0 68 0;
#X connect 67 0 70 0;
#X connect 68 0 69 1;
#X connect 68 1 69 0;
#X connect 69 0 67 0;
#X connect 70 0 71 1;
#X connect 70 1 71 0;
#X connect 71 0 72 0;
#X connect 72 0 74 0;
#X connect 73 0 76 0;
#X connect 74 0 75 1;
#X connect 74 1 75 0;
#X connect 75 0 73 0;
#X connect 76 0 77 1;
#X connect 76 1 77 0;
#X connect 77 0 78 0;
#X connect 78 0 80 0;
#X connect 79 0 82 0;
#X connect 80 0 81 1;
#X connect 80 1 81 0;
#X connect 81 0 79 0;
#X connect 82 0 83 1;
#X connect 82 1 83 0;
#X connect 83 0 84 0;
#X connect 84 0 86 0;
#X connect 85 0 88 0;
#X connect 86 0 87 1;
#X connect 86 1 87 0;
#X connect 87 0 85 0;
#X connect 88 0 89 1;
#X connect 88 1 89 0;
#X connect 89 0 90 0;
#X connect 90 0 92 0;
#X connect 91 0 94 0;
#X connect 92 0 93 1;
#X connect 92 1 93 0;
#X connect 93 0 91 0;
#X connect 94 0 95 1;
#X connect 94 1 95 0;
#X connect 95 0 96 0;
#X connect 96 0 98 0;
#X connect 97 0 100 0;
#X connect 98 0 99 1;
#X connect 98 1 99 0;
#X connect 99 0 97 0;
#X connect 100 0 101 1;
#X connect 100 1 101 0;
#X connect 101 0 102 0;
#X connect 102 0 104 0;
#X connect 103 0 106 0;
#X connect 104 0 105 1;
#X connect 104 1 105 0;
#X connect 105 0 103 0;
#X connect 106 0 107 1;
#X connect 106 1 107 0;
#X connect 107 0 108 0;
#X connect 108 0 110 0;
#X connect 109 0 112 0;
#X connect 110 0 111 1;
#X connect 110 1 111 0;
#X connect 111 0 109 0;
#X connect 112 0 113 1;
#X connect 112 1 113 0;
#X connect 113 0 114 0;
#X connect 114 0 116 0;
#X connect 115 0 118 0;
#X connect 116 0 117 1;
#X connect 116 1 117 0;
#X connect 117 0 115 0;
#X connect 118 0 119 1;
#X connect 118 1 119 0;
#X connect 119 0 120 0;
#X connect 120 0 122 0;
#X connect 121 0 124 0;
#X connect 122 0 123 1;
#X connect 122 1 123 0;
#X connect 123 0 121 0;
#X connect 124 0 125 1;
#X connect 124 1 125 0;
#X connect 125 0 126 0;
#X connect 126 0 128 0;
#X connect 127 0 130 0;
#X connect 128 0 129 1;
#X connect 128 1 129 0;
#X connect 129 0 127 0;
#X connect 130 0 131 1;
#X connect 130 1 131 0;
#X connect 131 0 132 0;
#X connect 132 0 134 0;
#X connect 133 0 136 0;
#X connect 134 0 135 1;
#X connect 134 1 135 0;
#X connect 135 0 133 0;
#X connect 136 0 137 1;
#X connect 136 1 137 0;
#X connect 137 0 138 0;
#X connect 138 0 140 0;
#X connect 139 0 142 0;
#X connect 140 0 141 1;
#X connect 140 1 141 0;
#X connect 141 0 139 0;
#X connect 142 0 143 1;
#X connect 142 1 143 0;
#X connect 143 0 144 0;
#X connect 144 0 146 0;
#X connect 145 0 148 0;
#X connect 146 0 147 1;
#X connect 146 1 147 0;
#X connect 147 0 145 0;
#X connect 148 0 149 1;
#X connect 148 1 149 0;
#X connect 149 0 150 0;
#X connect 150 0 152 0;
#X connect 151 0 154 0;
#X connect 152 0 153 1;
#X connect 152 1 153 0;
#X connect 153 0 151 0;
#X connect 154 0 155 1;
#X connect 154 1 155 0;
#X connect 155 0 156 0;
#X connect 156 0 158 0;
#X connect 157 0 160 0;
#X connect 158 0 159 1;
#X connect 158 1 159 0;
#X connect 159 0 157 0;
#X connect 160 0 161 1;
#X connect 160 1 161 0;
#X connect 161 0 162 0;
#X connect 162 0 164 0;
#X connect 163 0 166 0;
#X connect 164 0 165 1;
#X connect 164 1 165 0;
#X connect 165 0 163 0;
#X connect 166 0 167 1;
#X connect 166 1 167 0;
#X connect 167 0 168 0;
#X connect 168 0 170 0;
#X connect 169 0 172 0;
#X connect 170 0 171 1;
#X connect 170 1 171 0;
#X connect 171 0 169 0;
#X connect 172 0 173 1;
#X connect 172 1 173 0;
#X connect 173 0 174 0;
#X connect 174 0 175 0;
#X connect 175 0 176 1;
#X connect 175 1 176 0;
#X connect 177 0 0 0;
#X coords 0 -1 1 1 945 306 1 100 100;
#X restore 12 321 pd graph1;
